M48
; DRILL file {KiCad (6.0.11)} date Thu Jun  8 13:51:33 2023
; FORMAT={-:-/ absolute / inch / decimal}
; #@! TF.CreationDate,2023-06-08T13:51:33-05:00
; #@! TF.GenerationSoftware,Kicad,Pcbnew,(6.0.11)
; #@! TF.FileFunction,Plated,1,2,PTH
FMAT,2
INCH
; #@! TA.AperFunction,Plated,PTH,ViaDrill
T1C0.0157
; #@! TA.AperFunction,Plated,PTH,ComponentDrill
T2C0.0315
; #@! TA.AperFunction,Plated,PTH,ComponentDrill
T3C0.0354
; #@! TA.AperFunction,Plated,PTH,ComponentDrill
T4C0.0394
; #@! TA.AperFunction,Plated,PTH,ComponentDrill
T5C0.0512
%
G90
G05
T1
X1.1709Y-3.5093
X1.2072Y-1.9485
X1.75Y-2.145
X1.8028Y-3.1402
X2.2638Y-2.5984
X2.2638Y-2.63
X2.2638Y-2.6772
X2.2835Y-2.7559
X2.3569Y-3.5381
X2.3964Y-3.5381
X2.5113Y-3.57
X2.64Y-1.25
X2.7953Y-2.5197
X2.8868Y-2.5069
X2.9331Y-2.5069
X2.955Y-1.97
X3.0713Y-3.7
X3.5113Y-2.49
X3.56Y-1.965
X3.5913Y-3.29
X3.6613Y-2.5
X3.6994Y-3.42
X3.7008Y-2.5
X3.7013Y-3.54
X3.83Y-1.98
X4.21Y-4.09
X4.2323Y-2.9528
X4.2728Y-1.193
X4.7283Y-3.5384
X4.7441Y-2.0472
X4.7841Y-3.1275
T2
X1.9646Y-4.2047
X1.9646Y-4.5047
X2.3413Y-3.7
X2.3413Y-4.0
X2.5513Y-4.1
X2.8513Y-4.1
X2.9913Y-3.76
X2.9913Y-4.06
X3.0113Y-4.18
X3.0113Y-4.48
X4.3858Y-4.2
X4.3858Y-4.5
T3
X1.1372Y-4.3081
X1.1594Y-2.4429
X1.2372Y-4.3081
X1.2594Y-2.4429
X1.7307Y-2.5787
X1.7449Y-3.9807
X1.8307Y-2.5787
X1.8449Y-3.9807
X2.1339Y-1.1283
X2.1339Y-1.2283
X2.2513Y-3.23
X2.3513Y-3.23
X2.53Y-1.9
X2.53Y-2.0
X2.6073Y-3.5152
X2.6073Y-3.6152
X2.7165Y-2.4606
X2.7165Y-2.5606
X3.3913Y-3.6524
X3.3913Y-3.7524
X3.4252Y-2.45
X3.4252Y-2.55
X3.46Y-1.9
X3.46Y-2.0
X3.6713Y-3.1835
X3.7713Y-3.1835
X3.8153Y-1.1467
X3.8153Y-1.2467
X4.1652Y-3.6765
X4.1709Y-2.87
X4.2652Y-3.6765
X4.2709Y-2.87
X4.6977Y-2.6246
X4.711Y-3.9843
X4.7977Y-2.6246
X4.811Y-3.9843
T5
X2.2113Y-4.82
X2.4113Y-4.82
X3.5813Y-4.81
X3.7813Y-4.81
T4
G00X2.6919Y-4.61
M15
G01X2.7706Y-4.61
M16
G05
G00X2.6919Y-4.8462
M15
G01X2.7706Y-4.8462
M16
G05
G00X2.9163Y-4.7675
M15
G01X2.9163Y-4.6887
M16
G05
G00X3.0862Y-4.7655
M15
G01X3.0862Y-4.6867
M16
G05
G00X3.2319Y-4.608
M15
G01X3.3106Y-4.608
M16
G05
G00X3.2319Y-4.8442
M15
G01X3.3106Y-4.8442
M16
G05
T0
M30
