%TF.GenerationSoftware,KiCad,Pcbnew,(6.0.11)*%
%TF.CreationDate,2023-05-28T11:24:04-05:00*%
%TF.ProjectId,LEDpanel,4c454470-616e-4656-9c2e-6b696361645f,rev?*%
%TF.SameCoordinates,Original*%
%TF.FileFunction,Legend,Top*%
%TF.FilePolarity,Positive*%
%FSLAX46Y46*%
G04 Gerber Fmt 4.6, Leading zero omitted, Abs format (unit mm)*
G04 Created by KiCad (PCBNEW (6.0.11)) date 2023-05-28 11:24:04*
%MOMM*%
%LPD*%
G01*
G04 APERTURE LIST*
%ADD10C,0.150000*%
%ADD11C,0.120000*%
G04 APERTURE END LIST*
D10*
X37500000Y-123930000D02*
X37500000Y-40000000D01*
X56500000Y-60000000D02*
X100000000Y-60000000D01*
X100000000Y-60000000D02*
X100000000Y-125000000D01*
X112500000Y-40000000D02*
X112500000Y-124460000D01*
X120000000Y-120000000D02*
X100000000Y-120000000D01*
X37500000Y-40000000D02*
X112500000Y-40000000D01*
X56500000Y-125000000D02*
X56500000Y-60000000D01*
X91033809Y-115354761D02*
X91176666Y-115402380D01*
X91414761Y-115402380D01*
X91510000Y-115354761D01*
X91557619Y-115307142D01*
X91605238Y-115211904D01*
X91605238Y-115116666D01*
X91557619Y-115021428D01*
X91510000Y-114973809D01*
X91414761Y-114926190D01*
X91224285Y-114878571D01*
X91129047Y-114830952D01*
X91081428Y-114783333D01*
X91033809Y-114688095D01*
X91033809Y-114592857D01*
X91081428Y-114497619D01*
X91129047Y-114450000D01*
X91224285Y-114402380D01*
X91462380Y-114402380D01*
X91605238Y-114450000D01*
X91938571Y-114402380D02*
X92176666Y-115402380D01*
X92367142Y-114688095D01*
X92557619Y-115402380D01*
X92795714Y-114402380D01*
X93176666Y-115021428D02*
X93938571Y-115021428D01*
X53158095Y-114500000D02*
X53062857Y-114452380D01*
X52920000Y-114452380D01*
X52777142Y-114500000D01*
X52681904Y-114595238D01*
X52634285Y-114690476D01*
X52586666Y-114880952D01*
X52586666Y-115023809D01*
X52634285Y-115214285D01*
X52681904Y-115309523D01*
X52777142Y-115404761D01*
X52920000Y-115452380D01*
X53015238Y-115452380D01*
X53158095Y-115404761D01*
X53205714Y-115357142D01*
X53205714Y-115023809D01*
X53015238Y-115023809D01*
X53634285Y-115452380D02*
X53634285Y-114452380D01*
X54205714Y-115452380D01*
X54205714Y-114452380D01*
X54681904Y-115452380D02*
X54681904Y-114452380D01*
X54920000Y-114452380D01*
X55062857Y-114500000D01*
X55158095Y-114595238D01*
X55205714Y-114690476D01*
X55253333Y-114880952D01*
X55253333Y-115023809D01*
X55205714Y-115214285D01*
X55158095Y-115309523D01*
X55062857Y-115404761D01*
X54920000Y-115452380D01*
X54681904Y-115452380D01*
X45241428Y-115284761D02*
X45384285Y-115332380D01*
X45622380Y-115332380D01*
X45717619Y-115284761D01*
X45765238Y-115237142D01*
X45812857Y-115141904D01*
X45812857Y-115046666D01*
X45765238Y-114951428D01*
X45717619Y-114903809D01*
X45622380Y-114856190D01*
X45431904Y-114808571D01*
X45336666Y-114760952D01*
X45289047Y-114713333D01*
X45241428Y-114618095D01*
X45241428Y-114522857D01*
X45289047Y-114427619D01*
X45336666Y-114380000D01*
X45431904Y-114332380D01*
X45670000Y-114332380D01*
X45812857Y-114380000D01*
X46146190Y-114332380D02*
X46384285Y-115332380D01*
X46574761Y-114618095D01*
X46765238Y-115332380D01*
X47003333Y-114332380D01*
X47384285Y-115332380D02*
X47384285Y-114332380D01*
X47765238Y-114332380D01*
X47860476Y-114380000D01*
X47908095Y-114427619D01*
X47955714Y-114522857D01*
X47955714Y-114665714D01*
X47908095Y-114760952D01*
X47860476Y-114808571D01*
X47765238Y-114856190D01*
X47384285Y-114856190D01*
X48289047Y-114332380D02*
X48527142Y-115332380D01*
X48717619Y-114618095D01*
X48908095Y-115332380D01*
X49146190Y-114332380D01*
X50098571Y-115332380D02*
X49765238Y-114856190D01*
X49527142Y-115332380D02*
X49527142Y-114332380D01*
X49908095Y-114332380D01*
X50003333Y-114380000D01*
X50050952Y-114427619D01*
X50098571Y-114522857D01*
X50098571Y-114665714D01*
X50050952Y-114760952D01*
X50003333Y-114808571D01*
X49908095Y-114856190D01*
X49527142Y-114856190D01*
X83993809Y-115324761D02*
X84136666Y-115372380D01*
X84374761Y-115372380D01*
X84470000Y-115324761D01*
X84517619Y-115277142D01*
X84565238Y-115181904D01*
X84565238Y-115086666D01*
X84517619Y-114991428D01*
X84470000Y-114943809D01*
X84374761Y-114896190D01*
X84184285Y-114848571D01*
X84089047Y-114800952D01*
X84041428Y-114753333D01*
X83993809Y-114658095D01*
X83993809Y-114562857D01*
X84041428Y-114467619D01*
X84089047Y-114420000D01*
X84184285Y-114372380D01*
X84422380Y-114372380D01*
X84565238Y-114420000D01*
X84898571Y-114372380D02*
X85136666Y-115372380D01*
X85327142Y-114658095D01*
X85517619Y-115372380D01*
X85755714Y-114372380D01*
X86136666Y-114991428D02*
X86898571Y-114991428D01*
X86517619Y-115372380D02*
X86517619Y-114610476D01*
%TO.C,U2*%
X63777380Y-99711904D02*
X64586904Y-99711904D01*
X64682142Y-99664285D01*
X64729761Y-99616666D01*
X64777380Y-99521428D01*
X64777380Y-99330952D01*
X64729761Y-99235714D01*
X64682142Y-99188095D01*
X64586904Y-99140476D01*
X63777380Y-99140476D01*
X63872619Y-98711904D02*
X63825000Y-98664285D01*
X63777380Y-98569047D01*
X63777380Y-98330952D01*
X63825000Y-98235714D01*
X63872619Y-98188095D01*
X63967857Y-98140476D01*
X64063095Y-98140476D01*
X64205952Y-98188095D01*
X64777380Y-98759523D01*
X64777380Y-98140476D01*
%TO.C,D63*%
X47498380Y-85796285D02*
X46498380Y-85796285D01*
X46498380Y-85558190D01*
X46546000Y-85415333D01*
X46641238Y-85320095D01*
X46736476Y-85272476D01*
X46926952Y-85224857D01*
X47069809Y-85224857D01*
X47260285Y-85272476D01*
X47355523Y-85320095D01*
X47450761Y-85415333D01*
X47498380Y-85558190D01*
X47498380Y-85796285D01*
X46498380Y-84367714D02*
X46498380Y-84558190D01*
X46546000Y-84653428D01*
X46593619Y-84701047D01*
X46736476Y-84796285D01*
X46926952Y-84843904D01*
X47307904Y-84843904D01*
X47403142Y-84796285D01*
X47450761Y-84748666D01*
X47498380Y-84653428D01*
X47498380Y-84462952D01*
X47450761Y-84367714D01*
X47403142Y-84320095D01*
X47307904Y-84272476D01*
X47069809Y-84272476D01*
X46974571Y-84320095D01*
X46926952Y-84367714D01*
X46879333Y-84462952D01*
X46879333Y-84653428D01*
X46926952Y-84748666D01*
X46974571Y-84796285D01*
X47069809Y-84843904D01*
X46498380Y-83939142D02*
X46498380Y-83320095D01*
X46879333Y-83653428D01*
X46879333Y-83510571D01*
X46926952Y-83415333D01*
X46974571Y-83367714D01*
X47069809Y-83320095D01*
X47307904Y-83320095D01*
X47403142Y-83367714D01*
X47450761Y-83415333D01*
X47498380Y-83510571D01*
X47498380Y-83796285D01*
X47450761Y-83891523D01*
X47403142Y-83939142D01*
%TO.C,D18*%
X51692380Y-31144285D02*
X50692380Y-31144285D01*
X50692380Y-30906190D01*
X50740000Y-30763333D01*
X50835238Y-30668095D01*
X50930476Y-30620476D01*
X51120952Y-30572857D01*
X51263809Y-30572857D01*
X51454285Y-30620476D01*
X51549523Y-30668095D01*
X51644761Y-30763333D01*
X51692380Y-30906190D01*
X51692380Y-31144285D01*
X51692380Y-29620476D02*
X51692380Y-30191904D01*
X51692380Y-29906190D02*
X50692380Y-29906190D01*
X50835238Y-30001428D01*
X50930476Y-30096666D01*
X50978095Y-30191904D01*
X51120952Y-29049047D02*
X51073333Y-29144285D01*
X51025714Y-29191904D01*
X50930476Y-29239523D01*
X50882857Y-29239523D01*
X50787619Y-29191904D01*
X50740000Y-29144285D01*
X50692380Y-29049047D01*
X50692380Y-28858571D01*
X50740000Y-28763333D01*
X50787619Y-28715714D01*
X50882857Y-28668095D01*
X50930476Y-28668095D01*
X51025714Y-28715714D01*
X51073333Y-28763333D01*
X51120952Y-28858571D01*
X51120952Y-29049047D01*
X51168571Y-29144285D01*
X51216190Y-29191904D01*
X51311428Y-29239523D01*
X51501904Y-29239523D01*
X51597142Y-29191904D01*
X51644761Y-29144285D01*
X51692380Y-29049047D01*
X51692380Y-28858571D01*
X51644761Y-28763333D01*
X51597142Y-28715714D01*
X51501904Y-28668095D01*
X51311428Y-28668095D01*
X51216190Y-28715714D01*
X51168571Y-28763333D01*
X51120952Y-28858571D01*
%TO.C,D32*%
X31785714Y-106802380D02*
X31785714Y-105802380D01*
X32023809Y-105802380D01*
X32166666Y-105850000D01*
X32261904Y-105945238D01*
X32309523Y-106040476D01*
X32357142Y-106230952D01*
X32357142Y-106373809D01*
X32309523Y-106564285D01*
X32261904Y-106659523D01*
X32166666Y-106754761D01*
X32023809Y-106802380D01*
X31785714Y-106802380D01*
X32690476Y-105802380D02*
X33309523Y-105802380D01*
X32976190Y-106183333D01*
X33119047Y-106183333D01*
X33214285Y-106230952D01*
X33261904Y-106278571D01*
X33309523Y-106373809D01*
X33309523Y-106611904D01*
X33261904Y-106707142D01*
X33214285Y-106754761D01*
X33119047Y-106802380D01*
X32833333Y-106802380D01*
X32738095Y-106754761D01*
X32690476Y-106707142D01*
X33690476Y-105897619D02*
X33738095Y-105850000D01*
X33833333Y-105802380D01*
X34071428Y-105802380D01*
X34166666Y-105850000D01*
X34214285Y-105897619D01*
X34261904Y-105992857D01*
X34261904Y-106088095D01*
X34214285Y-106230952D01*
X33642857Y-106802380D01*
X34261904Y-106802380D01*
%TO.C,D65*%
X84891714Y-67706380D02*
X84891714Y-66706380D01*
X85129809Y-66706380D01*
X85272666Y-66754000D01*
X85367904Y-66849238D01*
X85415523Y-66944476D01*
X85463142Y-67134952D01*
X85463142Y-67277809D01*
X85415523Y-67468285D01*
X85367904Y-67563523D01*
X85272666Y-67658761D01*
X85129809Y-67706380D01*
X84891714Y-67706380D01*
X86320285Y-66706380D02*
X86129809Y-66706380D01*
X86034571Y-66754000D01*
X85986952Y-66801619D01*
X85891714Y-66944476D01*
X85844095Y-67134952D01*
X85844095Y-67515904D01*
X85891714Y-67611142D01*
X85939333Y-67658761D01*
X86034571Y-67706380D01*
X86225047Y-67706380D01*
X86320285Y-67658761D01*
X86367904Y-67611142D01*
X86415523Y-67515904D01*
X86415523Y-67277809D01*
X86367904Y-67182571D01*
X86320285Y-67134952D01*
X86225047Y-67087333D01*
X86034571Y-67087333D01*
X85939333Y-67134952D01*
X85891714Y-67182571D01*
X85844095Y-67277809D01*
X87320285Y-66706380D02*
X86844095Y-66706380D01*
X86796476Y-67182571D01*
X86844095Y-67134952D01*
X86939333Y-67087333D01*
X87177428Y-67087333D01*
X87272666Y-67134952D01*
X87320285Y-67182571D01*
X87367904Y-67277809D01*
X87367904Y-67515904D01*
X87320285Y-67611142D01*
X87272666Y-67658761D01*
X87177428Y-67706380D01*
X86939333Y-67706380D01*
X86844095Y-67658761D01*
X86796476Y-67611142D01*
%TO.C,D3*%
X118326904Y-106412380D02*
X118326904Y-105412380D01*
X118565000Y-105412380D01*
X118707857Y-105460000D01*
X118803095Y-105555238D01*
X118850714Y-105650476D01*
X118898333Y-105840952D01*
X118898333Y-105983809D01*
X118850714Y-106174285D01*
X118803095Y-106269523D01*
X118707857Y-106364761D01*
X118565000Y-106412380D01*
X118326904Y-106412380D01*
X119231666Y-105412380D02*
X119850714Y-105412380D01*
X119517380Y-105793333D01*
X119660238Y-105793333D01*
X119755476Y-105840952D01*
X119803095Y-105888571D01*
X119850714Y-105983809D01*
X119850714Y-106221904D01*
X119803095Y-106317142D01*
X119755476Y-106364761D01*
X119660238Y-106412380D01*
X119374523Y-106412380D01*
X119279285Y-106364761D01*
X119231666Y-106317142D01*
%TO.C,D29*%
X79572380Y-76271285D02*
X78572380Y-76271285D01*
X78572380Y-76033190D01*
X78620000Y-75890333D01*
X78715238Y-75795095D01*
X78810476Y-75747476D01*
X79000952Y-75699857D01*
X79143809Y-75699857D01*
X79334285Y-75747476D01*
X79429523Y-75795095D01*
X79524761Y-75890333D01*
X79572380Y-76033190D01*
X79572380Y-76271285D01*
X78667619Y-75318904D02*
X78620000Y-75271285D01*
X78572380Y-75176047D01*
X78572380Y-74937952D01*
X78620000Y-74842714D01*
X78667619Y-74795095D01*
X78762857Y-74747476D01*
X78858095Y-74747476D01*
X79000952Y-74795095D01*
X79572380Y-75366523D01*
X79572380Y-74747476D01*
X79572380Y-74271285D02*
X79572380Y-74080809D01*
X79524761Y-73985571D01*
X79477142Y-73937952D01*
X79334285Y-73842714D01*
X79143809Y-73795095D01*
X78762857Y-73795095D01*
X78667619Y-73842714D01*
X78620000Y-73890333D01*
X78572380Y-73985571D01*
X78572380Y-74176047D01*
X78620000Y-74271285D01*
X78667619Y-74318904D01*
X78762857Y-74366523D01*
X79000952Y-74366523D01*
X79096190Y-74318904D01*
X79143809Y-74271285D01*
X79191428Y-74176047D01*
X79191428Y-73985571D01*
X79143809Y-73890333D01*
X79096190Y-73842714D01*
X79000952Y-73795095D01*
%TO.C,D58*%
X69905714Y-53736380D02*
X69905714Y-52736380D01*
X70143809Y-52736380D01*
X70286666Y-52784000D01*
X70381904Y-52879238D01*
X70429523Y-52974476D01*
X70477142Y-53164952D01*
X70477142Y-53307809D01*
X70429523Y-53498285D01*
X70381904Y-53593523D01*
X70286666Y-53688761D01*
X70143809Y-53736380D01*
X69905714Y-53736380D01*
X71381904Y-52736380D02*
X70905714Y-52736380D01*
X70858095Y-53212571D01*
X70905714Y-53164952D01*
X71000952Y-53117333D01*
X71239047Y-53117333D01*
X71334285Y-53164952D01*
X71381904Y-53212571D01*
X71429523Y-53307809D01*
X71429523Y-53545904D01*
X71381904Y-53641142D01*
X71334285Y-53688761D01*
X71239047Y-53736380D01*
X71000952Y-53736380D01*
X70905714Y-53688761D01*
X70858095Y-53641142D01*
X72000952Y-53164952D02*
X71905714Y-53117333D01*
X71858095Y-53069714D01*
X71810476Y-52974476D01*
X71810476Y-52926857D01*
X71858095Y-52831619D01*
X71905714Y-52784000D01*
X72000952Y-52736380D01*
X72191428Y-52736380D01*
X72286666Y-52784000D01*
X72334285Y-52831619D01*
X72381904Y-52926857D01*
X72381904Y-52974476D01*
X72334285Y-53069714D01*
X72286666Y-53117333D01*
X72191428Y-53164952D01*
X72000952Y-53164952D01*
X71905714Y-53212571D01*
X71858095Y-53260190D01*
X71810476Y-53355428D01*
X71810476Y-53545904D01*
X71858095Y-53641142D01*
X71905714Y-53688761D01*
X72000952Y-53736380D01*
X72191428Y-53736380D01*
X72286666Y-53688761D01*
X72334285Y-53641142D01*
X72381904Y-53545904D01*
X72381904Y-53355428D01*
X72334285Y-53260190D01*
X72286666Y-53212571D01*
X72191428Y-53164952D01*
%TO.C,D49*%
X86852380Y-34014285D02*
X85852380Y-34014285D01*
X85852380Y-33776190D01*
X85900000Y-33633333D01*
X85995238Y-33538095D01*
X86090476Y-33490476D01*
X86280952Y-33442857D01*
X86423809Y-33442857D01*
X86614285Y-33490476D01*
X86709523Y-33538095D01*
X86804761Y-33633333D01*
X86852380Y-33776190D01*
X86852380Y-34014285D01*
X86185714Y-32585714D02*
X86852380Y-32585714D01*
X85804761Y-32823809D02*
X86519047Y-33061904D01*
X86519047Y-32442857D01*
X86852380Y-32014285D02*
X86852380Y-31823809D01*
X86804761Y-31728571D01*
X86757142Y-31680952D01*
X86614285Y-31585714D01*
X86423809Y-31538095D01*
X86042857Y-31538095D01*
X85947619Y-31585714D01*
X85900000Y-31633333D01*
X85852380Y-31728571D01*
X85852380Y-31919047D01*
X85900000Y-32014285D01*
X85947619Y-32061904D01*
X86042857Y-32109523D01*
X86280952Y-32109523D01*
X86376190Y-32061904D01*
X86423809Y-32014285D01*
X86471428Y-31919047D01*
X86471428Y-31728571D01*
X86423809Y-31633333D01*
X86376190Y-31585714D01*
X86280952Y-31538095D01*
%TO.C,D9*%
X102385904Y-97392380D02*
X102385904Y-96392380D01*
X102624000Y-96392380D01*
X102766857Y-96440000D01*
X102862095Y-96535238D01*
X102909714Y-96630476D01*
X102957333Y-96820952D01*
X102957333Y-96963809D01*
X102909714Y-97154285D01*
X102862095Y-97249523D01*
X102766857Y-97344761D01*
X102624000Y-97392380D01*
X102385904Y-97392380D01*
X103433523Y-97392380D02*
X103624000Y-97392380D01*
X103719238Y-97344761D01*
X103766857Y-97297142D01*
X103862095Y-97154285D01*
X103909714Y-96963809D01*
X103909714Y-96582857D01*
X103862095Y-96487619D01*
X103814476Y-96440000D01*
X103719238Y-96392380D01*
X103528761Y-96392380D01*
X103433523Y-96440000D01*
X103385904Y-96487619D01*
X103338285Y-96582857D01*
X103338285Y-96820952D01*
X103385904Y-96916190D01*
X103433523Y-96963809D01*
X103528761Y-97011428D01*
X103719238Y-97011428D01*
X103814476Y-96963809D01*
X103862095Y-96916190D01*
X103909714Y-96820952D01*
%TO.C,D45*%
X60492380Y-88469285D02*
X59492380Y-88469285D01*
X59492380Y-88231190D01*
X59540000Y-88088333D01*
X59635238Y-87993095D01*
X59730476Y-87945476D01*
X59920952Y-87897857D01*
X60063809Y-87897857D01*
X60254285Y-87945476D01*
X60349523Y-87993095D01*
X60444761Y-88088333D01*
X60492380Y-88231190D01*
X60492380Y-88469285D01*
X59825714Y-87040714D02*
X60492380Y-87040714D01*
X59444761Y-87278809D02*
X60159047Y-87516904D01*
X60159047Y-86897857D01*
X59492380Y-86040714D02*
X59492380Y-86516904D01*
X59968571Y-86564523D01*
X59920952Y-86516904D01*
X59873333Y-86421666D01*
X59873333Y-86183571D01*
X59920952Y-86088333D01*
X59968571Y-86040714D01*
X60063809Y-85993095D01*
X60301904Y-85993095D01*
X60397142Y-86040714D01*
X60444761Y-86088333D01*
X60492380Y-86183571D01*
X60492380Y-86421666D01*
X60444761Y-86516904D01*
X60397142Y-86564523D01*
%TO.C,D22*%
X76792380Y-50998285D02*
X75792380Y-50998285D01*
X75792380Y-50760190D01*
X75840000Y-50617333D01*
X75935238Y-50522095D01*
X76030476Y-50474476D01*
X76220952Y-50426857D01*
X76363809Y-50426857D01*
X76554285Y-50474476D01*
X76649523Y-50522095D01*
X76744761Y-50617333D01*
X76792380Y-50760190D01*
X76792380Y-50998285D01*
X75887619Y-50045904D02*
X75840000Y-49998285D01*
X75792380Y-49903047D01*
X75792380Y-49664952D01*
X75840000Y-49569714D01*
X75887619Y-49522095D01*
X75982857Y-49474476D01*
X76078095Y-49474476D01*
X76220952Y-49522095D01*
X76792380Y-50093523D01*
X76792380Y-49474476D01*
X75887619Y-49093523D02*
X75840000Y-49045904D01*
X75792380Y-48950666D01*
X75792380Y-48712571D01*
X75840000Y-48617333D01*
X75887619Y-48569714D01*
X75982857Y-48522095D01*
X76078095Y-48522095D01*
X76220952Y-48569714D01*
X76792380Y-49141142D01*
X76792380Y-48522095D01*
%TO.C,D60*%
X109616380Y-79700285D02*
X108616380Y-79700285D01*
X108616380Y-79462190D01*
X108664000Y-79319333D01*
X108759238Y-79224095D01*
X108854476Y-79176476D01*
X109044952Y-79128857D01*
X109187809Y-79128857D01*
X109378285Y-79176476D01*
X109473523Y-79224095D01*
X109568761Y-79319333D01*
X109616380Y-79462190D01*
X109616380Y-79700285D01*
X108616380Y-78271714D02*
X108616380Y-78462190D01*
X108664000Y-78557428D01*
X108711619Y-78605047D01*
X108854476Y-78700285D01*
X109044952Y-78747904D01*
X109425904Y-78747904D01*
X109521142Y-78700285D01*
X109568761Y-78652666D01*
X109616380Y-78557428D01*
X109616380Y-78366952D01*
X109568761Y-78271714D01*
X109521142Y-78224095D01*
X109425904Y-78176476D01*
X109187809Y-78176476D01*
X109092571Y-78224095D01*
X109044952Y-78271714D01*
X108997333Y-78366952D01*
X108997333Y-78557428D01*
X109044952Y-78652666D01*
X109092571Y-78700285D01*
X109187809Y-78747904D01*
X108616380Y-77557428D02*
X108616380Y-77462190D01*
X108664000Y-77366952D01*
X108711619Y-77319333D01*
X108806857Y-77271714D01*
X108997333Y-77224095D01*
X109235428Y-77224095D01*
X109425904Y-77271714D01*
X109521142Y-77319333D01*
X109568761Y-77366952D01*
X109616380Y-77462190D01*
X109616380Y-77557428D01*
X109568761Y-77652666D01*
X109521142Y-77700285D01*
X109425904Y-77747904D01*
X109235428Y-77795523D01*
X108997333Y-77795523D01*
X108806857Y-77747904D01*
X108711619Y-77700285D01*
X108664000Y-77652666D01*
X108616380Y-77557428D01*
%TO.C,D26*%
X77032380Y-64968285D02*
X76032380Y-64968285D01*
X76032380Y-64730190D01*
X76080000Y-64587333D01*
X76175238Y-64492095D01*
X76270476Y-64444476D01*
X76460952Y-64396857D01*
X76603809Y-64396857D01*
X76794285Y-64444476D01*
X76889523Y-64492095D01*
X76984761Y-64587333D01*
X77032380Y-64730190D01*
X77032380Y-64968285D01*
X76127619Y-64015904D02*
X76080000Y-63968285D01*
X76032380Y-63873047D01*
X76032380Y-63634952D01*
X76080000Y-63539714D01*
X76127619Y-63492095D01*
X76222857Y-63444476D01*
X76318095Y-63444476D01*
X76460952Y-63492095D01*
X77032380Y-64063523D01*
X77032380Y-63444476D01*
X76032380Y-62587333D02*
X76032380Y-62777809D01*
X76080000Y-62873047D01*
X76127619Y-62920666D01*
X76270476Y-63015904D01*
X76460952Y-63063523D01*
X76841904Y-63063523D01*
X76937142Y-63015904D01*
X76984761Y-62968285D01*
X77032380Y-62873047D01*
X77032380Y-62682571D01*
X76984761Y-62587333D01*
X76937142Y-62539714D01*
X76841904Y-62492095D01*
X76603809Y-62492095D01*
X76508571Y-62539714D01*
X76460952Y-62587333D01*
X76413333Y-62682571D01*
X76413333Y-62873047D01*
X76460952Y-62968285D01*
X76508571Y-63015904D01*
X76603809Y-63063523D01*
%TO.C,D25*%
X73464380Y-64714285D02*
X72464380Y-64714285D01*
X72464380Y-64476190D01*
X72512000Y-64333333D01*
X72607238Y-64238095D01*
X72702476Y-64190476D01*
X72892952Y-64142857D01*
X73035809Y-64142857D01*
X73226285Y-64190476D01*
X73321523Y-64238095D01*
X73416761Y-64333333D01*
X73464380Y-64476190D01*
X73464380Y-64714285D01*
X72559619Y-63761904D02*
X72512000Y-63714285D01*
X72464380Y-63619047D01*
X72464380Y-63380952D01*
X72512000Y-63285714D01*
X72559619Y-63238095D01*
X72654857Y-63190476D01*
X72750095Y-63190476D01*
X72892952Y-63238095D01*
X73464380Y-63809523D01*
X73464380Y-63190476D01*
X72464380Y-62285714D02*
X72464380Y-62761904D01*
X72940571Y-62809523D01*
X72892952Y-62761904D01*
X72845333Y-62666666D01*
X72845333Y-62428571D01*
X72892952Y-62333333D01*
X72940571Y-62285714D01*
X73035809Y-62238095D01*
X73273904Y-62238095D01*
X73369142Y-62285714D01*
X73416761Y-62333333D01*
X73464380Y-62428571D01*
X73464380Y-62666666D01*
X73416761Y-62761904D01*
X73369142Y-62809523D01*
%TO.C,D35*%
X104195714Y-66874380D02*
X104195714Y-65874380D01*
X104433809Y-65874380D01*
X104576666Y-65922000D01*
X104671904Y-66017238D01*
X104719523Y-66112476D01*
X104767142Y-66302952D01*
X104767142Y-66445809D01*
X104719523Y-66636285D01*
X104671904Y-66731523D01*
X104576666Y-66826761D01*
X104433809Y-66874380D01*
X104195714Y-66874380D01*
X105100476Y-65874380D02*
X105719523Y-65874380D01*
X105386190Y-66255333D01*
X105529047Y-66255333D01*
X105624285Y-66302952D01*
X105671904Y-66350571D01*
X105719523Y-66445809D01*
X105719523Y-66683904D01*
X105671904Y-66779142D01*
X105624285Y-66826761D01*
X105529047Y-66874380D01*
X105243333Y-66874380D01*
X105148095Y-66826761D01*
X105100476Y-66779142D01*
X106624285Y-65874380D02*
X106148095Y-65874380D01*
X106100476Y-66350571D01*
X106148095Y-66302952D01*
X106243333Y-66255333D01*
X106481428Y-66255333D01*
X106576666Y-66302952D01*
X106624285Y-66350571D01*
X106671904Y-66445809D01*
X106671904Y-66683904D01*
X106624285Y-66779142D01*
X106576666Y-66826761D01*
X106481428Y-66874380D01*
X106243333Y-66874380D01*
X106148095Y-66826761D01*
X106100476Y-66779142D01*
%TO.C,U4*%
X63752380Y-91861904D02*
X64561904Y-91861904D01*
X64657142Y-91814285D01*
X64704761Y-91766666D01*
X64752380Y-91671428D01*
X64752380Y-91480952D01*
X64704761Y-91385714D01*
X64657142Y-91338095D01*
X64561904Y-91290476D01*
X63752380Y-91290476D01*
X64085714Y-90385714D02*
X64752380Y-90385714D01*
X63704761Y-90623809D02*
X64419047Y-90861904D01*
X64419047Y-90242857D01*
%TO.C,D40*%
X95305714Y-67052380D02*
X95305714Y-66052380D01*
X95543809Y-66052380D01*
X95686666Y-66100000D01*
X95781904Y-66195238D01*
X95829523Y-66290476D01*
X95877142Y-66480952D01*
X95877142Y-66623809D01*
X95829523Y-66814285D01*
X95781904Y-66909523D01*
X95686666Y-67004761D01*
X95543809Y-67052380D01*
X95305714Y-67052380D01*
X96734285Y-66385714D02*
X96734285Y-67052380D01*
X96496190Y-66004761D02*
X96258095Y-66719047D01*
X96877142Y-66719047D01*
X97448571Y-66052380D02*
X97543809Y-66052380D01*
X97639047Y-66100000D01*
X97686666Y-66147619D01*
X97734285Y-66242857D01*
X97781904Y-66433333D01*
X97781904Y-66671428D01*
X97734285Y-66861904D01*
X97686666Y-66957142D01*
X97639047Y-67004761D01*
X97543809Y-67052380D01*
X97448571Y-67052380D01*
X97353333Y-67004761D01*
X97305714Y-66957142D01*
X97258095Y-66861904D01*
X97210476Y-66671428D01*
X97210476Y-66433333D01*
X97258095Y-66242857D01*
X97305714Y-66147619D01*
X97353333Y-66100000D01*
X97448571Y-66052380D01*
%TO.C,D13*%
X90733714Y-84018380D02*
X90733714Y-83018380D01*
X90971809Y-83018380D01*
X91114666Y-83066000D01*
X91209904Y-83161238D01*
X91257523Y-83256476D01*
X91305142Y-83446952D01*
X91305142Y-83589809D01*
X91257523Y-83780285D01*
X91209904Y-83875523D01*
X91114666Y-83970761D01*
X90971809Y-84018380D01*
X90733714Y-84018380D01*
X92257523Y-84018380D02*
X91686095Y-84018380D01*
X91971809Y-84018380D02*
X91971809Y-83018380D01*
X91876571Y-83161238D01*
X91781333Y-83256476D01*
X91686095Y-83304095D01*
X92590857Y-83018380D02*
X93209904Y-83018380D01*
X92876571Y-83399333D01*
X93019428Y-83399333D01*
X93114666Y-83446952D01*
X93162285Y-83494571D01*
X93209904Y-83589809D01*
X93209904Y-83827904D01*
X93162285Y-83923142D01*
X93114666Y-83970761D01*
X93019428Y-84018380D01*
X92733714Y-84018380D01*
X92638476Y-83970761D01*
X92590857Y-83923142D01*
%TO.C,D39*%
X49515714Y-103912380D02*
X49515714Y-102912380D01*
X49753809Y-102912380D01*
X49896666Y-102960000D01*
X49991904Y-103055238D01*
X50039523Y-103150476D01*
X50087142Y-103340952D01*
X50087142Y-103483809D01*
X50039523Y-103674285D01*
X49991904Y-103769523D01*
X49896666Y-103864761D01*
X49753809Y-103912380D01*
X49515714Y-103912380D01*
X50420476Y-102912380D02*
X51039523Y-102912380D01*
X50706190Y-103293333D01*
X50849047Y-103293333D01*
X50944285Y-103340952D01*
X50991904Y-103388571D01*
X51039523Y-103483809D01*
X51039523Y-103721904D01*
X50991904Y-103817142D01*
X50944285Y-103864761D01*
X50849047Y-103912380D01*
X50563333Y-103912380D01*
X50468095Y-103864761D01*
X50420476Y-103817142D01*
X51515714Y-103912380D02*
X51706190Y-103912380D01*
X51801428Y-103864761D01*
X51849047Y-103817142D01*
X51944285Y-103674285D01*
X51991904Y-103483809D01*
X51991904Y-103102857D01*
X51944285Y-103007619D01*
X51896666Y-102960000D01*
X51801428Y-102912380D01*
X51610952Y-102912380D01*
X51515714Y-102960000D01*
X51468095Y-103007619D01*
X51420476Y-103102857D01*
X51420476Y-103340952D01*
X51468095Y-103436190D01*
X51515714Y-103483809D01*
X51610952Y-103531428D01*
X51801428Y-103531428D01*
X51896666Y-103483809D01*
X51944285Y-103436190D01*
X51991904Y-103340952D01*
%TO.C,U1*%
X80177380Y-106361904D02*
X80986904Y-106361904D01*
X81082142Y-106314285D01*
X81129761Y-106266666D01*
X81177380Y-106171428D01*
X81177380Y-105980952D01*
X81129761Y-105885714D01*
X81082142Y-105838095D01*
X80986904Y-105790476D01*
X80177380Y-105790476D01*
X81177380Y-104790476D02*
X81177380Y-105361904D01*
X81177380Y-105076190D02*
X80177380Y-105076190D01*
X80320238Y-105171428D01*
X80415476Y-105266666D01*
X80463095Y-105361904D01*
%TO.C,R3*%
X85452380Y-100666666D02*
X84976190Y-101000000D01*
X85452380Y-101238095D02*
X84452380Y-101238095D01*
X84452380Y-100857142D01*
X84500000Y-100761904D01*
X84547619Y-100714285D01*
X84642857Y-100666666D01*
X84785714Y-100666666D01*
X84880952Y-100714285D01*
X84928571Y-100761904D01*
X84976190Y-100857142D01*
X84976190Y-101238095D01*
X84452380Y-100333333D02*
X84452380Y-99714285D01*
X84833333Y-100047619D01*
X84833333Y-99904761D01*
X84880952Y-99809523D01*
X84928571Y-99761904D01*
X85023809Y-99714285D01*
X85261904Y-99714285D01*
X85357142Y-99761904D01*
X85404761Y-99809523D01*
X85452380Y-99904761D01*
X85452380Y-100190476D01*
X85404761Y-100285714D01*
X85357142Y-100333333D01*
%TO.C,D46*%
X31485714Y-75952380D02*
X31485714Y-74952380D01*
X31723809Y-74952380D01*
X31866666Y-75000000D01*
X31961904Y-75095238D01*
X32009523Y-75190476D01*
X32057142Y-75380952D01*
X32057142Y-75523809D01*
X32009523Y-75714285D01*
X31961904Y-75809523D01*
X31866666Y-75904761D01*
X31723809Y-75952380D01*
X31485714Y-75952380D01*
X32914285Y-75285714D02*
X32914285Y-75952380D01*
X32676190Y-74904761D02*
X32438095Y-75619047D01*
X33057142Y-75619047D01*
X33866666Y-74952380D02*
X33676190Y-74952380D01*
X33580952Y-75000000D01*
X33533333Y-75047619D01*
X33438095Y-75190476D01*
X33390476Y-75380952D01*
X33390476Y-75761904D01*
X33438095Y-75857142D01*
X33485714Y-75904761D01*
X33580952Y-75952380D01*
X33771428Y-75952380D01*
X33866666Y-75904761D01*
X33914285Y-75857142D01*
X33961904Y-75761904D01*
X33961904Y-75523809D01*
X33914285Y-75428571D01*
X33866666Y-75380952D01*
X33771428Y-75333333D01*
X33580952Y-75333333D01*
X33485714Y-75380952D01*
X33438095Y-75428571D01*
X33390476Y-75523809D01*
%TO.C,D37*%
X49285714Y-93852380D02*
X49285714Y-92852380D01*
X49523809Y-92852380D01*
X49666666Y-92900000D01*
X49761904Y-92995238D01*
X49809523Y-93090476D01*
X49857142Y-93280952D01*
X49857142Y-93423809D01*
X49809523Y-93614285D01*
X49761904Y-93709523D01*
X49666666Y-93804761D01*
X49523809Y-93852380D01*
X49285714Y-93852380D01*
X50190476Y-92852380D02*
X50809523Y-92852380D01*
X50476190Y-93233333D01*
X50619047Y-93233333D01*
X50714285Y-93280952D01*
X50761904Y-93328571D01*
X50809523Y-93423809D01*
X50809523Y-93661904D01*
X50761904Y-93757142D01*
X50714285Y-93804761D01*
X50619047Y-93852380D01*
X50333333Y-93852380D01*
X50238095Y-93804761D01*
X50190476Y-93757142D01*
X51142857Y-92852380D02*
X51809523Y-92852380D01*
X51380952Y-93852380D01*
%TO.C,R1*%
X85452380Y-108166666D02*
X84976190Y-108500000D01*
X85452380Y-108738095D02*
X84452380Y-108738095D01*
X84452380Y-108357142D01*
X84500000Y-108261904D01*
X84547619Y-108214285D01*
X84642857Y-108166666D01*
X84785714Y-108166666D01*
X84880952Y-108214285D01*
X84928571Y-108261904D01*
X84976190Y-108357142D01*
X84976190Y-108738095D01*
X85452380Y-107214285D02*
X85452380Y-107785714D01*
X85452380Y-107500000D02*
X84452380Y-107500000D01*
X84595238Y-107595238D01*
X84690476Y-107690476D01*
X84738095Y-107785714D01*
%TO.C,C1*%
X98037142Y-122404166D02*
X98084761Y-122451785D01*
X98132380Y-122594642D01*
X98132380Y-122689880D01*
X98084761Y-122832738D01*
X97989523Y-122927976D01*
X97894285Y-122975595D01*
X97703809Y-123023214D01*
X97560952Y-123023214D01*
X97370476Y-122975595D01*
X97275238Y-122927976D01*
X97180000Y-122832738D01*
X97132380Y-122689880D01*
X97132380Y-122594642D01*
X97180000Y-122451785D01*
X97227619Y-122404166D01*
X98132380Y-121451785D02*
X98132380Y-122023214D01*
X98132380Y-121737500D02*
X97132380Y-121737500D01*
X97275238Y-121832738D01*
X97370476Y-121927976D01*
X97418095Y-122023214D01*
%TO.C,D16*%
X43252380Y-31214285D02*
X42252380Y-31214285D01*
X42252380Y-30976190D01*
X42300000Y-30833333D01*
X42395238Y-30738095D01*
X42490476Y-30690476D01*
X42680952Y-30642857D01*
X42823809Y-30642857D01*
X43014285Y-30690476D01*
X43109523Y-30738095D01*
X43204761Y-30833333D01*
X43252380Y-30976190D01*
X43252380Y-31214285D01*
X43252380Y-29690476D02*
X43252380Y-30261904D01*
X43252380Y-29976190D02*
X42252380Y-29976190D01*
X42395238Y-30071428D01*
X42490476Y-30166666D01*
X42538095Y-30261904D01*
X42252380Y-28833333D02*
X42252380Y-29023809D01*
X42300000Y-29119047D01*
X42347619Y-29166666D01*
X42490476Y-29261904D01*
X42680952Y-29309523D01*
X43061904Y-29309523D01*
X43157142Y-29261904D01*
X43204761Y-29214285D01*
X43252380Y-29119047D01*
X43252380Y-28928571D01*
X43204761Y-28833333D01*
X43157142Y-28785714D01*
X43061904Y-28738095D01*
X42823809Y-28738095D01*
X42728571Y-28785714D01*
X42680952Y-28833333D01*
X42633333Y-28928571D01*
X42633333Y-29119047D01*
X42680952Y-29214285D01*
X42728571Y-29261904D01*
X42823809Y-29309523D01*
%TO.C,R4*%
X68952380Y-93166666D02*
X68476190Y-93500000D01*
X68952380Y-93738095D02*
X67952380Y-93738095D01*
X67952380Y-93357142D01*
X68000000Y-93261904D01*
X68047619Y-93214285D01*
X68142857Y-93166666D01*
X68285714Y-93166666D01*
X68380952Y-93214285D01*
X68428571Y-93261904D01*
X68476190Y-93357142D01*
X68476190Y-93738095D01*
X68285714Y-92309523D02*
X68952380Y-92309523D01*
X67904761Y-92547619D02*
X68619047Y-92785714D01*
X68619047Y-92166666D01*
%TO.C,D62*%
X92257714Y-46736380D02*
X92257714Y-45736380D01*
X92495809Y-45736380D01*
X92638666Y-45784000D01*
X92733904Y-45879238D01*
X92781523Y-45974476D01*
X92829142Y-46164952D01*
X92829142Y-46307809D01*
X92781523Y-46498285D01*
X92733904Y-46593523D01*
X92638666Y-46688761D01*
X92495809Y-46736380D01*
X92257714Y-46736380D01*
X93686285Y-45736380D02*
X93495809Y-45736380D01*
X93400571Y-45784000D01*
X93352952Y-45831619D01*
X93257714Y-45974476D01*
X93210095Y-46164952D01*
X93210095Y-46545904D01*
X93257714Y-46641142D01*
X93305333Y-46688761D01*
X93400571Y-46736380D01*
X93591047Y-46736380D01*
X93686285Y-46688761D01*
X93733904Y-46641142D01*
X93781523Y-46545904D01*
X93781523Y-46307809D01*
X93733904Y-46212571D01*
X93686285Y-46164952D01*
X93591047Y-46117333D01*
X93400571Y-46117333D01*
X93305333Y-46164952D01*
X93257714Y-46212571D01*
X93210095Y-46307809D01*
X94162476Y-45831619D02*
X94210095Y-45784000D01*
X94305333Y-45736380D01*
X94543428Y-45736380D01*
X94638666Y-45784000D01*
X94686285Y-45831619D01*
X94733904Y-45926857D01*
X94733904Y-46022095D01*
X94686285Y-46164952D01*
X94114857Y-46736380D01*
X94733904Y-46736380D01*
%TO.C,D47*%
X31385714Y-72602380D02*
X31385714Y-71602380D01*
X31623809Y-71602380D01*
X31766666Y-71650000D01*
X31861904Y-71745238D01*
X31909523Y-71840476D01*
X31957142Y-72030952D01*
X31957142Y-72173809D01*
X31909523Y-72364285D01*
X31861904Y-72459523D01*
X31766666Y-72554761D01*
X31623809Y-72602380D01*
X31385714Y-72602380D01*
X32814285Y-71935714D02*
X32814285Y-72602380D01*
X32576190Y-71554761D02*
X32338095Y-72269047D01*
X32957142Y-72269047D01*
X33242857Y-71602380D02*
X33909523Y-71602380D01*
X33480952Y-72602380D01*
%TO.C,D34*%
X104285714Y-62060380D02*
X104285714Y-61060380D01*
X104523809Y-61060380D01*
X104666666Y-61108000D01*
X104761904Y-61203238D01*
X104809523Y-61298476D01*
X104857142Y-61488952D01*
X104857142Y-61631809D01*
X104809523Y-61822285D01*
X104761904Y-61917523D01*
X104666666Y-62012761D01*
X104523809Y-62060380D01*
X104285714Y-62060380D01*
X105190476Y-61060380D02*
X105809523Y-61060380D01*
X105476190Y-61441333D01*
X105619047Y-61441333D01*
X105714285Y-61488952D01*
X105761904Y-61536571D01*
X105809523Y-61631809D01*
X105809523Y-61869904D01*
X105761904Y-61965142D01*
X105714285Y-62012761D01*
X105619047Y-62060380D01*
X105333333Y-62060380D01*
X105238095Y-62012761D01*
X105190476Y-61965142D01*
X106666666Y-61393714D02*
X106666666Y-62060380D01*
X106428571Y-61012761D02*
X106190476Y-61727047D01*
X106809523Y-61727047D01*
%TO.C,D38*%
X49455714Y-97602380D02*
X49455714Y-96602380D01*
X49693809Y-96602380D01*
X49836666Y-96650000D01*
X49931904Y-96745238D01*
X49979523Y-96840476D01*
X50027142Y-97030952D01*
X50027142Y-97173809D01*
X49979523Y-97364285D01*
X49931904Y-97459523D01*
X49836666Y-97554761D01*
X49693809Y-97602380D01*
X49455714Y-97602380D01*
X50360476Y-96602380D02*
X50979523Y-96602380D01*
X50646190Y-96983333D01*
X50789047Y-96983333D01*
X50884285Y-97030952D01*
X50931904Y-97078571D01*
X50979523Y-97173809D01*
X50979523Y-97411904D01*
X50931904Y-97507142D01*
X50884285Y-97554761D01*
X50789047Y-97602380D01*
X50503333Y-97602380D01*
X50408095Y-97554761D01*
X50360476Y-97507142D01*
X51550952Y-97030952D02*
X51455714Y-96983333D01*
X51408095Y-96935714D01*
X51360476Y-96840476D01*
X51360476Y-96792857D01*
X51408095Y-96697619D01*
X51455714Y-96650000D01*
X51550952Y-96602380D01*
X51741428Y-96602380D01*
X51836666Y-96650000D01*
X51884285Y-96697619D01*
X51931904Y-96792857D01*
X51931904Y-96840476D01*
X51884285Y-96935714D01*
X51836666Y-96983333D01*
X51741428Y-97030952D01*
X51550952Y-97030952D01*
X51455714Y-97078571D01*
X51408095Y-97126190D01*
X51360476Y-97221428D01*
X51360476Y-97411904D01*
X51408095Y-97507142D01*
X51455714Y-97554761D01*
X51550952Y-97602380D01*
X51741428Y-97602380D01*
X51836666Y-97554761D01*
X51884285Y-97507142D01*
X51931904Y-97411904D01*
X51931904Y-97221428D01*
X51884285Y-97126190D01*
X51836666Y-97078571D01*
X51741428Y-97030952D01*
%TO.C,D36*%
X104055714Y-70390380D02*
X104055714Y-69390380D01*
X104293809Y-69390380D01*
X104436666Y-69438000D01*
X104531904Y-69533238D01*
X104579523Y-69628476D01*
X104627142Y-69818952D01*
X104627142Y-69961809D01*
X104579523Y-70152285D01*
X104531904Y-70247523D01*
X104436666Y-70342761D01*
X104293809Y-70390380D01*
X104055714Y-70390380D01*
X104960476Y-69390380D02*
X105579523Y-69390380D01*
X105246190Y-69771333D01*
X105389047Y-69771333D01*
X105484285Y-69818952D01*
X105531904Y-69866571D01*
X105579523Y-69961809D01*
X105579523Y-70199904D01*
X105531904Y-70295142D01*
X105484285Y-70342761D01*
X105389047Y-70390380D01*
X105103333Y-70390380D01*
X105008095Y-70342761D01*
X104960476Y-70295142D01*
X106436666Y-69390380D02*
X106246190Y-69390380D01*
X106150952Y-69438000D01*
X106103333Y-69485619D01*
X106008095Y-69628476D01*
X105960476Y-69818952D01*
X105960476Y-70199904D01*
X106008095Y-70295142D01*
X106055714Y-70342761D01*
X106150952Y-70390380D01*
X106341428Y-70390380D01*
X106436666Y-70342761D01*
X106484285Y-70295142D01*
X106531904Y-70199904D01*
X106531904Y-69961809D01*
X106484285Y-69866571D01*
X106436666Y-69818952D01*
X106341428Y-69771333D01*
X106150952Y-69771333D01*
X106055714Y-69818952D01*
X106008095Y-69866571D01*
X105960476Y-69961809D01*
%TO.C,D41*%
X95305714Y-71802380D02*
X95305714Y-70802380D01*
X95543809Y-70802380D01*
X95686666Y-70850000D01*
X95781904Y-70945238D01*
X95829523Y-71040476D01*
X95877142Y-71230952D01*
X95877142Y-71373809D01*
X95829523Y-71564285D01*
X95781904Y-71659523D01*
X95686666Y-71754761D01*
X95543809Y-71802380D01*
X95305714Y-71802380D01*
X96734285Y-71135714D02*
X96734285Y-71802380D01*
X96496190Y-70754761D02*
X96258095Y-71469047D01*
X96877142Y-71469047D01*
X97781904Y-71802380D02*
X97210476Y-71802380D01*
X97496190Y-71802380D02*
X97496190Y-70802380D01*
X97400952Y-70945238D01*
X97305714Y-71040476D01*
X97210476Y-71088095D01*
%TO.C,D20*%
X61538380Y-50714285D02*
X60538380Y-50714285D01*
X60538380Y-50476190D01*
X60586000Y-50333333D01*
X60681238Y-50238095D01*
X60776476Y-50190476D01*
X60966952Y-50142857D01*
X61109809Y-50142857D01*
X61300285Y-50190476D01*
X61395523Y-50238095D01*
X61490761Y-50333333D01*
X61538380Y-50476190D01*
X61538380Y-50714285D01*
X60633619Y-49761904D02*
X60586000Y-49714285D01*
X60538380Y-49619047D01*
X60538380Y-49380952D01*
X60586000Y-49285714D01*
X60633619Y-49238095D01*
X60728857Y-49190476D01*
X60824095Y-49190476D01*
X60966952Y-49238095D01*
X61538380Y-49809523D01*
X61538380Y-49190476D01*
X60538380Y-48571428D02*
X60538380Y-48476190D01*
X60586000Y-48380952D01*
X60633619Y-48333333D01*
X60728857Y-48285714D01*
X60919333Y-48238095D01*
X61157428Y-48238095D01*
X61347904Y-48285714D01*
X61443142Y-48333333D01*
X61490761Y-48380952D01*
X61538380Y-48476190D01*
X61538380Y-48571428D01*
X61490761Y-48666666D01*
X61443142Y-48714285D01*
X61347904Y-48761904D01*
X61157428Y-48809523D01*
X60919333Y-48809523D01*
X60728857Y-48761904D01*
X60633619Y-48714285D01*
X60586000Y-48666666D01*
X60538380Y-48571428D01*
%TO.C,D11*%
X58475714Y-78652380D02*
X58475714Y-77652380D01*
X58713809Y-77652380D01*
X58856666Y-77700000D01*
X58951904Y-77795238D01*
X58999523Y-77890476D01*
X59047142Y-78080952D01*
X59047142Y-78223809D01*
X58999523Y-78414285D01*
X58951904Y-78509523D01*
X58856666Y-78604761D01*
X58713809Y-78652380D01*
X58475714Y-78652380D01*
X59999523Y-78652380D02*
X59428095Y-78652380D01*
X59713809Y-78652380D02*
X59713809Y-77652380D01*
X59618571Y-77795238D01*
X59523333Y-77890476D01*
X59428095Y-77938095D01*
X60951904Y-78652380D02*
X60380476Y-78652380D01*
X60666190Y-78652380D02*
X60666190Y-77652380D01*
X60570952Y-77795238D01*
X60475714Y-77890476D01*
X60380476Y-77938095D01*
%TO.C,D44*%
X66552380Y-88964285D02*
X65552380Y-88964285D01*
X65552380Y-88726190D01*
X65600000Y-88583333D01*
X65695238Y-88488095D01*
X65790476Y-88440476D01*
X65980952Y-88392857D01*
X66123809Y-88392857D01*
X66314285Y-88440476D01*
X66409523Y-88488095D01*
X66504761Y-88583333D01*
X66552380Y-88726190D01*
X66552380Y-88964285D01*
X65885714Y-87535714D02*
X66552380Y-87535714D01*
X65504761Y-87773809D02*
X66219047Y-88011904D01*
X66219047Y-87392857D01*
X65885714Y-86583333D02*
X66552380Y-86583333D01*
X65504761Y-86821428D02*
X66219047Y-87059523D01*
X66219047Y-86440476D01*
%TO.C,D33*%
X31965714Y-110492380D02*
X31965714Y-109492380D01*
X32203809Y-109492380D01*
X32346666Y-109540000D01*
X32441904Y-109635238D01*
X32489523Y-109730476D01*
X32537142Y-109920952D01*
X32537142Y-110063809D01*
X32489523Y-110254285D01*
X32441904Y-110349523D01*
X32346666Y-110444761D01*
X32203809Y-110492380D01*
X31965714Y-110492380D01*
X32870476Y-109492380D02*
X33489523Y-109492380D01*
X33156190Y-109873333D01*
X33299047Y-109873333D01*
X33394285Y-109920952D01*
X33441904Y-109968571D01*
X33489523Y-110063809D01*
X33489523Y-110301904D01*
X33441904Y-110397142D01*
X33394285Y-110444761D01*
X33299047Y-110492380D01*
X33013333Y-110492380D01*
X32918095Y-110444761D01*
X32870476Y-110397142D01*
X33822857Y-109492380D02*
X34441904Y-109492380D01*
X34108571Y-109873333D01*
X34251428Y-109873333D01*
X34346666Y-109920952D01*
X34394285Y-109968571D01*
X34441904Y-110063809D01*
X34441904Y-110301904D01*
X34394285Y-110397142D01*
X34346666Y-110444761D01*
X34251428Y-110492380D01*
X33965714Y-110492380D01*
X33870476Y-110444761D01*
X33822857Y-110397142D01*
%TO.C,R9*%
X62452380Y-94856666D02*
X61976190Y-95190000D01*
X62452380Y-95428095D02*
X61452380Y-95428095D01*
X61452380Y-95047142D01*
X61500000Y-94951904D01*
X61547619Y-94904285D01*
X61642857Y-94856666D01*
X61785714Y-94856666D01*
X61880952Y-94904285D01*
X61928571Y-94951904D01*
X61976190Y-95047142D01*
X61976190Y-95428095D01*
X62452380Y-94380476D02*
X62452380Y-94190000D01*
X62404761Y-94094761D01*
X62357142Y-94047142D01*
X62214285Y-93951904D01*
X62023809Y-93904285D01*
X61642857Y-93904285D01*
X61547619Y-93951904D01*
X61500000Y-93999523D01*
X61452380Y-94094761D01*
X61452380Y-94285238D01*
X61500000Y-94380476D01*
X61547619Y-94428095D01*
X61642857Y-94475714D01*
X61880952Y-94475714D01*
X61976190Y-94428095D01*
X62023809Y-94380476D01*
X62071428Y-94285238D01*
X62071428Y-94094761D01*
X62023809Y-93999523D01*
X61976190Y-93951904D01*
X61880952Y-93904285D01*
%TO.C,R2*%
X68952380Y-100916666D02*
X68476190Y-101250000D01*
X68952380Y-101488095D02*
X67952380Y-101488095D01*
X67952380Y-101107142D01*
X68000000Y-101011904D01*
X68047619Y-100964285D01*
X68142857Y-100916666D01*
X68285714Y-100916666D01*
X68380952Y-100964285D01*
X68428571Y-101011904D01*
X68476190Y-101107142D01*
X68476190Y-101488095D01*
X68047619Y-100535714D02*
X68000000Y-100488095D01*
X67952380Y-100392857D01*
X67952380Y-100154761D01*
X68000000Y-100059523D01*
X68047619Y-100011904D01*
X68142857Y-99964285D01*
X68238095Y-99964285D01*
X68380952Y-100011904D01*
X68952380Y-100583333D01*
X68952380Y-99964285D01*
%TO.C,R10*%
X78607142Y-83452380D02*
X78273809Y-82976190D01*
X78035714Y-83452380D02*
X78035714Y-82452380D01*
X78416666Y-82452380D01*
X78511904Y-82500000D01*
X78559523Y-82547619D01*
X78607142Y-82642857D01*
X78607142Y-82785714D01*
X78559523Y-82880952D01*
X78511904Y-82928571D01*
X78416666Y-82976190D01*
X78035714Y-82976190D01*
X79559523Y-83452380D02*
X78988095Y-83452380D01*
X79273809Y-83452380D02*
X79273809Y-82452380D01*
X79178571Y-82595238D01*
X79083333Y-82690476D01*
X78988095Y-82738095D01*
X80178571Y-82452380D02*
X80273809Y-82452380D01*
X80369047Y-82500000D01*
X80416666Y-82547619D01*
X80464285Y-82642857D01*
X80511904Y-82833333D01*
X80511904Y-83071428D01*
X80464285Y-83261904D01*
X80416666Y-83357142D01*
X80369047Y-83404761D01*
X80273809Y-83452380D01*
X80178571Y-83452380D01*
X80083333Y-83404761D01*
X80035714Y-83357142D01*
X79988095Y-83261904D01*
X79940476Y-83071428D01*
X79940476Y-82833333D01*
X79988095Y-82642857D01*
X80035714Y-82547619D01*
X80083333Y-82500000D01*
X80178571Y-82452380D01*
%TO.C,D31*%
X31865714Y-102052380D02*
X31865714Y-101052380D01*
X32103809Y-101052380D01*
X32246666Y-101100000D01*
X32341904Y-101195238D01*
X32389523Y-101290476D01*
X32437142Y-101480952D01*
X32437142Y-101623809D01*
X32389523Y-101814285D01*
X32341904Y-101909523D01*
X32246666Y-102004761D01*
X32103809Y-102052380D01*
X31865714Y-102052380D01*
X32770476Y-101052380D02*
X33389523Y-101052380D01*
X33056190Y-101433333D01*
X33199047Y-101433333D01*
X33294285Y-101480952D01*
X33341904Y-101528571D01*
X33389523Y-101623809D01*
X33389523Y-101861904D01*
X33341904Y-101957142D01*
X33294285Y-102004761D01*
X33199047Y-102052380D01*
X32913333Y-102052380D01*
X32818095Y-102004761D01*
X32770476Y-101957142D01*
X34341904Y-102052380D02*
X33770476Y-102052380D01*
X34056190Y-102052380D02*
X34056190Y-101052380D01*
X33960952Y-101195238D01*
X33865714Y-101290476D01*
X33770476Y-101338095D01*
%TO.C,D56*%
X41910380Y-60650285D02*
X40910380Y-60650285D01*
X40910380Y-60412190D01*
X40958000Y-60269333D01*
X41053238Y-60174095D01*
X41148476Y-60126476D01*
X41338952Y-60078857D01*
X41481809Y-60078857D01*
X41672285Y-60126476D01*
X41767523Y-60174095D01*
X41862761Y-60269333D01*
X41910380Y-60412190D01*
X41910380Y-60650285D01*
X40910380Y-59174095D02*
X40910380Y-59650285D01*
X41386571Y-59697904D01*
X41338952Y-59650285D01*
X41291333Y-59555047D01*
X41291333Y-59316952D01*
X41338952Y-59221714D01*
X41386571Y-59174095D01*
X41481809Y-59126476D01*
X41719904Y-59126476D01*
X41815142Y-59174095D01*
X41862761Y-59221714D01*
X41910380Y-59316952D01*
X41910380Y-59555047D01*
X41862761Y-59650285D01*
X41815142Y-59697904D01*
X40910380Y-58269333D02*
X40910380Y-58459809D01*
X40958000Y-58555047D01*
X41005619Y-58602666D01*
X41148476Y-58697904D01*
X41338952Y-58745523D01*
X41719904Y-58745523D01*
X41815142Y-58697904D01*
X41862761Y-58650285D01*
X41910380Y-58555047D01*
X41910380Y-58364571D01*
X41862761Y-58269333D01*
X41815142Y-58221714D01*
X41719904Y-58174095D01*
X41481809Y-58174095D01*
X41386571Y-58221714D01*
X41338952Y-58269333D01*
X41291333Y-58364571D01*
X41291333Y-58555047D01*
X41338952Y-58650285D01*
X41386571Y-58697904D01*
X41481809Y-58745523D01*
%TO.C,D17*%
X48202380Y-31014285D02*
X47202380Y-31014285D01*
X47202380Y-30776190D01*
X47250000Y-30633333D01*
X47345238Y-30538095D01*
X47440476Y-30490476D01*
X47630952Y-30442857D01*
X47773809Y-30442857D01*
X47964285Y-30490476D01*
X48059523Y-30538095D01*
X48154761Y-30633333D01*
X48202380Y-30776190D01*
X48202380Y-31014285D01*
X48202380Y-29490476D02*
X48202380Y-30061904D01*
X48202380Y-29776190D02*
X47202380Y-29776190D01*
X47345238Y-29871428D01*
X47440476Y-29966666D01*
X47488095Y-30061904D01*
X47202380Y-29157142D02*
X47202380Y-28490476D01*
X48202380Y-28919047D01*
%TO.C,R12*%
X58922142Y-112327380D02*
X58588809Y-111851190D01*
X58350714Y-112327380D02*
X58350714Y-111327380D01*
X58731666Y-111327380D01*
X58826904Y-111375000D01*
X58874523Y-111422619D01*
X58922142Y-111517857D01*
X58922142Y-111660714D01*
X58874523Y-111755952D01*
X58826904Y-111803571D01*
X58731666Y-111851190D01*
X58350714Y-111851190D01*
X59874523Y-112327380D02*
X59303095Y-112327380D01*
X59588809Y-112327380D02*
X59588809Y-111327380D01*
X59493571Y-111470238D01*
X59398333Y-111565476D01*
X59303095Y-111613095D01*
X60255476Y-111422619D02*
X60303095Y-111375000D01*
X60398333Y-111327380D01*
X60636428Y-111327380D01*
X60731666Y-111375000D01*
X60779285Y-111422619D01*
X60826904Y-111517857D01*
X60826904Y-111613095D01*
X60779285Y-111755952D01*
X60207857Y-112327380D01*
X60826904Y-112327380D01*
%TO.C,D5*%
X44761904Y-73102380D02*
X44761904Y-72102380D01*
X45000000Y-72102380D01*
X45142857Y-72150000D01*
X45238095Y-72245238D01*
X45285714Y-72340476D01*
X45333333Y-72530952D01*
X45333333Y-72673809D01*
X45285714Y-72864285D01*
X45238095Y-72959523D01*
X45142857Y-73054761D01*
X45000000Y-73102380D01*
X44761904Y-73102380D01*
X46238095Y-72102380D02*
X45761904Y-72102380D01*
X45714285Y-72578571D01*
X45761904Y-72530952D01*
X45857142Y-72483333D01*
X46095238Y-72483333D01*
X46190476Y-72530952D01*
X46238095Y-72578571D01*
X46285714Y-72673809D01*
X46285714Y-72911904D01*
X46238095Y-73007142D01*
X46190476Y-73054761D01*
X46095238Y-73102380D01*
X45857142Y-73102380D01*
X45761904Y-73054761D01*
X45714285Y-73007142D01*
%TO.C,D53*%
X115435714Y-73352380D02*
X115435714Y-72352380D01*
X115673809Y-72352380D01*
X115816666Y-72400000D01*
X115911904Y-72495238D01*
X115959523Y-72590476D01*
X116007142Y-72780952D01*
X116007142Y-72923809D01*
X115959523Y-73114285D01*
X115911904Y-73209523D01*
X115816666Y-73304761D01*
X115673809Y-73352380D01*
X115435714Y-73352380D01*
X116911904Y-72352380D02*
X116435714Y-72352380D01*
X116388095Y-72828571D01*
X116435714Y-72780952D01*
X116530952Y-72733333D01*
X116769047Y-72733333D01*
X116864285Y-72780952D01*
X116911904Y-72828571D01*
X116959523Y-72923809D01*
X116959523Y-73161904D01*
X116911904Y-73257142D01*
X116864285Y-73304761D01*
X116769047Y-73352380D01*
X116530952Y-73352380D01*
X116435714Y-73304761D01*
X116388095Y-73257142D01*
X117292857Y-72352380D02*
X117911904Y-72352380D01*
X117578571Y-72733333D01*
X117721428Y-72733333D01*
X117816666Y-72780952D01*
X117864285Y-72828571D01*
X117911904Y-72923809D01*
X117911904Y-73161904D01*
X117864285Y-73257142D01*
X117816666Y-73304761D01*
X117721428Y-73352380D01*
X117435714Y-73352380D01*
X117340476Y-73304761D01*
X117292857Y-73257142D01*
%TO.C,D28*%
X76352380Y-76271285D02*
X75352380Y-76271285D01*
X75352380Y-76033190D01*
X75400000Y-75890333D01*
X75495238Y-75795095D01*
X75590476Y-75747476D01*
X75780952Y-75699857D01*
X75923809Y-75699857D01*
X76114285Y-75747476D01*
X76209523Y-75795095D01*
X76304761Y-75890333D01*
X76352380Y-76033190D01*
X76352380Y-76271285D01*
X75447619Y-75318904D02*
X75400000Y-75271285D01*
X75352380Y-75176047D01*
X75352380Y-74937952D01*
X75400000Y-74842714D01*
X75447619Y-74795095D01*
X75542857Y-74747476D01*
X75638095Y-74747476D01*
X75780952Y-74795095D01*
X76352380Y-75366523D01*
X76352380Y-74747476D01*
X75780952Y-74176047D02*
X75733333Y-74271285D01*
X75685714Y-74318904D01*
X75590476Y-74366523D01*
X75542857Y-74366523D01*
X75447619Y-74318904D01*
X75400000Y-74271285D01*
X75352380Y-74176047D01*
X75352380Y-73985571D01*
X75400000Y-73890333D01*
X75447619Y-73842714D01*
X75542857Y-73795095D01*
X75590476Y-73795095D01*
X75685714Y-73842714D01*
X75733333Y-73890333D01*
X75780952Y-73985571D01*
X75780952Y-74176047D01*
X75828571Y-74271285D01*
X75876190Y-74318904D01*
X75971428Y-74366523D01*
X76161904Y-74366523D01*
X76257142Y-74318904D01*
X76304761Y-74271285D01*
X76352380Y-74176047D01*
X76352380Y-73985571D01*
X76304761Y-73890333D01*
X76257142Y-73842714D01*
X76161904Y-73795095D01*
X75971428Y-73795095D01*
X75876190Y-73842714D01*
X75828571Y-73890333D01*
X75780952Y-73985571D01*
%TO.C,D7*%
X102385904Y-87942380D02*
X102385904Y-86942380D01*
X102624000Y-86942380D01*
X102766857Y-86990000D01*
X102862095Y-87085238D01*
X102909714Y-87180476D01*
X102957333Y-87370952D01*
X102957333Y-87513809D01*
X102909714Y-87704285D01*
X102862095Y-87799523D01*
X102766857Y-87894761D01*
X102624000Y-87942380D01*
X102385904Y-87942380D01*
X103290666Y-86942380D02*
X103957333Y-86942380D01*
X103528761Y-87942380D01*
%TO.C,R11*%
X69252380Y-109442857D02*
X68776190Y-109776190D01*
X69252380Y-110014285D02*
X68252380Y-110014285D01*
X68252380Y-109633333D01*
X68300000Y-109538095D01*
X68347619Y-109490476D01*
X68442857Y-109442857D01*
X68585714Y-109442857D01*
X68680952Y-109490476D01*
X68728571Y-109538095D01*
X68776190Y-109633333D01*
X68776190Y-110014285D01*
X69252380Y-108490476D02*
X69252380Y-109061904D01*
X69252380Y-108776190D02*
X68252380Y-108776190D01*
X68395238Y-108871428D01*
X68490476Y-108966666D01*
X68538095Y-109061904D01*
X69252380Y-107538095D02*
X69252380Y-108109523D01*
X69252380Y-107823809D02*
X68252380Y-107823809D01*
X68395238Y-107919047D01*
X68490476Y-108014285D01*
X68538095Y-108109523D01*
%TO.C,D23*%
X81606380Y-50490285D02*
X80606380Y-50490285D01*
X80606380Y-50252190D01*
X80654000Y-50109333D01*
X80749238Y-50014095D01*
X80844476Y-49966476D01*
X81034952Y-49918857D01*
X81177809Y-49918857D01*
X81368285Y-49966476D01*
X81463523Y-50014095D01*
X81558761Y-50109333D01*
X81606380Y-50252190D01*
X81606380Y-50490285D01*
X80701619Y-49537904D02*
X80654000Y-49490285D01*
X80606380Y-49395047D01*
X80606380Y-49156952D01*
X80654000Y-49061714D01*
X80701619Y-49014095D01*
X80796857Y-48966476D01*
X80892095Y-48966476D01*
X81034952Y-49014095D01*
X81606380Y-49585523D01*
X81606380Y-48966476D01*
X80606380Y-48633142D02*
X80606380Y-48014095D01*
X80987333Y-48347428D01*
X80987333Y-48204571D01*
X81034952Y-48109333D01*
X81082571Y-48061714D01*
X81177809Y-48014095D01*
X81415904Y-48014095D01*
X81511142Y-48061714D01*
X81558761Y-48109333D01*
X81606380Y-48204571D01*
X81606380Y-48490285D01*
X81558761Y-48585523D01*
X81511142Y-48633142D01*
%TO.C,D43*%
X70052380Y-88214285D02*
X69052380Y-88214285D01*
X69052380Y-87976190D01*
X69100000Y-87833333D01*
X69195238Y-87738095D01*
X69290476Y-87690476D01*
X69480952Y-87642857D01*
X69623809Y-87642857D01*
X69814285Y-87690476D01*
X69909523Y-87738095D01*
X70004761Y-87833333D01*
X70052380Y-87976190D01*
X70052380Y-88214285D01*
X69385714Y-86785714D02*
X70052380Y-86785714D01*
X69004761Y-87023809D02*
X69719047Y-87261904D01*
X69719047Y-86642857D01*
X69052380Y-86357142D02*
X69052380Y-85738095D01*
X69433333Y-86071428D01*
X69433333Y-85928571D01*
X69480952Y-85833333D01*
X69528571Y-85785714D01*
X69623809Y-85738095D01*
X69861904Y-85738095D01*
X69957142Y-85785714D01*
X70004761Y-85833333D01*
X70052380Y-85928571D01*
X70052380Y-86214285D01*
X70004761Y-86309523D01*
X69957142Y-86357142D01*
%TO.C,D27*%
X82914380Y-64968285D02*
X81914380Y-64968285D01*
X81914380Y-64730190D01*
X81962000Y-64587333D01*
X82057238Y-64492095D01*
X82152476Y-64444476D01*
X82342952Y-64396857D01*
X82485809Y-64396857D01*
X82676285Y-64444476D01*
X82771523Y-64492095D01*
X82866761Y-64587333D01*
X82914380Y-64730190D01*
X82914380Y-64968285D01*
X82009619Y-64015904D02*
X81962000Y-63968285D01*
X81914380Y-63873047D01*
X81914380Y-63634952D01*
X81962000Y-63539714D01*
X82009619Y-63492095D01*
X82104857Y-63444476D01*
X82200095Y-63444476D01*
X82342952Y-63492095D01*
X82914380Y-64063523D01*
X82914380Y-63444476D01*
X81914380Y-63111142D02*
X81914380Y-62444476D01*
X82914380Y-62873047D01*
%TO.C,D6*%
X44491904Y-68912380D02*
X44491904Y-67912380D01*
X44730000Y-67912380D01*
X44872857Y-67960000D01*
X44968095Y-68055238D01*
X45015714Y-68150476D01*
X45063333Y-68340952D01*
X45063333Y-68483809D01*
X45015714Y-68674285D01*
X44968095Y-68769523D01*
X44872857Y-68864761D01*
X44730000Y-68912380D01*
X44491904Y-68912380D01*
X45920476Y-67912380D02*
X45730000Y-67912380D01*
X45634761Y-67960000D01*
X45587142Y-68007619D01*
X45491904Y-68150476D01*
X45444285Y-68340952D01*
X45444285Y-68721904D01*
X45491904Y-68817142D01*
X45539523Y-68864761D01*
X45634761Y-68912380D01*
X45825238Y-68912380D01*
X45920476Y-68864761D01*
X45968095Y-68817142D01*
X46015714Y-68721904D01*
X46015714Y-68483809D01*
X45968095Y-68388571D01*
X45920476Y-68340952D01*
X45825238Y-68293333D01*
X45634761Y-68293333D01*
X45539523Y-68340952D01*
X45491904Y-68388571D01*
X45444285Y-68483809D01*
%TO.C,D2*%
X118261904Y-110102380D02*
X118261904Y-109102380D01*
X118500000Y-109102380D01*
X118642857Y-109150000D01*
X118738095Y-109245238D01*
X118785714Y-109340476D01*
X118833333Y-109530952D01*
X118833333Y-109673809D01*
X118785714Y-109864285D01*
X118738095Y-109959523D01*
X118642857Y-110054761D01*
X118500000Y-110102380D01*
X118261904Y-110102380D01*
X119214285Y-109197619D02*
X119261904Y-109150000D01*
X119357142Y-109102380D01*
X119595238Y-109102380D01*
X119690476Y-109150000D01*
X119738095Y-109197619D01*
X119785714Y-109292857D01*
X119785714Y-109388095D01*
X119738095Y-109530952D01*
X119166666Y-110102380D01*
X119785714Y-110102380D01*
%TO.C,R5*%
X85452380Y-93166666D02*
X84976190Y-93500000D01*
X85452380Y-93738095D02*
X84452380Y-93738095D01*
X84452380Y-93357142D01*
X84500000Y-93261904D01*
X84547619Y-93214285D01*
X84642857Y-93166666D01*
X84785714Y-93166666D01*
X84880952Y-93214285D01*
X84928571Y-93261904D01*
X84976190Y-93357142D01*
X84976190Y-93738095D01*
X84452380Y-92261904D02*
X84452380Y-92738095D01*
X84928571Y-92785714D01*
X84880952Y-92738095D01*
X84833333Y-92642857D01*
X84833333Y-92404761D01*
X84880952Y-92309523D01*
X84928571Y-92261904D01*
X85023809Y-92214285D01*
X85261904Y-92214285D01*
X85357142Y-92261904D01*
X85404761Y-92309523D01*
X85452380Y-92404761D01*
X85452380Y-92642857D01*
X85404761Y-92738095D01*
X85357142Y-92785714D01*
%TO.C,D1*%
X118261904Y-114852380D02*
X118261904Y-113852380D01*
X118500000Y-113852380D01*
X118642857Y-113900000D01*
X118738095Y-113995238D01*
X118785714Y-114090476D01*
X118833333Y-114280952D01*
X118833333Y-114423809D01*
X118785714Y-114614285D01*
X118738095Y-114709523D01*
X118642857Y-114804761D01*
X118500000Y-114852380D01*
X118261904Y-114852380D01*
X119785714Y-114852380D02*
X119214285Y-114852380D01*
X119500000Y-114852380D02*
X119500000Y-113852380D01*
X119404761Y-113995238D01*
X119309523Y-114090476D01*
X119214285Y-114138095D01*
%TO.C,D59*%
X36765380Y-99258285D02*
X35765380Y-99258285D01*
X35765380Y-99020190D01*
X35813000Y-98877333D01*
X35908238Y-98782095D01*
X36003476Y-98734476D01*
X36193952Y-98686857D01*
X36336809Y-98686857D01*
X36527285Y-98734476D01*
X36622523Y-98782095D01*
X36717761Y-98877333D01*
X36765380Y-99020190D01*
X36765380Y-99258285D01*
X35765380Y-97782095D02*
X35765380Y-98258285D01*
X36241571Y-98305904D01*
X36193952Y-98258285D01*
X36146333Y-98163047D01*
X36146333Y-97924952D01*
X36193952Y-97829714D01*
X36241571Y-97782095D01*
X36336809Y-97734476D01*
X36574904Y-97734476D01*
X36670142Y-97782095D01*
X36717761Y-97829714D01*
X36765380Y-97924952D01*
X36765380Y-98163047D01*
X36717761Y-98258285D01*
X36670142Y-98305904D01*
X36765380Y-97258285D02*
X36765380Y-97067809D01*
X36717761Y-96972571D01*
X36670142Y-96924952D01*
X36527285Y-96829714D01*
X36336809Y-96782095D01*
X35955857Y-96782095D01*
X35860619Y-96829714D01*
X35813000Y-96877333D01*
X35765380Y-96972571D01*
X35765380Y-97163047D01*
X35813000Y-97258285D01*
X35860619Y-97305904D01*
X35955857Y-97353523D01*
X36193952Y-97353523D01*
X36289190Y-97305904D01*
X36336809Y-97258285D01*
X36384428Y-97163047D01*
X36384428Y-96972571D01*
X36336809Y-96877333D01*
X36289190Y-96829714D01*
X36193952Y-96782095D01*
%TO.C,D12*%
X58729714Y-85454380D02*
X58729714Y-84454380D01*
X58967809Y-84454380D01*
X59110666Y-84502000D01*
X59205904Y-84597238D01*
X59253523Y-84692476D01*
X59301142Y-84882952D01*
X59301142Y-85025809D01*
X59253523Y-85216285D01*
X59205904Y-85311523D01*
X59110666Y-85406761D01*
X58967809Y-85454380D01*
X58729714Y-85454380D01*
X60253523Y-85454380D02*
X59682095Y-85454380D01*
X59967809Y-85454380D02*
X59967809Y-84454380D01*
X59872571Y-84597238D01*
X59777333Y-84692476D01*
X59682095Y-84740095D01*
X60634476Y-84549619D02*
X60682095Y-84502000D01*
X60777333Y-84454380D01*
X61015428Y-84454380D01*
X61110666Y-84502000D01*
X61158285Y-84549619D01*
X61205904Y-84644857D01*
X61205904Y-84740095D01*
X61158285Y-84882952D01*
X60586857Y-85454380D01*
X61205904Y-85454380D01*
%TO.C,D15*%
X86412380Y-88459285D02*
X85412380Y-88459285D01*
X85412380Y-88221190D01*
X85460000Y-88078333D01*
X85555238Y-87983095D01*
X85650476Y-87935476D01*
X85840952Y-87887857D01*
X85983809Y-87887857D01*
X86174285Y-87935476D01*
X86269523Y-87983095D01*
X86364761Y-88078333D01*
X86412380Y-88221190D01*
X86412380Y-88459285D01*
X86412380Y-86935476D02*
X86412380Y-87506904D01*
X86412380Y-87221190D02*
X85412380Y-87221190D01*
X85555238Y-87316428D01*
X85650476Y-87411666D01*
X85698095Y-87506904D01*
X85412380Y-86030714D02*
X85412380Y-86506904D01*
X85888571Y-86554523D01*
X85840952Y-86506904D01*
X85793333Y-86411666D01*
X85793333Y-86173571D01*
X85840952Y-86078333D01*
X85888571Y-86030714D01*
X85983809Y-85983095D01*
X86221904Y-85983095D01*
X86317142Y-86030714D01*
X86364761Y-86078333D01*
X86412380Y-86173571D01*
X86412380Y-86411666D01*
X86364761Y-86506904D01*
X86317142Y-86554523D01*
%TO.C,R6*%
X78977380Y-108506666D02*
X78501190Y-108840000D01*
X78977380Y-109078095D02*
X77977380Y-109078095D01*
X77977380Y-108697142D01*
X78025000Y-108601904D01*
X78072619Y-108554285D01*
X78167857Y-108506666D01*
X78310714Y-108506666D01*
X78405952Y-108554285D01*
X78453571Y-108601904D01*
X78501190Y-108697142D01*
X78501190Y-109078095D01*
X77977380Y-107649523D02*
X77977380Y-107840000D01*
X78025000Y-107935238D01*
X78072619Y-107982857D01*
X78215476Y-108078095D01*
X78405952Y-108125714D01*
X78786904Y-108125714D01*
X78882142Y-108078095D01*
X78929761Y-108030476D01*
X78977380Y-107935238D01*
X78977380Y-107744761D01*
X78929761Y-107649523D01*
X78882142Y-107601904D01*
X78786904Y-107554285D01*
X78548809Y-107554285D01*
X78453571Y-107601904D01*
X78405952Y-107649523D01*
X78358333Y-107744761D01*
X78358333Y-107935238D01*
X78405952Y-108030476D01*
X78453571Y-108078095D01*
X78548809Y-108125714D01*
%TO.C,D4*%
X44761904Y-78352380D02*
X44761904Y-77352380D01*
X45000000Y-77352380D01*
X45142857Y-77400000D01*
X45238095Y-77495238D01*
X45285714Y-77590476D01*
X45333333Y-77780952D01*
X45333333Y-77923809D01*
X45285714Y-78114285D01*
X45238095Y-78209523D01*
X45142857Y-78304761D01*
X45000000Y-78352380D01*
X44761904Y-78352380D01*
X46190476Y-77685714D02*
X46190476Y-78352380D01*
X45952380Y-77304761D02*
X45714285Y-78019047D01*
X46333333Y-78019047D01*
%TO.C,D10*%
X58729714Y-73972380D02*
X58729714Y-72972380D01*
X58967809Y-72972380D01*
X59110666Y-73020000D01*
X59205904Y-73115238D01*
X59253523Y-73210476D01*
X59301142Y-73400952D01*
X59301142Y-73543809D01*
X59253523Y-73734285D01*
X59205904Y-73829523D01*
X59110666Y-73924761D01*
X58967809Y-73972380D01*
X58729714Y-73972380D01*
X60253523Y-73972380D02*
X59682095Y-73972380D01*
X59967809Y-73972380D02*
X59967809Y-72972380D01*
X59872571Y-73115238D01*
X59777333Y-73210476D01*
X59682095Y-73258095D01*
X60872571Y-72972380D02*
X60967809Y-72972380D01*
X61063047Y-73020000D01*
X61110666Y-73067619D01*
X61158285Y-73162857D01*
X61205904Y-73353333D01*
X61205904Y-73591428D01*
X61158285Y-73781904D01*
X61110666Y-73877142D01*
X61063047Y-73924761D01*
X60967809Y-73972380D01*
X60872571Y-73972380D01*
X60777333Y-73924761D01*
X60729714Y-73877142D01*
X60682095Y-73781904D01*
X60634476Y-73591428D01*
X60634476Y-73353333D01*
X60682095Y-73162857D01*
X60729714Y-73067619D01*
X60777333Y-73020000D01*
X60872571Y-72972380D01*
%TO.C,D70*%
X36845380Y-63571285D02*
X35845380Y-63571285D01*
X35845380Y-63333190D01*
X35893000Y-63190333D01*
X35988238Y-63095095D01*
X36083476Y-63047476D01*
X36273952Y-62999857D01*
X36416809Y-62999857D01*
X36607285Y-63047476D01*
X36702523Y-63095095D01*
X36797761Y-63190333D01*
X36845380Y-63333190D01*
X36845380Y-63571285D01*
X35845380Y-62666523D02*
X35845380Y-61999857D01*
X36845380Y-62428428D01*
X35845380Y-61428428D02*
X35845380Y-61333190D01*
X35893000Y-61237952D01*
X35940619Y-61190333D01*
X36035857Y-61142714D01*
X36226333Y-61095095D01*
X36464428Y-61095095D01*
X36654904Y-61142714D01*
X36750142Y-61190333D01*
X36797761Y-61237952D01*
X36845380Y-61333190D01*
X36845380Y-61428428D01*
X36797761Y-61523666D01*
X36750142Y-61571285D01*
X36654904Y-61618904D01*
X36464428Y-61666523D01*
X36226333Y-61666523D01*
X36035857Y-61618904D01*
X35940619Y-61571285D01*
X35893000Y-61523666D01*
X35845380Y-61428428D01*
%TO.C,D51*%
X95217380Y-33819285D02*
X94217380Y-33819285D01*
X94217380Y-33581190D01*
X94265000Y-33438333D01*
X94360238Y-33343095D01*
X94455476Y-33295476D01*
X94645952Y-33247857D01*
X94788809Y-33247857D01*
X94979285Y-33295476D01*
X95074523Y-33343095D01*
X95169761Y-33438333D01*
X95217380Y-33581190D01*
X95217380Y-33819285D01*
X94217380Y-32343095D02*
X94217380Y-32819285D01*
X94693571Y-32866904D01*
X94645952Y-32819285D01*
X94598333Y-32724047D01*
X94598333Y-32485952D01*
X94645952Y-32390714D01*
X94693571Y-32343095D01*
X94788809Y-32295476D01*
X95026904Y-32295476D01*
X95122142Y-32343095D01*
X95169761Y-32390714D01*
X95217380Y-32485952D01*
X95217380Y-32724047D01*
X95169761Y-32819285D01*
X95122142Y-32866904D01*
X95217380Y-31343095D02*
X95217380Y-31914523D01*
X95217380Y-31628809D02*
X94217380Y-31628809D01*
X94360238Y-31724047D01*
X94455476Y-31819285D01*
X94503095Y-31914523D01*
%TO.C,D50*%
X91802380Y-33889285D02*
X90802380Y-33889285D01*
X90802380Y-33651190D01*
X90850000Y-33508333D01*
X90945238Y-33413095D01*
X91040476Y-33365476D01*
X91230952Y-33317857D01*
X91373809Y-33317857D01*
X91564285Y-33365476D01*
X91659523Y-33413095D01*
X91754761Y-33508333D01*
X91802380Y-33651190D01*
X91802380Y-33889285D01*
X90802380Y-32413095D02*
X90802380Y-32889285D01*
X91278571Y-32936904D01*
X91230952Y-32889285D01*
X91183333Y-32794047D01*
X91183333Y-32555952D01*
X91230952Y-32460714D01*
X91278571Y-32413095D01*
X91373809Y-32365476D01*
X91611904Y-32365476D01*
X91707142Y-32413095D01*
X91754761Y-32460714D01*
X91802380Y-32555952D01*
X91802380Y-32794047D01*
X91754761Y-32889285D01*
X91707142Y-32936904D01*
X90802380Y-31746428D02*
X90802380Y-31651190D01*
X90850000Y-31555952D01*
X90897619Y-31508333D01*
X90992857Y-31460714D01*
X91183333Y-31413095D01*
X91421428Y-31413095D01*
X91611904Y-31460714D01*
X91707142Y-31508333D01*
X91754761Y-31555952D01*
X91802380Y-31651190D01*
X91802380Y-31746428D01*
X91754761Y-31841666D01*
X91707142Y-31889285D01*
X91611904Y-31936904D01*
X91421428Y-31984523D01*
X91183333Y-31984523D01*
X90992857Y-31936904D01*
X90897619Y-31889285D01*
X90850000Y-31841666D01*
X90802380Y-31746428D01*
%TO.C,D52*%
X115435714Y-78102380D02*
X115435714Y-77102380D01*
X115673809Y-77102380D01*
X115816666Y-77150000D01*
X115911904Y-77245238D01*
X115959523Y-77340476D01*
X116007142Y-77530952D01*
X116007142Y-77673809D01*
X115959523Y-77864285D01*
X115911904Y-77959523D01*
X115816666Y-78054761D01*
X115673809Y-78102380D01*
X115435714Y-78102380D01*
X116911904Y-77102380D02*
X116435714Y-77102380D01*
X116388095Y-77578571D01*
X116435714Y-77530952D01*
X116530952Y-77483333D01*
X116769047Y-77483333D01*
X116864285Y-77530952D01*
X116911904Y-77578571D01*
X116959523Y-77673809D01*
X116959523Y-77911904D01*
X116911904Y-78007142D01*
X116864285Y-78054761D01*
X116769047Y-78102380D01*
X116530952Y-78102380D01*
X116435714Y-78054761D01*
X116388095Y-78007142D01*
X117340476Y-77197619D02*
X117388095Y-77150000D01*
X117483333Y-77102380D01*
X117721428Y-77102380D01*
X117816666Y-77150000D01*
X117864285Y-77197619D01*
X117911904Y-77292857D01*
X117911904Y-77388095D01*
X117864285Y-77530952D01*
X117292857Y-78102380D01*
X117911904Y-78102380D01*
%TO.C,D21*%
X67674380Y-50744285D02*
X66674380Y-50744285D01*
X66674380Y-50506190D01*
X66722000Y-50363333D01*
X66817238Y-50268095D01*
X66912476Y-50220476D01*
X67102952Y-50172857D01*
X67245809Y-50172857D01*
X67436285Y-50220476D01*
X67531523Y-50268095D01*
X67626761Y-50363333D01*
X67674380Y-50506190D01*
X67674380Y-50744285D01*
X66769619Y-49791904D02*
X66722000Y-49744285D01*
X66674380Y-49649047D01*
X66674380Y-49410952D01*
X66722000Y-49315714D01*
X66769619Y-49268095D01*
X66864857Y-49220476D01*
X66960095Y-49220476D01*
X67102952Y-49268095D01*
X67674380Y-49839523D01*
X67674380Y-49220476D01*
X67674380Y-48268095D02*
X67674380Y-48839523D01*
X67674380Y-48553809D02*
X66674380Y-48553809D01*
X66817238Y-48649047D01*
X66912476Y-48744285D01*
X66960095Y-48839523D01*
%TO.C,U5*%
X80177380Y-91686904D02*
X80986904Y-91686904D01*
X81082142Y-91639285D01*
X81129761Y-91591666D01*
X81177380Y-91496428D01*
X81177380Y-91305952D01*
X81129761Y-91210714D01*
X81082142Y-91163095D01*
X80986904Y-91115476D01*
X80177380Y-91115476D01*
X80177380Y-90163095D02*
X80177380Y-90639285D01*
X80653571Y-90686904D01*
X80605952Y-90639285D01*
X80558333Y-90544047D01*
X80558333Y-90305952D01*
X80605952Y-90210714D01*
X80653571Y-90163095D01*
X80748809Y-90115476D01*
X80986904Y-90115476D01*
X81082142Y-90163095D01*
X81129761Y-90210714D01*
X81177380Y-90305952D01*
X81177380Y-90544047D01*
X81129761Y-90639285D01*
X81082142Y-90686904D01*
%TO.C,D14*%
X89952380Y-89014285D02*
X88952380Y-89014285D01*
X88952380Y-88776190D01*
X89000000Y-88633333D01*
X89095238Y-88538095D01*
X89190476Y-88490476D01*
X89380952Y-88442857D01*
X89523809Y-88442857D01*
X89714285Y-88490476D01*
X89809523Y-88538095D01*
X89904761Y-88633333D01*
X89952380Y-88776190D01*
X89952380Y-89014285D01*
X89952380Y-87490476D02*
X89952380Y-88061904D01*
X89952380Y-87776190D02*
X88952380Y-87776190D01*
X89095238Y-87871428D01*
X89190476Y-87966666D01*
X89238095Y-88061904D01*
X89285714Y-86633333D02*
X89952380Y-86633333D01*
X88904761Y-86871428D02*
X89619047Y-87109523D01*
X89619047Y-86490476D01*
%TO.C,D55*%
X115477380Y-97414285D02*
X114477380Y-97414285D01*
X114477380Y-97176190D01*
X114525000Y-97033333D01*
X114620238Y-96938095D01*
X114715476Y-96890476D01*
X114905952Y-96842857D01*
X115048809Y-96842857D01*
X115239285Y-96890476D01*
X115334523Y-96938095D01*
X115429761Y-97033333D01*
X115477380Y-97176190D01*
X115477380Y-97414285D01*
X114477380Y-95938095D02*
X114477380Y-96414285D01*
X114953571Y-96461904D01*
X114905952Y-96414285D01*
X114858333Y-96319047D01*
X114858333Y-96080952D01*
X114905952Y-95985714D01*
X114953571Y-95938095D01*
X115048809Y-95890476D01*
X115286904Y-95890476D01*
X115382142Y-95938095D01*
X115429761Y-95985714D01*
X115477380Y-96080952D01*
X115477380Y-96319047D01*
X115429761Y-96414285D01*
X115382142Y-96461904D01*
X114477380Y-94985714D02*
X114477380Y-95461904D01*
X114953571Y-95509523D01*
X114905952Y-95461904D01*
X114858333Y-95366666D01*
X114858333Y-95128571D01*
X114905952Y-95033333D01*
X114953571Y-94985714D01*
X115048809Y-94938095D01*
X115286904Y-94938095D01*
X115382142Y-94985714D01*
X115429761Y-95033333D01*
X115477380Y-95128571D01*
X115477380Y-95366666D01*
X115429761Y-95461904D01*
X115382142Y-95509523D01*
%TO.C,D8*%
X102385904Y-91510380D02*
X102385904Y-90510380D01*
X102624000Y-90510380D01*
X102766857Y-90558000D01*
X102862095Y-90653238D01*
X102909714Y-90748476D01*
X102957333Y-90938952D01*
X102957333Y-91081809D01*
X102909714Y-91272285D01*
X102862095Y-91367523D01*
X102766857Y-91462761D01*
X102624000Y-91510380D01*
X102385904Y-91510380D01*
X103528761Y-90938952D02*
X103433523Y-90891333D01*
X103385904Y-90843714D01*
X103338285Y-90748476D01*
X103338285Y-90700857D01*
X103385904Y-90605619D01*
X103433523Y-90558000D01*
X103528761Y-90510380D01*
X103719238Y-90510380D01*
X103814476Y-90558000D01*
X103862095Y-90605619D01*
X103909714Y-90700857D01*
X103909714Y-90748476D01*
X103862095Y-90843714D01*
X103814476Y-90891333D01*
X103719238Y-90938952D01*
X103528761Y-90938952D01*
X103433523Y-90986571D01*
X103385904Y-91034190D01*
X103338285Y-91129428D01*
X103338285Y-91319904D01*
X103385904Y-91415142D01*
X103433523Y-91462761D01*
X103528761Y-91510380D01*
X103719238Y-91510380D01*
X103814476Y-91462761D01*
X103862095Y-91415142D01*
X103909714Y-91319904D01*
X103909714Y-91129428D01*
X103862095Y-91034190D01*
X103814476Y-90986571D01*
X103719238Y-90938952D01*
%TO.C,D61*%
X99726380Y-102052285D02*
X98726380Y-102052285D01*
X98726380Y-101814190D01*
X98774000Y-101671333D01*
X98869238Y-101576095D01*
X98964476Y-101528476D01*
X99154952Y-101480857D01*
X99297809Y-101480857D01*
X99488285Y-101528476D01*
X99583523Y-101576095D01*
X99678761Y-101671333D01*
X99726380Y-101814190D01*
X99726380Y-102052285D01*
X98726380Y-100623714D02*
X98726380Y-100814190D01*
X98774000Y-100909428D01*
X98821619Y-100957047D01*
X98964476Y-101052285D01*
X99154952Y-101099904D01*
X99535904Y-101099904D01*
X99631142Y-101052285D01*
X99678761Y-101004666D01*
X99726380Y-100909428D01*
X99726380Y-100718952D01*
X99678761Y-100623714D01*
X99631142Y-100576095D01*
X99535904Y-100528476D01*
X99297809Y-100528476D01*
X99202571Y-100576095D01*
X99154952Y-100623714D01*
X99107333Y-100718952D01*
X99107333Y-100909428D01*
X99154952Y-101004666D01*
X99202571Y-101052285D01*
X99297809Y-101099904D01*
X99726380Y-99576095D02*
X99726380Y-100147523D01*
X99726380Y-99861809D02*
X98726380Y-99861809D01*
X98869238Y-99957047D01*
X98964476Y-100052285D01*
X99012095Y-100147523D01*
%TO.C,D68*%
X78160714Y-66722380D02*
X78160714Y-65722380D01*
X78398809Y-65722380D01*
X78541666Y-65770000D01*
X78636904Y-65865238D01*
X78684523Y-65960476D01*
X78732142Y-66150952D01*
X78732142Y-66293809D01*
X78684523Y-66484285D01*
X78636904Y-66579523D01*
X78541666Y-66674761D01*
X78398809Y-66722380D01*
X78160714Y-66722380D01*
X79589285Y-65722380D02*
X79398809Y-65722380D01*
X79303571Y-65770000D01*
X79255952Y-65817619D01*
X79160714Y-65960476D01*
X79113095Y-66150952D01*
X79113095Y-66531904D01*
X79160714Y-66627142D01*
X79208333Y-66674761D01*
X79303571Y-66722380D01*
X79494047Y-66722380D01*
X79589285Y-66674761D01*
X79636904Y-66627142D01*
X79684523Y-66531904D01*
X79684523Y-66293809D01*
X79636904Y-66198571D01*
X79589285Y-66150952D01*
X79494047Y-66103333D01*
X79303571Y-66103333D01*
X79208333Y-66150952D01*
X79160714Y-66198571D01*
X79113095Y-66293809D01*
X80255952Y-66150952D02*
X80160714Y-66103333D01*
X80113095Y-66055714D01*
X80065476Y-65960476D01*
X80065476Y-65912857D01*
X80113095Y-65817619D01*
X80160714Y-65770000D01*
X80255952Y-65722380D01*
X80446428Y-65722380D01*
X80541666Y-65770000D01*
X80589285Y-65817619D01*
X80636904Y-65912857D01*
X80636904Y-65960476D01*
X80589285Y-66055714D01*
X80541666Y-66103333D01*
X80446428Y-66150952D01*
X80255952Y-66150952D01*
X80160714Y-66198571D01*
X80113095Y-66246190D01*
X80065476Y-66341428D01*
X80065476Y-66531904D01*
X80113095Y-66627142D01*
X80160714Y-66674761D01*
X80255952Y-66722380D01*
X80446428Y-66722380D01*
X80541666Y-66674761D01*
X80589285Y-66627142D01*
X80636904Y-66531904D01*
X80636904Y-66341428D01*
X80589285Y-66246190D01*
X80541666Y-66198571D01*
X80446428Y-66150952D01*
%TO.C,D66*%
X100980380Y-84526285D02*
X99980380Y-84526285D01*
X99980380Y-84288190D01*
X100028000Y-84145333D01*
X100123238Y-84050095D01*
X100218476Y-84002476D01*
X100408952Y-83954857D01*
X100551809Y-83954857D01*
X100742285Y-84002476D01*
X100837523Y-84050095D01*
X100932761Y-84145333D01*
X100980380Y-84288190D01*
X100980380Y-84526285D01*
X99980380Y-83097714D02*
X99980380Y-83288190D01*
X100028000Y-83383428D01*
X100075619Y-83431047D01*
X100218476Y-83526285D01*
X100408952Y-83573904D01*
X100789904Y-83573904D01*
X100885142Y-83526285D01*
X100932761Y-83478666D01*
X100980380Y-83383428D01*
X100980380Y-83192952D01*
X100932761Y-83097714D01*
X100885142Y-83050095D01*
X100789904Y-83002476D01*
X100551809Y-83002476D01*
X100456571Y-83050095D01*
X100408952Y-83097714D01*
X100361333Y-83192952D01*
X100361333Y-83383428D01*
X100408952Y-83478666D01*
X100456571Y-83526285D01*
X100551809Y-83573904D01*
X99980380Y-82145333D02*
X99980380Y-82335809D01*
X100028000Y-82431047D01*
X100075619Y-82478666D01*
X100218476Y-82573904D01*
X100408952Y-82621523D01*
X100789904Y-82621523D01*
X100885142Y-82573904D01*
X100932761Y-82526285D01*
X100980380Y-82431047D01*
X100980380Y-82240571D01*
X100932761Y-82145333D01*
X100885142Y-82097714D01*
X100789904Y-82050095D01*
X100551809Y-82050095D01*
X100456571Y-82097714D01*
X100408952Y-82145333D01*
X100361333Y-82240571D01*
X100361333Y-82431047D01*
X100408952Y-82526285D01*
X100456571Y-82573904D01*
X100551809Y-82621523D01*
%TO.C,D54*%
X115590714Y-70012380D02*
X115590714Y-69012380D01*
X115828809Y-69012380D01*
X115971666Y-69060000D01*
X116066904Y-69155238D01*
X116114523Y-69250476D01*
X116162142Y-69440952D01*
X116162142Y-69583809D01*
X116114523Y-69774285D01*
X116066904Y-69869523D01*
X115971666Y-69964761D01*
X115828809Y-70012380D01*
X115590714Y-70012380D01*
X117066904Y-69012380D02*
X116590714Y-69012380D01*
X116543095Y-69488571D01*
X116590714Y-69440952D01*
X116685952Y-69393333D01*
X116924047Y-69393333D01*
X117019285Y-69440952D01*
X117066904Y-69488571D01*
X117114523Y-69583809D01*
X117114523Y-69821904D01*
X117066904Y-69917142D01*
X117019285Y-69964761D01*
X116924047Y-70012380D01*
X116685952Y-70012380D01*
X116590714Y-69964761D01*
X116543095Y-69917142D01*
X117971666Y-69345714D02*
X117971666Y-70012380D01*
X117733571Y-68964761D02*
X117495476Y-69679047D01*
X118114523Y-69679047D01*
%TO.C,D42*%
X95305714Y-75216380D02*
X95305714Y-74216380D01*
X95543809Y-74216380D01*
X95686666Y-74264000D01*
X95781904Y-74359238D01*
X95829523Y-74454476D01*
X95877142Y-74644952D01*
X95877142Y-74787809D01*
X95829523Y-74978285D01*
X95781904Y-75073523D01*
X95686666Y-75168761D01*
X95543809Y-75216380D01*
X95305714Y-75216380D01*
X96734285Y-74549714D02*
X96734285Y-75216380D01*
X96496190Y-74168761D02*
X96258095Y-74883047D01*
X96877142Y-74883047D01*
X97210476Y-74311619D02*
X97258095Y-74264000D01*
X97353333Y-74216380D01*
X97591428Y-74216380D01*
X97686666Y-74264000D01*
X97734285Y-74311619D01*
X97781904Y-74406857D01*
X97781904Y-74502095D01*
X97734285Y-74644952D01*
X97162857Y-75216380D01*
X97781904Y-75216380D01*
%TO.C,D57*%
X59745714Y-27178380D02*
X59745714Y-26178380D01*
X59983809Y-26178380D01*
X60126666Y-26226000D01*
X60221904Y-26321238D01*
X60269523Y-26416476D01*
X60317142Y-26606952D01*
X60317142Y-26749809D01*
X60269523Y-26940285D01*
X60221904Y-27035523D01*
X60126666Y-27130761D01*
X59983809Y-27178380D01*
X59745714Y-27178380D01*
X61221904Y-26178380D02*
X60745714Y-26178380D01*
X60698095Y-26654571D01*
X60745714Y-26606952D01*
X60840952Y-26559333D01*
X61079047Y-26559333D01*
X61174285Y-26606952D01*
X61221904Y-26654571D01*
X61269523Y-26749809D01*
X61269523Y-26987904D01*
X61221904Y-27083142D01*
X61174285Y-27130761D01*
X61079047Y-27178380D01*
X60840952Y-27178380D01*
X60745714Y-27130761D01*
X60698095Y-27083142D01*
X61602857Y-26178380D02*
X62269523Y-26178380D01*
X61840952Y-27178380D01*
%TO.C,D64*%
X58856714Y-69286380D02*
X58856714Y-68286380D01*
X59094809Y-68286380D01*
X59237666Y-68334000D01*
X59332904Y-68429238D01*
X59380523Y-68524476D01*
X59428142Y-68714952D01*
X59428142Y-68857809D01*
X59380523Y-69048285D01*
X59332904Y-69143523D01*
X59237666Y-69238761D01*
X59094809Y-69286380D01*
X58856714Y-69286380D01*
X60285285Y-68286380D02*
X60094809Y-68286380D01*
X59999571Y-68334000D01*
X59951952Y-68381619D01*
X59856714Y-68524476D01*
X59809095Y-68714952D01*
X59809095Y-69095904D01*
X59856714Y-69191142D01*
X59904333Y-69238761D01*
X59999571Y-69286380D01*
X60190047Y-69286380D01*
X60285285Y-69238761D01*
X60332904Y-69191142D01*
X60380523Y-69095904D01*
X60380523Y-68857809D01*
X60332904Y-68762571D01*
X60285285Y-68714952D01*
X60190047Y-68667333D01*
X59999571Y-68667333D01*
X59904333Y-68714952D01*
X59856714Y-68762571D01*
X59809095Y-68857809D01*
X61237666Y-68619714D02*
X61237666Y-69286380D01*
X60999571Y-68238761D02*
X60761476Y-68953047D01*
X61380523Y-68953047D01*
%TO.C,U3*%
X80177380Y-99436904D02*
X80986904Y-99436904D01*
X81082142Y-99389285D01*
X81129761Y-99341666D01*
X81177380Y-99246428D01*
X81177380Y-99055952D01*
X81129761Y-98960714D01*
X81082142Y-98913095D01*
X80986904Y-98865476D01*
X80177380Y-98865476D01*
X80177380Y-98484523D02*
X80177380Y-97865476D01*
X80558333Y-98198809D01*
X80558333Y-98055952D01*
X80605952Y-97960714D01*
X80653571Y-97913095D01*
X80748809Y-97865476D01*
X80986904Y-97865476D01*
X81082142Y-97913095D01*
X81129761Y-97960714D01*
X81177380Y-98055952D01*
X81177380Y-98341666D01*
X81129761Y-98436904D01*
X81082142Y-98484523D01*
%TO.C,D30*%
X85412380Y-76271285D02*
X84412380Y-76271285D01*
X84412380Y-76033190D01*
X84460000Y-75890333D01*
X84555238Y-75795095D01*
X84650476Y-75747476D01*
X84840952Y-75699857D01*
X84983809Y-75699857D01*
X85174285Y-75747476D01*
X85269523Y-75795095D01*
X85364761Y-75890333D01*
X85412380Y-76033190D01*
X85412380Y-76271285D01*
X84412380Y-75366523D02*
X84412380Y-74747476D01*
X84793333Y-75080809D01*
X84793333Y-74937952D01*
X84840952Y-74842714D01*
X84888571Y-74795095D01*
X84983809Y-74747476D01*
X85221904Y-74747476D01*
X85317142Y-74795095D01*
X85364761Y-74842714D01*
X85412380Y-74937952D01*
X85412380Y-75223666D01*
X85364761Y-75318904D01*
X85317142Y-75366523D01*
X84412380Y-74128428D02*
X84412380Y-74033190D01*
X84460000Y-73937952D01*
X84507619Y-73890333D01*
X84602857Y-73842714D01*
X84793333Y-73795095D01*
X85031428Y-73795095D01*
X85221904Y-73842714D01*
X85317142Y-73890333D01*
X85364761Y-73937952D01*
X85412380Y-74033190D01*
X85412380Y-74128428D01*
X85364761Y-74223666D01*
X85317142Y-74271285D01*
X85221904Y-74318904D01*
X85031428Y-74366523D01*
X84793333Y-74366523D01*
X84602857Y-74318904D01*
X84507619Y-74271285D01*
X84460000Y-74223666D01*
X84412380Y-74128428D01*
%TO.C,D72*%
X113665380Y-60904285D02*
X112665380Y-60904285D01*
X112665380Y-60666190D01*
X112713000Y-60523333D01*
X112808238Y-60428095D01*
X112903476Y-60380476D01*
X113093952Y-60332857D01*
X113236809Y-60332857D01*
X113427285Y-60380476D01*
X113522523Y-60428095D01*
X113617761Y-60523333D01*
X113665380Y-60666190D01*
X113665380Y-60904285D01*
X112665380Y-59999523D02*
X112665380Y-59332857D01*
X113665380Y-59761428D01*
X112760619Y-58999523D02*
X112713000Y-58951904D01*
X112665380Y-58856666D01*
X112665380Y-58618571D01*
X112713000Y-58523333D01*
X112760619Y-58475714D01*
X112855857Y-58428095D01*
X112951095Y-58428095D01*
X113093952Y-58475714D01*
X113665380Y-59047142D01*
X113665380Y-58428095D01*
%TO.C,D69*%
X71563380Y-82748285D02*
X70563380Y-82748285D01*
X70563380Y-82510190D01*
X70611000Y-82367333D01*
X70706238Y-82272095D01*
X70801476Y-82224476D01*
X70991952Y-82176857D01*
X71134809Y-82176857D01*
X71325285Y-82224476D01*
X71420523Y-82272095D01*
X71515761Y-82367333D01*
X71563380Y-82510190D01*
X71563380Y-82748285D01*
X70563380Y-81319714D02*
X70563380Y-81510190D01*
X70611000Y-81605428D01*
X70658619Y-81653047D01*
X70801476Y-81748285D01*
X70991952Y-81795904D01*
X71372904Y-81795904D01*
X71468142Y-81748285D01*
X71515761Y-81700666D01*
X71563380Y-81605428D01*
X71563380Y-81414952D01*
X71515761Y-81319714D01*
X71468142Y-81272095D01*
X71372904Y-81224476D01*
X71134809Y-81224476D01*
X71039571Y-81272095D01*
X70991952Y-81319714D01*
X70944333Y-81414952D01*
X70944333Y-81605428D01*
X70991952Y-81700666D01*
X71039571Y-81748285D01*
X71134809Y-81795904D01*
X71563380Y-80748285D02*
X71563380Y-80557809D01*
X71515761Y-80462571D01*
X71468142Y-80414952D01*
X71325285Y-80319714D01*
X71134809Y-80272095D01*
X70753857Y-80272095D01*
X70658619Y-80319714D01*
X70611000Y-80367333D01*
X70563380Y-80462571D01*
X70563380Y-80653047D01*
X70611000Y-80748285D01*
X70658619Y-80795904D01*
X70753857Y-80843523D01*
X70991952Y-80843523D01*
X71087190Y-80795904D01*
X71134809Y-80748285D01*
X71182428Y-80653047D01*
X71182428Y-80462571D01*
X71134809Y-80367333D01*
X71087190Y-80319714D01*
X70991952Y-80272095D01*
%TO.C,U6*%
X63602380Y-107686904D02*
X64411904Y-107686904D01*
X64507142Y-107639285D01*
X64554761Y-107591666D01*
X64602380Y-107496428D01*
X64602380Y-107305952D01*
X64554761Y-107210714D01*
X64507142Y-107163095D01*
X64411904Y-107115476D01*
X63602380Y-107115476D01*
X63602380Y-106210714D02*
X63602380Y-106401190D01*
X63650000Y-106496428D01*
X63697619Y-106544047D01*
X63840476Y-106639285D01*
X64030952Y-106686904D01*
X64411904Y-106686904D01*
X64507142Y-106639285D01*
X64554761Y-106591666D01*
X64602380Y-106496428D01*
X64602380Y-106305952D01*
X64554761Y-106210714D01*
X64507142Y-106163095D01*
X64411904Y-106115476D01*
X64173809Y-106115476D01*
X64078571Y-106163095D01*
X64030952Y-106210714D01*
X63983333Y-106305952D01*
X63983333Y-106496428D01*
X64030952Y-106591666D01*
X64078571Y-106639285D01*
X64173809Y-106686904D01*
%TO.C,D71*%
X103052714Y-29337380D02*
X103052714Y-28337380D01*
X103290809Y-28337380D01*
X103433666Y-28385000D01*
X103528904Y-28480238D01*
X103576523Y-28575476D01*
X103624142Y-28765952D01*
X103624142Y-28908809D01*
X103576523Y-29099285D01*
X103528904Y-29194523D01*
X103433666Y-29289761D01*
X103290809Y-29337380D01*
X103052714Y-29337380D01*
X103957476Y-28337380D02*
X104624142Y-28337380D01*
X104195571Y-29337380D01*
X105528904Y-29337380D02*
X104957476Y-29337380D01*
X105243190Y-29337380D02*
X105243190Y-28337380D01*
X105147952Y-28480238D01*
X105052714Y-28575476D01*
X104957476Y-28623095D01*
%TO.C,R7*%
X59052380Y-97156666D02*
X58576190Y-97490000D01*
X59052380Y-97728095D02*
X58052380Y-97728095D01*
X58052380Y-97347142D01*
X58100000Y-97251904D01*
X58147619Y-97204285D01*
X58242857Y-97156666D01*
X58385714Y-97156666D01*
X58480952Y-97204285D01*
X58528571Y-97251904D01*
X58576190Y-97347142D01*
X58576190Y-97728095D01*
X58052380Y-96823333D02*
X58052380Y-96156666D01*
X59052380Y-96585238D01*
%TO.C,D19*%
X57970380Y-50490285D02*
X56970380Y-50490285D01*
X56970380Y-50252190D01*
X57018000Y-50109333D01*
X57113238Y-50014095D01*
X57208476Y-49966476D01*
X57398952Y-49918857D01*
X57541809Y-49918857D01*
X57732285Y-49966476D01*
X57827523Y-50014095D01*
X57922761Y-50109333D01*
X57970380Y-50252190D01*
X57970380Y-50490285D01*
X57970380Y-48966476D02*
X57970380Y-49537904D01*
X57970380Y-49252190D02*
X56970380Y-49252190D01*
X57113238Y-49347428D01*
X57208476Y-49442666D01*
X57256095Y-49537904D01*
X57970380Y-48490285D02*
X57970380Y-48299809D01*
X57922761Y-48204571D01*
X57875142Y-48156952D01*
X57732285Y-48061714D01*
X57541809Y-48014095D01*
X57160857Y-48014095D01*
X57065619Y-48061714D01*
X57018000Y-48109333D01*
X56970380Y-48204571D01*
X56970380Y-48395047D01*
X57018000Y-48490285D01*
X57065619Y-48537904D01*
X57160857Y-48585523D01*
X57398952Y-48585523D01*
X57494190Y-48537904D01*
X57541809Y-48490285D01*
X57589428Y-48395047D01*
X57589428Y-48204571D01*
X57541809Y-48109333D01*
X57494190Y-48061714D01*
X57398952Y-48014095D01*
%TO.C,R8*%
X78702380Y-97606666D02*
X78226190Y-97940000D01*
X78702380Y-98178095D02*
X77702380Y-98178095D01*
X77702380Y-97797142D01*
X77750000Y-97701904D01*
X77797619Y-97654285D01*
X77892857Y-97606666D01*
X78035714Y-97606666D01*
X78130952Y-97654285D01*
X78178571Y-97701904D01*
X78226190Y-97797142D01*
X78226190Y-98178095D01*
X78130952Y-97035238D02*
X78083333Y-97130476D01*
X78035714Y-97178095D01*
X77940476Y-97225714D01*
X77892857Y-97225714D01*
X77797619Y-97178095D01*
X77750000Y-97130476D01*
X77702380Y-97035238D01*
X77702380Y-96844761D01*
X77750000Y-96749523D01*
X77797619Y-96701904D01*
X77892857Y-96654285D01*
X77940476Y-96654285D01*
X78035714Y-96701904D01*
X78083333Y-96749523D01*
X78130952Y-96844761D01*
X78130952Y-97035238D01*
X78178571Y-97130476D01*
X78226190Y-97178095D01*
X78321428Y-97225714D01*
X78511904Y-97225714D01*
X78607142Y-97178095D01*
X78654761Y-97130476D01*
X78702380Y-97035238D01*
X78702380Y-96844761D01*
X78654761Y-96749523D01*
X78607142Y-96701904D01*
X78511904Y-96654285D01*
X78321428Y-96654285D01*
X78226190Y-96701904D01*
X78178571Y-96749523D01*
X78130952Y-96844761D01*
%TO.C,D48*%
X31355714Y-66692380D02*
X31355714Y-65692380D01*
X31593809Y-65692380D01*
X31736666Y-65740000D01*
X31831904Y-65835238D01*
X31879523Y-65930476D01*
X31927142Y-66120952D01*
X31927142Y-66263809D01*
X31879523Y-66454285D01*
X31831904Y-66549523D01*
X31736666Y-66644761D01*
X31593809Y-66692380D01*
X31355714Y-66692380D01*
X32784285Y-66025714D02*
X32784285Y-66692380D01*
X32546190Y-65644761D02*
X32308095Y-66359047D01*
X32927142Y-66359047D01*
X33450952Y-66120952D02*
X33355714Y-66073333D01*
X33308095Y-66025714D01*
X33260476Y-65930476D01*
X33260476Y-65882857D01*
X33308095Y-65787619D01*
X33355714Y-65740000D01*
X33450952Y-65692380D01*
X33641428Y-65692380D01*
X33736666Y-65740000D01*
X33784285Y-65787619D01*
X33831904Y-65882857D01*
X33831904Y-65930476D01*
X33784285Y-66025714D01*
X33736666Y-66073333D01*
X33641428Y-66120952D01*
X33450952Y-66120952D01*
X33355714Y-66168571D01*
X33308095Y-66216190D01*
X33260476Y-66311428D01*
X33260476Y-66501904D01*
X33308095Y-66597142D01*
X33355714Y-66644761D01*
X33450952Y-66692380D01*
X33641428Y-66692380D01*
X33736666Y-66644761D01*
X33784285Y-66597142D01*
X33831904Y-66501904D01*
X33831904Y-66311428D01*
X33784285Y-66216190D01*
X33736666Y-66168571D01*
X33641428Y-66120952D01*
%TO.C,D24*%
X85376380Y-50744285D02*
X84376380Y-50744285D01*
X84376380Y-50506190D01*
X84424000Y-50363333D01*
X84519238Y-50268095D01*
X84614476Y-50220476D01*
X84804952Y-50172857D01*
X84947809Y-50172857D01*
X85138285Y-50220476D01*
X85233523Y-50268095D01*
X85328761Y-50363333D01*
X85376380Y-50506190D01*
X85376380Y-50744285D01*
X84471619Y-49791904D02*
X84424000Y-49744285D01*
X84376380Y-49649047D01*
X84376380Y-49410952D01*
X84424000Y-49315714D01*
X84471619Y-49268095D01*
X84566857Y-49220476D01*
X84662095Y-49220476D01*
X84804952Y-49268095D01*
X85376380Y-49839523D01*
X85376380Y-49220476D01*
X84709714Y-48363333D02*
X85376380Y-48363333D01*
X84328761Y-48601428D02*
X85043047Y-48839523D01*
X85043047Y-48220476D01*
%TO.C,D67*%
X93614380Y-79065285D02*
X92614380Y-79065285D01*
X92614380Y-78827190D01*
X92662000Y-78684333D01*
X92757238Y-78589095D01*
X92852476Y-78541476D01*
X93042952Y-78493857D01*
X93185809Y-78493857D01*
X93376285Y-78541476D01*
X93471523Y-78589095D01*
X93566761Y-78684333D01*
X93614380Y-78827190D01*
X93614380Y-79065285D01*
X92614380Y-77636714D02*
X92614380Y-77827190D01*
X92662000Y-77922428D01*
X92709619Y-77970047D01*
X92852476Y-78065285D01*
X93042952Y-78112904D01*
X93423904Y-78112904D01*
X93519142Y-78065285D01*
X93566761Y-78017666D01*
X93614380Y-77922428D01*
X93614380Y-77731952D01*
X93566761Y-77636714D01*
X93519142Y-77589095D01*
X93423904Y-77541476D01*
X93185809Y-77541476D01*
X93090571Y-77589095D01*
X93042952Y-77636714D01*
X92995333Y-77731952D01*
X92995333Y-77922428D01*
X93042952Y-78017666D01*
X93090571Y-78065285D01*
X93185809Y-78112904D01*
X92614380Y-77208142D02*
X92614380Y-76541476D01*
X93614380Y-76970047D01*
D11*
%TO.C,U2*%
X68030000Y-97800000D02*
X68030000Y-98070000D01*
X68030000Y-104700000D02*
X68030000Y-104430000D01*
X69530000Y-104700000D02*
X68030000Y-104700000D01*
X69530000Y-97800000D02*
X68030000Y-97800000D01*
X68030000Y-98070000D02*
X65200000Y-98070000D01*
X68030000Y-104430000D02*
X66930000Y-104430000D01*
%TO.C,D63*%
X53546000Y-81582000D02*
X53546000Y-83957000D01*
X53546000Y-87457000D02*
X53546000Y-85082000D01*
X49546000Y-87582000D02*
X53546000Y-87582000D01*
X49546000Y-81582000D02*
X53546000Y-81582000D01*
%TO.C,D18*%
X52964000Y-31490000D02*
X53120000Y-31490000D01*
X55280000Y-31490000D02*
X55436000Y-31490000D01*
X53120163Y-28888870D02*
G75*
G03*
X53120000Y-30970961I1079837J-1041130D01*
G01*
X55280000Y-30970961D02*
G75*
G03*
X55279837Y-28888870I-1080000J1040961D01*
G01*
X53121392Y-28257665D02*
G75*
G03*
X52964484Y-31490000I1078608J-1672335D01*
G01*
X55435516Y-31490000D02*
G75*
G03*
X55278608Y-28257665I-1235516J1560000D01*
G01*
%TO.C,D32*%
X31140000Y-107040000D02*
X31140000Y-108960000D01*
X31140000Y-108960000D02*
X34000000Y-108960000D01*
X34000000Y-107040000D02*
X31140000Y-107040000D01*
%TO.C,D65*%
X83106000Y-64754000D02*
X83106000Y-60754000D01*
X83106000Y-60754000D02*
X85481000Y-60754000D01*
X89106000Y-64754000D02*
X89106000Y-60754000D01*
X88981000Y-60754000D02*
X86606000Y-60754000D01*
%TO.C,J1*%
X68142500Y-115600000D02*
X68142500Y-117500000D01*
X58942500Y-115600000D02*
X61542500Y-115600000D01*
X58942500Y-130300000D02*
X58942500Y-115600000D01*
X58742500Y-116450000D02*
X58742500Y-115400000D01*
X68142500Y-121500000D02*
X68142500Y-130300000D01*
X65442500Y-115600000D02*
X68142500Y-115600000D01*
X59792500Y-115400000D02*
X58742500Y-115400000D01*
X68142500Y-130300000D02*
X58942500Y-130300000D01*
%TO.C,D3*%
X120625000Y-101920000D02*
X120625000Y-101764000D01*
X120625000Y-104236000D02*
X120625000Y-104080000D01*
X120105961Y-101920000D02*
G75*
G03*
X118023870Y-101920163I-1040961J-1080000D01*
G01*
X118023870Y-104079837D02*
G75*
G03*
X120105961Y-104080000I1041130J1079837D01*
G01*
X117392665Y-104078608D02*
G75*
G03*
X120625000Y-104235516I1672335J1078608D01*
G01*
X120625000Y-101764484D02*
G75*
G03*
X117392665Y-101921392I-1560000J-1235516D01*
G01*
%TO.C,D29*%
X76510000Y-73197000D02*
X76510000Y-76057000D01*
X78430000Y-76057000D02*
X78430000Y-73197000D01*
X78430000Y-73197000D02*
X76510000Y-73197000D01*
%TO.C,D58*%
X68120000Y-50784000D02*
X68120000Y-46784000D01*
X73995000Y-46784000D02*
X71620000Y-46784000D01*
X68120000Y-46784000D02*
X70495000Y-46784000D01*
X74120000Y-50784000D02*
X74120000Y-46784000D01*
%TO.C,D49*%
X87200000Y-35300000D02*
X90400000Y-35300000D01*
X90400000Y-31400000D02*
X90400000Y-35300000D01*
X87200000Y-31400000D02*
X87200000Y-35300000D01*
%TO.C,D9*%
X104684000Y-95216000D02*
X104684000Y-95060000D01*
X104684000Y-92900000D02*
X104684000Y-92744000D01*
X104684000Y-92744484D02*
G75*
G03*
X101451665Y-92901392I-1560000J-1235516D01*
G01*
X104164961Y-92900000D02*
G75*
G03*
X102082870Y-92900163I-1040961J-1080000D01*
G01*
X101451665Y-95058608D02*
G75*
G03*
X104684000Y-95215516I1672335J1078608D01*
G01*
X102082870Y-95059837D02*
G75*
G03*
X104164961Y-95060000I1041130J1079837D01*
G01*
%TO.C,D45*%
X64080000Y-88815000D02*
X64236000Y-88815000D01*
X61764000Y-88815000D02*
X61920000Y-88815000D01*
X64235516Y-88815000D02*
G75*
G03*
X64078608Y-85582665I-1235516J1560000D01*
G01*
X61921392Y-85582665D02*
G75*
G03*
X61764484Y-88815000I1078608J-1672335D01*
G01*
X64080000Y-88295961D02*
G75*
G03*
X64079837Y-86213870I-1080000J1040961D01*
G01*
X61920163Y-86213870D02*
G75*
G03*
X61920000Y-88295961I1079837J-1041130D01*
G01*
%TO.C,D22*%
X77140000Y-48384000D02*
X77140000Y-52284000D01*
X77140000Y-52284000D02*
X80340000Y-52284000D01*
X80340000Y-48384000D02*
X80340000Y-52284000D01*
%TO.C,D60*%
X102664000Y-75611000D02*
X102664000Y-77986000D01*
X106664000Y-75486000D02*
X102664000Y-75486000D01*
X106664000Y-81486000D02*
X102664000Y-81486000D01*
X102664000Y-81486000D02*
X102664000Y-79111000D01*
%TO.C,D26*%
X73970000Y-61894000D02*
X73970000Y-64754000D01*
X75890000Y-64754000D02*
X75890000Y-61894000D01*
X75890000Y-61894000D02*
X73970000Y-61894000D01*
%TO.C,D25*%
X69012000Y-64900000D02*
X69012000Y-61000000D01*
X72212000Y-61000000D02*
X69012000Y-61000000D01*
X72212000Y-64900000D02*
X72212000Y-61000000D01*
%TO.C,D35*%
X103550000Y-67112000D02*
X103550000Y-69032000D01*
X106410000Y-67112000D02*
X103550000Y-67112000D01*
X103550000Y-69032000D02*
X106410000Y-69032000D01*
%TO.C,U4*%
X69530000Y-96950000D02*
X68030000Y-96950000D01*
X68030000Y-96680000D02*
X66930000Y-96680000D01*
X68030000Y-90050000D02*
X68030000Y-90320000D01*
X68030000Y-96950000D02*
X68030000Y-96680000D01*
X68030000Y-90320000D02*
X65200000Y-90320000D01*
X69530000Y-90050000D02*
X68030000Y-90050000D01*
%TO.C,D40*%
X97920000Y-70600000D02*
X94020000Y-70600000D01*
X94020000Y-67400000D02*
X94020000Y-70600000D01*
X97920000Y-67400000D02*
X94020000Y-67400000D01*
%TO.C,D13*%
X90400000Y-88400000D02*
X90400000Y-84500000D01*
X93600000Y-88400000D02*
X93600000Y-84500000D01*
X93600000Y-84500000D02*
X90400000Y-84500000D01*
%TO.C,D39*%
X52290000Y-99420000D02*
X52290000Y-99264000D01*
X52290000Y-101736000D02*
X52290000Y-101580000D01*
X49057665Y-101578608D02*
G75*
G03*
X52290000Y-101735516I1672335J1078608D01*
G01*
X49688870Y-101579837D02*
G75*
G03*
X51770961Y-101580000I1041130J1079837D01*
G01*
X52290000Y-99264484D02*
G75*
G03*
X49057665Y-99421392I-1560000J-1235516D01*
G01*
X51770961Y-99420000D02*
G75*
G03*
X49688870Y-99420163I-1040961J-1080000D01*
G01*
%TO.C,U1*%
X84530000Y-111680000D02*
X83430000Y-111680000D01*
X84530000Y-111950000D02*
X84530000Y-111680000D01*
X84530000Y-105050000D02*
X84530000Y-105320000D01*
X86030000Y-105050000D02*
X84530000Y-105050000D01*
X86030000Y-111950000D02*
X84530000Y-111950000D01*
X84530000Y-105320000D02*
X81700000Y-105320000D01*
%TO.C,J3*%
X45470000Y-125430000D02*
X55750000Y-125430000D01*
X45470000Y-116069000D02*
X55750000Y-116069000D01*
X45230000Y-126230000D02*
X45730000Y-126230000D01*
X52116000Y-122569000D02*
X52081000Y-122604000D01*
X45470000Y-125990000D02*
X55750000Y-125990000D01*
X45470000Y-123930000D02*
X55750000Y-123930000D01*
X55750000Y-116069000D02*
X55750000Y-125990000D01*
X51923000Y-122353000D02*
X51876000Y-122399000D01*
X45470000Y-119029000D02*
X55750000Y-119029000D01*
X45230000Y-125490000D02*
X45230000Y-126230000D01*
X45470000Y-116069000D02*
X45470000Y-125990000D01*
X54220000Y-120055000D02*
X54185000Y-120091000D01*
X54425000Y-120261000D02*
X54378000Y-120307000D01*
X47386000Y-122865000D02*
G75*
G03*
X48098805Y-123010253I683999J1535001D01*
G01*
X46535000Y-120646000D02*
G75*
G03*
X46534573Y-122013042I1534993J-684001D01*
G01*
X48754000Y-119795000D02*
G75*
G03*
X47386958Y-119794573I-684001J-1534993D01*
G01*
X49605001Y-122014000D02*
G75*
G03*
X49605427Y-120646958I-1535001J684000D01*
G01*
X48070000Y-123010000D02*
G75*
G03*
X48753318Y-122864756I0J1680000D01*
G01*
X54830000Y-121330000D02*
G75*
G03*
X54830000Y-121330000I-1680000J0D01*
G01*
%TO.C,R3*%
X81772936Y-99765000D02*
X82227064Y-99765000D01*
X81772936Y-101235000D02*
X82227064Y-101235000D01*
%TO.C,D46*%
X30200000Y-76300000D02*
X30200000Y-79500000D01*
X34100000Y-76300000D02*
X30200000Y-76300000D01*
X34100000Y-79500000D02*
X30200000Y-79500000D01*
%TO.C,D37*%
X49100000Y-92600000D02*
X53000000Y-92600000D01*
X49100000Y-89400000D02*
X53000000Y-89400000D01*
X53000000Y-92600000D02*
X53000000Y-89400000D01*
%TO.C,R1*%
X81772936Y-108735000D02*
X82227064Y-108735000D01*
X81772936Y-107265000D02*
X82227064Y-107265000D01*
%TO.C,C1*%
X96735000Y-121976248D02*
X96735000Y-122498752D01*
X95265000Y-121976248D02*
X95265000Y-122498752D01*
%TO.C,D16*%
X46800000Y-28600000D02*
X46800000Y-32500000D01*
X43600000Y-28600000D02*
X43600000Y-32500000D01*
X43600000Y-32500000D02*
X46800000Y-32500000D01*
%TO.C,R4*%
X65272936Y-93735000D02*
X65727064Y-93735000D01*
X65272936Y-92265000D02*
X65727064Y-92265000D01*
%TO.C,D62*%
X96472000Y-52784000D02*
X94097000Y-52784000D01*
X90472000Y-48784000D02*
X90472000Y-52784000D01*
X90597000Y-52784000D02*
X92972000Y-52784000D01*
X96472000Y-48784000D02*
X96472000Y-52784000D01*
%TO.C,D47*%
X33600000Y-72840000D02*
X30740000Y-72840000D01*
X30740000Y-74760000D02*
X33600000Y-74760000D01*
X30740000Y-72840000D02*
X30740000Y-74760000D01*
%TO.C,D34*%
X103000000Y-62408000D02*
X103000000Y-65608000D01*
X106900000Y-62408000D02*
X103000000Y-62408000D01*
X106900000Y-65608000D02*
X103000000Y-65608000D01*
%TO.C,D38*%
X49670000Y-96460000D02*
X52530000Y-96460000D01*
X52530000Y-94540000D02*
X49670000Y-94540000D01*
X52530000Y-96460000D02*
X52530000Y-94540000D01*
%TO.C,D36*%
X103710000Y-71662000D02*
X103710000Y-71818000D01*
X103710000Y-73978000D02*
X103710000Y-74134000D01*
X106311130Y-71818163D02*
G75*
G03*
X104229039Y-71818000I-1041130J-1079837D01*
G01*
X103710000Y-74133516D02*
G75*
G03*
X106942335Y-73976608I1560000J1235516D01*
G01*
X106942335Y-71819392D02*
G75*
G03*
X103710000Y-71662484I-1672335J-1078608D01*
G01*
X104229039Y-73978000D02*
G75*
G03*
X106311130Y-73977837I1040961J1080000D01*
G01*
%TO.C,D41*%
X94660000Y-72040000D02*
X94660000Y-73960000D01*
X94660000Y-73960000D02*
X97520000Y-73960000D01*
X97520000Y-72040000D02*
X94660000Y-72040000D01*
%TO.C,D20*%
X58476000Y-47640000D02*
X58476000Y-50500000D01*
X60396000Y-50500000D02*
X60396000Y-47640000D01*
X60396000Y-47640000D02*
X58476000Y-47640000D01*
%TO.C,D11*%
X61550000Y-77160000D02*
X61550000Y-75240000D01*
X61550000Y-75240000D02*
X58690000Y-75240000D01*
X58690000Y-77160000D02*
X61550000Y-77160000D01*
%TO.C,D44*%
X68710000Y-89610000D02*
X68710000Y-86750000D01*
X66790000Y-89610000D02*
X68710000Y-89610000D01*
X66790000Y-86750000D02*
X66790000Y-89610000D01*
%TO.C,D33*%
X31620000Y-114080000D02*
X31620000Y-114236000D01*
X31620000Y-111764000D02*
X31620000Y-111920000D01*
X31620000Y-114235516D02*
G75*
G03*
X34852335Y-114078608I1560000J1235516D01*
G01*
X34221130Y-111920163D02*
G75*
G03*
X32139039Y-111920000I-1041130J-1079837D01*
G01*
X32139039Y-114080000D02*
G75*
G03*
X34221130Y-114079837I1040961J1080000D01*
G01*
X34852335Y-111921392D02*
G75*
G03*
X31620000Y-111764484I-1672335J-1078608D01*
G01*
%TO.C,R9*%
X60630000Y-91420000D02*
X60960000Y-91420000D01*
X63040000Y-97960000D02*
X63370000Y-97960000D01*
X60960000Y-97960000D02*
X60630000Y-97960000D01*
X63370000Y-97960000D02*
X63370000Y-91420000D01*
X60630000Y-97960000D02*
X60630000Y-91420000D01*
X63370000Y-91420000D02*
X63040000Y-91420000D01*
%TO.C,R2*%
X65272936Y-100015000D02*
X65727064Y-100015000D01*
X65272936Y-101485000D02*
X65727064Y-101485000D01*
%TO.C,R10*%
X82520000Y-81960000D02*
X82520000Y-81630000D01*
X75980000Y-84370000D02*
X75980000Y-84040000D01*
X75980000Y-81630000D02*
X75980000Y-81960000D01*
X82520000Y-81630000D02*
X75980000Y-81630000D01*
X82520000Y-84370000D02*
X75980000Y-84370000D01*
X82520000Y-84040000D02*
X82520000Y-84370000D01*
%TO.C,D31*%
X34480000Y-102400000D02*
X30580000Y-102400000D01*
X34480000Y-105600000D02*
X30580000Y-105600000D01*
X30580000Y-102400000D02*
X30580000Y-105600000D01*
%TO.C,D56*%
X47958000Y-56436000D02*
X47958000Y-58811000D01*
X47958000Y-62311000D02*
X47958000Y-59936000D01*
X43958000Y-56436000D02*
X47958000Y-56436000D01*
X43958000Y-62436000D02*
X47958000Y-62436000D01*
%TO.C,D17*%
X48440000Y-28800000D02*
X48440000Y-31660000D01*
X48440000Y-31660000D02*
X50360000Y-31660000D01*
X50360000Y-31660000D02*
X50360000Y-28800000D01*
%TO.C,R12*%
X56295000Y-110530000D02*
X56295000Y-110860000D01*
X56295000Y-113270000D02*
X56295000Y-112940000D01*
X62835000Y-113270000D02*
X56295000Y-113270000D01*
X62835000Y-112940000D02*
X62835000Y-113270000D01*
X62835000Y-110530000D02*
X56295000Y-110530000D01*
X62835000Y-110860000D02*
X62835000Y-110530000D01*
%TO.C,D5*%
X44500000Y-71960000D02*
X47360000Y-71960000D01*
X47360000Y-71960000D02*
X47360000Y-70040000D01*
X47360000Y-70040000D02*
X44500000Y-70040000D01*
%TO.C,D53*%
X118510000Y-72210000D02*
X118510000Y-70290000D01*
X115650000Y-72210000D02*
X118510000Y-72210000D01*
X118510000Y-70290000D02*
X115650000Y-70290000D01*
%TO.C,D28*%
X75100000Y-72557000D02*
X71900000Y-72557000D01*
X75100000Y-76457000D02*
X75100000Y-72557000D01*
X71900000Y-76457000D02*
X71900000Y-72557000D01*
%TO.C,D7*%
X101724000Y-86690000D02*
X105624000Y-86690000D01*
X105624000Y-86690000D02*
X105624000Y-83490000D01*
X101724000Y-83490000D02*
X105624000Y-83490000D01*
%TO.C,R11*%
X65772936Y-108065000D02*
X66227064Y-108065000D01*
X65772936Y-109535000D02*
X66227064Y-109535000D01*
%TO.C,D23*%
X81844000Y-51136000D02*
X83764000Y-51136000D01*
X81844000Y-48276000D02*
X81844000Y-51136000D01*
X83764000Y-51136000D02*
X83764000Y-48276000D01*
%TO.C,D43*%
X73600000Y-85600000D02*
X73600000Y-89500000D01*
X70400000Y-85600000D02*
X70400000Y-89500000D01*
X70400000Y-89500000D02*
X73600000Y-89500000D01*
%TO.C,D27*%
X78422000Y-62194000D02*
X78266000Y-62194000D01*
X80738000Y-62194000D02*
X80582000Y-62194000D01*
X80580608Y-65426335D02*
G75*
G03*
X80737516Y-62194000I-1078608J1672335D01*
G01*
X80581837Y-64795130D02*
G75*
G03*
X80582000Y-62713039I-1079837J1041130D01*
G01*
X78422000Y-62713039D02*
G75*
G03*
X78422163Y-64795130I1080000J-1040961D01*
G01*
X78266484Y-62194000D02*
G75*
G03*
X78423392Y-65426335I1235516J-1560000D01*
G01*
%TO.C,D6*%
X46790000Y-64420000D02*
X46790000Y-64264000D01*
X46790000Y-66736000D02*
X46790000Y-66580000D01*
X43557665Y-66578608D02*
G75*
G03*
X46790000Y-66735516I1672335J1078608D01*
G01*
X46270961Y-64420000D02*
G75*
G03*
X44188870Y-64420163I-1040961J-1080000D01*
G01*
X44188870Y-66579837D02*
G75*
G03*
X46270961Y-66580000I1041130J1079837D01*
G01*
X46790000Y-64264484D02*
G75*
G03*
X43557665Y-64421392I-1560000J-1235516D01*
G01*
%TO.C,D2*%
X120860000Y-108960000D02*
X120860000Y-107040000D01*
X120860000Y-107040000D02*
X118000000Y-107040000D01*
X118000000Y-108960000D02*
X120860000Y-108960000D01*
%TO.C,R5*%
X81772936Y-92265000D02*
X82227064Y-92265000D01*
X81772936Y-93735000D02*
X82227064Y-93735000D01*
%TO.C,D1*%
X117600000Y-113600000D02*
X121500000Y-113600000D01*
X121500000Y-113600000D02*
X121500000Y-110400000D01*
X117600000Y-110400000D02*
X121500000Y-110400000D01*
%TO.C,D59*%
X33813000Y-95044000D02*
X29813000Y-95044000D01*
X33813000Y-101044000D02*
X29813000Y-101044000D01*
X29813000Y-101044000D02*
X29813000Y-98669000D01*
X29813000Y-95169000D02*
X29813000Y-97544000D01*
%TO.C,D12*%
X61504000Y-83278000D02*
X61504000Y-83122000D01*
X61504000Y-80962000D02*
X61504000Y-80806000D01*
X58271665Y-83120608D02*
G75*
G03*
X61504000Y-83277516I1672335J1078608D01*
G01*
X60984961Y-80962000D02*
G75*
G03*
X58902870Y-80962163I-1040961J-1080000D01*
G01*
X61504000Y-80806484D02*
G75*
G03*
X58271665Y-80963392I-1560000J-1235516D01*
G01*
X58902870Y-83121837D02*
G75*
G03*
X60984961Y-83122000I1041130J1079837D01*
G01*
%TO.C,D15*%
X84236000Y-85685000D02*
X84080000Y-85685000D01*
X81920000Y-85685000D02*
X81764000Y-85685000D01*
X81920000Y-86204039D02*
G75*
G03*
X81920163Y-88286130I1080000J-1040961D01*
G01*
X81764484Y-85685000D02*
G75*
G03*
X81921392Y-88917335I1235516J-1560000D01*
G01*
X84079837Y-88286130D02*
G75*
G03*
X84080000Y-86204039I-1079837J1041130D01*
G01*
X84078608Y-88917335D02*
G75*
G03*
X84235516Y-85685000I-1078608J1672335D01*
G01*
%TO.C,R6*%
X79895000Y-105070000D02*
X79565000Y-105070000D01*
X79895000Y-111610000D02*
X79895000Y-105070000D01*
X77155000Y-105070000D02*
X77485000Y-105070000D01*
X77485000Y-111610000D02*
X77155000Y-111610000D01*
X79565000Y-111610000D02*
X79895000Y-111610000D01*
X77155000Y-111610000D02*
X77155000Y-105070000D01*
%TO.C,D4*%
X44100000Y-73900000D02*
X48000000Y-73900000D01*
X44100000Y-77100000D02*
X48000000Y-77100000D01*
X48000000Y-77100000D02*
X48000000Y-73900000D01*
%TO.C,D10*%
X58544000Y-69520000D02*
X62444000Y-69520000D01*
X58544000Y-72720000D02*
X62444000Y-72720000D01*
X62444000Y-72720000D02*
X62444000Y-69520000D01*
%TO.C,D70*%
X29893000Y-59482000D02*
X29893000Y-61857000D01*
X29893000Y-65357000D02*
X29893000Y-62982000D01*
X33893000Y-65357000D02*
X29893000Y-65357000D01*
X33893000Y-59357000D02*
X29893000Y-59357000D01*
%TO.C,D51*%
X98805000Y-34165000D02*
X98961000Y-34165000D01*
X96489000Y-34165000D02*
X96645000Y-34165000D01*
X98960516Y-34165000D02*
G75*
G03*
X98803608Y-30932665I-1235516J1560000D01*
G01*
X96646392Y-30932665D02*
G75*
G03*
X96489484Y-34165000I1078608J-1672335D01*
G01*
X98805000Y-33645961D02*
G75*
G03*
X98804837Y-31563870I-1080000J1040961D01*
G01*
X96645163Y-31563870D02*
G75*
G03*
X96645000Y-33645961I1079837J-1041130D01*
G01*
%TO.C,D50*%
X92040000Y-34535000D02*
X93960000Y-34535000D01*
X92040000Y-31675000D02*
X92040000Y-34535000D01*
X93960000Y-34535000D02*
X93960000Y-31675000D01*
%TO.C,D52*%
X119150000Y-76850000D02*
X119150000Y-73650000D01*
X115250000Y-76850000D02*
X119150000Y-76850000D01*
X115250000Y-73650000D02*
X119150000Y-73650000D01*
%TO.C,D21*%
X63182000Y-47970000D02*
X63026000Y-47970000D01*
X65498000Y-47970000D02*
X65342000Y-47970000D01*
X65340608Y-51202335D02*
G75*
G03*
X65497516Y-47970000I-1078608J1672335D01*
G01*
X63182000Y-48489039D02*
G75*
G03*
X63182163Y-50571130I1080000J-1040961D01*
G01*
X63026484Y-47970000D02*
G75*
G03*
X63183392Y-51202335I1235516J-1560000D01*
G01*
X65341837Y-50571130D02*
G75*
G03*
X65342000Y-48489039I-1079837J1041130D01*
G01*
%TO.C,U5*%
X84530000Y-96680000D02*
X83430000Y-96680000D01*
X84530000Y-90320000D02*
X81700000Y-90320000D01*
X84530000Y-90050000D02*
X84530000Y-90320000D01*
X86030000Y-96950000D02*
X84530000Y-96950000D01*
X86030000Y-90050000D02*
X84530000Y-90050000D01*
X84530000Y-96950000D02*
X84530000Y-96680000D01*
%TO.C,D14*%
X86890000Y-85940000D02*
X86890000Y-88800000D01*
X88810000Y-88800000D02*
X88810000Y-85940000D01*
X88810000Y-85940000D02*
X86890000Y-85940000D01*
%TO.C,D55*%
X121525000Y-99075000D02*
X121525000Y-96700000D01*
X117525000Y-99200000D02*
X121525000Y-99200000D01*
X117525000Y-93200000D02*
X121525000Y-93200000D01*
X121525000Y-93200000D02*
X121525000Y-95575000D01*
%TO.C,D8*%
X104984000Y-90368000D02*
X104984000Y-88448000D01*
X104984000Y-88448000D02*
X102124000Y-88448000D01*
X102124000Y-90368000D02*
X104984000Y-90368000D01*
%TO.C,D61*%
X101774000Y-103838000D02*
X105774000Y-103838000D01*
X101774000Y-97838000D02*
X105774000Y-97838000D01*
X105774000Y-97838000D02*
X105774000Y-100213000D01*
X105774000Y-103713000D02*
X105774000Y-101338000D01*
%TO.C,D68*%
X82375000Y-72770000D02*
X80000000Y-72770000D01*
X76375000Y-68770000D02*
X76375000Y-72770000D01*
X82375000Y-68770000D02*
X82375000Y-72770000D01*
X76500000Y-72770000D02*
X78875000Y-72770000D01*
%TO.C,D66*%
X98028000Y-86312000D02*
X94028000Y-86312000D01*
X94028000Y-86312000D02*
X94028000Y-83937000D01*
X94028000Y-80437000D02*
X94028000Y-82812000D01*
X98028000Y-80312000D02*
X94028000Y-80312000D01*
%TO.C,D54*%
X118365000Y-65520000D02*
X118365000Y-65364000D01*
X118365000Y-67836000D02*
X118365000Y-67680000D01*
X118365000Y-65364484D02*
G75*
G03*
X115132665Y-65521392I-1560000J-1235516D01*
G01*
X117845961Y-65520000D02*
G75*
G03*
X115763870Y-65520163I-1040961J-1080000D01*
G01*
X115132665Y-67678608D02*
G75*
G03*
X118365000Y-67835516I1672335J1078608D01*
G01*
X115763870Y-67679837D02*
G75*
G03*
X117845961Y-67680000I1041130J1079837D01*
G01*
%TO.C,D42*%
X94960000Y-76488000D02*
X94960000Y-76644000D01*
X94960000Y-78804000D02*
X94960000Y-78960000D01*
X98192335Y-76645392D02*
G75*
G03*
X94960000Y-76488484I-1672335J-1078608D01*
G01*
X94960000Y-78959516D02*
G75*
G03*
X98192335Y-78802608I1560000J1235516D01*
G01*
X97561130Y-76644163D02*
G75*
G03*
X95479039Y-76644000I-1041130J-1079837D01*
G01*
X95479039Y-78804000D02*
G75*
G03*
X97561130Y-78803837I1040961J1080000D01*
G01*
%TO.C,SW1*%
X83365000Y-125345000D02*
X83365000Y-126085000D01*
X83605000Y-118884000D02*
X93885000Y-118884000D01*
X83605000Y-115924000D02*
X93885000Y-115924000D01*
X93885000Y-115924000D02*
X93885000Y-125845000D01*
X83605000Y-115924000D02*
X83605000Y-125845000D01*
X83605000Y-123785000D02*
X93885000Y-123785000D01*
X90058000Y-122208000D02*
X90011000Y-122254000D01*
X83605000Y-125285000D02*
X93885000Y-125285000D01*
X83605000Y-125845000D02*
X93885000Y-125845000D01*
X92355000Y-119910000D02*
X92320000Y-119946000D01*
X90251000Y-122424000D02*
X90216000Y-122459000D01*
X83365000Y-126085000D02*
X83865000Y-126085000D01*
X92560000Y-120116000D02*
X92513000Y-120162000D01*
X85521000Y-122720000D02*
G75*
G03*
X86233805Y-122865253I683999J1535001D01*
G01*
X86205000Y-122865000D02*
G75*
G03*
X86888318Y-122719756I0J1680000D01*
G01*
X84670000Y-120501000D02*
G75*
G03*
X84669573Y-121868042I1534993J-684001D01*
G01*
X86889000Y-119650000D02*
G75*
G03*
X85521958Y-119649573I-684001J-1534993D01*
G01*
X87740001Y-121869000D02*
G75*
G03*
X87740427Y-120501958I-1535001J684000D01*
G01*
X92965000Y-121185000D02*
G75*
G03*
X92965000Y-121185000I-1680000J0D01*
G01*
%TO.C,D57*%
X63960000Y-33226000D02*
X61585000Y-33226000D01*
X58085000Y-33226000D02*
X60460000Y-33226000D01*
X57960000Y-29226000D02*
X57960000Y-33226000D01*
X63960000Y-29226000D02*
X63960000Y-33226000D01*
%TO.C,D64*%
X59024000Y-62151000D02*
X63024000Y-62151000D01*
X63024000Y-62151000D02*
X63024000Y-64526000D01*
X63024000Y-68026000D02*
X63024000Y-65651000D01*
X59024000Y-68151000D02*
X63024000Y-68151000D01*
%TO.C,U3*%
X84530000Y-104180000D02*
X83430000Y-104180000D01*
X86030000Y-104450000D02*
X84530000Y-104450000D01*
X86030000Y-97550000D02*
X84530000Y-97550000D01*
X84530000Y-104450000D02*
X84530000Y-104180000D01*
X84530000Y-97550000D02*
X84530000Y-97820000D01*
X84530000Y-97820000D02*
X81700000Y-97820000D01*
%TO.C,D30*%
X83236000Y-73497000D02*
X83080000Y-73497000D01*
X80920000Y-73497000D02*
X80764000Y-73497000D01*
X83079837Y-76098130D02*
G75*
G03*
X83080000Y-74016039I-1079837J1041130D01*
G01*
X80764484Y-73497000D02*
G75*
G03*
X80921392Y-76729335I1235516J-1560000D01*
G01*
X83078608Y-76729335D02*
G75*
G03*
X83235516Y-73497000I-1078608J1672335D01*
G01*
X80920000Y-74016039D02*
G75*
G03*
X80920163Y-76098130I1080000J-1040961D01*
G01*
%TO.C,D72*%
X115713000Y-62690000D02*
X119713000Y-62690000D01*
X115713000Y-56690000D02*
X119713000Y-56690000D01*
X119713000Y-62565000D02*
X119713000Y-60190000D01*
X119713000Y-56690000D02*
X119713000Y-59065000D01*
%TO.C,D69*%
X64611000Y-84534000D02*
X64611000Y-82159000D01*
X68611000Y-78534000D02*
X64611000Y-78534000D01*
X64611000Y-78659000D02*
X64611000Y-81034000D01*
X68611000Y-84534000D02*
X64611000Y-84534000D01*
%TO.C,U6*%
X67905000Y-112380000D02*
X66805000Y-112380000D01*
X67905000Y-105750000D02*
X67905000Y-106020000D01*
X69405000Y-112650000D02*
X67905000Y-112650000D01*
X67905000Y-112650000D02*
X67905000Y-112380000D01*
X67905000Y-106020000D02*
X65075000Y-106020000D01*
X69405000Y-105750000D02*
X67905000Y-105750000D01*
%TO.C,D71*%
X107267000Y-31385000D02*
X107267000Y-35385000D01*
X107267000Y-35385000D02*
X104892000Y-35385000D01*
X101392000Y-35385000D02*
X103767000Y-35385000D01*
X101267000Y-31385000D02*
X101267000Y-35385000D01*
%TO.C,R7*%
X57560000Y-100260000D02*
X57230000Y-100260000D01*
X57230000Y-100260000D02*
X57230000Y-93720000D01*
X59970000Y-100260000D02*
X59970000Y-93720000D01*
X57230000Y-93720000D02*
X57560000Y-93720000D01*
X59970000Y-93720000D02*
X59640000Y-93720000D01*
X59640000Y-100260000D02*
X59970000Y-100260000D01*
%TO.C,D19*%
X56718000Y-50676000D02*
X56718000Y-46776000D01*
X56718000Y-46776000D02*
X53518000Y-46776000D01*
X53518000Y-50676000D02*
X53518000Y-46776000D01*
%TO.C,R8*%
X77210000Y-100710000D02*
X76880000Y-100710000D01*
X79620000Y-100710000D02*
X79620000Y-94170000D01*
X79620000Y-94170000D02*
X79290000Y-94170000D01*
X76880000Y-100710000D02*
X76880000Y-94170000D01*
X79290000Y-100710000D02*
X79620000Y-100710000D01*
X76880000Y-94170000D02*
X77210000Y-94170000D01*
%TO.C,D48*%
X31010000Y-67964000D02*
X31010000Y-68120000D01*
X31010000Y-70280000D02*
X31010000Y-70436000D01*
X31010000Y-70435516D02*
G75*
G03*
X34242335Y-70278608I1560000J1235516D01*
G01*
X33611130Y-68120163D02*
G75*
G03*
X31529039Y-68120000I-1041130J-1079837D01*
G01*
X34242335Y-68121392D02*
G75*
G03*
X31010000Y-67964484I-1672335J-1078608D01*
G01*
X31529039Y-70280000D02*
G75*
G03*
X33611130Y-70279837I1040961J1080000D01*
G01*
%TO.C,D24*%
X88964000Y-51090000D02*
X89120000Y-51090000D01*
X86648000Y-51090000D02*
X86804000Y-51090000D01*
X86804163Y-48488870D02*
G75*
G03*
X86804000Y-50570961I1079837J-1041130D01*
G01*
X88964000Y-50570961D02*
G75*
G03*
X88963837Y-48488870I-1080000J1040961D01*
G01*
X89119516Y-51090000D02*
G75*
G03*
X88962608Y-47857665I-1235516J1560000D01*
G01*
X86805392Y-47857665D02*
G75*
G03*
X86648484Y-51090000I1078608J-1672335D01*
G01*
%TO.C,D67*%
X90662000Y-74851000D02*
X86662000Y-74851000D01*
X90662000Y-80851000D02*
X86662000Y-80851000D01*
X86662000Y-80851000D02*
X86662000Y-78476000D01*
X86662000Y-74976000D02*
X86662000Y-77351000D01*
%TD*%
M02*
