%TF.GenerationSoftware,KiCad,Pcbnew,(6.0.11)*%
%TF.CreationDate,2023-05-28T11:24:04-05:00*%
%TF.ProjectId,LEDpanel,4c454470-616e-4656-9c2e-6b696361645f,rev?*%
%TF.SameCoordinates,Original*%
%TF.FileFunction,Paste,Top*%
%TF.FilePolarity,Positive*%
%FSLAX46Y46*%
G04 Gerber Fmt 4.6, Leading zero omitted, Abs format (unit mm)*
G04 Created by KiCad (PCBNEW (6.0.11)) date 2023-05-28 11:24:04*
%MOMM*%
%LPD*%
G01*
G04 APERTURE LIST*
G04 Aperture macros list*
%AMRoundRect*
0 Rectangle with rounded corners*
0 $1 Rounding radius*
0 $2 $3 $4 $5 $6 $7 $8 $9 X,Y pos of 4 corners*
0 Add a 4 corners polygon primitive as box body*
4,1,4,$2,$3,$4,$5,$6,$7,$8,$9,$2,$3,0*
0 Add four circle primitives for the rounded corners*
1,1,$1+$1,$2,$3*
1,1,$1+$1,$4,$5*
1,1,$1+$1,$6,$7*
1,1,$1+$1,$8,$9*
0 Add four rect primitives between the rounded corners*
20,1,$1+$1,$2,$3,$4,$5,0*
20,1,$1+$1,$4,$5,$6,$7,0*
20,1,$1+$1,$6,$7,$8,$9,0*
20,1,$1+$1,$8,$9,$2,$3,0*%
G04 Aperture macros list end*
%ADD10R,3.050000X2.750000*%
%ADD11R,2.200000X1.200000*%
%ADD12R,1.350000X5.000000*%
%ADD13RoundRect,0.250000X-0.325000X-0.450000X0.325000X-0.450000X0.325000X0.450000X-0.325000X0.450000X0*%
%ADD14R,5.000000X1.350000*%
%ADD15RoundRect,0.250000X-0.450000X0.325000X-0.450000X-0.325000X0.450000X-0.325000X0.450000X0.325000X0*%
%ADD16R,2.200000X2.500000*%
%ADD17R,2.200000X1.550000*%
%ADD18R,2.500000X2.200000*%
%ADD19R,1.550000X2.200000*%
%ADD20RoundRect,0.250000X-0.350000X-0.450000X0.350000X-0.450000X0.350000X0.450000X-0.350000X0.450000X0*%
%ADD21RoundRect,0.250000X-0.475000X0.337500X-0.475000X-0.337500X0.475000X-0.337500X0.475000X0.337500X0*%
%ADD22RoundRect,0.250000X0.325000X0.450000X-0.325000X0.450000X-0.325000X-0.450000X0.325000X-0.450000X0*%
%ADD23RoundRect,0.250000X0.450000X-0.325000X0.450000X0.325000X-0.450000X0.325000X-0.450000X-0.325000X0*%
G04 APERTURE END LIST*
D10*
%TO.C,U2*%
X74275000Y-102775000D03*
X74275000Y-99725000D03*
X70925000Y-99725000D03*
X70925000Y-102775000D03*
D11*
X66300000Y-98970000D03*
X66300000Y-103530000D03*
%TD*%
D12*
%TO.C,D63*%
X52371000Y-84582000D03*
X48721000Y-84582000D03*
%TD*%
D13*
%TO.C,D32*%
X31975000Y-108000000D03*
X34025000Y-108000000D03*
%TD*%
D14*
%TO.C,D65*%
X86106000Y-61929000D03*
X86106000Y-65579000D03*
%TD*%
D15*
%TO.C,D29*%
X77470000Y-74032000D03*
X77470000Y-76082000D03*
%TD*%
D14*
%TO.C,D58*%
X71120000Y-47959000D03*
X71120000Y-51609000D03*
%TD*%
D16*
%TO.C,D49*%
X88800000Y-33850000D03*
D17*
X88800000Y-31275000D03*
%TD*%
D16*
%TO.C,D22*%
X78740000Y-50834000D03*
D17*
X78740000Y-48259000D03*
%TD*%
D12*
%TO.C,D60*%
X103839000Y-78486000D03*
X107489000Y-78486000D03*
%TD*%
D15*
%TO.C,D26*%
X74930000Y-62729000D03*
X74930000Y-64779000D03*
%TD*%
D16*
%TO.C,D25*%
X70612000Y-62450000D03*
D17*
X70612000Y-65025000D03*
%TD*%
D13*
%TO.C,D35*%
X104385000Y-68072000D03*
X106435000Y-68072000D03*
%TD*%
D10*
%TO.C,U4*%
X74275000Y-95025000D03*
X70925000Y-91975000D03*
X70925000Y-95025000D03*
X74275000Y-91975000D03*
D11*
X66300000Y-91220000D03*
X66300000Y-95780000D03*
%TD*%
D18*
%TO.C,D40*%
X95470000Y-69000000D03*
D19*
X98045000Y-69000000D03*
%TD*%
D16*
%TO.C,D13*%
X92000000Y-85950000D03*
D17*
X92000000Y-88525000D03*
%TD*%
D10*
%TO.C,U1*%
X87425000Y-110025000D03*
X87425000Y-106975000D03*
X90775000Y-106975000D03*
X90775000Y-110025000D03*
D11*
X82800000Y-106220000D03*
X82800000Y-110780000D03*
%TD*%
D20*
%TO.C,R3*%
X81000000Y-100500000D03*
X83000000Y-100500000D03*
%TD*%
D18*
%TO.C,D46*%
X31650000Y-77900000D03*
D19*
X34225000Y-77900000D03*
%TD*%
D18*
%TO.C,D37*%
X51550000Y-91000000D03*
D19*
X48975000Y-91000000D03*
%TD*%
D20*
%TO.C,R1*%
X81000000Y-108000000D03*
X83000000Y-108000000D03*
%TD*%
D21*
%TO.C,C1*%
X96000000Y-121200000D03*
X96000000Y-123275000D03*
%TD*%
D16*
%TO.C,D16*%
X45200000Y-31050000D03*
D17*
X45200000Y-28475000D03*
%TD*%
D20*
%TO.C,R4*%
X64500000Y-93000000D03*
X66500000Y-93000000D03*
%TD*%
D14*
%TO.C,D62*%
X93472000Y-51609000D03*
X93472000Y-47959000D03*
%TD*%
D13*
%TO.C,D47*%
X31575000Y-73800000D03*
X33625000Y-73800000D03*
%TD*%
D18*
%TO.C,D34*%
X104450000Y-64008000D03*
D19*
X107025000Y-64008000D03*
%TD*%
D22*
%TO.C,D38*%
X51695000Y-95500000D03*
X49645000Y-95500000D03*
%TD*%
D13*
%TO.C,D41*%
X95495000Y-73000000D03*
X97545000Y-73000000D03*
%TD*%
D15*
%TO.C,D20*%
X59436000Y-48475000D03*
X59436000Y-50525000D03*
%TD*%
D22*
%TO.C,D11*%
X60715000Y-76200000D03*
X58665000Y-76200000D03*
%TD*%
D23*
%TO.C,D44*%
X67750000Y-88775000D03*
X67750000Y-86725000D03*
%TD*%
D20*
%TO.C,R2*%
X64500000Y-100750000D03*
X66500000Y-100750000D03*
%TD*%
D18*
%TO.C,D31*%
X32030000Y-104000000D03*
D19*
X34605000Y-104000000D03*
%TD*%
D12*
%TO.C,D56*%
X46783000Y-59436000D03*
X43133000Y-59436000D03*
%TD*%
D23*
%TO.C,D17*%
X49400000Y-30825000D03*
X49400000Y-28775000D03*
%TD*%
D22*
%TO.C,D5*%
X46525000Y-71000000D03*
X44475000Y-71000000D03*
%TD*%
%TO.C,D53*%
X117675000Y-71250000D03*
X115625000Y-71250000D03*
%TD*%
D16*
%TO.C,D28*%
X73500000Y-74007000D03*
D17*
X73500000Y-76582000D03*
%TD*%
D18*
%TO.C,D7*%
X104174000Y-85090000D03*
D19*
X101599000Y-85090000D03*
%TD*%
D20*
%TO.C,R11*%
X65000000Y-108800000D03*
X67000000Y-108800000D03*
%TD*%
D23*
%TO.C,D23*%
X82804000Y-50301000D03*
X82804000Y-48251000D03*
%TD*%
D16*
%TO.C,D43*%
X72000000Y-88050000D03*
D17*
X72000000Y-85475000D03*
%TD*%
D22*
%TO.C,D2*%
X120025000Y-108000000D03*
X117975000Y-108000000D03*
%TD*%
D20*
%TO.C,R5*%
X81000000Y-93000000D03*
X83000000Y-93000000D03*
%TD*%
D18*
%TO.C,D1*%
X120050000Y-112000000D03*
D19*
X117475000Y-112000000D03*
%TD*%
D12*
%TO.C,D59*%
X30988000Y-98044000D03*
X34638000Y-98044000D03*
%TD*%
D18*
%TO.C,D4*%
X46550000Y-75500000D03*
D19*
X43975000Y-75500000D03*
%TD*%
D18*
%TO.C,D10*%
X60994000Y-71120000D03*
D19*
X58419000Y-71120000D03*
%TD*%
D12*
%TO.C,D70*%
X31068000Y-62357000D03*
X34718000Y-62357000D03*
%TD*%
D23*
%TO.C,D50*%
X93000000Y-33700000D03*
X93000000Y-31650000D03*
%TD*%
D18*
%TO.C,D52*%
X117700000Y-75250000D03*
D19*
X115125000Y-75250000D03*
%TD*%
D10*
%TO.C,U5*%
X87425000Y-95025000D03*
X87425000Y-91975000D03*
X90775000Y-95025000D03*
X90775000Y-91975000D03*
D11*
X82800000Y-91220000D03*
X82800000Y-95780000D03*
%TD*%
D15*
%TO.C,D14*%
X87850000Y-86775000D03*
X87850000Y-88825000D03*
%TD*%
D12*
%TO.C,D55*%
X120350000Y-96200000D03*
X116700000Y-96200000D03*
%TD*%
D22*
%TO.C,D8*%
X104149000Y-89408000D03*
X102099000Y-89408000D03*
%TD*%
D12*
%TO.C,D61*%
X104599000Y-100838000D03*
X100949000Y-100838000D03*
%TD*%
D14*
%TO.C,D68*%
X79375000Y-71595000D03*
X79375000Y-67945000D03*
%TD*%
D12*
%TO.C,D66*%
X95203000Y-83312000D03*
X98853000Y-83312000D03*
%TD*%
D14*
%TO.C,D57*%
X60960000Y-32051000D03*
X60960000Y-28401000D03*
%TD*%
D12*
%TO.C,D64*%
X61849000Y-65151000D03*
X58199000Y-65151000D03*
%TD*%
D10*
%TO.C,U3*%
X90775000Y-102525000D03*
X87425000Y-99475000D03*
X87425000Y-102525000D03*
X90775000Y-99475000D03*
D11*
X82800000Y-98720000D03*
X82800000Y-103280000D03*
%TD*%
D12*
%TO.C,D72*%
X118538000Y-59690000D03*
X114888000Y-59690000D03*
%TD*%
%TO.C,D69*%
X65786000Y-81534000D03*
X69436000Y-81534000D03*
%TD*%
D10*
%TO.C,U6*%
X74150000Y-110725000D03*
X70800000Y-107675000D03*
X70800000Y-110725000D03*
X74150000Y-107675000D03*
D11*
X66175000Y-106920000D03*
X66175000Y-111480000D03*
%TD*%
D14*
%TO.C,D71*%
X104267000Y-34210000D03*
X104267000Y-30560000D03*
%TD*%
D16*
%TO.C,D19*%
X55118000Y-48226000D03*
D17*
X55118000Y-50801000D03*
%TD*%
D12*
%TO.C,D67*%
X87837000Y-77851000D03*
X91487000Y-77851000D03*
%TD*%
M02*
