%TF.GenerationSoftware,KiCad,Pcbnew,(6.0.11)*%
%TF.CreationDate,2023-06-08T13:51:31-05:00*%
%TF.ProjectId,LEDpanel,4c454470-616e-4656-9c2e-6b696361645f,rev?*%
%TF.SameCoordinates,Original*%
%TF.FileFunction,Soldermask,Top*%
%TF.FilePolarity,Negative*%
%FSLAX46Y46*%
G04 Gerber Fmt 4.6, Leading zero omitted, Abs format (unit mm)*
G04 Created by KiCad (PCBNEW (6.0.11)) date 2023-06-08 13:51:31*
%MOMM*%
%LPD*%
G01*
G04 APERTURE LIST*
G04 Aperture macros list*
%AMRoundRect*
0 Rectangle with rounded corners*
0 $1 Rounding radius*
0 $2 $3 $4 $5 $6 $7 $8 $9 X,Y pos of 4 corners*
0 Add a 4 corners polygon primitive as box body*
4,1,4,$2,$3,$4,$5,$6,$7,$8,$9,$2,$3,0*
0 Add four circle primitives for the rounded corners*
1,1,$1+$1,$2,$3*
1,1,$1+$1,$4,$5*
1,1,$1+$1,$6,$7*
1,1,$1+$1,$8,$9*
0 Add four rect primitives between the rounded corners*
20,1,$1+$1,$2,$3,$4,$5,0*
20,1,$1+$1,$4,$5,$6,$7,0*
20,1,$1+$1,$6,$7,$8,$9,0*
20,1,$1+$1,$8,$9,$2,$3,0*%
G04 Aperture macros list end*
%ADD10R,2.200000X1.200000*%
%ADD11R,6.400000X5.800000*%
%ADD12R,1.350000X5.000000*%
%ADD13R,1.300000X5.000000*%
%ADD14R,1.800000X1.800000*%
%ADD15C,1.800000*%
%ADD16RoundRect,0.250000X-0.325000X-0.450000X0.325000X-0.450000X0.325000X0.450000X-0.325000X0.450000X0*%
%ADD17R,5.000000X1.350000*%
%ADD18R,5.000000X1.300000*%
%ADD19R,3.500000X3.500000*%
%ADD20RoundRect,0.750000X1.000000X-0.750000X1.000000X0.750000X-1.000000X0.750000X-1.000000X-0.750000X0*%
%ADD21RoundRect,0.875000X0.875000X-0.875000X0.875000X0.875000X-0.875000X0.875000X-0.875000X-0.875000X0*%
%ADD22C,3.200000*%
%ADD23RoundRect,0.250000X-0.450000X0.325000X-0.450000X-0.325000X0.450000X-0.325000X0.450000X0.325000X0*%
%ADD24R,2.200000X2.500000*%
%ADD25R,2.200000X1.550000*%
%ADD26C,4.000000*%
%ADD27R,2.500000X2.200000*%
%ADD28R,1.550000X2.200000*%
%ADD29R,2.600000X2.600000*%
%ADD30C,2.600000*%
%ADD31RoundRect,0.250000X-0.350000X-0.450000X0.350000X-0.450000X0.350000X0.450000X-0.350000X0.450000X0*%
%ADD32RoundRect,0.250000X0.337500X0.475000X-0.337500X0.475000X-0.337500X-0.475000X0.337500X-0.475000X0*%
%ADD33RoundRect,0.250000X0.350000X0.450000X-0.350000X0.450000X-0.350000X-0.450000X0.350000X-0.450000X0*%
%ADD34RoundRect,0.250000X0.325000X0.450000X-0.325000X0.450000X-0.325000X-0.450000X0.325000X-0.450000X0*%
%ADD35RoundRect,0.250000X0.450000X-0.325000X0.450000X0.325000X-0.450000X0.325000X-0.450000X-0.325000X0*%
%ADD36C,1.600000*%
%ADD37O,1.600000X1.600000*%
G04 APERTURE END LIST*
D10*
%TO.C,U2*%
X63904000Y-107194000D03*
D11*
X70204000Y-109474000D03*
D10*
X63904000Y-111754000D03*
%TD*%
D12*
%TO.C,D63*%
X47231000Y-85192000D03*
X43581000Y-85192000D03*
D13*
X45406000Y-85192000D03*
%TD*%
D14*
%TO.C,D18*%
X54200000Y-31200000D03*
D15*
X54200000Y-28660000D03*
%TD*%
D16*
%TO.C,D32*%
X28950000Y-104425000D03*
X31000000Y-104425000D03*
%TD*%
D17*
%TO.C,D65*%
X92996000Y-61675000D03*
X92996000Y-65325000D03*
D18*
X92996000Y-63500000D03*
%TD*%
D19*
%TO.C,J1*%
X69374000Y-117094000D03*
D20*
X69374000Y-123094000D03*
D21*
X74074000Y-120094000D03*
%TD*%
D14*
%TO.C,D3*%
X122200000Y-101200000D03*
D15*
X119660000Y-101200000D03*
%TD*%
D22*
%TO.C,H2*%
X87500000Y-70000000D03*
%TD*%
D23*
%TO.C,D29*%
X65500000Y-62875000D03*
X65500000Y-64925000D03*
%TD*%
D17*
%TO.C,D58*%
X71120000Y-47959000D03*
X71120000Y-51609000D03*
D18*
X71120000Y-49784000D03*
%TD*%
D24*
%TO.C,D49*%
X87983000Y-31640000D03*
D25*
X87983000Y-29065000D03*
%TD*%
D14*
%TO.C,D9*%
X108336000Y-93384000D03*
D15*
X105796000Y-93384000D03*
%TD*%
D14*
%TO.C,D45*%
X66224500Y-91827000D03*
D15*
X66224500Y-89287000D03*
%TD*%
D26*
%TO.C,H11*%
X30000000Y-120000000D03*
%TD*%
D24*
%TO.C,D22*%
X78740000Y-50834000D03*
D25*
X78740000Y-48259000D03*
%TD*%
D12*
%TO.C,D60*%
X105780000Y-78486000D03*
X109430000Y-78486000D03*
D13*
X107605000Y-78486000D03*
%TD*%
D23*
%TO.C,D26*%
X83500000Y-62475000D03*
X83500000Y-64525000D03*
%TD*%
D24*
%TO.C,D25*%
X79500000Y-62450000D03*
D25*
X79500000Y-65025000D03*
%TD*%
D16*
%TO.C,D35*%
X106326000Y-68072000D03*
X108376000Y-68072000D03*
%TD*%
D10*
%TO.C,U4*%
X63733000Y-96271000D03*
D11*
X70033000Y-98551000D03*
D10*
X63733000Y-100831000D03*
%TD*%
D27*
%TO.C,D40*%
X93470000Y-72136000D03*
D28*
X96045000Y-72136000D03*
%TD*%
D24*
%TO.C,D13*%
X95028000Y-92964000D03*
D25*
X95028000Y-95539000D03*
%TD*%
D14*
%TO.C,D39*%
X46860000Y-101110000D03*
D15*
X44320000Y-101110000D03*
%TD*%
D10*
%TO.C,U1*%
X103800000Y-117495000D03*
D11*
X110100000Y-119775000D03*
D10*
X103800000Y-122055000D03*
%TD*%
D29*
%TO.C,J3*%
X56166000Y-122428000D03*
D30*
X61246000Y-122428000D03*
%TD*%
D31*
%TO.C,R3*%
X79042000Y-109220000D03*
X81042000Y-109220000D03*
%TD*%
D27*
%TO.C,D46*%
X29800000Y-70750000D03*
D28*
X32375000Y-70750000D03*
%TD*%
D27*
%TO.C,D37*%
X46410000Y-91610000D03*
D28*
X43835000Y-91610000D03*
%TD*%
D31*
%TO.C,R1*%
X102500000Y-119450000D03*
X104500000Y-119450000D03*
%TD*%
D32*
%TO.C,C1*%
X94795500Y-114046000D03*
X92720500Y-114046000D03*
%TD*%
D24*
%TO.C,D16*%
X45200000Y-31050000D03*
D25*
X45200000Y-28475000D03*
%TD*%
D33*
%TO.C,R4*%
X64278000Y-98298000D03*
X62278000Y-98298000D03*
%TD*%
D17*
%TO.C,D62*%
X93472000Y-51609000D03*
X93472000Y-47959000D03*
D18*
X93472000Y-49784000D03*
%TD*%
D16*
%TO.C,D47*%
X29725000Y-66650000D03*
X31775000Y-66650000D03*
%TD*%
D27*
%TO.C,D34*%
X106391000Y-64008000D03*
D28*
X108966000Y-64008000D03*
%TD*%
D34*
%TO.C,D38*%
X46555000Y-96110000D03*
X44505000Y-96110000D03*
%TD*%
D14*
%TO.C,D36*%
X105941000Y-72898000D03*
D15*
X108481000Y-72898000D03*
%TD*%
D16*
%TO.C,D41*%
X93495000Y-76136000D03*
X95545000Y-76136000D03*
%TD*%
D23*
%TO.C,D20*%
X59436000Y-48475000D03*
X59436000Y-50525000D03*
%TD*%
D34*
%TO.C,D11*%
X59477000Y-76962000D03*
X57427000Y-76962000D03*
%TD*%
D35*
%TO.C,D44*%
X70974500Y-92077000D03*
X70974500Y-90027000D03*
%TD*%
D26*
%TO.C,H12*%
X44000000Y-109000000D03*
%TD*%
D14*
%TO.C,D33*%
X28885000Y-109425000D03*
D15*
X31425000Y-109425000D03*
%TD*%
D36*
%TO.C,R9*%
X59468000Y-101600000D03*
D37*
X59468000Y-93980000D03*
%TD*%
D31*
%TO.C,R2*%
X63040000Y-109220000D03*
X65040000Y-109220000D03*
%TD*%
D36*
%TO.C,R10*%
X75978000Y-103124000D03*
D37*
X75978000Y-95504000D03*
%TD*%
D27*
%TO.C,D31*%
X29005000Y-100425000D03*
D28*
X31580000Y-100425000D03*
%TD*%
D12*
%TO.C,D56*%
X46783000Y-59436000D03*
X43133000Y-59436000D03*
D13*
X44958000Y-59436000D03*
%TD*%
D35*
%TO.C,D17*%
X49400000Y-30825000D03*
X49400000Y-28775000D03*
%TD*%
D36*
%TO.C,R12*%
X49900000Y-106800000D03*
D37*
X49900000Y-114420000D03*
%TD*%
D34*
%TO.C,D5*%
X46525000Y-71000000D03*
X44475000Y-71000000D03*
%TD*%
%TO.C,D53*%
X121462000Y-71314500D03*
X119412000Y-71314500D03*
%TD*%
D22*
%TO.C,H3*%
X58000000Y-106330000D03*
%TD*%
D24*
%TO.C,D28*%
X62500000Y-62950000D03*
D25*
X62500000Y-65525000D03*
%TD*%
D26*
%TO.C,H1*%
X105000000Y-48000000D03*
%TD*%
D27*
%TO.C,D7*%
X108116000Y-84494000D03*
D28*
X105541000Y-84494000D03*
%TD*%
D33*
%TO.C,R11*%
X42000000Y-119400000D03*
X40000000Y-119400000D03*
%TD*%
D35*
%TO.C,D23*%
X82804000Y-50301000D03*
X82804000Y-48251000D03*
%TD*%
D24*
%TO.C,D43*%
X75224500Y-91352000D03*
D25*
X75224500Y-88777000D03*
%TD*%
D22*
%TO.C,H10*%
X94500000Y-106500000D03*
%TD*%
D14*
%TO.C,D27*%
X87000000Y-62230000D03*
D15*
X87000000Y-64770000D03*
%TD*%
D26*
%TO.C,H9*%
X44000000Y-48000000D03*
%TD*%
D14*
%TO.C,D6*%
X46500000Y-65500000D03*
D15*
X43960000Y-65500000D03*
%TD*%
D34*
%TO.C,D2*%
X122225000Y-106625000D03*
X120175000Y-106625000D03*
%TD*%
D33*
%TO.C,R5*%
X82058000Y-100838000D03*
X80058000Y-100838000D03*
%TD*%
D27*
%TO.C,D1*%
X121850000Y-111350000D03*
D28*
X119275000Y-111350000D03*
%TD*%
D12*
%TO.C,D59*%
X27963000Y-94469000D03*
X31613000Y-94469000D03*
D13*
X29788000Y-94469000D03*
%TD*%
D14*
%TO.C,D12*%
X59722000Y-82042000D03*
D15*
X57182000Y-82042000D03*
%TD*%
D14*
%TO.C,D15*%
X86138000Y-92770000D03*
D15*
X86138000Y-95310000D03*
%TD*%
D36*
%TO.C,R6*%
X111400000Y-114300000D03*
D37*
X111400000Y-106680000D03*
%TD*%
D27*
%TO.C,D4*%
X46550000Y-75500000D03*
D28*
X43975000Y-75500000D03*
%TD*%
D27*
%TO.C,D10*%
X59502000Y-72644000D03*
D28*
X56927000Y-72644000D03*
%TD*%
D12*
%TO.C,D70*%
X29218000Y-55207000D03*
X32868000Y-55207000D03*
D13*
X31043000Y-55207000D03*
%TD*%
D14*
%TO.C,D51*%
X96908000Y-31665000D03*
D15*
X96908000Y-29125000D03*
%TD*%
D35*
%TO.C,D50*%
X92183000Y-31490000D03*
X92183000Y-29440000D03*
%TD*%
D27*
%TO.C,D52*%
X121487000Y-75314500D03*
D28*
X118912000Y-75314500D03*
%TD*%
D26*
%TO.C,H4*%
X30000000Y-30000000D03*
%TD*%
D14*
%TO.C,D21*%
X64262000Y-48260000D03*
D15*
X64262000Y-50800000D03*
%TD*%
D10*
%TO.C,U5*%
X81430000Y-98558000D03*
D11*
X87730000Y-100838000D03*
D10*
X81430000Y-103118000D03*
%TD*%
D26*
%TO.C,H7*%
X105000000Y-109000000D03*
%TD*%
D23*
%TO.C,D14*%
X90964000Y-93463000D03*
X90964000Y-95513000D03*
%TD*%
D12*
%TO.C,D55*%
X122245000Y-95325000D03*
X118595000Y-95325000D03*
D13*
X120420000Y-95325000D03*
%TD*%
D34*
%TO.C,D8*%
X108091000Y-88812000D03*
X106041000Y-88812000D03*
%TD*%
D12*
%TO.C,D61*%
X108541000Y-100242000D03*
X104891000Y-100242000D03*
D13*
X106716000Y-100242000D03*
%TD*%
D17*
%TO.C,D68*%
X74500000Y-61850000D03*
X74500000Y-65500000D03*
D18*
X74500000Y-63675000D03*
%TD*%
D12*
%TO.C,D66*%
X92140000Y-86868000D03*
X95790000Y-86868000D03*
D13*
X93965000Y-86868000D03*
%TD*%
D14*
%TO.C,D54*%
X121862000Y-66664500D03*
D15*
X119322000Y-66664500D03*
%TD*%
D14*
%TO.C,D42*%
X93250000Y-80860000D03*
D15*
X95790000Y-80860000D03*
%TD*%
D29*
%TO.C,SW1*%
X90964000Y-122174000D03*
D30*
X96044000Y-122174000D03*
%TD*%
D17*
%TO.C,D57*%
X60960000Y-32051000D03*
X60960000Y-28401000D03*
D18*
X60960000Y-30226000D03*
%TD*%
D12*
%TO.C,D64*%
X59325000Y-66802000D03*
X55675000Y-66802000D03*
D13*
X57500000Y-66802000D03*
%TD*%
D10*
%TO.C,U3*%
X80668000Y-107194000D03*
D11*
X86968000Y-109474000D03*
D10*
X80668000Y-111754000D03*
%TD*%
D14*
%TO.C,D30*%
X69000000Y-62500000D03*
D15*
X69000000Y-65040000D03*
%TD*%
D12*
%TO.C,D72*%
X122325000Y-59754500D03*
X118675000Y-59754500D03*
D13*
X120500000Y-59754500D03*
%TD*%
D17*
%TO.C,D69*%
X59866500Y-91694000D03*
X59866500Y-88044000D03*
D18*
X59866500Y-89869000D03*
%TD*%
D10*
%TO.C,U6*%
X40900000Y-117520000D03*
D11*
X47200000Y-119800000D03*
D10*
X40900000Y-122080000D03*
%TD*%
D26*
%TO.C,H5*%
X120000000Y-120000000D03*
%TD*%
D17*
%TO.C,D71*%
X103450000Y-32000000D03*
X103450000Y-28350000D03*
D18*
X103450000Y-30175000D03*
%TD*%
D36*
%TO.C,R7*%
X72422000Y-104140000D03*
D37*
X64802000Y-104140000D03*
%TD*%
D24*
%TO.C,D19*%
X55118000Y-48226000D03*
D25*
X55118000Y-50801000D03*
%TD*%
D36*
%TO.C,R8*%
X76486000Y-113792000D03*
D37*
X76486000Y-106172000D03*
%TD*%
D26*
%TO.C,H6*%
X121000000Y-30000000D03*
%TD*%
D14*
%TO.C,D48*%
X29450000Y-62050000D03*
D15*
X31990000Y-62050000D03*
%TD*%
D22*
%TO.C,H8*%
X65000000Y-70000000D03*
%TD*%
D14*
%TO.C,D24*%
X87884000Y-50800000D03*
D15*
X87884000Y-48260000D03*
%TD*%
D17*
%TO.C,D67*%
X80804000Y-92155000D03*
X80804000Y-95805000D03*
D18*
X80804000Y-93980000D03*
%TD*%
D19*
%TO.C,J2*%
X83090000Y-117043200D03*
D20*
X83090000Y-123043200D03*
D21*
X78390000Y-120043200D03*
%TD*%
M02*
