%TF.GenerationSoftware,KiCad,Pcbnew,(6.0.11)*%
%TF.CreationDate,2023-05-29T13:54:52-05:00*%
%TF.ProjectId,LEDpanel,4c454470-616e-4656-9c2e-6b696361645f,rev?*%
%TF.SameCoordinates,Original*%
%TF.FileFunction,Soldermask,Bot*%
%TF.FilePolarity,Negative*%
%FSLAX46Y46*%
G04 Gerber Fmt 4.6, Leading zero omitted, Abs format (unit mm)*
G04 Created by KiCad (PCBNEW (6.0.11)) date 2023-05-29 13:54:52*
%MOMM*%
%LPD*%
G01*
G04 APERTURE LIST*
G04 Aperture macros list*
%AMRoundRect*
0 Rectangle with rounded corners*
0 $1 Rounding radius*
0 $2 $3 $4 $5 $6 $7 $8 $9 X,Y pos of 4 corners*
0 Add a 4 corners polygon primitive as box body*
4,1,4,$2,$3,$4,$5,$6,$7,$8,$9,$2,$3,0*
0 Add four circle primitives for the rounded corners*
1,1,$1+$1,$2,$3*
1,1,$1+$1,$4,$5*
1,1,$1+$1,$6,$7*
1,1,$1+$1,$8,$9*
0 Add four rect primitives between the rounded corners*
20,1,$1+$1,$2,$3,$4,$5,0*
20,1,$1+$1,$4,$5,$6,$7,0*
20,1,$1+$1,$6,$7,$8,$9,0*
20,1,$1+$1,$8,$9,$2,$3,0*%
G04 Aperture macros list end*
%ADD10R,1.800000X1.800000*%
%ADD11C,1.800000*%
%ADD12R,3.500000X3.500000*%
%ADD13RoundRect,0.750000X1.000000X-0.750000X1.000000X0.750000X-1.000000X0.750000X-1.000000X-0.750000X0*%
%ADD14RoundRect,0.875000X0.875000X-0.875000X0.875000X0.875000X-0.875000X0.875000X-0.875000X-0.875000X0*%
%ADD15C,3.200000*%
%ADD16C,4.000000*%
%ADD17R,2.600000X2.600000*%
%ADD18C,2.600000*%
%ADD19C,1.600000*%
%ADD20O,1.600000X1.600000*%
G04 APERTURE END LIST*
D10*
%TO.C,D18*%
X54200000Y-31200000D03*
D11*
X54200000Y-28660000D03*
%TD*%
D12*
%TO.C,J1*%
X71374000Y-117094000D03*
D13*
X71374000Y-123094000D03*
D14*
X76074000Y-120094000D03*
%TD*%
D10*
%TO.C,D3*%
X120335000Y-103000000D03*
D11*
X117795000Y-103000000D03*
%TD*%
D15*
%TO.C,H2*%
X89500000Y-70000000D03*
%TD*%
D10*
%TO.C,D9*%
X104394000Y-93980000D03*
D11*
X101854000Y-93980000D03*
%TD*%
D10*
%TO.C,D45*%
X63000000Y-88525000D03*
D11*
X63000000Y-85985000D03*
%TD*%
D16*
%TO.C,H11*%
X30000000Y-120000000D03*
%TD*%
D10*
%TO.C,D39*%
X52000000Y-100500000D03*
D11*
X49460000Y-100500000D03*
%TD*%
D17*
%TO.C,J3*%
X58166000Y-122428000D03*
D18*
X63246000Y-122428000D03*
%TD*%
D10*
%TO.C,D36*%
X104000000Y-72898000D03*
D11*
X106540000Y-72898000D03*
%TD*%
D16*
%TO.C,H12*%
X44000000Y-109000000D03*
%TD*%
D10*
%TO.C,D33*%
X31910000Y-113000000D03*
D11*
X34450000Y-113000000D03*
%TD*%
D19*
%TO.C,R9*%
X62000000Y-98500000D03*
D20*
X62000000Y-90880000D03*
%TD*%
D19*
%TO.C,R10*%
X75438000Y-83000000D03*
D20*
X83058000Y-83000000D03*
%TD*%
D19*
%TO.C,R12*%
X65080000Y-114250000D03*
D20*
X57460000Y-114250000D03*
%TD*%
D15*
%TO.C,H3*%
X60000000Y-106330000D03*
%TD*%
D16*
%TO.C,H1*%
X105000000Y-48000000D03*
%TD*%
D15*
%TO.C,H10*%
X96500000Y-106500000D03*
%TD*%
D10*
%TO.C,D27*%
X79502000Y-62484000D03*
D11*
X79502000Y-65024000D03*
%TD*%
D16*
%TO.C,H9*%
X44000000Y-48000000D03*
%TD*%
D10*
%TO.C,D6*%
X46500000Y-65500000D03*
D11*
X43960000Y-65500000D03*
%TD*%
D10*
%TO.C,D12*%
X61214000Y-82042000D03*
D11*
X58674000Y-82042000D03*
%TD*%
D10*
%TO.C,D15*%
X83000000Y-85975000D03*
D11*
X83000000Y-88515000D03*
%TD*%
D19*
%TO.C,R6*%
X78500000Y-104510000D03*
D20*
X78500000Y-112130000D03*
%TD*%
D10*
%TO.C,D51*%
X97725000Y-33875000D03*
D11*
X97725000Y-31335000D03*
%TD*%
D16*
%TO.C,H4*%
X30000000Y-30000000D03*
%TD*%
D10*
%TO.C,D21*%
X64262000Y-48260000D03*
D11*
X64262000Y-50800000D03*
%TD*%
D16*
%TO.C,H7*%
X105000000Y-109000000D03*
%TD*%
D10*
%TO.C,D54*%
X118075000Y-66600000D03*
D11*
X115535000Y-66600000D03*
%TD*%
D10*
%TO.C,D42*%
X95250000Y-77724000D03*
D11*
X97790000Y-77724000D03*
%TD*%
D17*
%TO.C,SW1*%
X92964000Y-122174000D03*
D18*
X98044000Y-122174000D03*
%TD*%
D10*
%TO.C,D30*%
X82000000Y-73787000D03*
D11*
X82000000Y-76327000D03*
%TD*%
D16*
%TO.C,H5*%
X120000000Y-120000000D03*
%TD*%
D20*
%TO.C,R7*%
X58674000Y-100838000D03*
D19*
X58674000Y-93218000D03*
%TD*%
%TO.C,R8*%
X78250000Y-101250000D03*
D20*
X78250000Y-93630000D03*
%TD*%
D16*
%TO.C,H6*%
X121000000Y-30000000D03*
%TD*%
D10*
%TO.C,D48*%
X31300000Y-69200000D03*
D11*
X33840000Y-69200000D03*
%TD*%
D15*
%TO.C,H8*%
X67000000Y-70000000D03*
%TD*%
D10*
%TO.C,D24*%
X87884000Y-50800000D03*
D11*
X87884000Y-48260000D03*
%TD*%
D12*
%TO.C,J2*%
X85090000Y-117043200D03*
D13*
X85090000Y-123043200D03*
D14*
X80390000Y-120043200D03*
%TD*%
M02*
