M48
; DRILL file {KiCad (6.0.11)} date Mon May 29 13:54:52 2023
; FORMAT={-:-/ absolute / inch / decimal}
; #@! TF.CreationDate,2023-05-29T13:54:52-05:00
; #@! TF.GenerationSoftware,Kicad,Pcbnew,(6.0.11)
; #@! TF.FileFunction,Plated,1,2,PTH
FMAT,2
INCH
; #@! TA.AperFunction,Plated,PTH,ViaDrill
T1C0.0157
; #@! TA.AperFunction,Plated,PTH,ComponentDrill
T2C0.0315
; #@! TA.AperFunction,Plated,PTH,ComponentDrill
T3C0.0354
; #@! TA.AperFunction,Plated,PTH,ComponentDrill
T4C0.0394
; #@! TA.AperFunction,Plated,PTH,ComponentDrill
T5C0.0512
%
G90
G05
T1
X1.28Y-2.23
X1.29Y-3.65
X1.75Y-2.145
X2.01Y-3.115
X2.375Y-2.4
X2.64Y-1.25
X2.66Y-3.02
X2.66Y-3.33
X2.94Y-2.745
X2.955Y-1.97
X3.252Y-4.4886
X3.285Y-2.755
X3.505Y-3.3
X3.5319Y-2.9181
X3.56Y-1.965
X3.565Y-2.545
X3.83Y-3.5
X3.98Y-4.125
X4.035Y-2.9535
X4.04Y-3.83
X4.29Y-3.34
X4.305Y-1.28
X4.6Y-2.01
X4.635Y-3.125
X4.64Y-3.5
T2
X2.2622Y-4.498
X2.31Y-3.67
X2.31Y-3.97
X2.4409Y-3.578
X2.4409Y-3.878
X2.5622Y-4.498
X2.97Y-3.2677
X3.0807Y-3.6862
X3.0807Y-3.9862
X3.0906Y-4.1146
X3.0906Y-4.4146
X3.27Y-3.2677
T3
X1.2323Y-2.7244
X1.2563Y-4.4488
X1.3323Y-2.7244
X1.3563Y-4.4488
X1.7307Y-2.5787
X1.8307Y-2.5787
X1.9472Y-3.9567
X2.0472Y-3.9567
X2.1339Y-1.1283
X2.1339Y-1.2283
X2.31Y-3.23
X2.41Y-3.23
X2.4803Y-3.3852
X2.4803Y-3.4852
X2.53Y-1.9
X2.53Y-2.0
X3.13Y-2.46
X3.13Y-2.56
X3.2283Y-2.905
X3.2283Y-3.005
X3.2677Y-3.3848
X3.2677Y-3.4848
X3.46Y-1.9
X3.46Y-2.0
X3.75Y-3.06
X3.8474Y-1.2337
X3.8474Y-1.3337
X3.85Y-3.06
X4.01Y-3.7
X4.0945Y-2.87
X4.11Y-3.7
X4.1945Y-2.87
X4.5486Y-2.622
X4.6376Y-4.0551
X4.6486Y-2.622
X4.7376Y-4.0551
T5
X2.29Y-4.82
X2.49Y-4.82
X3.66Y-4.81
X3.86Y-4.81
T4
G00X2.7706Y-4.61
M15
G01X2.8494Y-4.61
M16
G05
G00X2.7706Y-4.8462
M15
G01X2.8494Y-4.8462
M16
G05
G00X2.995Y-4.7675
M15
G01X2.995Y-4.6887
M16
G05
G00X3.165Y-4.7655
M15
G01X3.165Y-4.6867
M16
G05
G00X3.3106Y-4.608
M15
G01X3.3894Y-4.608
M16
G05
G00X3.3106Y-4.8442
M15
G01X3.3894Y-4.8442
M16
G05
T0
M30
