%TF.GenerationSoftware,KiCad,Pcbnew,(6.0.11)*%
%TF.CreationDate,2023-05-29T13:54:52-05:00*%
%TF.ProjectId,LEDpanel,4c454470-616e-4656-9c2e-6b696361645f,rev?*%
%TF.SameCoordinates,Original*%
%TF.FileFunction,Copper,L2,Bot*%
%TF.FilePolarity,Positive*%
%FSLAX46Y46*%
G04 Gerber Fmt 4.6, Leading zero omitted, Abs format (unit mm)*
G04 Created by KiCad (PCBNEW (6.0.11)) date 2023-05-29 13:54:52*
%MOMM*%
%LPD*%
G01*
G04 APERTURE LIST*
G04 Aperture macros list*
%AMRoundRect*
0 Rectangle with rounded corners*
0 $1 Rounding radius*
0 $2 $3 $4 $5 $6 $7 $8 $9 X,Y pos of 4 corners*
0 Add a 4 corners polygon primitive as box body*
4,1,4,$2,$3,$4,$5,$6,$7,$8,$9,$2,$3,0*
0 Add four circle primitives for the rounded corners*
1,1,$1+$1,$2,$3*
1,1,$1+$1,$4,$5*
1,1,$1+$1,$6,$7*
1,1,$1+$1,$8,$9*
0 Add four rect primitives between the rounded corners*
20,1,$1+$1,$2,$3,$4,$5,0*
20,1,$1+$1,$4,$5,$6,$7,0*
20,1,$1+$1,$6,$7,$8,$9,0*
20,1,$1+$1,$8,$9,$2,$3,0*%
G04 Aperture macros list end*
%TA.AperFunction,ComponentPad*%
%ADD10R,1.800000X1.800000*%
%TD*%
%TA.AperFunction,ComponentPad*%
%ADD11C,1.800000*%
%TD*%
%TA.AperFunction,ComponentPad*%
%ADD12R,3.500000X3.500000*%
%TD*%
%TA.AperFunction,ComponentPad*%
%ADD13RoundRect,0.750000X1.000000X-0.750000X1.000000X0.750000X-1.000000X0.750000X-1.000000X-0.750000X0*%
%TD*%
%TA.AperFunction,ComponentPad*%
%ADD14RoundRect,0.875000X0.875000X-0.875000X0.875000X0.875000X-0.875000X0.875000X-0.875000X-0.875000X0*%
%TD*%
%TA.AperFunction,ComponentPad*%
%ADD15R,2.600000X2.600000*%
%TD*%
%TA.AperFunction,ComponentPad*%
%ADD16C,2.600000*%
%TD*%
%TA.AperFunction,ComponentPad*%
%ADD17C,1.600000*%
%TD*%
%TA.AperFunction,ComponentPad*%
%ADD18O,1.600000X1.600000*%
%TD*%
%TA.AperFunction,ViaPad*%
%ADD19C,0.800000*%
%TD*%
G04 APERTURE END LIST*
D10*
%TO.P,D18,1,K*%
%TO.N,Net-(D16-Pad1)*%
X54200000Y-31200000D03*
D11*
%TO.P,D18,2,A*%
%TO.N,Net-(D1-Pad1)*%
X54200000Y-28660000D03*
%TD*%
D12*
%TO.P,J1,1*%
%TO.N,+VDC*%
X71374000Y-117094000D03*
D13*
%TO.P,J1,2*%
%TO.N,GND*%
X71374000Y-123094000D03*
D14*
%TO.P,J1,3*%
%TO.N,unconnected-(J1-Pad3)*%
X76074000Y-120094000D03*
%TD*%
D10*
%TO.P,D3,1,K*%
%TO.N,Net-(D1-Pad1)*%
X120335000Y-103000000D03*
D11*
%TO.P,D3,2,A*%
%TO.N,Net-(R1-Pad2)*%
X117795000Y-103000000D03*
%TD*%
D10*
%TO.P,D9,1,K*%
%TO.N,Net-(D22-Pad2)*%
X104394000Y-93980000D03*
D11*
%TO.P,D9,2,A*%
%TO.N,Net-(R3-Pad2)*%
X101854000Y-93980000D03*
%TD*%
D10*
%TO.P,D45,1,K*%
%TO.N,GND*%
X63000000Y-88525000D03*
D11*
%TO.P,D45,2,A*%
%TO.N,Net-(D28-Pad1)*%
X63000000Y-85985000D03*
%TD*%
D10*
%TO.P,D39,1,K*%
%TO.N,GND*%
X52000000Y-100500000D03*
D11*
%TO.P,D39,2,A*%
%TO.N,Net-(D22-Pad1)*%
X49460000Y-100500000D03*
%TD*%
D15*
%TO.P,J3,1,Pin_1*%
%TO.N,Net-(C1-Pad1)*%
X58166000Y-122428000D03*
D16*
%TO.P,J3,2,Pin_2*%
%TO.N,GND*%
X63246000Y-122428000D03*
%TD*%
D10*
%TO.P,D36,1,K*%
%TO.N,GND*%
X104000000Y-72898000D03*
D11*
%TO.P,D36,2,A*%
%TO.N,Net-(D19-Pad1)*%
X106540000Y-72898000D03*
%TD*%
D10*
%TO.P,D33,1,K*%
%TO.N,GND*%
X31910000Y-113000000D03*
D11*
%TO.P,D33,2,A*%
%TO.N,Net-(D16-Pad1)*%
X34450000Y-113000000D03*
%TD*%
D17*
%TO.P,R9,1*%
%TO.N,Net-(R4-Pad1)*%
X62000000Y-98500000D03*
D18*
%TO.P,R9,2*%
%TO.N,Net-(R4-Pad2)*%
X62000000Y-90880000D03*
%TD*%
D17*
%TO.P,R10,1*%
%TO.N,Net-(R10-Pad1)*%
X75438000Y-83000000D03*
D18*
%TO.P,R10,2*%
%TO.N,Net-(D13-Pad2)*%
X83058000Y-83000000D03*
%TD*%
D17*
%TO.P,R12,1*%
%TO.N,Net-(R11-Pad1)*%
X65080000Y-114250000D03*
D18*
%TO.P,R12,2*%
%TO.N,Net-(D46-Pad2)*%
X57460000Y-114250000D03*
%TD*%
D10*
%TO.P,D27,1,K*%
%TO.N,Net-(D25-Pad1)*%
X79502000Y-62484000D03*
D11*
%TO.P,D27,2,A*%
%TO.N,Net-(D10-Pad1)*%
X79502000Y-65024000D03*
%TD*%
D10*
%TO.P,D6,1,K*%
%TO.N,Net-(D19-Pad2)*%
X46500000Y-65500000D03*
D11*
%TO.P,D6,2,A*%
%TO.N,Net-(D4-Pad2)*%
X43960000Y-65500000D03*
%TD*%
D10*
%TO.P,D12,1,K*%
%TO.N,Net-(D10-Pad1)*%
X61214000Y-82042000D03*
D11*
%TO.P,D12,2,A*%
%TO.N,Net-(R4-Pad2)*%
X58674000Y-82042000D03*
%TD*%
D10*
%TO.P,D15,1,K*%
%TO.N,Net-(D13-Pad1)*%
X83000000Y-85975000D03*
D11*
%TO.P,D15,2,A*%
%TO.N,Net-(D13-Pad2)*%
X83000000Y-88515000D03*
%TD*%
D17*
%TO.P,R6,1*%
%TO.N,Net-(R1-Pad1)*%
X78500000Y-104510000D03*
D18*
%TO.P,R6,2*%
%TO.N,Net-(R1-Pad2)*%
X78500000Y-112130000D03*
%TD*%
D10*
%TO.P,D51,1,K*%
%TO.N,Net-(D49-Pad1)*%
X97725000Y-33875000D03*
D11*
%TO.P,D51,2,A*%
%TO.N,Net-(D46-Pad1)*%
X97725000Y-31335000D03*
%TD*%
D10*
%TO.P,D21,1,K*%
%TO.N,Net-(D19-Pad1)*%
X64262000Y-48260000D03*
D11*
%TO.P,D21,2,A*%
%TO.N,Net-(D19-Pad2)*%
X64262000Y-50800000D03*
%TD*%
D10*
%TO.P,D54,1,K*%
%TO.N,GND*%
X118075000Y-66600000D03*
D11*
%TO.P,D54,2,A*%
%TO.N,Net-(D49-Pad1)*%
X115535000Y-66600000D03*
%TD*%
D10*
%TO.P,D42,1,K*%
%TO.N,GND*%
X95250000Y-77724000D03*
D11*
%TO.P,D42,2,A*%
%TO.N,Net-(D25-Pad1)*%
X97790000Y-77724000D03*
%TD*%
D15*
%TO.P,SW1,1,A*%
%TO.N,+VDC*%
X92964000Y-122174000D03*
D16*
%TO.P,SW1,2,B*%
%TO.N,Net-(C1-Pad1)*%
X98044000Y-122174000D03*
%TD*%
D10*
%TO.P,D30,1,K*%
%TO.N,Net-(D28-Pad1)*%
X82000000Y-73787000D03*
D11*
%TO.P,D30,2,A*%
%TO.N,Net-(D13-Pad1)*%
X82000000Y-76327000D03*
%TD*%
D18*
%TO.P,R7,2*%
%TO.N,Net-(D4-Pad2)*%
X58674000Y-100838000D03*
D17*
%TO.P,R7,1*%
%TO.N,Net-(R2-Pad1)*%
X58674000Y-93218000D03*
%TD*%
%TO.P,R8,1*%
%TO.N,Net-(R3-Pad1)*%
X78250000Y-101250000D03*
D18*
%TO.P,R8,2*%
%TO.N,Net-(R3-Pad2)*%
X78250000Y-93630000D03*
%TD*%
D10*
%TO.P,D48,1,K*%
%TO.N,Net-(D46-Pad1)*%
X31300000Y-69200000D03*
D11*
%TO.P,D48,2,A*%
%TO.N,Net-(D46-Pad2)*%
X33840000Y-69200000D03*
%TD*%
D10*
%TO.P,D24,1,K*%
%TO.N,Net-(D22-Pad1)*%
X87884000Y-50800000D03*
D11*
%TO.P,D24,2,A*%
%TO.N,Net-(D22-Pad2)*%
X87884000Y-48260000D03*
%TD*%
D12*
%TO.P,J2,1*%
%TO.N,+VDC*%
X85090000Y-117043200D03*
D13*
%TO.P,J2,2*%
%TO.N,GND*%
X85090000Y-123043200D03*
D14*
%TO.P,J2,3*%
%TO.N,unconnected-(J2-Pad3)*%
X80390000Y-120043200D03*
%TD*%
D19*
%TO.N,GND*%
X82600000Y-114010000D03*
X44450000Y-54483000D03*
X83439000Y-69977000D03*
X67056000Y-31750000D03*
X97282000Y-88900000D03*
X32766000Y-92710000D03*
X108966000Y-84836000D03*
X102490000Y-75020000D03*
X117729000Y-79375000D03*
X116840000Y-51054000D03*
X89709000Y-74121000D03*
X51054000Y-79121000D03*
X117856000Y-88900000D03*
X101092000Y-104775000D03*
X102616000Y-97282000D03*
X89027000Y-83820000D03*
X75057000Y-50038000D03*
X67564000Y-76708000D03*
X67564000Y-84582000D03*
X90551000Y-64643000D03*
X90424000Y-49911000D03*
X109347000Y-32512000D03*
X32512000Y-56642000D03*
X74676000Y-69723000D03*
X60325000Y-60960000D03*
%TD*%
%TA.AperFunction,Conductor*%
%TO.N,GND*%
G36*
X124433621Y-25528502D02*
G01*
X124480114Y-25582158D01*
X124491500Y-25634500D01*
X124491500Y-124365500D01*
X124471498Y-124433621D01*
X124417842Y-124480114D01*
X124365500Y-124491500D01*
X87350230Y-124491500D01*
X87282109Y-124471498D01*
X87235616Y-124417842D01*
X87225512Y-124347568D01*
X87235666Y-124313049D01*
X87278299Y-124219931D01*
X87282033Y-124209385D01*
X87335147Y-124002521D01*
X87336918Y-123991966D01*
X87347793Y-123858270D01*
X87348000Y-123853164D01*
X87348000Y-123522134D01*
X91155500Y-123522134D01*
X91162255Y-123584316D01*
X91213385Y-123720705D01*
X91300739Y-123837261D01*
X91417295Y-123924615D01*
X91553684Y-123975745D01*
X91615866Y-123982500D01*
X94312134Y-123982500D01*
X94374316Y-123975745D01*
X94510705Y-123924615D01*
X94627261Y-123837261D01*
X94714615Y-123720705D01*
X94765745Y-123584316D01*
X94772500Y-123522134D01*
X94772500Y-122126526D01*
X96231050Y-122126526D01*
X96231274Y-122131192D01*
X96231274Y-122131197D01*
X96236176Y-122233236D01*
X96243947Y-122395019D01*
X96296388Y-122658656D01*
X96387220Y-122911646D01*
X96514450Y-123148431D01*
X96517241Y-123152168D01*
X96517245Y-123152175D01*
X96598887Y-123261506D01*
X96675281Y-123363810D01*
X96678590Y-123367090D01*
X96678595Y-123367096D01*
X96862863Y-123549762D01*
X96866180Y-123553050D01*
X96869942Y-123555808D01*
X96869945Y-123555811D01*
X96918912Y-123591715D01*
X97082954Y-123711995D01*
X97087089Y-123714171D01*
X97087093Y-123714173D01*
X97316698Y-123834975D01*
X97320840Y-123837154D01*
X97381310Y-123858271D01*
X97512156Y-123903964D01*
X97574613Y-123925775D01*
X97579206Y-123926647D01*
X97834109Y-123975042D01*
X97834112Y-123975042D01*
X97838698Y-123975913D01*
X97966370Y-123980929D01*
X98102625Y-123986283D01*
X98102630Y-123986283D01*
X98107293Y-123986466D01*
X98211607Y-123975042D01*
X98369844Y-123957713D01*
X98369850Y-123957712D01*
X98374497Y-123957203D01*
X98486302Y-123927767D01*
X98629918Y-123889956D01*
X98629920Y-123889955D01*
X98634441Y-123888765D01*
X98741795Y-123842642D01*
X98877120Y-123784502D01*
X98877122Y-123784501D01*
X98881414Y-123782657D01*
X99000071Y-123709230D01*
X99106017Y-123643669D01*
X99106021Y-123643666D01*
X99109990Y-123641210D01*
X99315149Y-123467530D01*
X99492382Y-123265434D01*
X99637797Y-123039361D01*
X99748199Y-122794278D01*
X99785209Y-122663051D01*
X99819893Y-122540072D01*
X99819894Y-122540069D01*
X99821163Y-122535568D01*
X99836066Y-122418420D01*
X99854688Y-122272045D01*
X99854688Y-122272041D01*
X99855086Y-122268915D01*
X99855488Y-122253580D01*
X99857488Y-122177160D01*
X99857571Y-122174000D01*
X99837650Y-121905937D01*
X99831106Y-121877015D01*
X99779361Y-121648331D01*
X99779360Y-121648326D01*
X99778327Y-121643763D01*
X99680902Y-121393238D01*
X99547518Y-121159864D01*
X99544237Y-121155701D01*
X99459373Y-121048052D01*
X99381105Y-120948769D01*
X99185317Y-120764591D01*
X98999527Y-120635703D01*
X98968299Y-120614039D01*
X98968296Y-120614037D01*
X98964457Y-120611374D01*
X98960264Y-120609306D01*
X98727564Y-120494551D01*
X98727561Y-120494550D01*
X98723376Y-120492486D01*
X98675745Y-120477239D01*
X98497657Y-120420233D01*
X98467370Y-120410538D01*
X98462763Y-120409788D01*
X98462760Y-120409787D01*
X98249337Y-120375029D01*
X98202063Y-120367330D01*
X98071719Y-120365624D01*
X97937961Y-120363873D01*
X97937958Y-120363873D01*
X97933284Y-120363812D01*
X97666937Y-120400060D01*
X97408874Y-120475278D01*
X97164763Y-120587815D01*
X97160854Y-120590378D01*
X96943881Y-120732631D01*
X96943876Y-120732635D01*
X96939968Y-120735197D01*
X96936476Y-120738314D01*
X96784331Y-120874109D01*
X96739426Y-120914188D01*
X96567544Y-121120854D01*
X96565121Y-121124847D01*
X96432556Y-121343307D01*
X96428096Y-121350656D01*
X96426287Y-121354970D01*
X96426285Y-121354974D01*
X96338648Y-121563966D01*
X96324148Y-121598545D01*
X96257981Y-121859077D01*
X96231050Y-122126526D01*
X94772500Y-122126526D01*
X94772500Y-120825866D01*
X94765745Y-120763684D01*
X94714615Y-120627295D01*
X94627261Y-120510739D01*
X94510705Y-120423385D01*
X94374316Y-120372255D01*
X94312134Y-120365500D01*
X91615866Y-120365500D01*
X91553684Y-120372255D01*
X91417295Y-120423385D01*
X91300739Y-120510739D01*
X91213385Y-120627295D01*
X91162255Y-120763684D01*
X91155500Y-120825866D01*
X91155500Y-123522134D01*
X87348000Y-123522134D01*
X87348000Y-123315315D01*
X87343525Y-123300076D01*
X87342135Y-123298871D01*
X87334452Y-123297200D01*
X82850116Y-123297200D01*
X82834877Y-123301675D01*
X82833672Y-123303065D01*
X82832001Y-123310748D01*
X82832001Y-123853161D01*
X82832209Y-123858271D01*
X82843082Y-123991967D01*
X82844852Y-124002520D01*
X82897967Y-124209385D01*
X82901701Y-124219931D01*
X82944334Y-124313049D01*
X82954505Y-124383313D01*
X82925073Y-124447922D01*
X82865383Y-124486362D01*
X82829770Y-124491500D01*
X73657488Y-124491500D01*
X73589367Y-124471498D01*
X73542874Y-124417842D01*
X73532770Y-124347568D01*
X73542924Y-124313049D01*
X73562299Y-124270731D01*
X73566033Y-124260185D01*
X73619147Y-124053321D01*
X73620918Y-124042766D01*
X73631793Y-123909070D01*
X73632000Y-123903964D01*
X73632000Y-123366115D01*
X73627525Y-123350876D01*
X73626135Y-123349671D01*
X73618452Y-123348000D01*
X69134116Y-123348000D01*
X69118877Y-123352475D01*
X69117672Y-123353865D01*
X69116001Y-123361548D01*
X69116001Y-123903961D01*
X69116209Y-123909071D01*
X69127082Y-124042767D01*
X69128852Y-124053320D01*
X69181967Y-124260185D01*
X69185701Y-124270731D01*
X69205076Y-124313049D01*
X69215247Y-124383313D01*
X69185815Y-124447922D01*
X69126125Y-124486362D01*
X69090512Y-124491500D01*
X63314891Y-124491500D01*
X63308974Y-124489763D01*
X63294937Y-124491500D01*
X25634500Y-124491500D01*
X25566379Y-124471498D01*
X25519886Y-124417842D01*
X25508500Y-124365500D01*
X25508500Y-123776134D01*
X56357500Y-123776134D01*
X56364255Y-123838316D01*
X56415385Y-123974705D01*
X56502739Y-124091261D01*
X56619295Y-124178615D01*
X56755684Y-124229745D01*
X56817866Y-124236500D01*
X59514134Y-124236500D01*
X59576316Y-124229745D01*
X59712705Y-124178615D01*
X59829261Y-124091261D01*
X59916615Y-123974705D01*
X59954778Y-123872906D01*
X62165839Y-123872906D01*
X62174553Y-123884427D01*
X62281452Y-123962809D01*
X62289351Y-123967745D01*
X62518905Y-124088519D01*
X62527454Y-124092236D01*
X62772327Y-124177749D01*
X62781336Y-124180163D01*
X63036166Y-124228544D01*
X63045423Y-124229598D01*
X63299884Y-124239597D01*
X63303284Y-124240742D01*
X63310492Y-124239577D01*
X63313920Y-124239457D01*
X63571753Y-124211220D01*
X63580930Y-124209519D01*
X63831758Y-124143481D01*
X63840574Y-124140445D01*
X64078880Y-124038062D01*
X64087167Y-124033748D01*
X64307718Y-123897266D01*
X64315268Y-123891780D01*
X64320559Y-123887301D01*
X64328997Y-123874497D01*
X64322935Y-123864145D01*
X63258812Y-122800022D01*
X63244868Y-122792408D01*
X63243035Y-122792539D01*
X63236420Y-122796790D01*
X62172497Y-123860713D01*
X62165839Y-123872906D01*
X59954778Y-123872906D01*
X59967745Y-123838316D01*
X59974500Y-123776134D01*
X59974500Y-122385211D01*
X61433775Y-122385211D01*
X61446220Y-122644288D01*
X61447356Y-122653543D01*
X61497961Y-122907945D01*
X61500449Y-122916917D01*
X61588095Y-123161033D01*
X61591895Y-123169568D01*
X61714658Y-123398042D01*
X61719666Y-123405904D01*
X61789720Y-123499716D01*
X61800979Y-123508165D01*
X61813397Y-123501393D01*
X62873978Y-122440812D01*
X62880356Y-122429132D01*
X63610408Y-122429132D01*
X63610539Y-122430965D01*
X63614790Y-122437580D01*
X64682094Y-123504884D01*
X64694474Y-123511644D01*
X64702815Y-123505400D01*
X64836832Y-123297048D01*
X64841275Y-123288864D01*
X64947807Y-123052370D01*
X64950997Y-123043605D01*
X65013530Y-122821885D01*
X69116000Y-122821885D01*
X69120475Y-122837124D01*
X69121865Y-122838329D01*
X69129548Y-122840000D01*
X71101885Y-122840000D01*
X71117124Y-122835525D01*
X71118329Y-122834135D01*
X71120000Y-122826452D01*
X71120000Y-122821885D01*
X71628000Y-122821885D01*
X71632475Y-122837124D01*
X71633865Y-122838329D01*
X71641548Y-122840000D01*
X73613884Y-122840000D01*
X73629123Y-122835525D01*
X73630328Y-122834135D01*
X73631999Y-122826452D01*
X73631999Y-122771085D01*
X82832000Y-122771085D01*
X82836475Y-122786324D01*
X82837865Y-122787529D01*
X82845548Y-122789200D01*
X84817885Y-122789200D01*
X84833124Y-122784725D01*
X84834329Y-122783335D01*
X84836000Y-122775652D01*
X84836000Y-122771085D01*
X85344000Y-122771085D01*
X85348475Y-122786324D01*
X85349865Y-122787529D01*
X85357548Y-122789200D01*
X87329884Y-122789200D01*
X87345123Y-122784725D01*
X87346328Y-122783335D01*
X87347999Y-122775652D01*
X87347999Y-122233239D01*
X87347791Y-122228129D01*
X87336918Y-122094433D01*
X87335148Y-122083880D01*
X87282033Y-121877015D01*
X87278299Y-121866469D01*
X87189490Y-121672495D01*
X87183954Y-121662788D01*
X87062197Y-121487603D01*
X87055024Y-121479024D01*
X86904176Y-121328176D01*
X86895597Y-121321003D01*
X86720412Y-121199246D01*
X86710705Y-121193710D01*
X86516731Y-121104901D01*
X86506185Y-121101167D01*
X86299321Y-121048053D01*
X86288766Y-121046282D01*
X86155070Y-121035407D01*
X86149964Y-121035200D01*
X85362115Y-121035200D01*
X85346876Y-121039675D01*
X85345671Y-121041065D01*
X85344000Y-121048748D01*
X85344000Y-122771085D01*
X84836000Y-122771085D01*
X84836000Y-121053316D01*
X84831525Y-121038077D01*
X84830135Y-121036872D01*
X84822452Y-121035201D01*
X84030039Y-121035201D01*
X84024929Y-121035409D01*
X83891233Y-121046282D01*
X83880680Y-121048052D01*
X83673815Y-121101167D01*
X83663269Y-121104901D01*
X83469295Y-121193710D01*
X83459588Y-121199246D01*
X83284403Y-121321003D01*
X83275824Y-121328176D01*
X83124976Y-121479024D01*
X83117803Y-121487603D01*
X82996046Y-121662788D01*
X82990510Y-121672495D01*
X82901701Y-121866469D01*
X82897967Y-121877015D01*
X82844853Y-122083879D01*
X82843082Y-122094434D01*
X82832207Y-122228130D01*
X82832000Y-122233236D01*
X82832000Y-122771085D01*
X73631999Y-122771085D01*
X73631999Y-122284039D01*
X73631791Y-122278929D01*
X73620918Y-122145233D01*
X73619148Y-122134680D01*
X73566033Y-121927815D01*
X73562299Y-121917269D01*
X73473490Y-121723295D01*
X73467954Y-121713588D01*
X73346197Y-121538403D01*
X73339024Y-121529824D01*
X73188176Y-121378976D01*
X73179597Y-121371803D01*
X73004412Y-121250046D01*
X72994705Y-121244510D01*
X72800731Y-121155701D01*
X72790185Y-121151967D01*
X72583321Y-121098853D01*
X72572766Y-121097082D01*
X72439070Y-121086207D01*
X72433964Y-121086000D01*
X71646115Y-121086000D01*
X71630876Y-121090475D01*
X71629671Y-121091865D01*
X71628000Y-121099548D01*
X71628000Y-122821885D01*
X71120000Y-122821885D01*
X71120000Y-121104116D01*
X71115525Y-121088877D01*
X71114135Y-121087672D01*
X71106452Y-121086001D01*
X70314039Y-121086001D01*
X70308929Y-121086209D01*
X70175233Y-121097082D01*
X70164680Y-121098852D01*
X69957815Y-121151967D01*
X69947269Y-121155701D01*
X69753295Y-121244510D01*
X69743588Y-121250046D01*
X69568403Y-121371803D01*
X69559824Y-121378976D01*
X69408976Y-121529824D01*
X69401803Y-121538403D01*
X69280046Y-121713588D01*
X69274510Y-121723295D01*
X69185701Y-121917269D01*
X69181967Y-121927815D01*
X69128853Y-122134679D01*
X69127082Y-122145234D01*
X69116207Y-122278930D01*
X69116000Y-122284036D01*
X69116000Y-122821885D01*
X65013530Y-122821885D01*
X65021402Y-122793972D01*
X65023262Y-122784830D01*
X65056187Y-122526019D01*
X65056668Y-122519733D01*
X65058987Y-122431160D01*
X65058836Y-122424851D01*
X65039501Y-122164662D01*
X65038125Y-122155457D01*
X64980878Y-121902467D01*
X64978154Y-121893556D01*
X64884143Y-121651806D01*
X64880132Y-121643397D01*
X64751422Y-121418202D01*
X64746211Y-121410476D01*
X64702996Y-121355658D01*
X64691071Y-121347187D01*
X64679537Y-121353673D01*
X63618022Y-122415188D01*
X63610408Y-122429132D01*
X62880356Y-122429132D01*
X62881592Y-122426868D01*
X62881461Y-122425035D01*
X62877210Y-122418420D01*
X61811816Y-121353026D01*
X61798507Y-121345758D01*
X61788472Y-121352878D01*
X61772937Y-121371556D01*
X61767531Y-121379135D01*
X61632965Y-121600891D01*
X61628736Y-121609192D01*
X61528432Y-121848389D01*
X61525471Y-121857239D01*
X61461628Y-122108625D01*
X61460006Y-122117822D01*
X61434020Y-122375885D01*
X61433775Y-122385211D01*
X59974500Y-122385211D01*
X59974500Y-121079866D01*
X59967745Y-121017684D01*
X59953876Y-120980689D01*
X62163102Y-120980689D01*
X62167675Y-120990465D01*
X63233188Y-122055978D01*
X63247132Y-122063592D01*
X63248965Y-122063461D01*
X63255580Y-122059210D01*
X64320349Y-120994441D01*
X64326733Y-120982751D01*
X64317321Y-120970641D01*
X64170045Y-120868471D01*
X64162010Y-120863738D01*
X63929376Y-120749016D01*
X63920743Y-120745528D01*
X63673703Y-120666450D01*
X63664643Y-120664274D01*
X63408630Y-120622580D01*
X63399343Y-120621768D01*
X63139992Y-120618373D01*
X63130681Y-120618943D01*
X62873682Y-120653919D01*
X62864546Y-120655860D01*
X62615543Y-120728439D01*
X62606800Y-120731707D01*
X62371252Y-120840296D01*
X62363097Y-120844816D01*
X62172240Y-120969947D01*
X62163102Y-120980689D01*
X59953876Y-120980689D01*
X59916615Y-120881295D01*
X59829261Y-120764739D01*
X59712705Y-120677385D01*
X59576316Y-120626255D01*
X59514134Y-120619500D01*
X56817866Y-120619500D01*
X56755684Y-120626255D01*
X56619295Y-120677385D01*
X56502739Y-120764739D01*
X56415385Y-120881295D01*
X56364255Y-121017684D01*
X56357500Y-121079866D01*
X56357500Y-123776134D01*
X25508500Y-123776134D01*
X25508500Y-120157821D01*
X27491500Y-120157821D01*
X27531060Y-120470975D01*
X27609557Y-120776702D01*
X27611010Y-120780371D01*
X27611010Y-120780372D01*
X27716993Y-121048053D01*
X27725753Y-121070179D01*
X27727659Y-121073647D01*
X27727660Y-121073648D01*
X27796709Y-121199246D01*
X27877816Y-121346779D01*
X28063346Y-121602140D01*
X28279418Y-121832233D01*
X28282469Y-121834757D01*
X28282470Y-121834758D01*
X28394956Y-121927815D01*
X28522625Y-122033432D01*
X28789131Y-122202562D01*
X28792710Y-122204246D01*
X28792717Y-122204250D01*
X29071144Y-122335267D01*
X29071148Y-122335269D01*
X29074734Y-122336956D01*
X29078506Y-122338182D01*
X29078507Y-122338182D01*
X29122293Y-122352409D01*
X29374928Y-122434495D01*
X29684980Y-122493641D01*
X29921162Y-122508500D01*
X30078838Y-122508500D01*
X30315020Y-122493641D01*
X30625072Y-122434495D01*
X30877707Y-122352409D01*
X30921493Y-122338182D01*
X30921494Y-122338182D01*
X30925266Y-122336956D01*
X30928852Y-122335269D01*
X30928856Y-122335267D01*
X31207283Y-122204250D01*
X31207290Y-122204246D01*
X31210869Y-122202562D01*
X31477375Y-122033432D01*
X31605044Y-121927815D01*
X31717530Y-121834758D01*
X31717531Y-121834757D01*
X31720582Y-121832233D01*
X31936654Y-121602140D01*
X32122184Y-121346779D01*
X32203292Y-121199246D01*
X32272340Y-121073648D01*
X32272341Y-121073647D01*
X32274247Y-121070179D01*
X32283008Y-121048053D01*
X32388990Y-120780372D01*
X32388990Y-120780371D01*
X32390443Y-120776702D01*
X32468940Y-120470975D01*
X32508500Y-120157821D01*
X32508500Y-119842179D01*
X32468940Y-119529025D01*
X32390443Y-119223298D01*
X32386224Y-119212642D01*
X32275702Y-118933495D01*
X32275700Y-118933490D01*
X32274247Y-118929821D01*
X32253528Y-118892134D01*
X69115500Y-118892134D01*
X69122255Y-118954316D01*
X69173385Y-119090705D01*
X69260739Y-119207261D01*
X69377295Y-119294615D01*
X69513684Y-119345745D01*
X69575866Y-119352500D01*
X73172134Y-119352500D01*
X73234316Y-119345745D01*
X73370705Y-119294615D01*
X73487261Y-119207261D01*
X73574615Y-119090705D01*
X73577764Y-119082304D01*
X73578981Y-119080082D01*
X73629240Y-119029936D01*
X73698631Y-119014923D01*
X73765123Y-119039809D01*
X73807605Y-119096693D01*
X73815500Y-119140592D01*
X73815500Y-121061364D01*
X73815591Y-121063037D01*
X73815591Y-121063052D01*
X73817815Y-121104116D01*
X73818619Y-121118957D01*
X73819456Y-121123243D01*
X73852678Y-121293360D01*
X73863620Y-121349393D01*
X73946804Y-121568952D01*
X74001967Y-121662788D01*
X74038328Y-121724639D01*
X74065791Y-121771356D01*
X74217181Y-121950819D01*
X74396644Y-122102209D01*
X74401248Y-122104915D01*
X74401250Y-122104917D01*
X74445954Y-122131197D01*
X74599048Y-122221196D01*
X74818607Y-122304380D01*
X75049043Y-122349381D01*
X75053401Y-122349617D01*
X75104948Y-122352409D01*
X75104963Y-122352409D01*
X75106636Y-122352500D01*
X77041364Y-122352500D01*
X77043037Y-122352409D01*
X77043052Y-122352409D01*
X77094599Y-122349617D01*
X77098957Y-122349381D01*
X77329393Y-122304380D01*
X77548952Y-122221196D01*
X77702046Y-122131197D01*
X77746750Y-122104917D01*
X77746752Y-122104915D01*
X77751356Y-122102209D01*
X77930819Y-121950819D01*
X78082209Y-121771356D01*
X78109673Y-121724639D01*
X78138311Y-121675923D01*
X78190077Y-121627335D01*
X78259894Y-121614446D01*
X78325595Y-121641350D01*
X78355553Y-121675924D01*
X78379080Y-121715946D01*
X78379083Y-121715950D01*
X78381791Y-121720556D01*
X78533181Y-121900019D01*
X78712644Y-122051409D01*
X78915048Y-122170396D01*
X79134607Y-122253580D01*
X79139839Y-122254602D01*
X79139840Y-122254602D01*
X79229160Y-122272045D01*
X79365043Y-122298581D01*
X79369401Y-122298817D01*
X79420948Y-122301609D01*
X79420963Y-122301609D01*
X79422636Y-122301700D01*
X81357364Y-122301700D01*
X81359037Y-122301609D01*
X81359052Y-122301609D01*
X81410599Y-122298817D01*
X81414957Y-122298581D01*
X81550840Y-122272045D01*
X81640160Y-122254602D01*
X81640161Y-122254602D01*
X81645393Y-122253580D01*
X81864952Y-122170396D01*
X82067356Y-122051409D01*
X82246819Y-121900019D01*
X82398209Y-121720556D01*
X82402306Y-121713588D01*
X82468556Y-121600891D01*
X82517196Y-121518152D01*
X82600380Y-121298593D01*
X82645381Y-121068157D01*
X82646848Y-121041065D01*
X82648409Y-121012252D01*
X82648409Y-121012237D01*
X82648500Y-121010564D01*
X82648500Y-120157821D01*
X117491500Y-120157821D01*
X117531060Y-120470975D01*
X117609557Y-120776702D01*
X117611010Y-120780371D01*
X117611010Y-120780372D01*
X117716993Y-121048053D01*
X117725753Y-121070179D01*
X117727659Y-121073647D01*
X117727660Y-121073648D01*
X117796709Y-121199246D01*
X117877816Y-121346779D01*
X118063346Y-121602140D01*
X118279418Y-121832233D01*
X118282469Y-121834757D01*
X118282470Y-121834758D01*
X118394956Y-121927815D01*
X118522625Y-122033432D01*
X118789131Y-122202562D01*
X118792710Y-122204246D01*
X118792717Y-122204250D01*
X119071144Y-122335267D01*
X119071148Y-122335269D01*
X119074734Y-122336956D01*
X119078506Y-122338182D01*
X119078507Y-122338182D01*
X119122293Y-122352409D01*
X119374928Y-122434495D01*
X119684980Y-122493641D01*
X119921162Y-122508500D01*
X120078838Y-122508500D01*
X120315020Y-122493641D01*
X120625072Y-122434495D01*
X120877707Y-122352409D01*
X120921493Y-122338182D01*
X120921494Y-122338182D01*
X120925266Y-122336956D01*
X120928852Y-122335269D01*
X120928856Y-122335267D01*
X121207283Y-122204250D01*
X121207290Y-122204246D01*
X121210869Y-122202562D01*
X121477375Y-122033432D01*
X121605044Y-121927815D01*
X121717530Y-121834758D01*
X121717531Y-121834757D01*
X121720582Y-121832233D01*
X121936654Y-121602140D01*
X122122184Y-121346779D01*
X122203292Y-121199246D01*
X122272340Y-121073648D01*
X122272341Y-121073647D01*
X122274247Y-121070179D01*
X122283008Y-121048053D01*
X122388990Y-120780372D01*
X122388990Y-120780371D01*
X122390443Y-120776702D01*
X122468940Y-120470975D01*
X122508500Y-120157821D01*
X122508500Y-119842179D01*
X122468940Y-119529025D01*
X122390443Y-119223298D01*
X122386224Y-119212642D01*
X122275702Y-118933495D01*
X122275700Y-118933490D01*
X122274247Y-118929821D01*
X122225601Y-118841334D01*
X122124093Y-118656693D01*
X122124091Y-118656690D01*
X122122184Y-118653221D01*
X121936654Y-118397860D01*
X121720582Y-118167767D01*
X121477375Y-117966568D01*
X121210869Y-117797438D01*
X121207290Y-117795754D01*
X121207283Y-117795750D01*
X120928856Y-117664733D01*
X120928852Y-117664731D01*
X120925266Y-117663044D01*
X120625072Y-117565505D01*
X120315020Y-117506359D01*
X120078838Y-117491500D01*
X119921162Y-117491500D01*
X119684980Y-117506359D01*
X119374928Y-117565505D01*
X119074734Y-117663044D01*
X119071148Y-117664731D01*
X119071144Y-117664733D01*
X118792717Y-117795750D01*
X118792710Y-117795754D01*
X118789131Y-117797438D01*
X118522625Y-117966568D01*
X118279418Y-118167767D01*
X118063346Y-118397860D01*
X117877816Y-118653221D01*
X117875909Y-118656690D01*
X117875907Y-118656693D01*
X117774399Y-118841334D01*
X117725753Y-118929821D01*
X117724300Y-118933490D01*
X117724298Y-118933495D01*
X117613776Y-119212642D01*
X117609557Y-119223298D01*
X117531060Y-119529025D01*
X117491500Y-119842179D01*
X117491500Y-120157821D01*
X82648500Y-120157821D01*
X82648500Y-119089792D01*
X82668502Y-119021671D01*
X82722158Y-118975178D01*
X82792432Y-118965074D01*
X82857012Y-118994568D01*
X82885019Y-119029282D01*
X82886236Y-119031504D01*
X82889385Y-119039905D01*
X82976739Y-119156461D01*
X83093295Y-119243815D01*
X83229684Y-119294945D01*
X83291866Y-119301700D01*
X86888134Y-119301700D01*
X86950316Y-119294945D01*
X87086705Y-119243815D01*
X87203261Y-119156461D01*
X87290615Y-119039905D01*
X87341745Y-118903516D01*
X87348500Y-118841334D01*
X87348500Y-115245066D01*
X87341745Y-115182884D01*
X87290615Y-115046495D01*
X87203261Y-114929939D01*
X87086705Y-114842585D01*
X86950316Y-114791455D01*
X86888134Y-114784700D01*
X83291866Y-114784700D01*
X83229684Y-114791455D01*
X83093295Y-114842585D01*
X82976739Y-114929939D01*
X82889385Y-115046495D01*
X82838255Y-115182884D01*
X82831500Y-115245066D01*
X82831500Y-118709627D01*
X82811498Y-118777748D01*
X82757842Y-118824241D01*
X82687568Y-118834345D01*
X82622988Y-118804851D01*
X82587673Y-118754268D01*
X82538332Y-118624034D01*
X82517196Y-118568248D01*
X82430783Y-118421254D01*
X82400917Y-118370450D01*
X82400915Y-118370448D01*
X82398209Y-118365844D01*
X82246819Y-118186381D01*
X82067356Y-118034991D01*
X81864952Y-117916004D01*
X81645393Y-117832820D01*
X81414957Y-117787819D01*
X81409227Y-117787509D01*
X81359052Y-117784791D01*
X81359037Y-117784791D01*
X81357364Y-117784700D01*
X79422636Y-117784700D01*
X79420963Y-117784791D01*
X79420948Y-117784791D01*
X79370773Y-117787509D01*
X79365043Y-117787819D01*
X79134607Y-117832820D01*
X78915048Y-117916004D01*
X78712644Y-118034991D01*
X78533181Y-118186381D01*
X78381791Y-118365844D01*
X78379085Y-118370448D01*
X78379083Y-118370450D01*
X78325689Y-118461277D01*
X78273923Y-118509865D01*
X78204106Y-118522754D01*
X78138405Y-118495850D01*
X78108447Y-118461276D01*
X78084920Y-118421254D01*
X78084915Y-118421246D01*
X78082209Y-118416644D01*
X77930819Y-118237181D01*
X77751356Y-118085791D01*
X77548952Y-117966804D01*
X77329393Y-117883620D01*
X77098957Y-117838619D01*
X77093227Y-117838309D01*
X77043052Y-117835591D01*
X77043037Y-117835591D01*
X77041364Y-117835500D01*
X75106636Y-117835500D01*
X75104963Y-117835591D01*
X75104948Y-117835591D01*
X75054773Y-117838309D01*
X75049043Y-117838619D01*
X74818607Y-117883620D01*
X74599048Y-117966804D01*
X74396644Y-118085791D01*
X74217181Y-118237181D01*
X74065791Y-118416644D01*
X73946804Y-118619048D01*
X73912487Y-118709627D01*
X73876327Y-118805068D01*
X73833488Y-118861683D01*
X73766840Y-118886151D01*
X73697545Y-118870702D01*
X73647602Y-118820241D01*
X73632500Y-118760427D01*
X73632500Y-115295866D01*
X73625745Y-115233684D01*
X73574615Y-115097295D01*
X73487261Y-114980739D01*
X73370705Y-114893385D01*
X73234316Y-114842255D01*
X73172134Y-114835500D01*
X69575866Y-114835500D01*
X69513684Y-114842255D01*
X69377295Y-114893385D01*
X69260739Y-114980739D01*
X69173385Y-115097295D01*
X69122255Y-115233684D01*
X69115500Y-115295866D01*
X69115500Y-118892134D01*
X32253528Y-118892134D01*
X32225601Y-118841334D01*
X32124093Y-118656693D01*
X32124091Y-118656690D01*
X32122184Y-118653221D01*
X31936654Y-118397860D01*
X31720582Y-118167767D01*
X31477375Y-117966568D01*
X31210869Y-117797438D01*
X31207290Y-117795754D01*
X31207283Y-117795750D01*
X30928856Y-117664733D01*
X30928852Y-117664731D01*
X30925266Y-117663044D01*
X30625072Y-117565505D01*
X30315020Y-117506359D01*
X30078838Y-117491500D01*
X29921162Y-117491500D01*
X29684980Y-117506359D01*
X29374928Y-117565505D01*
X29074734Y-117663044D01*
X29071148Y-117664731D01*
X29071144Y-117664733D01*
X28792717Y-117795750D01*
X28792710Y-117795754D01*
X28789131Y-117797438D01*
X28522625Y-117966568D01*
X28279418Y-118167767D01*
X28063346Y-118397860D01*
X27877816Y-118653221D01*
X27875909Y-118656690D01*
X27875907Y-118656693D01*
X27774399Y-118841334D01*
X27725753Y-118929821D01*
X27724300Y-118933490D01*
X27724298Y-118933495D01*
X27613776Y-119212642D01*
X27609557Y-119223298D01*
X27531060Y-119529025D01*
X27491500Y-119842179D01*
X27491500Y-120157821D01*
X25508500Y-120157821D01*
X25508500Y-113944669D01*
X30502001Y-113944669D01*
X30502371Y-113951490D01*
X30507895Y-114002352D01*
X30511521Y-114017604D01*
X30556676Y-114138054D01*
X30565214Y-114153649D01*
X30641715Y-114255724D01*
X30654276Y-114268285D01*
X30756351Y-114344786D01*
X30771946Y-114353324D01*
X30892394Y-114398478D01*
X30907649Y-114402105D01*
X30958514Y-114407631D01*
X30965328Y-114408000D01*
X31637885Y-114408000D01*
X31653124Y-114403525D01*
X31654329Y-114402135D01*
X31656000Y-114394452D01*
X31656000Y-114389884D01*
X32164000Y-114389884D01*
X32168475Y-114405123D01*
X32169865Y-114406328D01*
X32177548Y-114407999D01*
X32854669Y-114407999D01*
X32861490Y-114407629D01*
X32912352Y-114402105D01*
X32927604Y-114398479D01*
X33048054Y-114353324D01*
X33063649Y-114344786D01*
X33165724Y-114268285D01*
X33178285Y-114255724D01*
X33254786Y-114153649D01*
X33263324Y-114138054D01*
X33284773Y-114080840D01*
X33327415Y-114024075D01*
X33393977Y-113999376D01*
X33463325Y-114014584D01*
X33483240Y-114028126D01*
X33639349Y-114157730D01*
X33839322Y-114274584D01*
X34055694Y-114357209D01*
X34060760Y-114358240D01*
X34060761Y-114358240D01*
X34113846Y-114369040D01*
X34282656Y-114403385D01*
X34413324Y-114408176D01*
X34508949Y-114411683D01*
X34508953Y-114411683D01*
X34514113Y-114411872D01*
X34519233Y-114411216D01*
X34519235Y-114411216D01*
X34618668Y-114398478D01*
X34743847Y-114382442D01*
X34748795Y-114380957D01*
X34748802Y-114380956D01*
X34960747Y-114317369D01*
X34965690Y-114315886D01*
X35046236Y-114276427D01*
X35100181Y-114250000D01*
X56146502Y-114250000D01*
X56166457Y-114478087D01*
X56225716Y-114699243D01*
X56228039Y-114704224D01*
X56228039Y-114704225D01*
X56320151Y-114901762D01*
X56320154Y-114901767D01*
X56322477Y-114906749D01*
X56453802Y-115094300D01*
X56615700Y-115256198D01*
X56620208Y-115259355D01*
X56620211Y-115259357D01*
X56698389Y-115314098D01*
X56803251Y-115387523D01*
X56808233Y-115389846D01*
X56808238Y-115389849D01*
X57005775Y-115481961D01*
X57010757Y-115484284D01*
X57016065Y-115485706D01*
X57016067Y-115485707D01*
X57226598Y-115542119D01*
X57226600Y-115542119D01*
X57231913Y-115543543D01*
X57460000Y-115563498D01*
X57688087Y-115543543D01*
X57693400Y-115542119D01*
X57693402Y-115542119D01*
X57903933Y-115485707D01*
X57903935Y-115485706D01*
X57909243Y-115484284D01*
X57914225Y-115481961D01*
X58111762Y-115389849D01*
X58111767Y-115389846D01*
X58116749Y-115387523D01*
X58221611Y-115314098D01*
X58299789Y-115259357D01*
X58299792Y-115259355D01*
X58304300Y-115256198D01*
X58466198Y-115094300D01*
X58597523Y-114906749D01*
X58599846Y-114901767D01*
X58599849Y-114901762D01*
X58691961Y-114704225D01*
X58691961Y-114704224D01*
X58694284Y-114699243D01*
X58753543Y-114478087D01*
X58773498Y-114250000D01*
X63766502Y-114250000D01*
X63786457Y-114478087D01*
X63845716Y-114699243D01*
X63848039Y-114704224D01*
X63848039Y-114704225D01*
X63940151Y-114901762D01*
X63940154Y-114901767D01*
X63942477Y-114906749D01*
X64073802Y-115094300D01*
X64235700Y-115256198D01*
X64240208Y-115259355D01*
X64240211Y-115259357D01*
X64318389Y-115314098D01*
X64423251Y-115387523D01*
X64428233Y-115389846D01*
X64428238Y-115389849D01*
X64625775Y-115481961D01*
X64630757Y-115484284D01*
X64636065Y-115485706D01*
X64636067Y-115485707D01*
X64846598Y-115542119D01*
X64846600Y-115542119D01*
X64851913Y-115543543D01*
X65080000Y-115563498D01*
X65308087Y-115543543D01*
X65313400Y-115542119D01*
X65313402Y-115542119D01*
X65523933Y-115485707D01*
X65523935Y-115485706D01*
X65529243Y-115484284D01*
X65534225Y-115481961D01*
X65731762Y-115389849D01*
X65731767Y-115389846D01*
X65736749Y-115387523D01*
X65841611Y-115314098D01*
X65919789Y-115259357D01*
X65919792Y-115259355D01*
X65924300Y-115256198D01*
X66086198Y-115094300D01*
X66217523Y-114906749D01*
X66219846Y-114901767D01*
X66219849Y-114901762D01*
X66311961Y-114704225D01*
X66311961Y-114704224D01*
X66314284Y-114699243D01*
X66373543Y-114478087D01*
X66393498Y-114250000D01*
X66373543Y-114021913D01*
X66354673Y-113951490D01*
X66315707Y-113806067D01*
X66315706Y-113806065D01*
X66314284Y-113800757D01*
X66311961Y-113795775D01*
X66219849Y-113598238D01*
X66219846Y-113598233D01*
X66217523Y-113593251D01*
X66112329Y-113443019D01*
X66089357Y-113410211D01*
X66089355Y-113410208D01*
X66086198Y-113405700D01*
X65924300Y-113243802D01*
X65919792Y-113240645D01*
X65919789Y-113240643D01*
X65841611Y-113185902D01*
X65736749Y-113112477D01*
X65731767Y-113110154D01*
X65731762Y-113110151D01*
X65534225Y-113018039D01*
X65534224Y-113018039D01*
X65529243Y-113015716D01*
X65523935Y-113014294D01*
X65523933Y-113014293D01*
X65313402Y-112957881D01*
X65313400Y-112957881D01*
X65308087Y-112956457D01*
X65080000Y-112936502D01*
X64851913Y-112956457D01*
X64846600Y-112957881D01*
X64846598Y-112957881D01*
X64636067Y-113014293D01*
X64636065Y-113014294D01*
X64630757Y-113015716D01*
X64625776Y-113018039D01*
X64625775Y-113018039D01*
X64428238Y-113110151D01*
X64428233Y-113110154D01*
X64423251Y-113112477D01*
X64318389Y-113185902D01*
X64240211Y-113240643D01*
X64240208Y-113240645D01*
X64235700Y-113243802D01*
X64073802Y-113405700D01*
X64070645Y-113410208D01*
X64070643Y-113410211D01*
X64047671Y-113443019D01*
X63942477Y-113593251D01*
X63940154Y-113598233D01*
X63940151Y-113598238D01*
X63848039Y-113795775D01*
X63845716Y-113800757D01*
X63844294Y-113806065D01*
X63844293Y-113806067D01*
X63805327Y-113951490D01*
X63786457Y-114021913D01*
X63766502Y-114250000D01*
X58773498Y-114250000D01*
X58753543Y-114021913D01*
X58734673Y-113951490D01*
X58695707Y-113806067D01*
X58695706Y-113806065D01*
X58694284Y-113800757D01*
X58691961Y-113795775D01*
X58599849Y-113598238D01*
X58599846Y-113598233D01*
X58597523Y-113593251D01*
X58492329Y-113443019D01*
X58469357Y-113410211D01*
X58469355Y-113410208D01*
X58466198Y-113405700D01*
X58304300Y-113243802D01*
X58299792Y-113240645D01*
X58299789Y-113240643D01*
X58221611Y-113185902D01*
X58116749Y-113112477D01*
X58111767Y-113110154D01*
X58111762Y-113110151D01*
X57914225Y-113018039D01*
X57914224Y-113018039D01*
X57909243Y-113015716D01*
X57903935Y-113014294D01*
X57903933Y-113014293D01*
X57693402Y-112957881D01*
X57693400Y-112957881D01*
X57688087Y-112956457D01*
X57460000Y-112936502D01*
X57231913Y-112956457D01*
X57226600Y-112957881D01*
X57226598Y-112957881D01*
X57016067Y-113014293D01*
X57016065Y-113014294D01*
X57010757Y-113015716D01*
X57005776Y-113018039D01*
X57005775Y-113018039D01*
X56808238Y-113110151D01*
X56808233Y-113110154D01*
X56803251Y-113112477D01*
X56698389Y-113185902D01*
X56620211Y-113240643D01*
X56620208Y-113240645D01*
X56615700Y-113243802D01*
X56453802Y-113405700D01*
X56450645Y-113410208D01*
X56450643Y-113410211D01*
X56427671Y-113443019D01*
X56322477Y-113593251D01*
X56320154Y-113598233D01*
X56320151Y-113598238D01*
X56228039Y-113795775D01*
X56225716Y-113800757D01*
X56224294Y-113806065D01*
X56224293Y-113806067D01*
X56185327Y-113951490D01*
X56166457Y-114021913D01*
X56146502Y-114250000D01*
X35100181Y-114250000D01*
X35169049Y-114216262D01*
X35169052Y-114216260D01*
X35173684Y-114213991D01*
X35362243Y-114079494D01*
X35526303Y-113916005D01*
X35661458Y-113727917D01*
X35764078Y-113520280D01*
X35831408Y-113298671D01*
X35861640Y-113069041D01*
X35863327Y-113000000D01*
X35857032Y-112923434D01*
X35844773Y-112774318D01*
X35844772Y-112774312D01*
X35844349Y-112769167D01*
X35787925Y-112544533D01*
X35706856Y-112358087D01*
X35697630Y-112336868D01*
X35697628Y-112336865D01*
X35695570Y-112332131D01*
X35569764Y-112137665D01*
X35562790Y-112130000D01*
X77186502Y-112130000D01*
X77206457Y-112358087D01*
X77265716Y-112579243D01*
X77268039Y-112584224D01*
X77268039Y-112584225D01*
X77360151Y-112781762D01*
X77360154Y-112781767D01*
X77362477Y-112786749D01*
X77365634Y-112791257D01*
X77480973Y-112955978D01*
X77493802Y-112974300D01*
X77655700Y-113136198D01*
X77660208Y-113139355D01*
X77660211Y-113139357D01*
X77738389Y-113194098D01*
X77843251Y-113267523D01*
X77848233Y-113269846D01*
X77848238Y-113269849D01*
X77920655Y-113303617D01*
X78050757Y-113364284D01*
X78056065Y-113365706D01*
X78056067Y-113365707D01*
X78266598Y-113422119D01*
X78266600Y-113422119D01*
X78271913Y-113423543D01*
X78500000Y-113443498D01*
X78728087Y-113423543D01*
X78733400Y-113422119D01*
X78733402Y-113422119D01*
X78943933Y-113365707D01*
X78943935Y-113365706D01*
X78949243Y-113364284D01*
X79079345Y-113303617D01*
X79151762Y-113269849D01*
X79151767Y-113269846D01*
X79156749Y-113267523D01*
X79261611Y-113194098D01*
X79339789Y-113139357D01*
X79339792Y-113139355D01*
X79344300Y-113136198D01*
X79506198Y-112974300D01*
X79519028Y-112955978D01*
X79634366Y-112791257D01*
X79637523Y-112786749D01*
X79639846Y-112781767D01*
X79639849Y-112781762D01*
X79731961Y-112584225D01*
X79731961Y-112584224D01*
X79734284Y-112579243D01*
X79793543Y-112358087D01*
X79813498Y-112130000D01*
X79793543Y-111901913D01*
X79747938Y-111731715D01*
X79735707Y-111686067D01*
X79735706Y-111686065D01*
X79734284Y-111680757D01*
X79712277Y-111633562D01*
X79639849Y-111478238D01*
X79639846Y-111478233D01*
X79637523Y-111473251D01*
X79564098Y-111368389D01*
X79509357Y-111290211D01*
X79509355Y-111290208D01*
X79506198Y-111285700D01*
X79344300Y-111123802D01*
X79339792Y-111120645D01*
X79339789Y-111120643D01*
X79218275Y-111035558D01*
X79156749Y-110992477D01*
X79151767Y-110990154D01*
X79151762Y-110990151D01*
X78954225Y-110898039D01*
X78954224Y-110898039D01*
X78949243Y-110895716D01*
X78943935Y-110894294D01*
X78943933Y-110894293D01*
X78733402Y-110837881D01*
X78733400Y-110837881D01*
X78728087Y-110836457D01*
X78500000Y-110816502D01*
X78271913Y-110836457D01*
X78266600Y-110837881D01*
X78266598Y-110837881D01*
X78056067Y-110894293D01*
X78056065Y-110894294D01*
X78050757Y-110895716D01*
X78045776Y-110898039D01*
X78045775Y-110898039D01*
X77848238Y-110990151D01*
X77848233Y-110990154D01*
X77843251Y-110992477D01*
X77781725Y-111035558D01*
X77660211Y-111120643D01*
X77660208Y-111120645D01*
X77655700Y-111123802D01*
X77493802Y-111285700D01*
X77490645Y-111290208D01*
X77490643Y-111290211D01*
X77435902Y-111368389D01*
X77362477Y-111473251D01*
X77360154Y-111478233D01*
X77360151Y-111478238D01*
X77287723Y-111633562D01*
X77265716Y-111680757D01*
X77264294Y-111686065D01*
X77264293Y-111686067D01*
X77252062Y-111731715D01*
X77206457Y-111901913D01*
X77186502Y-112130000D01*
X35562790Y-112130000D01*
X35488643Y-112048514D01*
X35413887Y-111966358D01*
X35409836Y-111963159D01*
X35409832Y-111963155D01*
X35236177Y-111826011D01*
X35236172Y-111826008D01*
X35232123Y-111822810D01*
X35227607Y-111820317D01*
X35227604Y-111820315D01*
X35033879Y-111713373D01*
X35033875Y-111713371D01*
X35029355Y-111710876D01*
X35024486Y-111709152D01*
X35024482Y-111709150D01*
X34815903Y-111635288D01*
X34815899Y-111635287D01*
X34811028Y-111633562D01*
X34805935Y-111632655D01*
X34805932Y-111632654D01*
X34588095Y-111593851D01*
X34588089Y-111593850D01*
X34583006Y-111592945D01*
X34505644Y-111592000D01*
X34356581Y-111590179D01*
X34356579Y-111590179D01*
X34351411Y-111590116D01*
X34122464Y-111625150D01*
X33902314Y-111697106D01*
X33897726Y-111699494D01*
X33897722Y-111699496D01*
X33701461Y-111801663D01*
X33696872Y-111804052D01*
X33692739Y-111807155D01*
X33692736Y-111807157D01*
X33515790Y-111940012D01*
X33511655Y-111943117D01*
X33508083Y-111946855D01*
X33493787Y-111961815D01*
X33432263Y-111997245D01*
X33361351Y-111993788D01*
X33303564Y-111952543D01*
X33284711Y-111918994D01*
X33263324Y-111861946D01*
X33254786Y-111846351D01*
X33178285Y-111744276D01*
X33165724Y-111731715D01*
X33063649Y-111655214D01*
X33048054Y-111646676D01*
X32927606Y-111601522D01*
X32912351Y-111597895D01*
X32861486Y-111592369D01*
X32854672Y-111592000D01*
X32182115Y-111592000D01*
X32166876Y-111596475D01*
X32165671Y-111597865D01*
X32164000Y-111605548D01*
X32164000Y-114389884D01*
X31656000Y-114389884D01*
X31656000Y-113272115D01*
X31651525Y-113256876D01*
X31650135Y-113255671D01*
X31642452Y-113254000D01*
X30520116Y-113254000D01*
X30504877Y-113258475D01*
X30503672Y-113259865D01*
X30502001Y-113267548D01*
X30502001Y-113944669D01*
X25508500Y-113944669D01*
X25508500Y-112727885D01*
X30502000Y-112727885D01*
X30506475Y-112743124D01*
X30507865Y-112744329D01*
X30515548Y-112746000D01*
X31637885Y-112746000D01*
X31653124Y-112741525D01*
X31654329Y-112740135D01*
X31656000Y-112732452D01*
X31656000Y-111610116D01*
X31651525Y-111594877D01*
X31650135Y-111593672D01*
X31642452Y-111592001D01*
X30965331Y-111592001D01*
X30958510Y-111592371D01*
X30907648Y-111597895D01*
X30892396Y-111601521D01*
X30771946Y-111646676D01*
X30756351Y-111655214D01*
X30654276Y-111731715D01*
X30641715Y-111744276D01*
X30565214Y-111846351D01*
X30556676Y-111861946D01*
X30511522Y-111982394D01*
X30507895Y-111997649D01*
X30502369Y-112048514D01*
X30502000Y-112055328D01*
X30502000Y-112727885D01*
X25508500Y-112727885D01*
X25508500Y-109157821D01*
X41491500Y-109157821D01*
X41531060Y-109470975D01*
X41609557Y-109776702D01*
X41725753Y-110070179D01*
X41877816Y-110346779D01*
X42063346Y-110602140D01*
X42242577Y-110793001D01*
X42264646Y-110816502D01*
X42279418Y-110832233D01*
X42282469Y-110834757D01*
X42282470Y-110834758D01*
X42401022Y-110932833D01*
X42522625Y-111033432D01*
X42789131Y-111202562D01*
X42792710Y-111204246D01*
X42792717Y-111204250D01*
X43071144Y-111335267D01*
X43071148Y-111335269D01*
X43074734Y-111336956D01*
X43374928Y-111434495D01*
X43684980Y-111493641D01*
X43921162Y-111508500D01*
X44078838Y-111508500D01*
X44315020Y-111493641D01*
X44625072Y-111434495D01*
X44925266Y-111336956D01*
X44928852Y-111335269D01*
X44928856Y-111335267D01*
X45207283Y-111204250D01*
X45207290Y-111204246D01*
X45210869Y-111202562D01*
X45477375Y-111033432D01*
X45598978Y-110932833D01*
X45717530Y-110834758D01*
X45717531Y-110834757D01*
X45720582Y-110832233D01*
X45735355Y-110816502D01*
X45757423Y-110793001D01*
X45936654Y-110602140D01*
X46122184Y-110346779D01*
X46274247Y-110070179D01*
X46390443Y-109776702D01*
X46468940Y-109470975D01*
X46508500Y-109157821D01*
X102491500Y-109157821D01*
X102531060Y-109470975D01*
X102609557Y-109776702D01*
X102725753Y-110070179D01*
X102877816Y-110346779D01*
X103063346Y-110602140D01*
X103242577Y-110793001D01*
X103264646Y-110816502D01*
X103279418Y-110832233D01*
X103282469Y-110834757D01*
X103282470Y-110834758D01*
X103401022Y-110932833D01*
X103522625Y-111033432D01*
X103789131Y-111202562D01*
X103792710Y-111204246D01*
X103792717Y-111204250D01*
X104071144Y-111335267D01*
X104071148Y-111335269D01*
X104074734Y-111336956D01*
X104374928Y-111434495D01*
X104684980Y-111493641D01*
X104921162Y-111508500D01*
X105078838Y-111508500D01*
X105315020Y-111493641D01*
X105625072Y-111434495D01*
X105925266Y-111336956D01*
X105928852Y-111335269D01*
X105928856Y-111335267D01*
X106207283Y-111204250D01*
X106207290Y-111204246D01*
X106210869Y-111202562D01*
X106477375Y-111033432D01*
X106598978Y-110932833D01*
X106717530Y-110834758D01*
X106717531Y-110834757D01*
X106720582Y-110832233D01*
X106735355Y-110816502D01*
X106757423Y-110793001D01*
X106936654Y-110602140D01*
X107122184Y-110346779D01*
X107274247Y-110070179D01*
X107390443Y-109776702D01*
X107468940Y-109470975D01*
X107508500Y-109157821D01*
X107508500Y-108842179D01*
X107468940Y-108529025D01*
X107390443Y-108223298D01*
X107359405Y-108144904D01*
X107275702Y-107933495D01*
X107275700Y-107933490D01*
X107274247Y-107929821D01*
X107272340Y-107926352D01*
X107124093Y-107656693D01*
X107124091Y-107656690D01*
X107122184Y-107653221D01*
X106936654Y-107397860D01*
X106720582Y-107167767D01*
X106477375Y-106966568D01*
X106210869Y-106797438D01*
X106207290Y-106795754D01*
X106207283Y-106795750D01*
X105928856Y-106664733D01*
X105928852Y-106664731D01*
X105925266Y-106663044D01*
X105899845Y-106654784D01*
X105628848Y-106566732D01*
X105628850Y-106566732D01*
X105625072Y-106565505D01*
X105315020Y-106506359D01*
X105078838Y-106491500D01*
X104921162Y-106491500D01*
X104684980Y-106506359D01*
X104374928Y-106565505D01*
X104371150Y-106566732D01*
X104371152Y-106566732D01*
X104100156Y-106654784D01*
X104074734Y-106663044D01*
X104071148Y-106664731D01*
X104071144Y-106664733D01*
X103792717Y-106795750D01*
X103792710Y-106795754D01*
X103789131Y-106797438D01*
X103522625Y-106966568D01*
X103279418Y-107167767D01*
X103063346Y-107397860D01*
X102877816Y-107653221D01*
X102875909Y-107656690D01*
X102875907Y-107656693D01*
X102727660Y-107926352D01*
X102725753Y-107929821D01*
X102724300Y-107933490D01*
X102724298Y-107933495D01*
X102640595Y-108144904D01*
X102609557Y-108223298D01*
X102531060Y-108529025D01*
X102491500Y-108842179D01*
X102491500Y-109157821D01*
X46508500Y-109157821D01*
X46508500Y-108842179D01*
X46468940Y-108529025D01*
X46390443Y-108223298D01*
X46359405Y-108144904D01*
X46275702Y-107933495D01*
X46275700Y-107933490D01*
X46274247Y-107929821D01*
X46272340Y-107926352D01*
X46124093Y-107656693D01*
X46124091Y-107656690D01*
X46122184Y-107653221D01*
X45936654Y-107397860D01*
X45720582Y-107167767D01*
X45477375Y-106966568D01*
X45210869Y-106797438D01*
X45207290Y-106795754D01*
X45207283Y-106795750D01*
X44928856Y-106664733D01*
X44928852Y-106664731D01*
X44925266Y-106663044D01*
X44899845Y-106654784D01*
X44628848Y-106566732D01*
X44628850Y-106566732D01*
X44625072Y-106565505D01*
X44315020Y-106506359D01*
X44078838Y-106491500D01*
X43921162Y-106491500D01*
X43684980Y-106506359D01*
X43374928Y-106565505D01*
X43371150Y-106566732D01*
X43371152Y-106566732D01*
X43100156Y-106654784D01*
X43074734Y-106663044D01*
X43071148Y-106664731D01*
X43071144Y-106664733D01*
X42792717Y-106795750D01*
X42792710Y-106795754D01*
X42789131Y-106797438D01*
X42522625Y-106966568D01*
X42279418Y-107167767D01*
X42063346Y-107397860D01*
X41877816Y-107653221D01*
X41875909Y-107656690D01*
X41875907Y-107656693D01*
X41727660Y-107926352D01*
X41725753Y-107929821D01*
X41724300Y-107933490D01*
X41724298Y-107933495D01*
X41640595Y-108144904D01*
X41609557Y-108223298D01*
X41531060Y-108529025D01*
X41491500Y-108842179D01*
X41491500Y-109157821D01*
X25508500Y-109157821D01*
X25508500Y-106462703D01*
X57890743Y-106462703D01*
X57891302Y-106466947D01*
X57891302Y-106466951D01*
X57896490Y-106506359D01*
X57928268Y-106747734D01*
X58004129Y-107025036D01*
X58005813Y-107028984D01*
X58078325Y-107198984D01*
X58116923Y-107289476D01*
X58128693Y-107309142D01*
X58220873Y-107463163D01*
X58264561Y-107536161D01*
X58444313Y-107760528D01*
X58461397Y-107776740D01*
X58643618Y-107949661D01*
X58652851Y-107958423D01*
X58886317Y-108126186D01*
X58890112Y-108128195D01*
X58890113Y-108128196D01*
X58911504Y-108139522D01*
X59140392Y-108260712D01*
X59410373Y-108359511D01*
X59691264Y-108420755D01*
X59719841Y-108423004D01*
X59914282Y-108438307D01*
X59914291Y-108438307D01*
X59916739Y-108438500D01*
X60072271Y-108438500D01*
X60074407Y-108438354D01*
X60074418Y-108438354D01*
X60282548Y-108424165D01*
X60282554Y-108424164D01*
X60286825Y-108423873D01*
X60291020Y-108423004D01*
X60291022Y-108423004D01*
X60427584Y-108394723D01*
X60568342Y-108365574D01*
X60839343Y-108269607D01*
X61094812Y-108137750D01*
X61098313Y-108135289D01*
X61098317Y-108135287D01*
X61212417Y-108055096D01*
X61330023Y-107972441D01*
X61540622Y-107776740D01*
X61722713Y-107554268D01*
X61872927Y-107309142D01*
X61988483Y-107045898D01*
X62067244Y-106769406D01*
X62086700Y-106632703D01*
X94390743Y-106632703D01*
X94428268Y-106917734D01*
X94504129Y-107195036D01*
X94505813Y-107198984D01*
X94554360Y-107312799D01*
X94616923Y-107459476D01*
X94662818Y-107536161D01*
X94730961Y-107650019D01*
X94764561Y-107706161D01*
X94944313Y-107930528D01*
X95152851Y-108128423D01*
X95386317Y-108296186D01*
X95390112Y-108298195D01*
X95390113Y-108298196D01*
X95411869Y-108309715D01*
X95640392Y-108430712D01*
X95910373Y-108529511D01*
X96191264Y-108590755D01*
X96219841Y-108593004D01*
X96414282Y-108608307D01*
X96414291Y-108608307D01*
X96416739Y-108608500D01*
X96572271Y-108608500D01*
X96574407Y-108608354D01*
X96574418Y-108608354D01*
X96782548Y-108594165D01*
X96782554Y-108594164D01*
X96786825Y-108593873D01*
X96791020Y-108593004D01*
X96791022Y-108593004D01*
X96927583Y-108564724D01*
X97068342Y-108535574D01*
X97339343Y-108439607D01*
X97594812Y-108307750D01*
X97598313Y-108305289D01*
X97598317Y-108305287D01*
X97720197Y-108219628D01*
X97830023Y-108142441D01*
X98010314Y-107974904D01*
X98037479Y-107949661D01*
X98037481Y-107949658D01*
X98040622Y-107946740D01*
X98222713Y-107724268D01*
X98372927Y-107479142D01*
X98445947Y-107312799D01*
X98486757Y-107219830D01*
X98488483Y-107215898D01*
X98567244Y-106939406D01*
X98606335Y-106664733D01*
X98607146Y-106659036D01*
X98607146Y-106659034D01*
X98607751Y-106654784D01*
X98607845Y-106636951D01*
X98609235Y-106371583D01*
X98609235Y-106371576D01*
X98609257Y-106367297D01*
X98571732Y-106082266D01*
X98495871Y-105804964D01*
X98468998Y-105741961D01*
X98384763Y-105544476D01*
X98384761Y-105544472D01*
X98383077Y-105540524D01*
X98281334Y-105370524D01*
X98237643Y-105297521D01*
X98237640Y-105297517D01*
X98235439Y-105293839D01*
X98055687Y-105069472D01*
X97862958Y-104886579D01*
X97850258Y-104874527D01*
X97850255Y-104874525D01*
X97847149Y-104871577D01*
X97613683Y-104703814D01*
X97591843Y-104692250D01*
X97568654Y-104679972D01*
X97359608Y-104569288D01*
X97089627Y-104470489D01*
X96808736Y-104409245D01*
X96777685Y-104406801D01*
X96585718Y-104391693D01*
X96585709Y-104391693D01*
X96583261Y-104391500D01*
X96427729Y-104391500D01*
X96425593Y-104391646D01*
X96425582Y-104391646D01*
X96217452Y-104405835D01*
X96217446Y-104405836D01*
X96213175Y-104406127D01*
X96208980Y-104406996D01*
X96208978Y-104406996D01*
X96185433Y-104411872D01*
X95931658Y-104464426D01*
X95660657Y-104560393D01*
X95405188Y-104692250D01*
X95401687Y-104694711D01*
X95401683Y-104694713D01*
X95332406Y-104743402D01*
X95169977Y-104857559D01*
X94959378Y-105053260D01*
X94777287Y-105275732D01*
X94627073Y-105520858D01*
X94511517Y-105784102D01*
X94432756Y-106060594D01*
X94392249Y-106345216D01*
X94392227Y-106349505D01*
X94392226Y-106349512D01*
X94390765Y-106628417D01*
X94390743Y-106632703D01*
X62086700Y-106632703D01*
X62104575Y-106507103D01*
X62107146Y-106489036D01*
X62107146Y-106489034D01*
X62107751Y-106484784D01*
X62107845Y-106466951D01*
X62109235Y-106201583D01*
X62109235Y-106201576D01*
X62109257Y-106197297D01*
X62071732Y-105912266D01*
X61995871Y-105634964D01*
X61946560Y-105519357D01*
X61884763Y-105374476D01*
X61884761Y-105374472D01*
X61883077Y-105370524D01*
X61761120Y-105166749D01*
X61737643Y-105127521D01*
X61737640Y-105127517D01*
X61735439Y-105123839D01*
X61555687Y-104899472D01*
X61432289Y-104782372D01*
X61350258Y-104704527D01*
X61350255Y-104704525D01*
X61347149Y-104701577D01*
X61113683Y-104533814D01*
X61091843Y-104522250D01*
X61068707Y-104510000D01*
X77186502Y-104510000D01*
X77206457Y-104738087D01*
X77207881Y-104743400D01*
X77207881Y-104743402D01*
X77248911Y-104896525D01*
X77265716Y-104959243D01*
X77268039Y-104964224D01*
X77268039Y-104964225D01*
X77360151Y-105161762D01*
X77360154Y-105161767D01*
X77362477Y-105166749D01*
X77365634Y-105171257D01*
X77441347Y-105279386D01*
X77493802Y-105354300D01*
X77655700Y-105516198D01*
X77660208Y-105519355D01*
X77660211Y-105519357D01*
X77662355Y-105520858D01*
X77843251Y-105647523D01*
X77848233Y-105649846D01*
X77848238Y-105649849D01*
X78045775Y-105741961D01*
X78050757Y-105744284D01*
X78056065Y-105745706D01*
X78056067Y-105745707D01*
X78266598Y-105802119D01*
X78266600Y-105802119D01*
X78271913Y-105803543D01*
X78500000Y-105823498D01*
X78728087Y-105803543D01*
X78733400Y-105802119D01*
X78733402Y-105802119D01*
X78943933Y-105745707D01*
X78943935Y-105745706D01*
X78949243Y-105744284D01*
X78954225Y-105741961D01*
X79151762Y-105649849D01*
X79151767Y-105649846D01*
X79156749Y-105647523D01*
X79337645Y-105520858D01*
X79339789Y-105519357D01*
X79339792Y-105519355D01*
X79344300Y-105516198D01*
X79506198Y-105354300D01*
X79558654Y-105279386D01*
X79634366Y-105171257D01*
X79637523Y-105166749D01*
X79639846Y-105161767D01*
X79639849Y-105161762D01*
X79731961Y-104964225D01*
X79731961Y-104964224D01*
X79734284Y-104959243D01*
X79751090Y-104896525D01*
X79792119Y-104743402D01*
X79792119Y-104743400D01*
X79793543Y-104738087D01*
X79813498Y-104510000D01*
X79793543Y-104281913D01*
X79782020Y-104238909D01*
X79735707Y-104066067D01*
X79735706Y-104066065D01*
X79734284Y-104060757D01*
X79722080Y-104034585D01*
X79639849Y-103858238D01*
X79639846Y-103858233D01*
X79637523Y-103853251D01*
X79506198Y-103665700D01*
X79344300Y-103503802D01*
X79339792Y-103500645D01*
X79339789Y-103500643D01*
X79221191Y-103417600D01*
X79156749Y-103372477D01*
X79151767Y-103370154D01*
X79151762Y-103370151D01*
X78954225Y-103278039D01*
X78954224Y-103278039D01*
X78949243Y-103275716D01*
X78943935Y-103274294D01*
X78943933Y-103274293D01*
X78733402Y-103217881D01*
X78733400Y-103217881D01*
X78728087Y-103216457D01*
X78500000Y-103196502D01*
X78271913Y-103216457D01*
X78266600Y-103217881D01*
X78266598Y-103217881D01*
X78056067Y-103274293D01*
X78056065Y-103274294D01*
X78050757Y-103275716D01*
X78045776Y-103278039D01*
X78045775Y-103278039D01*
X77848238Y-103370151D01*
X77848233Y-103370154D01*
X77843251Y-103372477D01*
X77778809Y-103417600D01*
X77660211Y-103500643D01*
X77660208Y-103500645D01*
X77655700Y-103503802D01*
X77493802Y-103665700D01*
X77362477Y-103853251D01*
X77360154Y-103858233D01*
X77360151Y-103858238D01*
X77277920Y-104034585D01*
X77265716Y-104060757D01*
X77264294Y-104066065D01*
X77264293Y-104066067D01*
X77217980Y-104238909D01*
X77206457Y-104281913D01*
X77186502Y-104510000D01*
X61068707Y-104510000D01*
X61058366Y-104504525D01*
X60859608Y-104399288D01*
X60635754Y-104317369D01*
X60593658Y-104301964D01*
X60593656Y-104301963D01*
X60589627Y-104300489D01*
X60308736Y-104239245D01*
X60277685Y-104236801D01*
X60085718Y-104221693D01*
X60085709Y-104221693D01*
X60083261Y-104221500D01*
X59927729Y-104221500D01*
X59925593Y-104221646D01*
X59925582Y-104221646D01*
X59717452Y-104235835D01*
X59717446Y-104235836D01*
X59713175Y-104236127D01*
X59708980Y-104236996D01*
X59708978Y-104236996D01*
X59616820Y-104256081D01*
X59431658Y-104294426D01*
X59160657Y-104390393D01*
X58905188Y-104522250D01*
X58901687Y-104524711D01*
X58901683Y-104524713D01*
X58835398Y-104571299D01*
X58669977Y-104687559D01*
X58609883Y-104743402D01*
X58468776Y-104874527D01*
X58459378Y-104883260D01*
X58277287Y-105105732D01*
X58127073Y-105350858D01*
X58125347Y-105354791D01*
X58125346Y-105354792D01*
X58053107Y-105519357D01*
X58011517Y-105614102D01*
X57932756Y-105890594D01*
X57892249Y-106175216D01*
X57892227Y-106179505D01*
X57892226Y-106179512D01*
X57891220Y-106371583D01*
X57890743Y-106462703D01*
X25508500Y-106462703D01*
X25508500Y-102965469D01*
X116382095Y-102965469D01*
X116395427Y-103196697D01*
X116396564Y-103201743D01*
X116396565Y-103201749D01*
X116413758Y-103278039D01*
X116446346Y-103422642D01*
X116448288Y-103427424D01*
X116448289Y-103427428D01*
X116480884Y-103507699D01*
X116533484Y-103637237D01*
X116654501Y-103834719D01*
X116806147Y-104009784D01*
X116984349Y-104157730D01*
X117184322Y-104274584D01*
X117189147Y-104276426D01*
X117189148Y-104276427D01*
X117252160Y-104300489D01*
X117400694Y-104357209D01*
X117405760Y-104358240D01*
X117405761Y-104358240D01*
X117458846Y-104369040D01*
X117627656Y-104403385D01*
X117757089Y-104408131D01*
X117853949Y-104411683D01*
X117853953Y-104411683D01*
X117859113Y-104411872D01*
X117864233Y-104411216D01*
X117864235Y-104411216D01*
X117957345Y-104399288D01*
X118088847Y-104382442D01*
X118093795Y-104380957D01*
X118093802Y-104380956D01*
X118305747Y-104317369D01*
X118310690Y-104315886D01*
X118315324Y-104313616D01*
X118514049Y-104216262D01*
X118514052Y-104216260D01*
X118518684Y-104213991D01*
X118707243Y-104079494D01*
X118752309Y-104034585D01*
X118814681Y-104000669D01*
X118885487Y-104005857D01*
X118942249Y-104048503D01*
X118959231Y-104079607D01*
X118984385Y-104146705D01*
X119071739Y-104263261D01*
X119188295Y-104350615D01*
X119324684Y-104401745D01*
X119386866Y-104408500D01*
X121283134Y-104408500D01*
X121345316Y-104401745D01*
X121481705Y-104350615D01*
X121598261Y-104263261D01*
X121685615Y-104146705D01*
X121736745Y-104010316D01*
X121743500Y-103948134D01*
X121743500Y-102051866D01*
X121736745Y-101989684D01*
X121685615Y-101853295D01*
X121598261Y-101736739D01*
X121481705Y-101649385D01*
X121345316Y-101598255D01*
X121283134Y-101591500D01*
X119386866Y-101591500D01*
X119324684Y-101598255D01*
X119188295Y-101649385D01*
X119071739Y-101736739D01*
X118984385Y-101853295D01*
X118981233Y-101861703D01*
X118981232Y-101861705D01*
X118960538Y-101916906D01*
X118917897Y-101973671D01*
X118851335Y-101998371D01*
X118781986Y-101983164D01*
X118759167Y-101966666D01*
X118758887Y-101966358D01*
X118696270Y-101916906D01*
X118581177Y-101826011D01*
X118581172Y-101826008D01*
X118577123Y-101822810D01*
X118572607Y-101820317D01*
X118572604Y-101820315D01*
X118378879Y-101713373D01*
X118378875Y-101713371D01*
X118374355Y-101710876D01*
X118369486Y-101709152D01*
X118369482Y-101709150D01*
X118160903Y-101635288D01*
X118160899Y-101635287D01*
X118156028Y-101633562D01*
X118150935Y-101632655D01*
X118150932Y-101632654D01*
X117933095Y-101593851D01*
X117933089Y-101593850D01*
X117928006Y-101592945D01*
X117855096Y-101592054D01*
X117701581Y-101590179D01*
X117701579Y-101590179D01*
X117696411Y-101590116D01*
X117467464Y-101625150D01*
X117247314Y-101697106D01*
X117242726Y-101699494D01*
X117242722Y-101699496D01*
X117094939Y-101776427D01*
X117041872Y-101804052D01*
X117037739Y-101807155D01*
X117037736Y-101807157D01*
X116860790Y-101940012D01*
X116856655Y-101943117D01*
X116696639Y-102110564D01*
X116566119Y-102301899D01*
X116468602Y-102511981D01*
X116406707Y-102735169D01*
X116382095Y-102965469D01*
X25508500Y-102965469D01*
X25508500Y-100465469D01*
X48047095Y-100465469D01*
X48047392Y-100470622D01*
X48047392Y-100470625D01*
X48054750Y-100598238D01*
X48060427Y-100696697D01*
X48061564Y-100701743D01*
X48061565Y-100701749D01*
X48076394Y-100767548D01*
X48111346Y-100922642D01*
X48113288Y-100927424D01*
X48113289Y-100927428D01*
X48153881Y-101027393D01*
X48198484Y-101137237D01*
X48319501Y-101334719D01*
X48471147Y-101509784D01*
X48649349Y-101657730D01*
X48849322Y-101774584D01*
X49065694Y-101857209D01*
X49070760Y-101858240D01*
X49070761Y-101858240D01*
X49123846Y-101869040D01*
X49292656Y-101903385D01*
X49423324Y-101908176D01*
X49518949Y-101911683D01*
X49518953Y-101911683D01*
X49524113Y-101911872D01*
X49529233Y-101911216D01*
X49529235Y-101911216D01*
X49628668Y-101898478D01*
X49753847Y-101882442D01*
X49758795Y-101880957D01*
X49758802Y-101880956D01*
X49970747Y-101817369D01*
X49975690Y-101815886D01*
X49980324Y-101813616D01*
X50179049Y-101716262D01*
X50179052Y-101716260D01*
X50183684Y-101713991D01*
X50372243Y-101579494D01*
X50375898Y-101575852D01*
X50375906Y-101575845D01*
X50417697Y-101534199D01*
X50480068Y-101500282D01*
X50550875Y-101505470D01*
X50607637Y-101548116D01*
X50624619Y-101579218D01*
X50646677Y-101638056D01*
X50655214Y-101653649D01*
X50731715Y-101755724D01*
X50744276Y-101768285D01*
X50846351Y-101844786D01*
X50861946Y-101853324D01*
X50982394Y-101898478D01*
X50997649Y-101902105D01*
X51048514Y-101907631D01*
X51055328Y-101908000D01*
X51727885Y-101908000D01*
X51743124Y-101903525D01*
X51744329Y-101902135D01*
X51746000Y-101894452D01*
X51746000Y-101889884D01*
X52254000Y-101889884D01*
X52258475Y-101905123D01*
X52259865Y-101906328D01*
X52267548Y-101907999D01*
X52944669Y-101907999D01*
X52951490Y-101907629D01*
X53002352Y-101902105D01*
X53017604Y-101898479D01*
X53138054Y-101853324D01*
X53153649Y-101844786D01*
X53255724Y-101768285D01*
X53268285Y-101755724D01*
X53344786Y-101653649D01*
X53353324Y-101638054D01*
X53398478Y-101517606D01*
X53402105Y-101502351D01*
X53407631Y-101451486D01*
X53408000Y-101444672D01*
X53408000Y-100838000D01*
X57360502Y-100838000D01*
X57380457Y-101066087D01*
X57381881Y-101071400D01*
X57381881Y-101071402D01*
X57428270Y-101244525D01*
X57439716Y-101287243D01*
X57442039Y-101292224D01*
X57442039Y-101292225D01*
X57534151Y-101489762D01*
X57534154Y-101489767D01*
X57536477Y-101494749D01*
X57603254Y-101590116D01*
X57648284Y-101654425D01*
X57667802Y-101682300D01*
X57829700Y-101844198D01*
X57834208Y-101847355D01*
X57834211Y-101847357D01*
X57882196Y-101880956D01*
X58017251Y-101975523D01*
X58022233Y-101977846D01*
X58022238Y-101977849D01*
X58173685Y-102048469D01*
X58224757Y-102072284D01*
X58230065Y-102073706D01*
X58230067Y-102073707D01*
X58440598Y-102130119D01*
X58440600Y-102130119D01*
X58445913Y-102131543D01*
X58674000Y-102151498D01*
X58902087Y-102131543D01*
X58907400Y-102130119D01*
X58907402Y-102130119D01*
X59117933Y-102073707D01*
X59117935Y-102073706D01*
X59123243Y-102072284D01*
X59174315Y-102048469D01*
X59325762Y-101977849D01*
X59325767Y-101977846D01*
X59330749Y-101975523D01*
X59465804Y-101880956D01*
X59513789Y-101847357D01*
X59513792Y-101847355D01*
X59518300Y-101844198D01*
X59680198Y-101682300D01*
X59699717Y-101654425D01*
X59744746Y-101590116D01*
X59811523Y-101494749D01*
X59813846Y-101489767D01*
X59813849Y-101489762D01*
X59905961Y-101292225D01*
X59905961Y-101292224D01*
X59908284Y-101287243D01*
X59918264Y-101250000D01*
X76936502Y-101250000D01*
X76956457Y-101478087D01*
X76957881Y-101483400D01*
X76957881Y-101483402D01*
X77004593Y-101657730D01*
X77015716Y-101699243D01*
X77018039Y-101704224D01*
X77018039Y-101704225D01*
X77110151Y-101901762D01*
X77110154Y-101901767D01*
X77112477Y-101906749D01*
X77160633Y-101975523D01*
X77229383Y-102073707D01*
X77243802Y-102094300D01*
X77405700Y-102256198D01*
X77410208Y-102259355D01*
X77410211Y-102259357D01*
X77477663Y-102306587D01*
X77593251Y-102387523D01*
X77598233Y-102389846D01*
X77598238Y-102389849D01*
X77795775Y-102481961D01*
X77800757Y-102484284D01*
X77806065Y-102485706D01*
X77806067Y-102485707D01*
X78016598Y-102542119D01*
X78016600Y-102542119D01*
X78021913Y-102543543D01*
X78250000Y-102563498D01*
X78478087Y-102543543D01*
X78483400Y-102542119D01*
X78483402Y-102542119D01*
X78693933Y-102485707D01*
X78693935Y-102485706D01*
X78699243Y-102484284D01*
X78704225Y-102481961D01*
X78901762Y-102389849D01*
X78901767Y-102389846D01*
X78906749Y-102387523D01*
X79022337Y-102306587D01*
X79089789Y-102259357D01*
X79089792Y-102259355D01*
X79094300Y-102256198D01*
X79256198Y-102094300D01*
X79270618Y-102073707D01*
X79339367Y-101975523D01*
X79387523Y-101906749D01*
X79389846Y-101901767D01*
X79389849Y-101901762D01*
X79481961Y-101704225D01*
X79481961Y-101704224D01*
X79484284Y-101699243D01*
X79495408Y-101657730D01*
X79542119Y-101483402D01*
X79542119Y-101483400D01*
X79543543Y-101478087D01*
X79563498Y-101250000D01*
X79543543Y-101021913D01*
X79515592Y-100917600D01*
X79485707Y-100806067D01*
X79485706Y-100806065D01*
X79484284Y-100800757D01*
X79470928Y-100772115D01*
X79389849Y-100598238D01*
X79389846Y-100598233D01*
X79387523Y-100593251D01*
X79256198Y-100405700D01*
X79094300Y-100243802D01*
X79089792Y-100240645D01*
X79089789Y-100240643D01*
X78998530Y-100176743D01*
X78906749Y-100112477D01*
X78901767Y-100110154D01*
X78901762Y-100110151D01*
X78704225Y-100018039D01*
X78704224Y-100018039D01*
X78699243Y-100015716D01*
X78693935Y-100014294D01*
X78693933Y-100014293D01*
X78483402Y-99957881D01*
X78483400Y-99957881D01*
X78478087Y-99956457D01*
X78250000Y-99936502D01*
X78021913Y-99956457D01*
X78016600Y-99957881D01*
X78016598Y-99957881D01*
X77806067Y-100014293D01*
X77806065Y-100014294D01*
X77800757Y-100015716D01*
X77795776Y-100018039D01*
X77795775Y-100018039D01*
X77598238Y-100110151D01*
X77598233Y-100110154D01*
X77593251Y-100112477D01*
X77501470Y-100176743D01*
X77410211Y-100240643D01*
X77410208Y-100240645D01*
X77405700Y-100243802D01*
X77243802Y-100405700D01*
X77112477Y-100593251D01*
X77110154Y-100598233D01*
X77110151Y-100598238D01*
X77029072Y-100772115D01*
X77015716Y-100800757D01*
X77014294Y-100806065D01*
X77014293Y-100806067D01*
X76984408Y-100917600D01*
X76956457Y-101021913D01*
X76936502Y-101250000D01*
X59918264Y-101250000D01*
X59919731Y-101244525D01*
X59966119Y-101071402D01*
X59966119Y-101071400D01*
X59967543Y-101066087D01*
X59987498Y-100838000D01*
X59967543Y-100609913D01*
X59964415Y-100598238D01*
X59909707Y-100394067D01*
X59909706Y-100394065D01*
X59908284Y-100388757D01*
X59839218Y-100240643D01*
X59813849Y-100186238D01*
X59813846Y-100186233D01*
X59811523Y-100181251D01*
X59715792Y-100044533D01*
X59683357Y-99998211D01*
X59683355Y-99998208D01*
X59680198Y-99993700D01*
X59518300Y-99831802D01*
X59513792Y-99828645D01*
X59513789Y-99828643D01*
X59435611Y-99773902D01*
X59330749Y-99700477D01*
X59325767Y-99698154D01*
X59325762Y-99698151D01*
X59128225Y-99606039D01*
X59128224Y-99606039D01*
X59123243Y-99603716D01*
X59117935Y-99602294D01*
X59117933Y-99602293D01*
X58907402Y-99545881D01*
X58907400Y-99545881D01*
X58902087Y-99544457D01*
X58674000Y-99524502D01*
X58445913Y-99544457D01*
X58440600Y-99545881D01*
X58440598Y-99545881D01*
X58230067Y-99602293D01*
X58230065Y-99602294D01*
X58224757Y-99603716D01*
X58219776Y-99606039D01*
X58219775Y-99606039D01*
X58022238Y-99698151D01*
X58022233Y-99698154D01*
X58017251Y-99700477D01*
X57912389Y-99773902D01*
X57834211Y-99828643D01*
X57834208Y-99828645D01*
X57829700Y-99831802D01*
X57667802Y-99993700D01*
X57664645Y-99998208D01*
X57664643Y-99998211D01*
X57632208Y-100044533D01*
X57536477Y-100181251D01*
X57534154Y-100186233D01*
X57534151Y-100186238D01*
X57508782Y-100240643D01*
X57439716Y-100388757D01*
X57438294Y-100394065D01*
X57438293Y-100394067D01*
X57383585Y-100598238D01*
X57380457Y-100609913D01*
X57360502Y-100838000D01*
X53408000Y-100838000D01*
X53408000Y-100772115D01*
X53403525Y-100756876D01*
X53402135Y-100755671D01*
X53394452Y-100754000D01*
X52272115Y-100754000D01*
X52256876Y-100758475D01*
X52255671Y-100759865D01*
X52254000Y-100767548D01*
X52254000Y-101889884D01*
X51746000Y-101889884D01*
X51746000Y-100227885D01*
X52254000Y-100227885D01*
X52258475Y-100243124D01*
X52259865Y-100244329D01*
X52267548Y-100246000D01*
X53389884Y-100246000D01*
X53405123Y-100241525D01*
X53406328Y-100240135D01*
X53407999Y-100232452D01*
X53407999Y-99555331D01*
X53407629Y-99548510D01*
X53402105Y-99497648D01*
X53398479Y-99482396D01*
X53353324Y-99361946D01*
X53344786Y-99346351D01*
X53268285Y-99244276D01*
X53255724Y-99231715D01*
X53153649Y-99155214D01*
X53138054Y-99146676D01*
X53017606Y-99101522D01*
X53002351Y-99097895D01*
X52951486Y-99092369D01*
X52944672Y-99092000D01*
X52272115Y-99092000D01*
X52256876Y-99096475D01*
X52255671Y-99097865D01*
X52254000Y-99105548D01*
X52254000Y-100227885D01*
X51746000Y-100227885D01*
X51746000Y-99110116D01*
X51741525Y-99094877D01*
X51740135Y-99093672D01*
X51732452Y-99092001D01*
X51055331Y-99092001D01*
X51048510Y-99092371D01*
X50997648Y-99097895D01*
X50982396Y-99101521D01*
X50861946Y-99146676D01*
X50846351Y-99155214D01*
X50744276Y-99231715D01*
X50731715Y-99244276D01*
X50655214Y-99346351D01*
X50646675Y-99361948D01*
X50625934Y-99417275D01*
X50583293Y-99474040D01*
X50516731Y-99498740D01*
X50447383Y-99483533D01*
X50424388Y-99466909D01*
X50423887Y-99466358D01*
X50361737Y-99417275D01*
X50246177Y-99326011D01*
X50246172Y-99326008D01*
X50242123Y-99322810D01*
X50237607Y-99320317D01*
X50237604Y-99320315D01*
X50043879Y-99213373D01*
X50043875Y-99213371D01*
X50039355Y-99210876D01*
X50034486Y-99209152D01*
X50034482Y-99209150D01*
X49825903Y-99135288D01*
X49825899Y-99135287D01*
X49821028Y-99133562D01*
X49815935Y-99132655D01*
X49815932Y-99132654D01*
X49598095Y-99093851D01*
X49598089Y-99093850D01*
X49593006Y-99092945D01*
X49515644Y-99092000D01*
X49366581Y-99090179D01*
X49366579Y-99090179D01*
X49361411Y-99090116D01*
X49132464Y-99125150D01*
X48912314Y-99197106D01*
X48907726Y-99199494D01*
X48907722Y-99199496D01*
X48711461Y-99301663D01*
X48706872Y-99304052D01*
X48702739Y-99307155D01*
X48702736Y-99307157D01*
X48556073Y-99417275D01*
X48521655Y-99443117D01*
X48361639Y-99610564D01*
X48231119Y-99801899D01*
X48133602Y-100011981D01*
X48071707Y-100235169D01*
X48047095Y-100465469D01*
X25508500Y-100465469D01*
X25508500Y-98500000D01*
X60686502Y-98500000D01*
X60706457Y-98728087D01*
X60765716Y-98949243D01*
X60768039Y-98954224D01*
X60768039Y-98954225D01*
X60860151Y-99151762D01*
X60860154Y-99151767D01*
X60862477Y-99156749D01*
X60993802Y-99344300D01*
X61155700Y-99506198D01*
X61160208Y-99509355D01*
X61160211Y-99509357D01*
X61225869Y-99555331D01*
X61343251Y-99637523D01*
X61348233Y-99639846D01*
X61348238Y-99639849D01*
X61478257Y-99700477D01*
X61550757Y-99734284D01*
X61556065Y-99735706D01*
X61556067Y-99735707D01*
X61766598Y-99792119D01*
X61766600Y-99792119D01*
X61771913Y-99793543D01*
X62000000Y-99813498D01*
X62228087Y-99793543D01*
X62233400Y-99792119D01*
X62233402Y-99792119D01*
X62443933Y-99735707D01*
X62443935Y-99735706D01*
X62449243Y-99734284D01*
X62521743Y-99700477D01*
X62651762Y-99639849D01*
X62651767Y-99639846D01*
X62656749Y-99637523D01*
X62774131Y-99555331D01*
X62839789Y-99509357D01*
X62839792Y-99509355D01*
X62844300Y-99506198D01*
X63006198Y-99344300D01*
X63137523Y-99156749D01*
X63139846Y-99151767D01*
X63139849Y-99151762D01*
X63231961Y-98954225D01*
X63231961Y-98954224D01*
X63234284Y-98949243D01*
X63293543Y-98728087D01*
X63313498Y-98500000D01*
X63293543Y-98271913D01*
X63234284Y-98050757D01*
X63231961Y-98045775D01*
X63139849Y-97848238D01*
X63139846Y-97848233D01*
X63137523Y-97843251D01*
X63006198Y-97655700D01*
X62844300Y-97493802D01*
X62839792Y-97490645D01*
X62839789Y-97490643D01*
X62761611Y-97435902D01*
X62656749Y-97362477D01*
X62651767Y-97360154D01*
X62651762Y-97360151D01*
X62454225Y-97268039D01*
X62454224Y-97268039D01*
X62449243Y-97265716D01*
X62443935Y-97264294D01*
X62443933Y-97264293D01*
X62233402Y-97207881D01*
X62233400Y-97207881D01*
X62228087Y-97206457D01*
X62000000Y-97186502D01*
X61771913Y-97206457D01*
X61766600Y-97207881D01*
X61766598Y-97207881D01*
X61556067Y-97264293D01*
X61556065Y-97264294D01*
X61550757Y-97265716D01*
X61545776Y-97268039D01*
X61545775Y-97268039D01*
X61348238Y-97360151D01*
X61348233Y-97360154D01*
X61343251Y-97362477D01*
X61238389Y-97435902D01*
X61160211Y-97490643D01*
X61160208Y-97490645D01*
X61155700Y-97493802D01*
X60993802Y-97655700D01*
X60862477Y-97843251D01*
X60860154Y-97848233D01*
X60860151Y-97848238D01*
X60768039Y-98045775D01*
X60765716Y-98050757D01*
X60706457Y-98271913D01*
X60686502Y-98500000D01*
X25508500Y-98500000D01*
X25508500Y-93218000D01*
X57360502Y-93218000D01*
X57380457Y-93446087D01*
X57381881Y-93451400D01*
X57381881Y-93451402D01*
X57428270Y-93624525D01*
X57439716Y-93667243D01*
X57442039Y-93672224D01*
X57442039Y-93672225D01*
X57534151Y-93869762D01*
X57534154Y-93869767D01*
X57536477Y-93874749D01*
X57667802Y-94062300D01*
X57829700Y-94224198D01*
X57834208Y-94227355D01*
X57834211Y-94227357D01*
X57911910Y-94281762D01*
X58017251Y-94355523D01*
X58022233Y-94357846D01*
X58022238Y-94357849D01*
X58128562Y-94407428D01*
X58224757Y-94452284D01*
X58230065Y-94453706D01*
X58230067Y-94453707D01*
X58440598Y-94510119D01*
X58440600Y-94510119D01*
X58445913Y-94511543D01*
X58674000Y-94531498D01*
X58902087Y-94511543D01*
X58907400Y-94510119D01*
X58907402Y-94510119D01*
X59117933Y-94453707D01*
X59117935Y-94453706D01*
X59123243Y-94452284D01*
X59219438Y-94407428D01*
X59325762Y-94357849D01*
X59325767Y-94357846D01*
X59330749Y-94355523D01*
X59436090Y-94281762D01*
X59513789Y-94227357D01*
X59513792Y-94227355D01*
X59518300Y-94224198D01*
X59680198Y-94062300D01*
X59811523Y-93874749D01*
X59813846Y-93869767D01*
X59813849Y-93869762D01*
X59905961Y-93672225D01*
X59905961Y-93672224D01*
X59908284Y-93667243D01*
X59918264Y-93630000D01*
X76936502Y-93630000D01*
X76956457Y-93858087D01*
X76957881Y-93863400D01*
X76957881Y-93863402D01*
X76981253Y-93950625D01*
X77015716Y-94079243D01*
X77018039Y-94084224D01*
X77018039Y-94084225D01*
X77110151Y-94281762D01*
X77110154Y-94281767D01*
X77112477Y-94286749D01*
X77115634Y-94291257D01*
X77229383Y-94453707D01*
X77243802Y-94474300D01*
X77405700Y-94636198D01*
X77410208Y-94639355D01*
X77410211Y-94639357D01*
X77488389Y-94694098D01*
X77593251Y-94767523D01*
X77598233Y-94769846D01*
X77598238Y-94769849D01*
X77795775Y-94861961D01*
X77800757Y-94864284D01*
X77806065Y-94865706D01*
X77806067Y-94865707D01*
X78016598Y-94922119D01*
X78016600Y-94922119D01*
X78021913Y-94923543D01*
X78250000Y-94943498D01*
X78478087Y-94923543D01*
X78483400Y-94922119D01*
X78483402Y-94922119D01*
X78693933Y-94865707D01*
X78693935Y-94865706D01*
X78699243Y-94864284D01*
X78704225Y-94861961D01*
X78901762Y-94769849D01*
X78901767Y-94769846D01*
X78906749Y-94767523D01*
X79011611Y-94694098D01*
X79089789Y-94639357D01*
X79089792Y-94639355D01*
X79094300Y-94636198D01*
X79256198Y-94474300D01*
X79270618Y-94453707D01*
X79384366Y-94291257D01*
X79387523Y-94286749D01*
X79389846Y-94281767D01*
X79389849Y-94281762D01*
X79481961Y-94084225D01*
X79481961Y-94084224D01*
X79484284Y-94079243D01*
X79518748Y-93950625D01*
X79520130Y-93945469D01*
X100441095Y-93945469D01*
X100454427Y-94176697D01*
X100455564Y-94181743D01*
X100455565Y-94181749D01*
X100478104Y-94281762D01*
X100505346Y-94402642D01*
X100507288Y-94407424D01*
X100507289Y-94407428D01*
X100557474Y-94531019D01*
X100592484Y-94617237D01*
X100713501Y-94814719D01*
X100865147Y-94989784D01*
X101043349Y-95137730D01*
X101243322Y-95254584D01*
X101459694Y-95337209D01*
X101464760Y-95338240D01*
X101464761Y-95338240D01*
X101517846Y-95349040D01*
X101686656Y-95383385D01*
X101816089Y-95388131D01*
X101912949Y-95391683D01*
X101912953Y-95391683D01*
X101918113Y-95391872D01*
X101923233Y-95391216D01*
X101923235Y-95391216D01*
X101997166Y-95381745D01*
X102147847Y-95362442D01*
X102152795Y-95360957D01*
X102152802Y-95360956D01*
X102364747Y-95297369D01*
X102369690Y-95295886D01*
X102450236Y-95256427D01*
X102573049Y-95196262D01*
X102573052Y-95196260D01*
X102577684Y-95193991D01*
X102766243Y-95059494D01*
X102811309Y-95014585D01*
X102873681Y-94980669D01*
X102944487Y-94985857D01*
X103001249Y-95028503D01*
X103018231Y-95059607D01*
X103043385Y-95126705D01*
X103130739Y-95243261D01*
X103247295Y-95330615D01*
X103383684Y-95381745D01*
X103445866Y-95388500D01*
X105342134Y-95388500D01*
X105404316Y-95381745D01*
X105540705Y-95330615D01*
X105657261Y-95243261D01*
X105744615Y-95126705D01*
X105795745Y-94990316D01*
X105802500Y-94928134D01*
X105802500Y-93031866D01*
X105795745Y-92969684D01*
X105744615Y-92833295D01*
X105657261Y-92716739D01*
X105540705Y-92629385D01*
X105404316Y-92578255D01*
X105342134Y-92571500D01*
X103445866Y-92571500D01*
X103383684Y-92578255D01*
X103247295Y-92629385D01*
X103130739Y-92716739D01*
X103043385Y-92833295D01*
X103040233Y-92841703D01*
X103040232Y-92841705D01*
X103019538Y-92896906D01*
X102976897Y-92953671D01*
X102910335Y-92978371D01*
X102840986Y-92963164D01*
X102818167Y-92946666D01*
X102817887Y-92946358D01*
X102685373Y-92841705D01*
X102640177Y-92806011D01*
X102640172Y-92806008D01*
X102636123Y-92802810D01*
X102631607Y-92800317D01*
X102631604Y-92800315D01*
X102437879Y-92693373D01*
X102437875Y-92693371D01*
X102433355Y-92690876D01*
X102428486Y-92689152D01*
X102428482Y-92689150D01*
X102219903Y-92615288D01*
X102219899Y-92615287D01*
X102215028Y-92613562D01*
X102209935Y-92612655D01*
X102209932Y-92612654D01*
X101992095Y-92573851D01*
X101992089Y-92573850D01*
X101987006Y-92572945D01*
X101914096Y-92572054D01*
X101760581Y-92570179D01*
X101760579Y-92570179D01*
X101755411Y-92570116D01*
X101526464Y-92605150D01*
X101306314Y-92677106D01*
X101301726Y-92679494D01*
X101301722Y-92679496D01*
X101120053Y-92774067D01*
X101100872Y-92784052D01*
X101096739Y-92787155D01*
X101096736Y-92787157D01*
X100919790Y-92920012D01*
X100915655Y-92923117D01*
X100755639Y-93090564D01*
X100625119Y-93281899D01*
X100527602Y-93491981D01*
X100465707Y-93715169D01*
X100441095Y-93945469D01*
X79520130Y-93945469D01*
X79542119Y-93863402D01*
X79542119Y-93863400D01*
X79543543Y-93858087D01*
X79563498Y-93630000D01*
X79543543Y-93401913D01*
X79511385Y-93281899D01*
X79485707Y-93186067D01*
X79485706Y-93186065D01*
X79484284Y-93180757D01*
X79416449Y-93035283D01*
X79389849Y-92978238D01*
X79389846Y-92978233D01*
X79387523Y-92973251D01*
X79295412Y-92841703D01*
X79259357Y-92790211D01*
X79259355Y-92790208D01*
X79256198Y-92785700D01*
X79094300Y-92623802D01*
X79089792Y-92620645D01*
X79089789Y-92620643D01*
X78998530Y-92556743D01*
X78906749Y-92492477D01*
X78901767Y-92490154D01*
X78901762Y-92490151D01*
X78704225Y-92398039D01*
X78704224Y-92398039D01*
X78699243Y-92395716D01*
X78693935Y-92394294D01*
X78693933Y-92394293D01*
X78483402Y-92337881D01*
X78483400Y-92337881D01*
X78478087Y-92336457D01*
X78250000Y-92316502D01*
X78021913Y-92336457D01*
X78016600Y-92337881D01*
X78016598Y-92337881D01*
X77806067Y-92394293D01*
X77806065Y-92394294D01*
X77800757Y-92395716D01*
X77795776Y-92398039D01*
X77795775Y-92398039D01*
X77598238Y-92490151D01*
X77598233Y-92490154D01*
X77593251Y-92492477D01*
X77501470Y-92556743D01*
X77410211Y-92620643D01*
X77410208Y-92620645D01*
X77405700Y-92623802D01*
X77243802Y-92785700D01*
X77240645Y-92790208D01*
X77240643Y-92790211D01*
X77204588Y-92841703D01*
X77112477Y-92973251D01*
X77110154Y-92978233D01*
X77110151Y-92978238D01*
X77083551Y-93035283D01*
X77015716Y-93180757D01*
X77014294Y-93186065D01*
X77014293Y-93186067D01*
X76988615Y-93281899D01*
X76956457Y-93401913D01*
X76936502Y-93630000D01*
X59918264Y-93630000D01*
X59919731Y-93624525D01*
X59966119Y-93451402D01*
X59966119Y-93451400D01*
X59967543Y-93446087D01*
X59987498Y-93218000D01*
X59967543Y-92989913D01*
X59964228Y-92977540D01*
X59909707Y-92774067D01*
X59909706Y-92774065D01*
X59908284Y-92768757D01*
X59865547Y-92677106D01*
X59813849Y-92566238D01*
X59813846Y-92566233D01*
X59811523Y-92561251D01*
X59738098Y-92456389D01*
X59683357Y-92378211D01*
X59683355Y-92378208D01*
X59680198Y-92373700D01*
X59518300Y-92211802D01*
X59513792Y-92208645D01*
X59513789Y-92208643D01*
X59435611Y-92153902D01*
X59330749Y-92080477D01*
X59325767Y-92078154D01*
X59325762Y-92078151D01*
X59128225Y-91986039D01*
X59128224Y-91986039D01*
X59123243Y-91983716D01*
X59117935Y-91982294D01*
X59117933Y-91982293D01*
X58907402Y-91925881D01*
X58907400Y-91925881D01*
X58902087Y-91924457D01*
X58674000Y-91904502D01*
X58445913Y-91924457D01*
X58440600Y-91925881D01*
X58440598Y-91925881D01*
X58230067Y-91982293D01*
X58230065Y-91982294D01*
X58224757Y-91983716D01*
X58219776Y-91986039D01*
X58219775Y-91986039D01*
X58022238Y-92078151D01*
X58022233Y-92078154D01*
X58017251Y-92080477D01*
X57912389Y-92153902D01*
X57834211Y-92208643D01*
X57834208Y-92208645D01*
X57829700Y-92211802D01*
X57667802Y-92373700D01*
X57664645Y-92378208D01*
X57664643Y-92378211D01*
X57609902Y-92456389D01*
X57536477Y-92561251D01*
X57534154Y-92566233D01*
X57534151Y-92566238D01*
X57482453Y-92677106D01*
X57439716Y-92768757D01*
X57438294Y-92774065D01*
X57438293Y-92774067D01*
X57383772Y-92977540D01*
X57380457Y-92989913D01*
X57360502Y-93218000D01*
X25508500Y-93218000D01*
X25508500Y-90880000D01*
X60686502Y-90880000D01*
X60706457Y-91108087D01*
X60765716Y-91329243D01*
X60768039Y-91334224D01*
X60768039Y-91334225D01*
X60860151Y-91531762D01*
X60860154Y-91531767D01*
X60862477Y-91536749D01*
X60993802Y-91724300D01*
X61155700Y-91886198D01*
X61160208Y-91889355D01*
X61160211Y-91889357D01*
X61209655Y-91923978D01*
X61343251Y-92017523D01*
X61348233Y-92019846D01*
X61348238Y-92019849D01*
X61478257Y-92080477D01*
X61550757Y-92114284D01*
X61556065Y-92115706D01*
X61556067Y-92115707D01*
X61766598Y-92172119D01*
X61766600Y-92172119D01*
X61771913Y-92173543D01*
X62000000Y-92193498D01*
X62228087Y-92173543D01*
X62233400Y-92172119D01*
X62233402Y-92172119D01*
X62443933Y-92115707D01*
X62443935Y-92115706D01*
X62449243Y-92114284D01*
X62521743Y-92080477D01*
X62651762Y-92019849D01*
X62651767Y-92019846D01*
X62656749Y-92017523D01*
X62790345Y-91923978D01*
X62839789Y-91889357D01*
X62839792Y-91889355D01*
X62844300Y-91886198D01*
X63006198Y-91724300D01*
X63137523Y-91536749D01*
X63139846Y-91531767D01*
X63139849Y-91531762D01*
X63231961Y-91334225D01*
X63231961Y-91334224D01*
X63234284Y-91329243D01*
X63293543Y-91108087D01*
X63313498Y-90880000D01*
X63293543Y-90651913D01*
X63234284Y-90430757D01*
X63231961Y-90425775D01*
X63139849Y-90228238D01*
X63139846Y-90228233D01*
X63137523Y-90223251D01*
X63134367Y-90218744D01*
X63134366Y-90218742D01*
X63073118Y-90131271D01*
X63050430Y-90063997D01*
X63067715Y-89995136D01*
X63119485Y-89946552D01*
X63176331Y-89933000D01*
X63944669Y-89932999D01*
X63951490Y-89932629D01*
X64002352Y-89927105D01*
X64017604Y-89923479D01*
X64138054Y-89878324D01*
X64153649Y-89869786D01*
X64255724Y-89793285D01*
X64268285Y-89780724D01*
X64344786Y-89678649D01*
X64353324Y-89663054D01*
X64398478Y-89542606D01*
X64402105Y-89527351D01*
X64407631Y-89476486D01*
X64408000Y-89469672D01*
X64408000Y-88797115D01*
X64403525Y-88781876D01*
X64402135Y-88780671D01*
X64394452Y-88779000D01*
X61610116Y-88779000D01*
X61594877Y-88783475D01*
X61593672Y-88784865D01*
X61592001Y-88792548D01*
X61592001Y-89469669D01*
X61592371Y-89476493D01*
X61598118Y-89529412D01*
X61585588Y-89599294D01*
X61537266Y-89651308D01*
X61526105Y-89657211D01*
X61348238Y-89740151D01*
X61348233Y-89740154D01*
X61343251Y-89742477D01*
X61270690Y-89793285D01*
X61160211Y-89870643D01*
X61160208Y-89870645D01*
X61155700Y-89873802D01*
X60993802Y-90035700D01*
X60862477Y-90223251D01*
X60860154Y-90228233D01*
X60860151Y-90228238D01*
X60768039Y-90425775D01*
X60765716Y-90430757D01*
X60706457Y-90651913D01*
X60686502Y-90880000D01*
X25508500Y-90880000D01*
X25508500Y-88480469D01*
X81587095Y-88480469D01*
X81587392Y-88485622D01*
X81587392Y-88485625D01*
X81593067Y-88584041D01*
X81600427Y-88711697D01*
X81601564Y-88716743D01*
X81601565Y-88716749D01*
X81633741Y-88859523D01*
X81651346Y-88937642D01*
X81653288Y-88942424D01*
X81653289Y-88942428D01*
X81736540Y-89147450D01*
X81738484Y-89152237D01*
X81859501Y-89349719D01*
X82011147Y-89524784D01*
X82189349Y-89672730D01*
X82389322Y-89789584D01*
X82605694Y-89872209D01*
X82610760Y-89873240D01*
X82610761Y-89873240D01*
X82632678Y-89877699D01*
X82832656Y-89918385D01*
X82963324Y-89923176D01*
X83058949Y-89926683D01*
X83058953Y-89926683D01*
X83064113Y-89926872D01*
X83069233Y-89926216D01*
X83069235Y-89926216D01*
X83142270Y-89916860D01*
X83293847Y-89897442D01*
X83298795Y-89895957D01*
X83298802Y-89895956D01*
X83510747Y-89832369D01*
X83515690Y-89830886D01*
X83520324Y-89828616D01*
X83719049Y-89731262D01*
X83719052Y-89731260D01*
X83723684Y-89728991D01*
X83912243Y-89594494D01*
X84076303Y-89431005D01*
X84211458Y-89242917D01*
X84258641Y-89147450D01*
X84311784Y-89039922D01*
X84311785Y-89039920D01*
X84314078Y-89035280D01*
X84381408Y-88813671D01*
X84411640Y-88584041D01*
X84413327Y-88515000D01*
X84407032Y-88438434D01*
X84394773Y-88289318D01*
X84394772Y-88289312D01*
X84394349Y-88284167D01*
X84337925Y-88059533D01*
X84335866Y-88054797D01*
X84247630Y-87851868D01*
X84247628Y-87851865D01*
X84245570Y-87847131D01*
X84119764Y-87652665D01*
X84091704Y-87621827D01*
X84029848Y-87553848D01*
X83998796Y-87490002D01*
X84007192Y-87419504D01*
X84052369Y-87364736D01*
X84078812Y-87351067D01*
X84138297Y-87328767D01*
X84146705Y-87325615D01*
X84263261Y-87238261D01*
X84350615Y-87121705D01*
X84401745Y-86985316D01*
X84408500Y-86923134D01*
X84408500Y-85026866D01*
X84401745Y-84964684D01*
X84350615Y-84828295D01*
X84263261Y-84711739D01*
X84146705Y-84624385D01*
X84010316Y-84573255D01*
X83948134Y-84566500D01*
X82051866Y-84566500D01*
X81989684Y-84573255D01*
X81853295Y-84624385D01*
X81736739Y-84711739D01*
X81649385Y-84828295D01*
X81598255Y-84964684D01*
X81591500Y-85026866D01*
X81591500Y-86923134D01*
X81598255Y-86985316D01*
X81649385Y-87121705D01*
X81736739Y-87238261D01*
X81853295Y-87325615D01*
X81861704Y-87328767D01*
X81861705Y-87328768D01*
X81921164Y-87351058D01*
X81977929Y-87393699D01*
X82002629Y-87460261D01*
X81987422Y-87529609D01*
X81968029Y-87556091D01*
X81901639Y-87625564D01*
X81898725Y-87629836D01*
X81898724Y-87629837D01*
X81883152Y-87652665D01*
X81771119Y-87816899D01*
X81673602Y-88026981D01*
X81611707Y-88250169D01*
X81587095Y-88480469D01*
X25508500Y-88480469D01*
X25508500Y-85950469D01*
X61587095Y-85950469D01*
X61587392Y-85955622D01*
X61587392Y-85955625D01*
X61593067Y-86054041D01*
X61600427Y-86181697D01*
X61601564Y-86186743D01*
X61601565Y-86186749D01*
X61633741Y-86329523D01*
X61651346Y-86407642D01*
X61653288Y-86412424D01*
X61653289Y-86412428D01*
X61736540Y-86617450D01*
X61738484Y-86622237D01*
X61859501Y-86819719D01*
X61862882Y-86823622D01*
X61971653Y-86949191D01*
X62001135Y-87013776D01*
X61991020Y-87084049D01*
X61944519Y-87137697D01*
X61920646Y-87149670D01*
X61861944Y-87171677D01*
X61846351Y-87180214D01*
X61744276Y-87256715D01*
X61731715Y-87269276D01*
X61655214Y-87371351D01*
X61646676Y-87386946D01*
X61601522Y-87507394D01*
X61597895Y-87522649D01*
X61592369Y-87573514D01*
X61592000Y-87580328D01*
X61592000Y-88252885D01*
X61596475Y-88268124D01*
X61597865Y-88269329D01*
X61605548Y-88271000D01*
X64389884Y-88271000D01*
X64405123Y-88266525D01*
X64406328Y-88265135D01*
X64407999Y-88257452D01*
X64407999Y-87580331D01*
X64407629Y-87573510D01*
X64402105Y-87522648D01*
X64398479Y-87507396D01*
X64353324Y-87386946D01*
X64344786Y-87371351D01*
X64268285Y-87269276D01*
X64255724Y-87256715D01*
X64153649Y-87180214D01*
X64138052Y-87171675D01*
X64079415Y-87149693D01*
X64022650Y-87107052D01*
X63997950Y-87040490D01*
X64013157Y-86971141D01*
X64034703Y-86942461D01*
X64072641Y-86904654D01*
X64076303Y-86901005D01*
X64211458Y-86712917D01*
X64258641Y-86617450D01*
X64311784Y-86509922D01*
X64311785Y-86509920D01*
X64314078Y-86505280D01*
X64381408Y-86283671D01*
X64411640Y-86054041D01*
X64413327Y-85985000D01*
X64407032Y-85908434D01*
X64394773Y-85759318D01*
X64394772Y-85759312D01*
X64394349Y-85754167D01*
X64337925Y-85529533D01*
X64335866Y-85524797D01*
X64247630Y-85321868D01*
X64247628Y-85321865D01*
X64245570Y-85317131D01*
X64119764Y-85122665D01*
X63963887Y-84951358D01*
X63959836Y-84948159D01*
X63959832Y-84948155D01*
X63786177Y-84811011D01*
X63786172Y-84811008D01*
X63782123Y-84807810D01*
X63777607Y-84805317D01*
X63777604Y-84805315D01*
X63583879Y-84698373D01*
X63583875Y-84698371D01*
X63579355Y-84695876D01*
X63574486Y-84694152D01*
X63574482Y-84694150D01*
X63365903Y-84620288D01*
X63365899Y-84620287D01*
X63361028Y-84618562D01*
X63355935Y-84617655D01*
X63355932Y-84617654D01*
X63138095Y-84578851D01*
X63138089Y-84578850D01*
X63133006Y-84577945D01*
X63060096Y-84577054D01*
X62906581Y-84575179D01*
X62906579Y-84575179D01*
X62901411Y-84575116D01*
X62672464Y-84610150D01*
X62452314Y-84682106D01*
X62447726Y-84684494D01*
X62447722Y-84684496D01*
X62251461Y-84786663D01*
X62246872Y-84789052D01*
X62242739Y-84792155D01*
X62242736Y-84792157D01*
X62065790Y-84925012D01*
X62061655Y-84928117D01*
X61901639Y-85095564D01*
X61898725Y-85099836D01*
X61898724Y-85099837D01*
X61883152Y-85122665D01*
X61771119Y-85286899D01*
X61673602Y-85496981D01*
X61611707Y-85720169D01*
X61587095Y-85950469D01*
X25508500Y-85950469D01*
X25508500Y-82007469D01*
X57261095Y-82007469D01*
X57261392Y-82012622D01*
X57261392Y-82012625D01*
X57269902Y-82160211D01*
X57274427Y-82238697D01*
X57275564Y-82243743D01*
X57275565Y-82243749D01*
X57296973Y-82338743D01*
X57325346Y-82464642D01*
X57327288Y-82469424D01*
X57327289Y-82469428D01*
X57362470Y-82556067D01*
X57412484Y-82679237D01*
X57533501Y-82876719D01*
X57685147Y-83051784D01*
X57863349Y-83199730D01*
X58063322Y-83316584D01*
X58279694Y-83399209D01*
X58284760Y-83400240D01*
X58284761Y-83400240D01*
X58337846Y-83411040D01*
X58506656Y-83445385D01*
X58636089Y-83450131D01*
X58732949Y-83453683D01*
X58732953Y-83453683D01*
X58738113Y-83453872D01*
X58743233Y-83453216D01*
X58743235Y-83453216D01*
X58817166Y-83443745D01*
X58967847Y-83424442D01*
X58972795Y-83422957D01*
X58972802Y-83422956D01*
X59184747Y-83359369D01*
X59189690Y-83357886D01*
X59270236Y-83318427D01*
X59393049Y-83258262D01*
X59393052Y-83258260D01*
X59397684Y-83255991D01*
X59586243Y-83121494D01*
X59631309Y-83076585D01*
X59693681Y-83042669D01*
X59764487Y-83047857D01*
X59821249Y-83090503D01*
X59838231Y-83121607D01*
X59863385Y-83188705D01*
X59950739Y-83305261D01*
X60067295Y-83392615D01*
X60203684Y-83443745D01*
X60265866Y-83450500D01*
X62162134Y-83450500D01*
X62224316Y-83443745D01*
X62360705Y-83392615D01*
X62477261Y-83305261D01*
X62564615Y-83188705D01*
X62615745Y-83052316D01*
X62621428Y-83000000D01*
X74124502Y-83000000D01*
X74144457Y-83228087D01*
X74145881Y-83233400D01*
X74145881Y-83233402D01*
X74201500Y-83440971D01*
X74203716Y-83449243D01*
X74206039Y-83454224D01*
X74206039Y-83454225D01*
X74298151Y-83651762D01*
X74298154Y-83651767D01*
X74300477Y-83656749D01*
X74431802Y-83844300D01*
X74593700Y-84006198D01*
X74598208Y-84009355D01*
X74598211Y-84009357D01*
X74676389Y-84064098D01*
X74781251Y-84137523D01*
X74786233Y-84139846D01*
X74786238Y-84139849D01*
X74983775Y-84231961D01*
X74988757Y-84234284D01*
X74994065Y-84235706D01*
X74994067Y-84235707D01*
X75204598Y-84292119D01*
X75204600Y-84292119D01*
X75209913Y-84293543D01*
X75438000Y-84313498D01*
X75666087Y-84293543D01*
X75671400Y-84292119D01*
X75671402Y-84292119D01*
X75881933Y-84235707D01*
X75881935Y-84235706D01*
X75887243Y-84234284D01*
X75892225Y-84231961D01*
X76089762Y-84139849D01*
X76089767Y-84139846D01*
X76094749Y-84137523D01*
X76199611Y-84064098D01*
X76277789Y-84009357D01*
X76277792Y-84009355D01*
X76282300Y-84006198D01*
X76444198Y-83844300D01*
X76575523Y-83656749D01*
X76577846Y-83651767D01*
X76577849Y-83651762D01*
X76669961Y-83454225D01*
X76669961Y-83454224D01*
X76672284Y-83449243D01*
X76674501Y-83440971D01*
X76730119Y-83233402D01*
X76730119Y-83233400D01*
X76731543Y-83228087D01*
X76751498Y-83000000D01*
X81744502Y-83000000D01*
X81764457Y-83228087D01*
X81765881Y-83233400D01*
X81765881Y-83233402D01*
X81821500Y-83440971D01*
X81823716Y-83449243D01*
X81826039Y-83454224D01*
X81826039Y-83454225D01*
X81918151Y-83651762D01*
X81918154Y-83651767D01*
X81920477Y-83656749D01*
X82051802Y-83844300D01*
X82213700Y-84006198D01*
X82218208Y-84009355D01*
X82218211Y-84009357D01*
X82296389Y-84064098D01*
X82401251Y-84137523D01*
X82406233Y-84139846D01*
X82406238Y-84139849D01*
X82603775Y-84231961D01*
X82608757Y-84234284D01*
X82614065Y-84235706D01*
X82614067Y-84235707D01*
X82824598Y-84292119D01*
X82824600Y-84292119D01*
X82829913Y-84293543D01*
X83058000Y-84313498D01*
X83286087Y-84293543D01*
X83291400Y-84292119D01*
X83291402Y-84292119D01*
X83501933Y-84235707D01*
X83501935Y-84235706D01*
X83507243Y-84234284D01*
X83512225Y-84231961D01*
X83709762Y-84139849D01*
X83709767Y-84139846D01*
X83714749Y-84137523D01*
X83819611Y-84064098D01*
X83897789Y-84009357D01*
X83897792Y-84009355D01*
X83902300Y-84006198D01*
X84064198Y-83844300D01*
X84195523Y-83656749D01*
X84197846Y-83651767D01*
X84197849Y-83651762D01*
X84289961Y-83454225D01*
X84289961Y-83454224D01*
X84292284Y-83449243D01*
X84294501Y-83440971D01*
X84350119Y-83233402D01*
X84350119Y-83233400D01*
X84351543Y-83228087D01*
X84371498Y-83000000D01*
X84351543Y-82771913D01*
X84350119Y-82766598D01*
X84293707Y-82556067D01*
X84293706Y-82556065D01*
X84292284Y-82550757D01*
X84249777Y-82459600D01*
X84197849Y-82348238D01*
X84197846Y-82348233D01*
X84195523Y-82343251D01*
X84064198Y-82155700D01*
X83902300Y-81993802D01*
X83897792Y-81990645D01*
X83897789Y-81990643D01*
X83819611Y-81935902D01*
X83714749Y-81862477D01*
X83709767Y-81860154D01*
X83709762Y-81860151D01*
X83512225Y-81768039D01*
X83512224Y-81768039D01*
X83507243Y-81765716D01*
X83501935Y-81764294D01*
X83501933Y-81764293D01*
X83291402Y-81707881D01*
X83291400Y-81707881D01*
X83286087Y-81706457D01*
X83058000Y-81686502D01*
X82829913Y-81706457D01*
X82824600Y-81707881D01*
X82824598Y-81707881D01*
X82614067Y-81764293D01*
X82614065Y-81764294D01*
X82608757Y-81765716D01*
X82603776Y-81768039D01*
X82603775Y-81768039D01*
X82406238Y-81860151D01*
X82406233Y-81860154D01*
X82401251Y-81862477D01*
X82296389Y-81935902D01*
X82218211Y-81990643D01*
X82218208Y-81990645D01*
X82213700Y-81993802D01*
X82051802Y-82155700D01*
X81920477Y-82343251D01*
X81918154Y-82348233D01*
X81918151Y-82348238D01*
X81866223Y-82459600D01*
X81823716Y-82550757D01*
X81822294Y-82556065D01*
X81822293Y-82556067D01*
X81765881Y-82766598D01*
X81764457Y-82771913D01*
X81744502Y-83000000D01*
X76751498Y-83000000D01*
X76731543Y-82771913D01*
X76730119Y-82766598D01*
X76673707Y-82556067D01*
X76673706Y-82556065D01*
X76672284Y-82550757D01*
X76629777Y-82459600D01*
X76577849Y-82348238D01*
X76577846Y-82348233D01*
X76575523Y-82343251D01*
X76444198Y-82155700D01*
X76282300Y-81993802D01*
X76277792Y-81990645D01*
X76277789Y-81990643D01*
X76199611Y-81935902D01*
X76094749Y-81862477D01*
X76089767Y-81860154D01*
X76089762Y-81860151D01*
X75892225Y-81768039D01*
X75892224Y-81768039D01*
X75887243Y-81765716D01*
X75881935Y-81764294D01*
X75881933Y-81764293D01*
X75671402Y-81707881D01*
X75671400Y-81707881D01*
X75666087Y-81706457D01*
X75438000Y-81686502D01*
X75209913Y-81706457D01*
X75204600Y-81707881D01*
X75204598Y-81707881D01*
X74994067Y-81764293D01*
X74994065Y-81764294D01*
X74988757Y-81765716D01*
X74983776Y-81768039D01*
X74983775Y-81768039D01*
X74786238Y-81860151D01*
X74786233Y-81860154D01*
X74781251Y-81862477D01*
X74676389Y-81935902D01*
X74598211Y-81990643D01*
X74598208Y-81990645D01*
X74593700Y-81993802D01*
X74431802Y-82155700D01*
X74300477Y-82343251D01*
X74298154Y-82348233D01*
X74298151Y-82348238D01*
X74246223Y-82459600D01*
X74203716Y-82550757D01*
X74202294Y-82556065D01*
X74202293Y-82556067D01*
X74145881Y-82766598D01*
X74144457Y-82771913D01*
X74124502Y-83000000D01*
X62621428Y-83000000D01*
X62622500Y-82990134D01*
X62622500Y-81093866D01*
X62615745Y-81031684D01*
X62564615Y-80895295D01*
X62477261Y-80778739D01*
X62360705Y-80691385D01*
X62224316Y-80640255D01*
X62162134Y-80633500D01*
X60265866Y-80633500D01*
X60203684Y-80640255D01*
X60067295Y-80691385D01*
X59950739Y-80778739D01*
X59863385Y-80895295D01*
X59860233Y-80903703D01*
X59860232Y-80903705D01*
X59839538Y-80958906D01*
X59796897Y-81015671D01*
X59730335Y-81040371D01*
X59660986Y-81025164D01*
X59638167Y-81008666D01*
X59637887Y-81008358D01*
X59505373Y-80903705D01*
X59460177Y-80868011D01*
X59460172Y-80868008D01*
X59456123Y-80864810D01*
X59451607Y-80862317D01*
X59451604Y-80862315D01*
X59257879Y-80755373D01*
X59257875Y-80755371D01*
X59253355Y-80752876D01*
X59248486Y-80751152D01*
X59248482Y-80751150D01*
X59039903Y-80677288D01*
X59039899Y-80677287D01*
X59035028Y-80675562D01*
X59029935Y-80674655D01*
X59029932Y-80674654D01*
X58812095Y-80635851D01*
X58812089Y-80635850D01*
X58807006Y-80634945D01*
X58734096Y-80634054D01*
X58580581Y-80632179D01*
X58580579Y-80632179D01*
X58575411Y-80632116D01*
X58346464Y-80667150D01*
X58126314Y-80739106D01*
X58121726Y-80741494D01*
X58121722Y-80741496D01*
X57925461Y-80843663D01*
X57920872Y-80846052D01*
X57916739Y-80849155D01*
X57916736Y-80849157D01*
X57739790Y-80982012D01*
X57735655Y-80985117D01*
X57575639Y-81152564D01*
X57445119Y-81343899D01*
X57347602Y-81553981D01*
X57285707Y-81777169D01*
X57261095Y-82007469D01*
X25508500Y-82007469D01*
X25508500Y-78668669D01*
X93842001Y-78668669D01*
X93842371Y-78675490D01*
X93847895Y-78726352D01*
X93851521Y-78741604D01*
X93896676Y-78862054D01*
X93905214Y-78877649D01*
X93981715Y-78979724D01*
X93994276Y-78992285D01*
X94096351Y-79068786D01*
X94111946Y-79077324D01*
X94232394Y-79122478D01*
X94247649Y-79126105D01*
X94298514Y-79131631D01*
X94305328Y-79132000D01*
X94977885Y-79132000D01*
X94993124Y-79127525D01*
X94994329Y-79126135D01*
X94996000Y-79118452D01*
X94996000Y-79113884D01*
X95504000Y-79113884D01*
X95508475Y-79129123D01*
X95509865Y-79130328D01*
X95517548Y-79131999D01*
X96194669Y-79131999D01*
X96201490Y-79131629D01*
X96252352Y-79126105D01*
X96267604Y-79122479D01*
X96388054Y-79077324D01*
X96403649Y-79068786D01*
X96505724Y-78992285D01*
X96518285Y-78979724D01*
X96594786Y-78877649D01*
X96603324Y-78862054D01*
X96624773Y-78804840D01*
X96667415Y-78748075D01*
X96733977Y-78723376D01*
X96803325Y-78738584D01*
X96823240Y-78752126D01*
X96979349Y-78881730D01*
X97179322Y-78998584D01*
X97395694Y-79081209D01*
X97400760Y-79082240D01*
X97400761Y-79082240D01*
X97453846Y-79093040D01*
X97622656Y-79127385D01*
X97753324Y-79132176D01*
X97848949Y-79135683D01*
X97848953Y-79135683D01*
X97854113Y-79135872D01*
X97859233Y-79135216D01*
X97859235Y-79135216D01*
X97958668Y-79122478D01*
X98083847Y-79106442D01*
X98088795Y-79104957D01*
X98088802Y-79104956D01*
X98300747Y-79041369D01*
X98305690Y-79039886D01*
X98386236Y-79000427D01*
X98509049Y-78940262D01*
X98509052Y-78940260D01*
X98513684Y-78937991D01*
X98702243Y-78803494D01*
X98866303Y-78640005D01*
X99001458Y-78451917D01*
X99104078Y-78244280D01*
X99171408Y-78022671D01*
X99201640Y-77793041D01*
X99202980Y-77738216D01*
X99203245Y-77727365D01*
X99203245Y-77727361D01*
X99203327Y-77724000D01*
X99188281Y-77540991D01*
X99184773Y-77498318D01*
X99184772Y-77498312D01*
X99184349Y-77493167D01*
X99145898Y-77340086D01*
X99129184Y-77273544D01*
X99129183Y-77273540D01*
X99127925Y-77268533D01*
X99125866Y-77263797D01*
X99037630Y-77060868D01*
X99037628Y-77060865D01*
X99035570Y-77056131D01*
X98909764Y-76861665D01*
X98753887Y-76690358D01*
X98749836Y-76687159D01*
X98749832Y-76687155D01*
X98576177Y-76550011D01*
X98576172Y-76550008D01*
X98572123Y-76546810D01*
X98567607Y-76544317D01*
X98567604Y-76544315D01*
X98373879Y-76437373D01*
X98373875Y-76437371D01*
X98369355Y-76434876D01*
X98364486Y-76433152D01*
X98364482Y-76433150D01*
X98155903Y-76359288D01*
X98155899Y-76359287D01*
X98151028Y-76357562D01*
X98145935Y-76356655D01*
X98145932Y-76356654D01*
X97928095Y-76317851D01*
X97928089Y-76317850D01*
X97923006Y-76316945D01*
X97845644Y-76316000D01*
X97696581Y-76314179D01*
X97696579Y-76314179D01*
X97691411Y-76314116D01*
X97462464Y-76349150D01*
X97242314Y-76421106D01*
X97237726Y-76423494D01*
X97237722Y-76423496D01*
X97045238Y-76523697D01*
X97036872Y-76528052D01*
X97032739Y-76531155D01*
X97032736Y-76531157D01*
X96855790Y-76664012D01*
X96851655Y-76667117D01*
X96848083Y-76670855D01*
X96833787Y-76685815D01*
X96772263Y-76721245D01*
X96701351Y-76717788D01*
X96643564Y-76676543D01*
X96624711Y-76642994D01*
X96603324Y-76585946D01*
X96594786Y-76570351D01*
X96518285Y-76468276D01*
X96505724Y-76455715D01*
X96403649Y-76379214D01*
X96388054Y-76370676D01*
X96267606Y-76325522D01*
X96252351Y-76321895D01*
X96201486Y-76316369D01*
X96194672Y-76316000D01*
X95522115Y-76316000D01*
X95506876Y-76320475D01*
X95505671Y-76321865D01*
X95504000Y-76329548D01*
X95504000Y-79113884D01*
X94996000Y-79113884D01*
X94996000Y-77996115D01*
X94991525Y-77980876D01*
X94990135Y-77979671D01*
X94982452Y-77978000D01*
X93860116Y-77978000D01*
X93844877Y-77982475D01*
X93843672Y-77983865D01*
X93842001Y-77991548D01*
X93842001Y-78668669D01*
X25508500Y-78668669D01*
X25508500Y-76292469D01*
X80587095Y-76292469D01*
X80587392Y-76297622D01*
X80587392Y-76297625D01*
X80600129Y-76518529D01*
X80600427Y-76523697D01*
X80601564Y-76528743D01*
X80601565Y-76528749D01*
X80627312Y-76642994D01*
X80651346Y-76749642D01*
X80653288Y-76754424D01*
X80653289Y-76754428D01*
X80736540Y-76959450D01*
X80738484Y-76964237D01*
X80859501Y-77161719D01*
X81011147Y-77336784D01*
X81189349Y-77484730D01*
X81389322Y-77601584D01*
X81605694Y-77684209D01*
X81610760Y-77685240D01*
X81610761Y-77685240D01*
X81663846Y-77696040D01*
X81832656Y-77730385D01*
X81963324Y-77735176D01*
X82058949Y-77738683D01*
X82058953Y-77738683D01*
X82064113Y-77738872D01*
X82069233Y-77738216D01*
X82069235Y-77738216D01*
X82153938Y-77727365D01*
X82293847Y-77709442D01*
X82298795Y-77707957D01*
X82298802Y-77707956D01*
X82510747Y-77644369D01*
X82515690Y-77642886D01*
X82596236Y-77603427D01*
X82719049Y-77543262D01*
X82719052Y-77543260D01*
X82723684Y-77540991D01*
X82848607Y-77451885D01*
X93842000Y-77451885D01*
X93846475Y-77467124D01*
X93847865Y-77468329D01*
X93855548Y-77470000D01*
X94977885Y-77470000D01*
X94993124Y-77465525D01*
X94994329Y-77464135D01*
X94996000Y-77456452D01*
X94996000Y-76334116D01*
X94991525Y-76318877D01*
X94990135Y-76317672D01*
X94982452Y-76316001D01*
X94305331Y-76316001D01*
X94298510Y-76316371D01*
X94247648Y-76321895D01*
X94232396Y-76325521D01*
X94111946Y-76370676D01*
X94096351Y-76379214D01*
X93994276Y-76455715D01*
X93981715Y-76468276D01*
X93905214Y-76570351D01*
X93896676Y-76585946D01*
X93851522Y-76706394D01*
X93847895Y-76721649D01*
X93842369Y-76772514D01*
X93842000Y-76779328D01*
X93842000Y-77451885D01*
X82848607Y-77451885D01*
X82912243Y-77406494D01*
X83076303Y-77243005D01*
X83211458Y-77054917D01*
X83258641Y-76959450D01*
X83311784Y-76851922D01*
X83311785Y-76851920D01*
X83314078Y-76847280D01*
X83381408Y-76625671D01*
X83411640Y-76396041D01*
X83412580Y-76357562D01*
X83413245Y-76330365D01*
X83413245Y-76330361D01*
X83413327Y-76327000D01*
X83407032Y-76250434D01*
X83394773Y-76101318D01*
X83394772Y-76101312D01*
X83394349Y-76096167D01*
X83337925Y-75871533D01*
X83335866Y-75866797D01*
X83247630Y-75663868D01*
X83247628Y-75663865D01*
X83245570Y-75659131D01*
X83119764Y-75464665D01*
X83029848Y-75365848D01*
X82998796Y-75302002D01*
X83007192Y-75231504D01*
X83052369Y-75176736D01*
X83078812Y-75163067D01*
X83138297Y-75140767D01*
X83146705Y-75137615D01*
X83263261Y-75050261D01*
X83350615Y-74933705D01*
X83401745Y-74797316D01*
X83408500Y-74735134D01*
X83408500Y-73842669D01*
X102592001Y-73842669D01*
X102592371Y-73849490D01*
X102597895Y-73900352D01*
X102601521Y-73915604D01*
X102646676Y-74036054D01*
X102655214Y-74051649D01*
X102731715Y-74153724D01*
X102744276Y-74166285D01*
X102846351Y-74242786D01*
X102861946Y-74251324D01*
X102982394Y-74296478D01*
X102997649Y-74300105D01*
X103048514Y-74305631D01*
X103055328Y-74306000D01*
X103727885Y-74306000D01*
X103743124Y-74301525D01*
X103744329Y-74300135D01*
X103746000Y-74292452D01*
X103746000Y-74287884D01*
X104254000Y-74287884D01*
X104258475Y-74303123D01*
X104259865Y-74304328D01*
X104267548Y-74305999D01*
X104944669Y-74305999D01*
X104951490Y-74305629D01*
X105002352Y-74300105D01*
X105017604Y-74296479D01*
X105138054Y-74251324D01*
X105153649Y-74242786D01*
X105255724Y-74166285D01*
X105268285Y-74153724D01*
X105344786Y-74051649D01*
X105353324Y-74036054D01*
X105374773Y-73978840D01*
X105417415Y-73922075D01*
X105483977Y-73897376D01*
X105553325Y-73912584D01*
X105573240Y-73926126D01*
X105729349Y-74055730D01*
X105929322Y-74172584D01*
X106145694Y-74255209D01*
X106150760Y-74256240D01*
X106150761Y-74256240D01*
X106203846Y-74267040D01*
X106372656Y-74301385D01*
X106503324Y-74306176D01*
X106598949Y-74309683D01*
X106598953Y-74309683D01*
X106604113Y-74309872D01*
X106609233Y-74309216D01*
X106609235Y-74309216D01*
X106708668Y-74296478D01*
X106833847Y-74280442D01*
X106838795Y-74278957D01*
X106838802Y-74278956D01*
X107050747Y-74215369D01*
X107055690Y-74213886D01*
X107136236Y-74174427D01*
X107259049Y-74114262D01*
X107259052Y-74114260D01*
X107263684Y-74111991D01*
X107452243Y-73977494D01*
X107616303Y-73814005D01*
X107751458Y-73625917D01*
X107854078Y-73418280D01*
X107921408Y-73196671D01*
X107951640Y-72967041D01*
X107953327Y-72898000D01*
X107942745Y-72769285D01*
X107934773Y-72672318D01*
X107934772Y-72672312D01*
X107934349Y-72667167D01*
X107900126Y-72530919D01*
X107879184Y-72447544D01*
X107879183Y-72447540D01*
X107877925Y-72442533D01*
X107875252Y-72436385D01*
X107787630Y-72234868D01*
X107787628Y-72234865D01*
X107785570Y-72230131D01*
X107659764Y-72035665D01*
X107654165Y-72029511D01*
X107562434Y-71928701D01*
X107503887Y-71864358D01*
X107499836Y-71861159D01*
X107499832Y-71861155D01*
X107326177Y-71724011D01*
X107326172Y-71724008D01*
X107322123Y-71720810D01*
X107317607Y-71718317D01*
X107317604Y-71718315D01*
X107123879Y-71611373D01*
X107123875Y-71611371D01*
X107119355Y-71608876D01*
X107114486Y-71607152D01*
X107114482Y-71607150D01*
X106905903Y-71533288D01*
X106905899Y-71533287D01*
X106901028Y-71531562D01*
X106895935Y-71530655D01*
X106895932Y-71530654D01*
X106678095Y-71491851D01*
X106678089Y-71491850D01*
X106673006Y-71490945D01*
X106595644Y-71490000D01*
X106446581Y-71488179D01*
X106446579Y-71488179D01*
X106441411Y-71488116D01*
X106212464Y-71523150D01*
X105992314Y-71595106D01*
X105987726Y-71597494D01*
X105987722Y-71597496D01*
X105791461Y-71699663D01*
X105786872Y-71702052D01*
X105782739Y-71705155D01*
X105782736Y-71705157D01*
X105605790Y-71838012D01*
X105601655Y-71841117D01*
X105598083Y-71844855D01*
X105583787Y-71859815D01*
X105522263Y-71895245D01*
X105451351Y-71891788D01*
X105393564Y-71850543D01*
X105374711Y-71816994D01*
X105353324Y-71759946D01*
X105344786Y-71744351D01*
X105268285Y-71642276D01*
X105255724Y-71629715D01*
X105153649Y-71553214D01*
X105138054Y-71544676D01*
X105017606Y-71499522D01*
X105002351Y-71495895D01*
X104951486Y-71490369D01*
X104944672Y-71490000D01*
X104272115Y-71490000D01*
X104256876Y-71494475D01*
X104255671Y-71495865D01*
X104254000Y-71503548D01*
X104254000Y-74287884D01*
X103746000Y-74287884D01*
X103746000Y-73170115D01*
X103741525Y-73154876D01*
X103740135Y-73153671D01*
X103732452Y-73152000D01*
X102610116Y-73152000D01*
X102594877Y-73156475D01*
X102593672Y-73157865D01*
X102592001Y-73165548D01*
X102592001Y-73842669D01*
X83408500Y-73842669D01*
X83408500Y-72838866D01*
X83401745Y-72776684D01*
X83350615Y-72640295D01*
X83339815Y-72625885D01*
X102592000Y-72625885D01*
X102596475Y-72641124D01*
X102597865Y-72642329D01*
X102605548Y-72644000D01*
X103727885Y-72644000D01*
X103743124Y-72639525D01*
X103744329Y-72638135D01*
X103746000Y-72630452D01*
X103746000Y-71508116D01*
X103741525Y-71492877D01*
X103740135Y-71491672D01*
X103732452Y-71490001D01*
X103055331Y-71490001D01*
X103048510Y-71490371D01*
X102997648Y-71495895D01*
X102982396Y-71499521D01*
X102861946Y-71544676D01*
X102846351Y-71553214D01*
X102744276Y-71629715D01*
X102731715Y-71642276D01*
X102655214Y-71744351D01*
X102646676Y-71759946D01*
X102601522Y-71880394D01*
X102597895Y-71895649D01*
X102592369Y-71946514D01*
X102592000Y-71953328D01*
X102592000Y-72625885D01*
X83339815Y-72625885D01*
X83263261Y-72523739D01*
X83146705Y-72436385D01*
X83010316Y-72385255D01*
X82948134Y-72378500D01*
X81051866Y-72378500D01*
X80989684Y-72385255D01*
X80853295Y-72436385D01*
X80736739Y-72523739D01*
X80649385Y-72640295D01*
X80598255Y-72776684D01*
X80591500Y-72838866D01*
X80591500Y-74735134D01*
X80598255Y-74797316D01*
X80649385Y-74933705D01*
X80736739Y-75050261D01*
X80853295Y-75137615D01*
X80861704Y-75140767D01*
X80861705Y-75140768D01*
X80921164Y-75163058D01*
X80977929Y-75205699D01*
X81002629Y-75272261D01*
X80987422Y-75341609D01*
X80968029Y-75368091D01*
X80901639Y-75437564D01*
X80898725Y-75441836D01*
X80898724Y-75441837D01*
X80883152Y-75464665D01*
X80771119Y-75628899D01*
X80673602Y-75838981D01*
X80611707Y-76062169D01*
X80587095Y-76292469D01*
X25508500Y-76292469D01*
X25508500Y-70148134D01*
X29891500Y-70148134D01*
X29898255Y-70210316D01*
X29949385Y-70346705D01*
X30036739Y-70463261D01*
X30153295Y-70550615D01*
X30289684Y-70601745D01*
X30351866Y-70608500D01*
X32248134Y-70608500D01*
X32310316Y-70601745D01*
X32446705Y-70550615D01*
X32563261Y-70463261D01*
X32650615Y-70346705D01*
X32675180Y-70281178D01*
X32717822Y-70224414D01*
X32784383Y-70199714D01*
X32853732Y-70214921D01*
X32873647Y-70228464D01*
X32938724Y-70282492D01*
X33029349Y-70357730D01*
X33229322Y-70474584D01*
X33445694Y-70557209D01*
X33450760Y-70558240D01*
X33450761Y-70558240D01*
X33503846Y-70569040D01*
X33672656Y-70603385D01*
X33802089Y-70608131D01*
X33898949Y-70611683D01*
X33898953Y-70611683D01*
X33904113Y-70611872D01*
X33909233Y-70611216D01*
X33909235Y-70611216D01*
X33983166Y-70601745D01*
X34133847Y-70582442D01*
X34138795Y-70580957D01*
X34138802Y-70580956D01*
X34350747Y-70517369D01*
X34355690Y-70515886D01*
X34436236Y-70476427D01*
X34559049Y-70416262D01*
X34559052Y-70416260D01*
X34563684Y-70413991D01*
X34752243Y-70279494D01*
X34899547Y-70132703D01*
X64890743Y-70132703D01*
X64891302Y-70136947D01*
X64891302Y-70136951D01*
X64893084Y-70150488D01*
X64928268Y-70417734D01*
X64929401Y-70421874D01*
X64929401Y-70421876D01*
X64940723Y-70463261D01*
X65004129Y-70695036D01*
X65116923Y-70959476D01*
X65264561Y-71206161D01*
X65444313Y-71430528D01*
X65508934Y-71491851D01*
X65632253Y-71608876D01*
X65652851Y-71628423D01*
X65886317Y-71796186D01*
X65890112Y-71798195D01*
X65890113Y-71798196D01*
X65911869Y-71809715D01*
X66140392Y-71930712D01*
X66164699Y-71939607D01*
X66353133Y-72008564D01*
X66410373Y-72029511D01*
X66691264Y-72090755D01*
X66719841Y-72093004D01*
X66914282Y-72108307D01*
X66914291Y-72108307D01*
X66916739Y-72108500D01*
X67072271Y-72108500D01*
X67074407Y-72108354D01*
X67074418Y-72108354D01*
X67282548Y-72094165D01*
X67282554Y-72094164D01*
X67286825Y-72093873D01*
X67291020Y-72093004D01*
X67291022Y-72093004D01*
X67427583Y-72064724D01*
X67568342Y-72035574D01*
X67839343Y-71939607D01*
X68022922Y-71844855D01*
X68091005Y-71809715D01*
X68091006Y-71809715D01*
X68094812Y-71807750D01*
X68098313Y-71805289D01*
X68098317Y-71805287D01*
X68248604Y-71699663D01*
X68330023Y-71642441D01*
X68426043Y-71553214D01*
X68537479Y-71449661D01*
X68537481Y-71449658D01*
X68540622Y-71446740D01*
X68722713Y-71224268D01*
X68872927Y-70979142D01*
X68988483Y-70715898D01*
X69018170Y-70611683D01*
X69066068Y-70443534D01*
X69067244Y-70439406D01*
X69099848Y-70210316D01*
X69107146Y-70159036D01*
X69107146Y-70159034D01*
X69107751Y-70154784D01*
X69107845Y-70136951D01*
X69107867Y-70132703D01*
X87390743Y-70132703D01*
X87391302Y-70136947D01*
X87391302Y-70136951D01*
X87393084Y-70150488D01*
X87428268Y-70417734D01*
X87429401Y-70421874D01*
X87429401Y-70421876D01*
X87440723Y-70463261D01*
X87504129Y-70695036D01*
X87616923Y-70959476D01*
X87764561Y-71206161D01*
X87944313Y-71430528D01*
X88008934Y-71491851D01*
X88132253Y-71608876D01*
X88152851Y-71628423D01*
X88386317Y-71796186D01*
X88390112Y-71798195D01*
X88390113Y-71798196D01*
X88411869Y-71809715D01*
X88640392Y-71930712D01*
X88664699Y-71939607D01*
X88853133Y-72008564D01*
X88910373Y-72029511D01*
X89191264Y-72090755D01*
X89219841Y-72093004D01*
X89414282Y-72108307D01*
X89414291Y-72108307D01*
X89416739Y-72108500D01*
X89572271Y-72108500D01*
X89574407Y-72108354D01*
X89574418Y-72108354D01*
X89782548Y-72094165D01*
X89782554Y-72094164D01*
X89786825Y-72093873D01*
X89791020Y-72093004D01*
X89791022Y-72093004D01*
X89927583Y-72064724D01*
X90068342Y-72035574D01*
X90339343Y-71939607D01*
X90522922Y-71844855D01*
X90591005Y-71809715D01*
X90591006Y-71809715D01*
X90594812Y-71807750D01*
X90598313Y-71805289D01*
X90598317Y-71805287D01*
X90748604Y-71699663D01*
X90830023Y-71642441D01*
X90926043Y-71553214D01*
X91037479Y-71449661D01*
X91037481Y-71449658D01*
X91040622Y-71446740D01*
X91222713Y-71224268D01*
X91372927Y-70979142D01*
X91488483Y-70715898D01*
X91518170Y-70611683D01*
X91566068Y-70443534D01*
X91567244Y-70439406D01*
X91599848Y-70210316D01*
X91607146Y-70159036D01*
X91607146Y-70159034D01*
X91607751Y-70154784D01*
X91607845Y-70136951D01*
X91609235Y-69871583D01*
X91609235Y-69871576D01*
X91609257Y-69867297D01*
X91571732Y-69582266D01*
X91495871Y-69304964D01*
X91383077Y-69040524D01*
X91235439Y-68793839D01*
X91055687Y-68569472D01*
X90847149Y-68371577D01*
X90613683Y-68203814D01*
X90601834Y-68197540D01*
X90542941Y-68166358D01*
X90359608Y-68069288D01*
X90155109Y-67994452D01*
X90093658Y-67971964D01*
X90093656Y-67971963D01*
X90089627Y-67970489D01*
X89808736Y-67909245D01*
X89777685Y-67906801D01*
X89585718Y-67891693D01*
X89585709Y-67891693D01*
X89583261Y-67891500D01*
X89427729Y-67891500D01*
X89425593Y-67891646D01*
X89425582Y-67891646D01*
X89217452Y-67905835D01*
X89217446Y-67905836D01*
X89213175Y-67906127D01*
X89208980Y-67906996D01*
X89208978Y-67906996D01*
X89166050Y-67915886D01*
X88931658Y-67964426D01*
X88660657Y-68060393D01*
X88656848Y-68062359D01*
X88410160Y-68189684D01*
X88405188Y-68192250D01*
X88401687Y-68194711D01*
X88401683Y-68194713D01*
X88398651Y-68196844D01*
X88169977Y-68357559D01*
X88154892Y-68371577D01*
X87986784Y-68527793D01*
X87959378Y-68553260D01*
X87777287Y-68775732D01*
X87627073Y-69020858D01*
X87511517Y-69284102D01*
X87432756Y-69560594D01*
X87392249Y-69845216D01*
X87392227Y-69849505D01*
X87392226Y-69849512D01*
X87390852Y-70111808D01*
X87390743Y-70132703D01*
X69107867Y-70132703D01*
X69109235Y-69871583D01*
X69109235Y-69871576D01*
X69109257Y-69867297D01*
X69071732Y-69582266D01*
X68995871Y-69304964D01*
X68883077Y-69040524D01*
X68735439Y-68793839D01*
X68555687Y-68569472D01*
X68347149Y-68371577D01*
X68113683Y-68203814D01*
X68101834Y-68197540D01*
X68042941Y-68166358D01*
X67859608Y-68069288D01*
X67655109Y-67994452D01*
X67593658Y-67971964D01*
X67593656Y-67971963D01*
X67589627Y-67970489D01*
X67308736Y-67909245D01*
X67277685Y-67906801D01*
X67085718Y-67891693D01*
X67085709Y-67891693D01*
X67083261Y-67891500D01*
X66927729Y-67891500D01*
X66925593Y-67891646D01*
X66925582Y-67891646D01*
X66717452Y-67905835D01*
X66717446Y-67905836D01*
X66713175Y-67906127D01*
X66708980Y-67906996D01*
X66708978Y-67906996D01*
X66666050Y-67915886D01*
X66431658Y-67964426D01*
X66160657Y-68060393D01*
X66156848Y-68062359D01*
X65910160Y-68189684D01*
X65905188Y-68192250D01*
X65901687Y-68194711D01*
X65901683Y-68194713D01*
X65898651Y-68196844D01*
X65669977Y-68357559D01*
X65654892Y-68371577D01*
X65486784Y-68527793D01*
X65459378Y-68553260D01*
X65277287Y-68775732D01*
X65127073Y-69020858D01*
X65011517Y-69284102D01*
X64932756Y-69560594D01*
X64892249Y-69845216D01*
X64892227Y-69849505D01*
X64892226Y-69849512D01*
X64890852Y-70111808D01*
X64890743Y-70132703D01*
X34899547Y-70132703D01*
X34916303Y-70116005D01*
X35051458Y-69927917D01*
X35154078Y-69720280D01*
X35221408Y-69498671D01*
X35251640Y-69269041D01*
X35253327Y-69200000D01*
X35239913Y-69036837D01*
X35234773Y-68974318D01*
X35234772Y-68974312D01*
X35234349Y-68969167D01*
X35189469Y-68790492D01*
X35179184Y-68749544D01*
X35179183Y-68749540D01*
X35177925Y-68744533D01*
X35175866Y-68739797D01*
X35087630Y-68536868D01*
X35087628Y-68536865D01*
X35085570Y-68532131D01*
X34959764Y-68337665D01*
X34803887Y-68166358D01*
X34799836Y-68163159D01*
X34799832Y-68163155D01*
X34626177Y-68026011D01*
X34626172Y-68026008D01*
X34622123Y-68022810D01*
X34617607Y-68020317D01*
X34617604Y-68020315D01*
X34423879Y-67913373D01*
X34423875Y-67913371D01*
X34419355Y-67910876D01*
X34414486Y-67909152D01*
X34414482Y-67909150D01*
X34205903Y-67835288D01*
X34205899Y-67835287D01*
X34201028Y-67833562D01*
X34195935Y-67832655D01*
X34195932Y-67832654D01*
X33978095Y-67793851D01*
X33978089Y-67793850D01*
X33973006Y-67792945D01*
X33900096Y-67792054D01*
X33746581Y-67790179D01*
X33746579Y-67790179D01*
X33741411Y-67790116D01*
X33512464Y-67825150D01*
X33292314Y-67897106D01*
X33287726Y-67899494D01*
X33287722Y-67899496D01*
X33091461Y-68001663D01*
X33086872Y-68004052D01*
X33082739Y-68007155D01*
X33082736Y-68007157D01*
X32997307Y-68071299D01*
X32901655Y-68143117D01*
X32884170Y-68161414D01*
X32822646Y-68196844D01*
X32751733Y-68193387D01*
X32693947Y-68152141D01*
X32675094Y-68118592D01*
X32653768Y-68061705D01*
X32653767Y-68061703D01*
X32650615Y-68053295D01*
X32563261Y-67936739D01*
X32446705Y-67849385D01*
X32310316Y-67798255D01*
X32248134Y-67791500D01*
X30351866Y-67791500D01*
X30289684Y-67798255D01*
X30153295Y-67849385D01*
X30036739Y-67936739D01*
X29949385Y-68053295D01*
X29898255Y-68189684D01*
X29891500Y-68251866D01*
X29891500Y-70148134D01*
X25508500Y-70148134D01*
X25508500Y-65465469D01*
X42547095Y-65465469D01*
X42547392Y-65470622D01*
X42547392Y-65470625D01*
X42552727Y-65563150D01*
X42560427Y-65696697D01*
X42561564Y-65701743D01*
X42561565Y-65701749D01*
X42593741Y-65844523D01*
X42611346Y-65922642D01*
X42613288Y-65927424D01*
X42613289Y-65927428D01*
X42690248Y-66116954D01*
X42698484Y-66137237D01*
X42819501Y-66334719D01*
X42971147Y-66509784D01*
X43149349Y-66657730D01*
X43349322Y-66774584D01*
X43565694Y-66857209D01*
X43570760Y-66858240D01*
X43570761Y-66858240D01*
X43616512Y-66867548D01*
X43792656Y-66903385D01*
X43922089Y-66908131D01*
X44018949Y-66911683D01*
X44018953Y-66911683D01*
X44024113Y-66911872D01*
X44029233Y-66911216D01*
X44029235Y-66911216D01*
X44103166Y-66901745D01*
X44253847Y-66882442D01*
X44258795Y-66880957D01*
X44258802Y-66880956D01*
X44470747Y-66817369D01*
X44475690Y-66815886D01*
X44480324Y-66813616D01*
X44679049Y-66716262D01*
X44679052Y-66716260D01*
X44683684Y-66713991D01*
X44872243Y-66579494D01*
X44917309Y-66534585D01*
X44979681Y-66500669D01*
X45050487Y-66505857D01*
X45107249Y-66548503D01*
X45124231Y-66579607D01*
X45149385Y-66646705D01*
X45236739Y-66763261D01*
X45353295Y-66850615D01*
X45489684Y-66901745D01*
X45551866Y-66908500D01*
X47448134Y-66908500D01*
X47510316Y-66901745D01*
X47646705Y-66850615D01*
X47763261Y-66763261D01*
X47850615Y-66646705D01*
X47881069Y-66565469D01*
X114122095Y-66565469D01*
X114122392Y-66570622D01*
X114122392Y-66570625D01*
X114130658Y-66713991D01*
X114135427Y-66796697D01*
X114136564Y-66801743D01*
X114136565Y-66801749D01*
X114159238Y-66902355D01*
X114186346Y-67022642D01*
X114188288Y-67027424D01*
X114188289Y-67027428D01*
X114271540Y-67232450D01*
X114273484Y-67237237D01*
X114394501Y-67434719D01*
X114546147Y-67609784D01*
X114724349Y-67757730D01*
X114924322Y-67874584D01*
X114929147Y-67876426D01*
X114929148Y-67876427D01*
X114983301Y-67897106D01*
X115140694Y-67957209D01*
X115145760Y-67958240D01*
X115145761Y-67958240D01*
X115183195Y-67965856D01*
X115367656Y-68003385D01*
X115498324Y-68008176D01*
X115593949Y-68011683D01*
X115593953Y-68011683D01*
X115599113Y-68011872D01*
X115604233Y-68011216D01*
X115604235Y-68011216D01*
X115703668Y-67998478D01*
X115828847Y-67982442D01*
X115833795Y-67980957D01*
X115833802Y-67980956D01*
X116045747Y-67917369D01*
X116050690Y-67915886D01*
X116060917Y-67910876D01*
X116254049Y-67816262D01*
X116254052Y-67816260D01*
X116258684Y-67813991D01*
X116447243Y-67679494D01*
X116450898Y-67675852D01*
X116450906Y-67675845D01*
X116492697Y-67634199D01*
X116555068Y-67600282D01*
X116625875Y-67605470D01*
X116682637Y-67648116D01*
X116699619Y-67679218D01*
X116721677Y-67738056D01*
X116730214Y-67753649D01*
X116806715Y-67855724D01*
X116819276Y-67868285D01*
X116921351Y-67944786D01*
X116936946Y-67953324D01*
X117057394Y-67998478D01*
X117072649Y-68002105D01*
X117123514Y-68007631D01*
X117130328Y-68008000D01*
X117802885Y-68008000D01*
X117818124Y-68003525D01*
X117819329Y-68002135D01*
X117821000Y-67994452D01*
X117821000Y-67989884D01*
X118329000Y-67989884D01*
X118333475Y-68005123D01*
X118334865Y-68006328D01*
X118342548Y-68007999D01*
X119019669Y-68007999D01*
X119026490Y-68007629D01*
X119077352Y-68002105D01*
X119092604Y-67998479D01*
X119213054Y-67953324D01*
X119228649Y-67944786D01*
X119330724Y-67868285D01*
X119343285Y-67855724D01*
X119419786Y-67753649D01*
X119428324Y-67738054D01*
X119473478Y-67617606D01*
X119477105Y-67602351D01*
X119482631Y-67551486D01*
X119483000Y-67544672D01*
X119483000Y-66872115D01*
X119478525Y-66856876D01*
X119477135Y-66855671D01*
X119469452Y-66854000D01*
X118347115Y-66854000D01*
X118331876Y-66858475D01*
X118330671Y-66859865D01*
X118329000Y-66867548D01*
X118329000Y-67989884D01*
X117821000Y-67989884D01*
X117821000Y-66327885D01*
X118329000Y-66327885D01*
X118333475Y-66343124D01*
X118334865Y-66344329D01*
X118342548Y-66346000D01*
X119464884Y-66346000D01*
X119480123Y-66341525D01*
X119481328Y-66340135D01*
X119482999Y-66332452D01*
X119482999Y-65655331D01*
X119482629Y-65648510D01*
X119477105Y-65597648D01*
X119473479Y-65582396D01*
X119428324Y-65461946D01*
X119419786Y-65446351D01*
X119343285Y-65344276D01*
X119330724Y-65331715D01*
X119228649Y-65255214D01*
X119213054Y-65246676D01*
X119092606Y-65201522D01*
X119077351Y-65197895D01*
X119026486Y-65192369D01*
X119019672Y-65192000D01*
X118347115Y-65192000D01*
X118331876Y-65196475D01*
X118330671Y-65197865D01*
X118329000Y-65205548D01*
X118329000Y-66327885D01*
X117821000Y-66327885D01*
X117821000Y-65210116D01*
X117816525Y-65194877D01*
X117815135Y-65193672D01*
X117807452Y-65192001D01*
X117130331Y-65192001D01*
X117123510Y-65192371D01*
X117072648Y-65197895D01*
X117057396Y-65201521D01*
X116936946Y-65246676D01*
X116921351Y-65255214D01*
X116819276Y-65331715D01*
X116806715Y-65344276D01*
X116730214Y-65446351D01*
X116721675Y-65461948D01*
X116700934Y-65517275D01*
X116658293Y-65574040D01*
X116591731Y-65598740D01*
X116522383Y-65583533D01*
X116499388Y-65566909D01*
X116498887Y-65566358D01*
X116371139Y-65465469D01*
X116321177Y-65426011D01*
X116321172Y-65426008D01*
X116317123Y-65422810D01*
X116312607Y-65420317D01*
X116312604Y-65420315D01*
X116118879Y-65313373D01*
X116118875Y-65313371D01*
X116114355Y-65310876D01*
X116109486Y-65309152D01*
X116109482Y-65309150D01*
X115900903Y-65235288D01*
X115900899Y-65235287D01*
X115896028Y-65233562D01*
X115890935Y-65232655D01*
X115890932Y-65232654D01*
X115673095Y-65193851D01*
X115673089Y-65193850D01*
X115668006Y-65192945D01*
X115590644Y-65192000D01*
X115441581Y-65190179D01*
X115441579Y-65190179D01*
X115436411Y-65190116D01*
X115207464Y-65225150D01*
X114987314Y-65297106D01*
X114982726Y-65299494D01*
X114982722Y-65299496D01*
X114786461Y-65401663D01*
X114781872Y-65404052D01*
X114777739Y-65407155D01*
X114777736Y-65407157D01*
X114700072Y-65465469D01*
X114596655Y-65543117D01*
X114593083Y-65546855D01*
X114449891Y-65696697D01*
X114436639Y-65710564D01*
X114433725Y-65714836D01*
X114433724Y-65714837D01*
X114360348Y-65822402D01*
X114306119Y-65901899D01*
X114208602Y-66111981D01*
X114146707Y-66335169D01*
X114122095Y-66565469D01*
X47881069Y-66565469D01*
X47901745Y-66510316D01*
X47908500Y-66448134D01*
X47908500Y-64989469D01*
X78089095Y-64989469D01*
X78089392Y-64994622D01*
X78089392Y-64994625D01*
X78095067Y-65093041D01*
X78102427Y-65220697D01*
X78103564Y-65225743D01*
X78103565Y-65225749D01*
X78127446Y-65331715D01*
X78153346Y-65446642D01*
X78155288Y-65451424D01*
X78155289Y-65451428D01*
X78235316Y-65648510D01*
X78240484Y-65661237D01*
X78361501Y-65858719D01*
X78513147Y-66033784D01*
X78691349Y-66181730D01*
X78891322Y-66298584D01*
X79107694Y-66381209D01*
X79112760Y-66382240D01*
X79112761Y-66382240D01*
X79165846Y-66393040D01*
X79334656Y-66427385D01*
X79465324Y-66432176D01*
X79560949Y-66435683D01*
X79560953Y-66435683D01*
X79566113Y-66435872D01*
X79571233Y-66435216D01*
X79571235Y-66435216D01*
X79644270Y-66425860D01*
X79795847Y-66406442D01*
X79800795Y-66404957D01*
X79800802Y-66404956D01*
X80012747Y-66341369D01*
X80017690Y-66339886D01*
X80027319Y-66335169D01*
X80221049Y-66240262D01*
X80221052Y-66240260D01*
X80225684Y-66237991D01*
X80414243Y-66103494D01*
X80578303Y-65940005D01*
X80587341Y-65927428D01*
X80639875Y-65854318D01*
X80713458Y-65751917D01*
X80738253Y-65701749D01*
X80813784Y-65548922D01*
X80813785Y-65548920D01*
X80816078Y-65544280D01*
X80883408Y-65322671D01*
X80913640Y-65093041D01*
X80915327Y-65024000D01*
X80909032Y-64947434D01*
X80896773Y-64798318D01*
X80896772Y-64798312D01*
X80896349Y-64793167D01*
X80851556Y-64614837D01*
X80841184Y-64573544D01*
X80841183Y-64573540D01*
X80839925Y-64568533D01*
X80831201Y-64548469D01*
X80749630Y-64360868D01*
X80749628Y-64360865D01*
X80747570Y-64356131D01*
X80621764Y-64161665D01*
X80597104Y-64134564D01*
X80531848Y-64062848D01*
X80500796Y-63999002D01*
X80509192Y-63928504D01*
X80554369Y-63873736D01*
X80580812Y-63860067D01*
X80640297Y-63837767D01*
X80648705Y-63834615D01*
X80765261Y-63747261D01*
X80852615Y-63630705D01*
X80903745Y-63494316D01*
X80910500Y-63432134D01*
X80910500Y-61535866D01*
X80903745Y-61473684D01*
X80852615Y-61337295D01*
X80765261Y-61220739D01*
X80648705Y-61133385D01*
X80512316Y-61082255D01*
X80450134Y-61075500D01*
X78553866Y-61075500D01*
X78491684Y-61082255D01*
X78355295Y-61133385D01*
X78238739Y-61220739D01*
X78151385Y-61337295D01*
X78100255Y-61473684D01*
X78093500Y-61535866D01*
X78093500Y-63432134D01*
X78100255Y-63494316D01*
X78151385Y-63630705D01*
X78238739Y-63747261D01*
X78355295Y-63834615D01*
X78363704Y-63837767D01*
X78363705Y-63837768D01*
X78423164Y-63860058D01*
X78479929Y-63902699D01*
X78504629Y-63969261D01*
X78489422Y-64038609D01*
X78470029Y-64065091D01*
X78411100Y-64126757D01*
X78403639Y-64134564D01*
X78400725Y-64138836D01*
X78400724Y-64138837D01*
X78385152Y-64161665D01*
X78273119Y-64325899D01*
X78175602Y-64535981D01*
X78113707Y-64759169D01*
X78089095Y-64989469D01*
X47908500Y-64989469D01*
X47908500Y-64551866D01*
X47901745Y-64489684D01*
X47850615Y-64353295D01*
X47763261Y-64236739D01*
X47646705Y-64149385D01*
X47510316Y-64098255D01*
X47448134Y-64091500D01*
X45551866Y-64091500D01*
X45489684Y-64098255D01*
X45353295Y-64149385D01*
X45236739Y-64236739D01*
X45149385Y-64353295D01*
X45146233Y-64361703D01*
X45146232Y-64361705D01*
X45125538Y-64416906D01*
X45082897Y-64473671D01*
X45016335Y-64498371D01*
X44946986Y-64483164D01*
X44924167Y-64466666D01*
X44923887Y-64466358D01*
X44791373Y-64361705D01*
X44746177Y-64326011D01*
X44746172Y-64326008D01*
X44742123Y-64322810D01*
X44737607Y-64320317D01*
X44737604Y-64320315D01*
X44543879Y-64213373D01*
X44543875Y-64213371D01*
X44539355Y-64210876D01*
X44534486Y-64209152D01*
X44534482Y-64209150D01*
X44325903Y-64135288D01*
X44325899Y-64135287D01*
X44321028Y-64133562D01*
X44315935Y-64132655D01*
X44315932Y-64132654D01*
X44098095Y-64093851D01*
X44098089Y-64093850D01*
X44093006Y-64092945D01*
X44020096Y-64092054D01*
X43866581Y-64090179D01*
X43866579Y-64090179D01*
X43861411Y-64090116D01*
X43632464Y-64125150D01*
X43412314Y-64197106D01*
X43407726Y-64199494D01*
X43407722Y-64199496D01*
X43211461Y-64301663D01*
X43206872Y-64304052D01*
X43202739Y-64307155D01*
X43202736Y-64307157D01*
X43025790Y-64440012D01*
X43021655Y-64443117D01*
X43018083Y-64446855D01*
X42906331Y-64563797D01*
X42861639Y-64610564D01*
X42731119Y-64801899D01*
X42633602Y-65011981D01*
X42571707Y-65235169D01*
X42547095Y-65465469D01*
X25508500Y-65465469D01*
X25508500Y-50765469D01*
X62849095Y-50765469D01*
X62849392Y-50770622D01*
X62849392Y-50770625D01*
X62855067Y-50869041D01*
X62862427Y-50996697D01*
X62863564Y-51001743D01*
X62863565Y-51001749D01*
X62895741Y-51144523D01*
X62913346Y-51222642D01*
X62915288Y-51227424D01*
X62915289Y-51227428D01*
X62998540Y-51432450D01*
X63000484Y-51437237D01*
X63121501Y-51634719D01*
X63273147Y-51809784D01*
X63451349Y-51957730D01*
X63651322Y-52074584D01*
X63867694Y-52157209D01*
X63872760Y-52158240D01*
X63872761Y-52158240D01*
X63925846Y-52169040D01*
X64094656Y-52203385D01*
X64224089Y-52208131D01*
X64320949Y-52211683D01*
X64320953Y-52211683D01*
X64326113Y-52211872D01*
X64331233Y-52211216D01*
X64331235Y-52211216D01*
X64405166Y-52201745D01*
X64555847Y-52182442D01*
X64560795Y-52180957D01*
X64560802Y-52180956D01*
X64772747Y-52117369D01*
X64777690Y-52115886D01*
X64858236Y-52076427D01*
X64981049Y-52016262D01*
X64981052Y-52016260D01*
X64985684Y-52013991D01*
X65174243Y-51879494D01*
X65338303Y-51716005D01*
X65473458Y-51527917D01*
X65520641Y-51432450D01*
X65573784Y-51324922D01*
X65573785Y-51324920D01*
X65576078Y-51320280D01*
X65643408Y-51098671D01*
X65673640Y-50869041D01*
X65675327Y-50800000D01*
X65669032Y-50723434D01*
X65656773Y-50574318D01*
X65656772Y-50574312D01*
X65656349Y-50569167D01*
X65599925Y-50344533D01*
X65597164Y-50338182D01*
X65509630Y-50136868D01*
X65509628Y-50136865D01*
X65507570Y-50132131D01*
X65381764Y-49937665D01*
X65353704Y-49906827D01*
X65291848Y-49838848D01*
X65260796Y-49775002D01*
X65269192Y-49704504D01*
X65314369Y-49649736D01*
X65340812Y-49636067D01*
X65400297Y-49613767D01*
X65408705Y-49610615D01*
X65525261Y-49523261D01*
X65612615Y-49406705D01*
X65663745Y-49270316D01*
X65670500Y-49208134D01*
X65670500Y-48225469D01*
X86471095Y-48225469D01*
X86471392Y-48230622D01*
X86471392Y-48230625D01*
X86477067Y-48329041D01*
X86484427Y-48456697D01*
X86485564Y-48461743D01*
X86485565Y-48461749D01*
X86517741Y-48604523D01*
X86535346Y-48682642D01*
X86537288Y-48687424D01*
X86537289Y-48687428D01*
X86620540Y-48892450D01*
X86622484Y-48897237D01*
X86743501Y-49094719D01*
X86746882Y-49098622D01*
X86855304Y-49223788D01*
X86884786Y-49288373D01*
X86874671Y-49358646D01*
X86828170Y-49412294D01*
X86804296Y-49424267D01*
X86748515Y-49445179D01*
X86737295Y-49449385D01*
X86620739Y-49536739D01*
X86533385Y-49653295D01*
X86482255Y-49789684D01*
X86475500Y-49851866D01*
X86475500Y-51748134D01*
X86482255Y-51810316D01*
X86533385Y-51946705D01*
X86620739Y-52063261D01*
X86737295Y-52150615D01*
X86873684Y-52201745D01*
X86935866Y-52208500D01*
X88832134Y-52208500D01*
X88894316Y-52201745D01*
X89030705Y-52150615D01*
X89147261Y-52063261D01*
X89234615Y-51946705D01*
X89285745Y-51810316D01*
X89292500Y-51748134D01*
X89292500Y-49851866D01*
X89285745Y-49789684D01*
X89234615Y-49653295D01*
X89147261Y-49536739D01*
X89030705Y-49449385D01*
X89022296Y-49446233D01*
X89022295Y-49446232D01*
X88963804Y-49424305D01*
X88907039Y-49381664D01*
X88882339Y-49315103D01*
X88897546Y-49245754D01*
X88919093Y-49217073D01*
X88956636Y-49179660D01*
X88956640Y-49179655D01*
X88960303Y-49176005D01*
X89095458Y-48987917D01*
X89142641Y-48892450D01*
X89195784Y-48784922D01*
X89195785Y-48784920D01*
X89198078Y-48780280D01*
X89265408Y-48558671D01*
X89295640Y-48329041D01*
X89297327Y-48260000D01*
X89288926Y-48157821D01*
X102491500Y-48157821D01*
X102531060Y-48470975D01*
X102609557Y-48776702D01*
X102611010Y-48780371D01*
X102611010Y-48780372D01*
X102694846Y-48992116D01*
X102725753Y-49070179D01*
X102727659Y-49073647D01*
X102727660Y-49073648D01*
X102839848Y-49277715D01*
X102877816Y-49346779D01*
X103063346Y-49602140D01*
X103279418Y-49832233D01*
X103282469Y-49834757D01*
X103282470Y-49834758D01*
X103369586Y-49906827D01*
X103522625Y-50033432D01*
X103789131Y-50202562D01*
X103792710Y-50204246D01*
X103792717Y-50204250D01*
X104071144Y-50335267D01*
X104071148Y-50335269D01*
X104074734Y-50336956D01*
X104078506Y-50338182D01*
X104078507Y-50338182D01*
X104113476Y-50349544D01*
X104374928Y-50434495D01*
X104684980Y-50493641D01*
X104921162Y-50508500D01*
X105078838Y-50508500D01*
X105315020Y-50493641D01*
X105625072Y-50434495D01*
X105886524Y-50349544D01*
X105921493Y-50338182D01*
X105921494Y-50338182D01*
X105925266Y-50336956D01*
X105928852Y-50335269D01*
X105928856Y-50335267D01*
X106207283Y-50204250D01*
X106207290Y-50204246D01*
X106210869Y-50202562D01*
X106477375Y-50033432D01*
X106630414Y-49906827D01*
X106717530Y-49834758D01*
X106717531Y-49834757D01*
X106720582Y-49832233D01*
X106936654Y-49602140D01*
X107122184Y-49346779D01*
X107160153Y-49277715D01*
X107272340Y-49073648D01*
X107272341Y-49073647D01*
X107274247Y-49070179D01*
X107305155Y-48992116D01*
X107388990Y-48780372D01*
X107388990Y-48780371D01*
X107390443Y-48776702D01*
X107468940Y-48470975D01*
X107508500Y-48157821D01*
X107508500Y-47842179D01*
X107468940Y-47529025D01*
X107390443Y-47223298D01*
X107346890Y-47113295D01*
X107275702Y-46933495D01*
X107275700Y-46933490D01*
X107274247Y-46929821D01*
X107231392Y-46851869D01*
X107124093Y-46656693D01*
X107124091Y-46656690D01*
X107122184Y-46653221D01*
X106936654Y-46397860D01*
X106720582Y-46167767D01*
X106477375Y-45966568D01*
X106210869Y-45797438D01*
X106207290Y-45795754D01*
X106207283Y-45795750D01*
X105928856Y-45664733D01*
X105928852Y-45664731D01*
X105925266Y-45663044D01*
X105625072Y-45565505D01*
X105315020Y-45506359D01*
X105078838Y-45491500D01*
X104921162Y-45491500D01*
X104684980Y-45506359D01*
X104374928Y-45565505D01*
X104074734Y-45663044D01*
X104071148Y-45664731D01*
X104071144Y-45664733D01*
X103792717Y-45795750D01*
X103792710Y-45795754D01*
X103789131Y-45797438D01*
X103522625Y-45966568D01*
X103279418Y-46167767D01*
X103063346Y-46397860D01*
X102877816Y-46653221D01*
X102875909Y-46656690D01*
X102875907Y-46656693D01*
X102768608Y-46851869D01*
X102725753Y-46929821D01*
X102724300Y-46933490D01*
X102724298Y-46933495D01*
X102653110Y-47113295D01*
X102609557Y-47223298D01*
X102531060Y-47529025D01*
X102491500Y-47842179D01*
X102491500Y-48157821D01*
X89288926Y-48157821D01*
X89288601Y-48153862D01*
X89278773Y-48034318D01*
X89278772Y-48034312D01*
X89278349Y-48029167D01*
X89250137Y-47916850D01*
X89223184Y-47809544D01*
X89223183Y-47809540D01*
X89221925Y-47804533D01*
X89219866Y-47799797D01*
X89131630Y-47596868D01*
X89131628Y-47596865D01*
X89129570Y-47592131D01*
X89003764Y-47397665D01*
X88847887Y-47226358D01*
X88843836Y-47223159D01*
X88843832Y-47223155D01*
X88670177Y-47086011D01*
X88670172Y-47086008D01*
X88666123Y-47082810D01*
X88661607Y-47080317D01*
X88661604Y-47080315D01*
X88467879Y-46973373D01*
X88467875Y-46973371D01*
X88463355Y-46970876D01*
X88458486Y-46969152D01*
X88458482Y-46969150D01*
X88249903Y-46895288D01*
X88249899Y-46895287D01*
X88245028Y-46893562D01*
X88239935Y-46892655D01*
X88239932Y-46892654D01*
X88022095Y-46853851D01*
X88022089Y-46853850D01*
X88017006Y-46852945D01*
X87944096Y-46852054D01*
X87790581Y-46850179D01*
X87790579Y-46850179D01*
X87785411Y-46850116D01*
X87556464Y-46885150D01*
X87336314Y-46957106D01*
X87331726Y-46959494D01*
X87331722Y-46959496D01*
X87135461Y-47061663D01*
X87130872Y-47064052D01*
X87126739Y-47067155D01*
X87126736Y-47067157D01*
X87054088Y-47121703D01*
X86945655Y-47203117D01*
X86785639Y-47370564D01*
X86782725Y-47374836D01*
X86782724Y-47374837D01*
X86767152Y-47397665D01*
X86655119Y-47561899D01*
X86557602Y-47771981D01*
X86495707Y-47995169D01*
X86471095Y-48225469D01*
X65670500Y-48225469D01*
X65670500Y-47311866D01*
X65663745Y-47249684D01*
X65612615Y-47113295D01*
X65525261Y-46996739D01*
X65408705Y-46909385D01*
X65272316Y-46858255D01*
X65210134Y-46851500D01*
X63313866Y-46851500D01*
X63251684Y-46858255D01*
X63115295Y-46909385D01*
X62998739Y-46996739D01*
X62911385Y-47113295D01*
X62860255Y-47249684D01*
X62853500Y-47311866D01*
X62853500Y-49208134D01*
X62860255Y-49270316D01*
X62911385Y-49406705D01*
X62998739Y-49523261D01*
X63115295Y-49610615D01*
X63123704Y-49613767D01*
X63123705Y-49613768D01*
X63183164Y-49636058D01*
X63239929Y-49678699D01*
X63264629Y-49745261D01*
X63249422Y-49814609D01*
X63230029Y-49841091D01*
X63163639Y-49910564D01*
X63160725Y-49914836D01*
X63160724Y-49914837D01*
X63145152Y-49937665D01*
X63033119Y-50101899D01*
X62935602Y-50311981D01*
X62873707Y-50535169D01*
X62849095Y-50765469D01*
X25508500Y-50765469D01*
X25508500Y-48157821D01*
X41491500Y-48157821D01*
X41531060Y-48470975D01*
X41609557Y-48776702D01*
X41611010Y-48780371D01*
X41611010Y-48780372D01*
X41694846Y-48992116D01*
X41725753Y-49070179D01*
X41727659Y-49073647D01*
X41727660Y-49073648D01*
X41839848Y-49277715D01*
X41877816Y-49346779D01*
X42063346Y-49602140D01*
X42279418Y-49832233D01*
X42282469Y-49834757D01*
X42282470Y-49834758D01*
X42369586Y-49906827D01*
X42522625Y-50033432D01*
X42789131Y-50202562D01*
X42792710Y-50204246D01*
X42792717Y-50204250D01*
X43071144Y-50335267D01*
X43071148Y-50335269D01*
X43074734Y-50336956D01*
X43078506Y-50338182D01*
X43078507Y-50338182D01*
X43113476Y-50349544D01*
X43374928Y-50434495D01*
X43684980Y-50493641D01*
X43921162Y-50508500D01*
X44078838Y-50508500D01*
X44315020Y-50493641D01*
X44625072Y-50434495D01*
X44886524Y-50349544D01*
X44921493Y-50338182D01*
X44921494Y-50338182D01*
X44925266Y-50336956D01*
X44928852Y-50335269D01*
X44928856Y-50335267D01*
X45207283Y-50204250D01*
X45207290Y-50204246D01*
X45210869Y-50202562D01*
X45477375Y-50033432D01*
X45630414Y-49906827D01*
X45717530Y-49834758D01*
X45717531Y-49834757D01*
X45720582Y-49832233D01*
X45936654Y-49602140D01*
X46122184Y-49346779D01*
X46160153Y-49277715D01*
X46272340Y-49073648D01*
X46272341Y-49073647D01*
X46274247Y-49070179D01*
X46305155Y-48992116D01*
X46388990Y-48780372D01*
X46388990Y-48780371D01*
X46390443Y-48776702D01*
X46468940Y-48470975D01*
X46508500Y-48157821D01*
X46508500Y-47842179D01*
X46468940Y-47529025D01*
X46390443Y-47223298D01*
X46346890Y-47113295D01*
X46275702Y-46933495D01*
X46275700Y-46933490D01*
X46274247Y-46929821D01*
X46231392Y-46851869D01*
X46124093Y-46656693D01*
X46124091Y-46656690D01*
X46122184Y-46653221D01*
X45936654Y-46397860D01*
X45720582Y-46167767D01*
X45477375Y-45966568D01*
X45210869Y-45797438D01*
X45207290Y-45795754D01*
X45207283Y-45795750D01*
X44928856Y-45664733D01*
X44928852Y-45664731D01*
X44925266Y-45663044D01*
X44625072Y-45565505D01*
X44315020Y-45506359D01*
X44078838Y-45491500D01*
X43921162Y-45491500D01*
X43684980Y-45506359D01*
X43374928Y-45565505D01*
X43074734Y-45663044D01*
X43071148Y-45664731D01*
X43071144Y-45664733D01*
X42792717Y-45795750D01*
X42792710Y-45795754D01*
X42789131Y-45797438D01*
X42522625Y-45966568D01*
X42279418Y-46167767D01*
X42063346Y-46397860D01*
X41877816Y-46653221D01*
X41875909Y-46656690D01*
X41875907Y-46656693D01*
X41768608Y-46851869D01*
X41725753Y-46929821D01*
X41724300Y-46933490D01*
X41724298Y-46933495D01*
X41653110Y-47113295D01*
X41609557Y-47223298D01*
X41531060Y-47529025D01*
X41491500Y-47842179D01*
X41491500Y-48157821D01*
X25508500Y-48157821D01*
X25508500Y-30157821D01*
X27491500Y-30157821D01*
X27531060Y-30470975D01*
X27609557Y-30776702D01*
X27611010Y-30780371D01*
X27611010Y-30780372D01*
X27648396Y-30874797D01*
X27725753Y-31070179D01*
X27727659Y-31073647D01*
X27727660Y-31073648D01*
X27869497Y-31331646D01*
X27877816Y-31346779D01*
X28063346Y-31602140D01*
X28279418Y-31832233D01*
X28522625Y-32033432D01*
X28789131Y-32202562D01*
X28792710Y-32204246D01*
X28792717Y-32204250D01*
X29071144Y-32335267D01*
X29071148Y-32335269D01*
X29074734Y-32336956D01*
X29078506Y-32338182D01*
X29078507Y-32338182D01*
X29156037Y-32363373D01*
X29374928Y-32434495D01*
X29684980Y-32493641D01*
X29921162Y-32508500D01*
X30078838Y-32508500D01*
X30315020Y-32493641D01*
X30625072Y-32434495D01*
X30843963Y-32363373D01*
X30921493Y-32338182D01*
X30921494Y-32338182D01*
X30925266Y-32336956D01*
X30928852Y-32335269D01*
X30928856Y-32335267D01*
X31207283Y-32204250D01*
X31207290Y-32204246D01*
X31210869Y-32202562D01*
X31477375Y-32033432D01*
X31720582Y-31832233D01*
X31936654Y-31602140D01*
X32122184Y-31346779D01*
X32130504Y-31331646D01*
X32272340Y-31073648D01*
X32272341Y-31073647D01*
X32274247Y-31070179D01*
X32351605Y-30874797D01*
X32388990Y-30780372D01*
X32388990Y-30780371D01*
X32390443Y-30776702D01*
X32468940Y-30470975D01*
X32508500Y-30157821D01*
X32508500Y-29842179D01*
X32468940Y-29529025D01*
X32390443Y-29223298D01*
X32274247Y-28929821D01*
X32234047Y-28856697D01*
X32124093Y-28656693D01*
X32124091Y-28656690D01*
X32122184Y-28653221D01*
X32102021Y-28625469D01*
X52787095Y-28625469D01*
X52787392Y-28630622D01*
X52787392Y-28630625D01*
X52793067Y-28729041D01*
X52800427Y-28856697D01*
X52801564Y-28861743D01*
X52801565Y-28861749D01*
X52833741Y-29004523D01*
X52851346Y-29082642D01*
X52853288Y-29087424D01*
X52853289Y-29087428D01*
X52906970Y-29219628D01*
X52938484Y-29297237D01*
X53059501Y-29494719D01*
X53062882Y-29498622D01*
X53171304Y-29623788D01*
X53200786Y-29688373D01*
X53190671Y-29758646D01*
X53144170Y-29812294D01*
X53120296Y-29824267D01*
X53072517Y-29842179D01*
X53053295Y-29849385D01*
X52936739Y-29936739D01*
X52849385Y-30053295D01*
X52798255Y-30189684D01*
X52791500Y-30251866D01*
X52791500Y-32148134D01*
X52798255Y-32210316D01*
X52849385Y-32346705D01*
X52936739Y-32463261D01*
X53053295Y-32550615D01*
X53189684Y-32601745D01*
X53251866Y-32608500D01*
X55148134Y-32608500D01*
X55210316Y-32601745D01*
X55346705Y-32550615D01*
X55463261Y-32463261D01*
X55550615Y-32346705D01*
X55601745Y-32210316D01*
X55608500Y-32148134D01*
X55608500Y-31300469D01*
X96312095Y-31300469D01*
X96312392Y-31305622D01*
X96312392Y-31305625D01*
X96318067Y-31404041D01*
X96325427Y-31531697D01*
X96326564Y-31536743D01*
X96326565Y-31536749D01*
X96358741Y-31679523D01*
X96376346Y-31757642D01*
X96378288Y-31762424D01*
X96378289Y-31762428D01*
X96461540Y-31967450D01*
X96463484Y-31972237D01*
X96584501Y-32169719D01*
X96614413Y-32204250D01*
X96696304Y-32298788D01*
X96725786Y-32363373D01*
X96715671Y-32433646D01*
X96669170Y-32487294D01*
X96645296Y-32499267D01*
X96621004Y-32508374D01*
X96578295Y-32524385D01*
X96461739Y-32611739D01*
X96374385Y-32728295D01*
X96323255Y-32864684D01*
X96316500Y-32926866D01*
X96316500Y-34823134D01*
X96323255Y-34885316D01*
X96374385Y-35021705D01*
X96461739Y-35138261D01*
X96578295Y-35225615D01*
X96714684Y-35276745D01*
X96776866Y-35283500D01*
X98673134Y-35283500D01*
X98735316Y-35276745D01*
X98871705Y-35225615D01*
X98988261Y-35138261D01*
X99075615Y-35021705D01*
X99126745Y-34885316D01*
X99133500Y-34823134D01*
X99133500Y-32926866D01*
X99126745Y-32864684D01*
X99075615Y-32728295D01*
X98988261Y-32611739D01*
X98871705Y-32524385D01*
X98863296Y-32521233D01*
X98863295Y-32521232D01*
X98804804Y-32499305D01*
X98748039Y-32456664D01*
X98723339Y-32390103D01*
X98738546Y-32320754D01*
X98760093Y-32292073D01*
X98797636Y-32254660D01*
X98797640Y-32254655D01*
X98801303Y-32251005D01*
X98936458Y-32062917D01*
X98951031Y-32033432D01*
X99036784Y-31859922D01*
X99036785Y-31859920D01*
X99039078Y-31855280D01*
X99106408Y-31633671D01*
X99136640Y-31404041D01*
X99138327Y-31335000D01*
X99132032Y-31258434D01*
X99119773Y-31109318D01*
X99119772Y-31109312D01*
X99119349Y-31104167D01*
X99062925Y-30879533D01*
X99060866Y-30874797D01*
X98972630Y-30671868D01*
X98972628Y-30671865D01*
X98970570Y-30667131D01*
X98844764Y-30472665D01*
X98688887Y-30301358D01*
X98684836Y-30298159D01*
X98684832Y-30298155D01*
X98511177Y-30161011D01*
X98511172Y-30161008D01*
X98507137Y-30157821D01*
X118491500Y-30157821D01*
X118531060Y-30470975D01*
X118609557Y-30776702D01*
X118611010Y-30780371D01*
X118611010Y-30780372D01*
X118648396Y-30874797D01*
X118725753Y-31070179D01*
X118727659Y-31073647D01*
X118727660Y-31073648D01*
X118869497Y-31331646D01*
X118877816Y-31346779D01*
X119063346Y-31602140D01*
X119279418Y-31832233D01*
X119522625Y-32033432D01*
X119789131Y-32202562D01*
X119792710Y-32204246D01*
X119792717Y-32204250D01*
X120071144Y-32335267D01*
X120071148Y-32335269D01*
X120074734Y-32336956D01*
X120078506Y-32338182D01*
X120078507Y-32338182D01*
X120156037Y-32363373D01*
X120374928Y-32434495D01*
X120684980Y-32493641D01*
X120921162Y-32508500D01*
X121078838Y-32508500D01*
X121315020Y-32493641D01*
X121625072Y-32434495D01*
X121843963Y-32363373D01*
X121921493Y-32338182D01*
X121921494Y-32338182D01*
X121925266Y-32336956D01*
X121928852Y-32335269D01*
X121928856Y-32335267D01*
X122207283Y-32204250D01*
X122207290Y-32204246D01*
X122210869Y-32202562D01*
X122477375Y-32033432D01*
X122720582Y-31832233D01*
X122936654Y-31602140D01*
X123122184Y-31346779D01*
X123130504Y-31331646D01*
X123272340Y-31073648D01*
X123272341Y-31073647D01*
X123274247Y-31070179D01*
X123351605Y-30874797D01*
X123388990Y-30780372D01*
X123388990Y-30780371D01*
X123390443Y-30776702D01*
X123468940Y-30470975D01*
X123508500Y-30157821D01*
X123508500Y-29842179D01*
X123468940Y-29529025D01*
X123390443Y-29223298D01*
X123274247Y-28929821D01*
X123234047Y-28856697D01*
X123124093Y-28656693D01*
X123124091Y-28656690D01*
X123122184Y-28653221D01*
X122936654Y-28397860D01*
X122720582Y-28167767D01*
X122477375Y-27966568D01*
X122210869Y-27797438D01*
X122207290Y-27795754D01*
X122207283Y-27795750D01*
X121928856Y-27664733D01*
X121928852Y-27664731D01*
X121925266Y-27663044D01*
X121625072Y-27565505D01*
X121315020Y-27506359D01*
X121078838Y-27491500D01*
X120921162Y-27491500D01*
X120684980Y-27506359D01*
X120374928Y-27565505D01*
X120074734Y-27663044D01*
X120071148Y-27664731D01*
X120071144Y-27664733D01*
X119792717Y-27795750D01*
X119792710Y-27795754D01*
X119789131Y-27797438D01*
X119522625Y-27966568D01*
X119279418Y-28167767D01*
X119063346Y-28397860D01*
X118877816Y-28653221D01*
X118875909Y-28656690D01*
X118875907Y-28656693D01*
X118765953Y-28856697D01*
X118725753Y-28929821D01*
X118609557Y-29223298D01*
X118531060Y-29529025D01*
X118491500Y-29842179D01*
X118491500Y-30157821D01*
X98507137Y-30157821D01*
X98507123Y-30157810D01*
X98502607Y-30155317D01*
X98502604Y-30155315D01*
X98308879Y-30048373D01*
X98308875Y-30048371D01*
X98304355Y-30045876D01*
X98299486Y-30044152D01*
X98299482Y-30044150D01*
X98090903Y-29970288D01*
X98090899Y-29970287D01*
X98086028Y-29968562D01*
X98080935Y-29967655D01*
X98080932Y-29967654D01*
X97863095Y-29928851D01*
X97863089Y-29928850D01*
X97858006Y-29927945D01*
X97785096Y-29927054D01*
X97631581Y-29925179D01*
X97631579Y-29925179D01*
X97626411Y-29925116D01*
X97397464Y-29960150D01*
X97177314Y-30032106D01*
X97172726Y-30034494D01*
X97172722Y-30034496D01*
X96976461Y-30136663D01*
X96971872Y-30139052D01*
X96967739Y-30142155D01*
X96967736Y-30142157D01*
X96893973Y-30197540D01*
X96786655Y-30278117D01*
X96626639Y-30445564D01*
X96623725Y-30449836D01*
X96623724Y-30449837D01*
X96609305Y-30470975D01*
X96496119Y-30636899D01*
X96398602Y-30846981D01*
X96336707Y-31070169D01*
X96312095Y-31300469D01*
X55608500Y-31300469D01*
X55608500Y-30251866D01*
X55601745Y-30189684D01*
X55550615Y-30053295D01*
X55463261Y-29936739D01*
X55346705Y-29849385D01*
X55338296Y-29846233D01*
X55338295Y-29846232D01*
X55279804Y-29824305D01*
X55223039Y-29781664D01*
X55198339Y-29715103D01*
X55213546Y-29645754D01*
X55235093Y-29617073D01*
X55272636Y-29579660D01*
X55272640Y-29579655D01*
X55276303Y-29576005D01*
X55411458Y-29387917D01*
X55458641Y-29292450D01*
X55511784Y-29184922D01*
X55511785Y-29184920D01*
X55514078Y-29180280D01*
X55581408Y-28958671D01*
X55611640Y-28729041D01*
X55613327Y-28660000D01*
X55607032Y-28583434D01*
X55594773Y-28434318D01*
X55594772Y-28434312D01*
X55594349Y-28429167D01*
X55537925Y-28204533D01*
X55535866Y-28199797D01*
X55447630Y-27996868D01*
X55447628Y-27996865D01*
X55445570Y-27992131D01*
X55319764Y-27797665D01*
X55163887Y-27626358D01*
X55159836Y-27623159D01*
X55159832Y-27623155D01*
X54986177Y-27486011D01*
X54986172Y-27486008D01*
X54982123Y-27482810D01*
X54977607Y-27480317D01*
X54977604Y-27480315D01*
X54783879Y-27373373D01*
X54783875Y-27373371D01*
X54779355Y-27370876D01*
X54774486Y-27369152D01*
X54774482Y-27369150D01*
X54565903Y-27295288D01*
X54565899Y-27295287D01*
X54561028Y-27293562D01*
X54555935Y-27292655D01*
X54555932Y-27292654D01*
X54338095Y-27253851D01*
X54338089Y-27253850D01*
X54333006Y-27252945D01*
X54260096Y-27252054D01*
X54106581Y-27250179D01*
X54106579Y-27250179D01*
X54101411Y-27250116D01*
X53872464Y-27285150D01*
X53652314Y-27357106D01*
X53647726Y-27359494D01*
X53647722Y-27359496D01*
X53621065Y-27373373D01*
X53446872Y-27464052D01*
X53442739Y-27467155D01*
X53442736Y-27467157D01*
X53312740Y-27564761D01*
X53261655Y-27603117D01*
X53101639Y-27770564D01*
X53098725Y-27774836D01*
X53098724Y-27774837D01*
X53084458Y-27795750D01*
X52971119Y-27961899D01*
X52873602Y-28171981D01*
X52811707Y-28395169D01*
X52787095Y-28625469D01*
X32102021Y-28625469D01*
X31936654Y-28397860D01*
X31720582Y-28167767D01*
X31477375Y-27966568D01*
X31210869Y-27797438D01*
X31207290Y-27795754D01*
X31207283Y-27795750D01*
X30928856Y-27664733D01*
X30928852Y-27664731D01*
X30925266Y-27663044D01*
X30625072Y-27565505D01*
X30315020Y-27506359D01*
X30078838Y-27491500D01*
X29921162Y-27491500D01*
X29684980Y-27506359D01*
X29374928Y-27565505D01*
X29074734Y-27663044D01*
X29071148Y-27664731D01*
X29071144Y-27664733D01*
X28792717Y-27795750D01*
X28792710Y-27795754D01*
X28789131Y-27797438D01*
X28522625Y-27966568D01*
X28279418Y-28167767D01*
X28063346Y-28397860D01*
X27877816Y-28653221D01*
X27875909Y-28656690D01*
X27875907Y-28656693D01*
X27765953Y-28856697D01*
X27725753Y-28929821D01*
X27609557Y-29223298D01*
X27531060Y-29529025D01*
X27491500Y-29842179D01*
X27491500Y-30157821D01*
X25508500Y-30157821D01*
X25508500Y-25634500D01*
X25528502Y-25566379D01*
X25582158Y-25519886D01*
X25634500Y-25508500D01*
X124365500Y-25508500D01*
X124433621Y-25528502D01*
G37*
%TD.AperFunction*%
%TD*%
M02*
