%TF.GenerationSoftware,KiCad,Pcbnew,(6.0.11)*%
%TF.CreationDate,2023-05-29T13:54:52-05:00*%
%TF.ProjectId,LEDpanel,4c454470-616e-4656-9c2e-6b696361645f,rev?*%
%TF.SameCoordinates,Original*%
%TF.FileFunction,Legend,Top*%
%TF.FilePolarity,Positive*%
%FSLAX46Y46*%
G04 Gerber Fmt 4.6, Leading zero omitted, Abs format (unit mm)*
G04 Created by KiCad (PCBNEW (6.0.11)) date 2023-05-29 13:54:52*
%MOMM*%
%LPD*%
G01*
G04 APERTURE LIST*
G04 Aperture macros list*
%AMRoundRect*
0 Rectangle with rounded corners*
0 $1 Rounding radius*
0 $2 $3 $4 $5 $6 $7 $8 $9 X,Y pos of 4 corners*
0 Add a 4 corners polygon primitive as box body*
4,1,4,$2,$3,$4,$5,$6,$7,$8,$9,$2,$3,0*
0 Add four circle primitives for the rounded corners*
1,1,$1+$1,$2,$3*
1,1,$1+$1,$4,$5*
1,1,$1+$1,$6,$7*
1,1,$1+$1,$8,$9*
0 Add four rect primitives between the rounded corners*
20,1,$1+$1,$2,$3,$4,$5,0*
20,1,$1+$1,$4,$5,$6,$7,0*
20,1,$1+$1,$6,$7,$8,$9,0*
20,1,$1+$1,$8,$9,$2,$3,0*%
G04 Aperture macros list end*
%ADD10C,0.150000*%
%ADD11C,0.120000*%
%ADD12R,2.200000X1.200000*%
%ADD13R,6.400000X5.800000*%
%ADD14R,1.350000X5.000000*%
%ADD15R,1.300000X5.000000*%
%ADD16R,1.800000X1.800000*%
%ADD17C,1.800000*%
%ADD18RoundRect,0.250000X-0.325000X-0.450000X0.325000X-0.450000X0.325000X0.450000X-0.325000X0.450000X0*%
%ADD19R,5.000000X1.350000*%
%ADD20R,5.000000X1.300000*%
%ADD21R,3.500000X3.500000*%
%ADD22RoundRect,0.750000X1.000000X-0.750000X1.000000X0.750000X-1.000000X0.750000X-1.000000X-0.750000X0*%
%ADD23RoundRect,0.875000X0.875000X-0.875000X0.875000X0.875000X-0.875000X0.875000X-0.875000X-0.875000X0*%
%ADD24C,3.200000*%
%ADD25RoundRect,0.250000X-0.450000X0.325000X-0.450000X-0.325000X0.450000X-0.325000X0.450000X0.325000X0*%
%ADD26R,2.200000X2.500000*%
%ADD27R,2.200000X1.550000*%
%ADD28C,4.000000*%
%ADD29R,2.500000X2.200000*%
%ADD30R,1.550000X2.200000*%
%ADD31R,2.600000X2.600000*%
%ADD32C,2.600000*%
%ADD33RoundRect,0.250000X-0.350000X-0.450000X0.350000X-0.450000X0.350000X0.450000X-0.350000X0.450000X0*%
%ADD34RoundRect,0.250000X0.337500X0.475000X-0.337500X0.475000X-0.337500X-0.475000X0.337500X-0.475000X0*%
%ADD35RoundRect,0.250000X0.350000X0.450000X-0.350000X0.450000X-0.350000X-0.450000X0.350000X-0.450000X0*%
%ADD36RoundRect,0.250000X0.325000X0.450000X-0.325000X0.450000X-0.325000X-0.450000X0.325000X-0.450000X0*%
%ADD37RoundRect,0.250000X0.450000X-0.325000X0.450000X0.325000X-0.450000X0.325000X-0.450000X-0.325000X0*%
%ADD38C,1.600000*%
%ADD39O,1.600000X1.600000*%
G04 APERTURE END LIST*
D10*
X37500000Y-123930000D02*
X37500000Y-40000000D01*
X56500000Y-60000000D02*
X100000000Y-60000000D01*
X100000000Y-60000000D02*
X100000000Y-125000000D01*
X112500000Y-40000000D02*
X112500000Y-124460000D01*
X37500000Y-40000000D02*
X112500000Y-40000000D01*
X56500000Y-125000000D02*
X56500000Y-60000000D01*
X96821809Y-116482761D02*
X96964666Y-116530380D01*
X97202761Y-116530380D01*
X97298000Y-116482761D01*
X97345619Y-116435142D01*
X97393238Y-116339904D01*
X97393238Y-116244666D01*
X97345619Y-116149428D01*
X97298000Y-116101809D01*
X97202761Y-116054190D01*
X97012285Y-116006571D01*
X96917047Y-115958952D01*
X96869428Y-115911333D01*
X96821809Y-115816095D01*
X96821809Y-115720857D01*
X96869428Y-115625619D01*
X96917047Y-115578000D01*
X97012285Y-115530380D01*
X97250380Y-115530380D01*
X97393238Y-115578000D01*
X97726571Y-115530380D02*
X97964666Y-116530380D01*
X98155142Y-115816095D01*
X98345619Y-116530380D01*
X98583714Y-115530380D01*
X98964666Y-116149428D02*
X99726571Y-116149428D01*
X63068095Y-115950000D02*
X62972857Y-115902380D01*
X62830000Y-115902380D01*
X62687142Y-115950000D01*
X62591904Y-116045238D01*
X62544285Y-116140476D01*
X62496666Y-116330952D01*
X62496666Y-116473809D01*
X62544285Y-116664285D01*
X62591904Y-116759523D01*
X62687142Y-116854761D01*
X62830000Y-116902380D01*
X62925238Y-116902380D01*
X63068095Y-116854761D01*
X63115714Y-116807142D01*
X63115714Y-116473809D01*
X62925238Y-116473809D01*
X63544285Y-116902380D02*
X63544285Y-115902380D01*
X64115714Y-116902380D01*
X64115714Y-115902380D01*
X64591904Y-116902380D02*
X64591904Y-115902380D01*
X64830000Y-115902380D01*
X64972857Y-115950000D01*
X65068095Y-116045238D01*
X65115714Y-116140476D01*
X65163333Y-116330952D01*
X65163333Y-116473809D01*
X65115714Y-116664285D01*
X65068095Y-116759523D01*
X64972857Y-116854761D01*
X64830000Y-116902380D01*
X64591904Y-116902380D01*
X55951428Y-116814761D02*
X56094285Y-116862380D01*
X56332380Y-116862380D01*
X56427619Y-116814761D01*
X56475238Y-116767142D01*
X56522857Y-116671904D01*
X56522857Y-116576666D01*
X56475238Y-116481428D01*
X56427619Y-116433809D01*
X56332380Y-116386190D01*
X56141904Y-116338571D01*
X56046666Y-116290952D01*
X55999047Y-116243333D01*
X55951428Y-116148095D01*
X55951428Y-116052857D01*
X55999047Y-115957619D01*
X56046666Y-115910000D01*
X56141904Y-115862380D01*
X56380000Y-115862380D01*
X56522857Y-115910000D01*
X56856190Y-115862380D02*
X57094285Y-116862380D01*
X57284761Y-116148095D01*
X57475238Y-116862380D01*
X57713333Y-115862380D01*
X58094285Y-116862380D02*
X58094285Y-115862380D01*
X58475238Y-115862380D01*
X58570476Y-115910000D01*
X58618095Y-115957619D01*
X58665714Y-116052857D01*
X58665714Y-116195714D01*
X58618095Y-116290952D01*
X58570476Y-116338571D01*
X58475238Y-116386190D01*
X58094285Y-116386190D01*
X58999047Y-115862380D02*
X59237142Y-116862380D01*
X59427619Y-116148095D01*
X59618095Y-116862380D01*
X59856190Y-115862380D01*
X60808571Y-116862380D02*
X60475238Y-116386190D01*
X60237142Y-116862380D02*
X60237142Y-115862380D01*
X60618095Y-115862380D01*
X60713333Y-115910000D01*
X60760952Y-115957619D01*
X60808571Y-116052857D01*
X60808571Y-116195714D01*
X60760952Y-116290952D01*
X60713333Y-116338571D01*
X60618095Y-116386190D01*
X60237142Y-116386190D01*
X91741809Y-116482761D02*
X91884666Y-116530380D01*
X92122761Y-116530380D01*
X92218000Y-116482761D01*
X92265619Y-116435142D01*
X92313238Y-116339904D01*
X92313238Y-116244666D01*
X92265619Y-116149428D01*
X92218000Y-116101809D01*
X92122761Y-116054190D01*
X91932285Y-116006571D01*
X91837047Y-115958952D01*
X91789428Y-115911333D01*
X91741809Y-115816095D01*
X91741809Y-115720857D01*
X91789428Y-115625619D01*
X91837047Y-115578000D01*
X91932285Y-115530380D01*
X92170380Y-115530380D01*
X92313238Y-115578000D01*
X92646571Y-115530380D02*
X92884666Y-116530380D01*
X93075142Y-115816095D01*
X93265619Y-116530380D01*
X93503714Y-115530380D01*
X93884666Y-116149428D02*
X94646571Y-116149428D01*
X94265619Y-116530380D02*
X94265619Y-115768476D01*
%TO.C,U2*%
X63777380Y-99711904D02*
X64586904Y-99711904D01*
X64682142Y-99664285D01*
X64729761Y-99616666D01*
X64777380Y-99521428D01*
X64777380Y-99330952D01*
X64729761Y-99235714D01*
X64682142Y-99188095D01*
X64586904Y-99140476D01*
X63777380Y-99140476D01*
X63872619Y-98711904D02*
X63825000Y-98664285D01*
X63777380Y-98569047D01*
X63777380Y-98330952D01*
X63825000Y-98235714D01*
X63872619Y-98188095D01*
X63967857Y-98140476D01*
X64063095Y-98140476D01*
X64205952Y-98188095D01*
X64777380Y-98759523D01*
X64777380Y-98140476D01*
%TO.C,D63*%
X47498380Y-85796285D02*
X46498380Y-85796285D01*
X46498380Y-85558190D01*
X46546000Y-85415333D01*
X46641238Y-85320095D01*
X46736476Y-85272476D01*
X46926952Y-85224857D01*
X47069809Y-85224857D01*
X47260285Y-85272476D01*
X47355523Y-85320095D01*
X47450761Y-85415333D01*
X47498380Y-85558190D01*
X47498380Y-85796285D01*
X46498380Y-84367714D02*
X46498380Y-84558190D01*
X46546000Y-84653428D01*
X46593619Y-84701047D01*
X46736476Y-84796285D01*
X46926952Y-84843904D01*
X47307904Y-84843904D01*
X47403142Y-84796285D01*
X47450761Y-84748666D01*
X47498380Y-84653428D01*
X47498380Y-84462952D01*
X47450761Y-84367714D01*
X47403142Y-84320095D01*
X47307904Y-84272476D01*
X47069809Y-84272476D01*
X46974571Y-84320095D01*
X46926952Y-84367714D01*
X46879333Y-84462952D01*
X46879333Y-84653428D01*
X46926952Y-84748666D01*
X46974571Y-84796285D01*
X47069809Y-84843904D01*
X46498380Y-83939142D02*
X46498380Y-83320095D01*
X46879333Y-83653428D01*
X46879333Y-83510571D01*
X46926952Y-83415333D01*
X46974571Y-83367714D01*
X47069809Y-83320095D01*
X47307904Y-83320095D01*
X47403142Y-83367714D01*
X47450761Y-83415333D01*
X47498380Y-83510571D01*
X47498380Y-83796285D01*
X47450761Y-83891523D01*
X47403142Y-83939142D01*
%TO.C,D18*%
X51692380Y-31144285D02*
X50692380Y-31144285D01*
X50692380Y-30906190D01*
X50740000Y-30763333D01*
X50835238Y-30668095D01*
X50930476Y-30620476D01*
X51120952Y-30572857D01*
X51263809Y-30572857D01*
X51454285Y-30620476D01*
X51549523Y-30668095D01*
X51644761Y-30763333D01*
X51692380Y-30906190D01*
X51692380Y-31144285D01*
X51692380Y-29620476D02*
X51692380Y-30191904D01*
X51692380Y-29906190D02*
X50692380Y-29906190D01*
X50835238Y-30001428D01*
X50930476Y-30096666D01*
X50978095Y-30191904D01*
X51120952Y-29049047D02*
X51073333Y-29144285D01*
X51025714Y-29191904D01*
X50930476Y-29239523D01*
X50882857Y-29239523D01*
X50787619Y-29191904D01*
X50740000Y-29144285D01*
X50692380Y-29049047D01*
X50692380Y-28858571D01*
X50740000Y-28763333D01*
X50787619Y-28715714D01*
X50882857Y-28668095D01*
X50930476Y-28668095D01*
X51025714Y-28715714D01*
X51073333Y-28763333D01*
X51120952Y-28858571D01*
X51120952Y-29049047D01*
X51168571Y-29144285D01*
X51216190Y-29191904D01*
X51311428Y-29239523D01*
X51501904Y-29239523D01*
X51597142Y-29191904D01*
X51644761Y-29144285D01*
X51692380Y-29049047D01*
X51692380Y-28858571D01*
X51644761Y-28763333D01*
X51597142Y-28715714D01*
X51501904Y-28668095D01*
X51311428Y-28668095D01*
X51216190Y-28715714D01*
X51168571Y-28763333D01*
X51120952Y-28858571D01*
%TO.C,D32*%
X31785714Y-106802380D02*
X31785714Y-105802380D01*
X32023809Y-105802380D01*
X32166666Y-105850000D01*
X32261904Y-105945238D01*
X32309523Y-106040476D01*
X32357142Y-106230952D01*
X32357142Y-106373809D01*
X32309523Y-106564285D01*
X32261904Y-106659523D01*
X32166666Y-106754761D01*
X32023809Y-106802380D01*
X31785714Y-106802380D01*
X32690476Y-105802380D02*
X33309523Y-105802380D01*
X32976190Y-106183333D01*
X33119047Y-106183333D01*
X33214285Y-106230952D01*
X33261904Y-106278571D01*
X33309523Y-106373809D01*
X33309523Y-106611904D01*
X33261904Y-106707142D01*
X33214285Y-106754761D01*
X33119047Y-106802380D01*
X32833333Y-106802380D01*
X32738095Y-106754761D01*
X32690476Y-106707142D01*
X33690476Y-105897619D02*
X33738095Y-105850000D01*
X33833333Y-105802380D01*
X34071428Y-105802380D01*
X34166666Y-105850000D01*
X34214285Y-105897619D01*
X34261904Y-105992857D01*
X34261904Y-106088095D01*
X34214285Y-106230952D01*
X33642857Y-106802380D01*
X34261904Y-106802380D01*
%TO.C,D65*%
X84891714Y-67706380D02*
X84891714Y-66706380D01*
X85129809Y-66706380D01*
X85272666Y-66754000D01*
X85367904Y-66849238D01*
X85415523Y-66944476D01*
X85463142Y-67134952D01*
X85463142Y-67277809D01*
X85415523Y-67468285D01*
X85367904Y-67563523D01*
X85272666Y-67658761D01*
X85129809Y-67706380D01*
X84891714Y-67706380D01*
X86320285Y-66706380D02*
X86129809Y-66706380D01*
X86034571Y-66754000D01*
X85986952Y-66801619D01*
X85891714Y-66944476D01*
X85844095Y-67134952D01*
X85844095Y-67515904D01*
X85891714Y-67611142D01*
X85939333Y-67658761D01*
X86034571Y-67706380D01*
X86225047Y-67706380D01*
X86320285Y-67658761D01*
X86367904Y-67611142D01*
X86415523Y-67515904D01*
X86415523Y-67277809D01*
X86367904Y-67182571D01*
X86320285Y-67134952D01*
X86225047Y-67087333D01*
X86034571Y-67087333D01*
X85939333Y-67134952D01*
X85891714Y-67182571D01*
X85844095Y-67277809D01*
X87320285Y-66706380D02*
X86844095Y-66706380D01*
X86796476Y-67182571D01*
X86844095Y-67134952D01*
X86939333Y-67087333D01*
X87177428Y-67087333D01*
X87272666Y-67134952D01*
X87320285Y-67182571D01*
X87367904Y-67277809D01*
X87367904Y-67515904D01*
X87320285Y-67611142D01*
X87272666Y-67658761D01*
X87177428Y-67706380D01*
X86939333Y-67706380D01*
X86844095Y-67658761D01*
X86796476Y-67611142D01*
%TO.C,D3*%
X118326904Y-106412380D02*
X118326904Y-105412380D01*
X118565000Y-105412380D01*
X118707857Y-105460000D01*
X118803095Y-105555238D01*
X118850714Y-105650476D01*
X118898333Y-105840952D01*
X118898333Y-105983809D01*
X118850714Y-106174285D01*
X118803095Y-106269523D01*
X118707857Y-106364761D01*
X118565000Y-106412380D01*
X118326904Y-106412380D01*
X119231666Y-105412380D02*
X119850714Y-105412380D01*
X119517380Y-105793333D01*
X119660238Y-105793333D01*
X119755476Y-105840952D01*
X119803095Y-105888571D01*
X119850714Y-105983809D01*
X119850714Y-106221904D01*
X119803095Y-106317142D01*
X119755476Y-106364761D01*
X119660238Y-106412380D01*
X119374523Y-106412380D01*
X119279285Y-106364761D01*
X119231666Y-106317142D01*
%TO.C,D29*%
X79572380Y-76271285D02*
X78572380Y-76271285D01*
X78572380Y-76033190D01*
X78620000Y-75890333D01*
X78715238Y-75795095D01*
X78810476Y-75747476D01*
X79000952Y-75699857D01*
X79143809Y-75699857D01*
X79334285Y-75747476D01*
X79429523Y-75795095D01*
X79524761Y-75890333D01*
X79572380Y-76033190D01*
X79572380Y-76271285D01*
X78667619Y-75318904D02*
X78620000Y-75271285D01*
X78572380Y-75176047D01*
X78572380Y-74937952D01*
X78620000Y-74842714D01*
X78667619Y-74795095D01*
X78762857Y-74747476D01*
X78858095Y-74747476D01*
X79000952Y-74795095D01*
X79572380Y-75366523D01*
X79572380Y-74747476D01*
X79572380Y-74271285D02*
X79572380Y-74080809D01*
X79524761Y-73985571D01*
X79477142Y-73937952D01*
X79334285Y-73842714D01*
X79143809Y-73795095D01*
X78762857Y-73795095D01*
X78667619Y-73842714D01*
X78620000Y-73890333D01*
X78572380Y-73985571D01*
X78572380Y-74176047D01*
X78620000Y-74271285D01*
X78667619Y-74318904D01*
X78762857Y-74366523D01*
X79000952Y-74366523D01*
X79096190Y-74318904D01*
X79143809Y-74271285D01*
X79191428Y-74176047D01*
X79191428Y-73985571D01*
X79143809Y-73890333D01*
X79096190Y-73842714D01*
X79000952Y-73795095D01*
%TO.C,D58*%
X69905714Y-53736380D02*
X69905714Y-52736380D01*
X70143809Y-52736380D01*
X70286666Y-52784000D01*
X70381904Y-52879238D01*
X70429523Y-52974476D01*
X70477142Y-53164952D01*
X70477142Y-53307809D01*
X70429523Y-53498285D01*
X70381904Y-53593523D01*
X70286666Y-53688761D01*
X70143809Y-53736380D01*
X69905714Y-53736380D01*
X71381904Y-52736380D02*
X70905714Y-52736380D01*
X70858095Y-53212571D01*
X70905714Y-53164952D01*
X71000952Y-53117333D01*
X71239047Y-53117333D01*
X71334285Y-53164952D01*
X71381904Y-53212571D01*
X71429523Y-53307809D01*
X71429523Y-53545904D01*
X71381904Y-53641142D01*
X71334285Y-53688761D01*
X71239047Y-53736380D01*
X71000952Y-53736380D01*
X70905714Y-53688761D01*
X70858095Y-53641142D01*
X72000952Y-53164952D02*
X71905714Y-53117333D01*
X71858095Y-53069714D01*
X71810476Y-52974476D01*
X71810476Y-52926857D01*
X71858095Y-52831619D01*
X71905714Y-52784000D01*
X72000952Y-52736380D01*
X72191428Y-52736380D01*
X72286666Y-52784000D01*
X72334285Y-52831619D01*
X72381904Y-52926857D01*
X72381904Y-52974476D01*
X72334285Y-53069714D01*
X72286666Y-53117333D01*
X72191428Y-53164952D01*
X72000952Y-53164952D01*
X71905714Y-53212571D01*
X71858095Y-53260190D01*
X71810476Y-53355428D01*
X71810476Y-53545904D01*
X71858095Y-53641142D01*
X71905714Y-53688761D01*
X72000952Y-53736380D01*
X72191428Y-53736380D01*
X72286666Y-53688761D01*
X72334285Y-53641142D01*
X72381904Y-53545904D01*
X72381904Y-53355428D01*
X72334285Y-53260190D01*
X72286666Y-53212571D01*
X72191428Y-53164952D01*
%TO.C,D49*%
X86852380Y-34014285D02*
X85852380Y-34014285D01*
X85852380Y-33776190D01*
X85900000Y-33633333D01*
X85995238Y-33538095D01*
X86090476Y-33490476D01*
X86280952Y-33442857D01*
X86423809Y-33442857D01*
X86614285Y-33490476D01*
X86709523Y-33538095D01*
X86804761Y-33633333D01*
X86852380Y-33776190D01*
X86852380Y-34014285D01*
X86185714Y-32585714D02*
X86852380Y-32585714D01*
X85804761Y-32823809D02*
X86519047Y-33061904D01*
X86519047Y-32442857D01*
X86852380Y-32014285D02*
X86852380Y-31823809D01*
X86804761Y-31728571D01*
X86757142Y-31680952D01*
X86614285Y-31585714D01*
X86423809Y-31538095D01*
X86042857Y-31538095D01*
X85947619Y-31585714D01*
X85900000Y-31633333D01*
X85852380Y-31728571D01*
X85852380Y-31919047D01*
X85900000Y-32014285D01*
X85947619Y-32061904D01*
X86042857Y-32109523D01*
X86280952Y-32109523D01*
X86376190Y-32061904D01*
X86423809Y-32014285D01*
X86471428Y-31919047D01*
X86471428Y-31728571D01*
X86423809Y-31633333D01*
X86376190Y-31585714D01*
X86280952Y-31538095D01*
%TO.C,D9*%
X102385904Y-97392380D02*
X102385904Y-96392380D01*
X102624000Y-96392380D01*
X102766857Y-96440000D01*
X102862095Y-96535238D01*
X102909714Y-96630476D01*
X102957333Y-96820952D01*
X102957333Y-96963809D01*
X102909714Y-97154285D01*
X102862095Y-97249523D01*
X102766857Y-97344761D01*
X102624000Y-97392380D01*
X102385904Y-97392380D01*
X103433523Y-97392380D02*
X103624000Y-97392380D01*
X103719238Y-97344761D01*
X103766857Y-97297142D01*
X103862095Y-97154285D01*
X103909714Y-96963809D01*
X103909714Y-96582857D01*
X103862095Y-96487619D01*
X103814476Y-96440000D01*
X103719238Y-96392380D01*
X103528761Y-96392380D01*
X103433523Y-96440000D01*
X103385904Y-96487619D01*
X103338285Y-96582857D01*
X103338285Y-96820952D01*
X103385904Y-96916190D01*
X103433523Y-96963809D01*
X103528761Y-97011428D01*
X103719238Y-97011428D01*
X103814476Y-96963809D01*
X103862095Y-96916190D01*
X103909714Y-96820952D01*
%TO.C,D45*%
X60492380Y-88469285D02*
X59492380Y-88469285D01*
X59492380Y-88231190D01*
X59540000Y-88088333D01*
X59635238Y-87993095D01*
X59730476Y-87945476D01*
X59920952Y-87897857D01*
X60063809Y-87897857D01*
X60254285Y-87945476D01*
X60349523Y-87993095D01*
X60444761Y-88088333D01*
X60492380Y-88231190D01*
X60492380Y-88469285D01*
X59825714Y-87040714D02*
X60492380Y-87040714D01*
X59444761Y-87278809D02*
X60159047Y-87516904D01*
X60159047Y-86897857D01*
X59492380Y-86040714D02*
X59492380Y-86516904D01*
X59968571Y-86564523D01*
X59920952Y-86516904D01*
X59873333Y-86421666D01*
X59873333Y-86183571D01*
X59920952Y-86088333D01*
X59968571Y-86040714D01*
X60063809Y-85993095D01*
X60301904Y-85993095D01*
X60397142Y-86040714D01*
X60444761Y-86088333D01*
X60492380Y-86183571D01*
X60492380Y-86421666D01*
X60444761Y-86516904D01*
X60397142Y-86564523D01*
%TO.C,D22*%
X76792380Y-50998285D02*
X75792380Y-50998285D01*
X75792380Y-50760190D01*
X75840000Y-50617333D01*
X75935238Y-50522095D01*
X76030476Y-50474476D01*
X76220952Y-50426857D01*
X76363809Y-50426857D01*
X76554285Y-50474476D01*
X76649523Y-50522095D01*
X76744761Y-50617333D01*
X76792380Y-50760190D01*
X76792380Y-50998285D01*
X75887619Y-50045904D02*
X75840000Y-49998285D01*
X75792380Y-49903047D01*
X75792380Y-49664952D01*
X75840000Y-49569714D01*
X75887619Y-49522095D01*
X75982857Y-49474476D01*
X76078095Y-49474476D01*
X76220952Y-49522095D01*
X76792380Y-50093523D01*
X76792380Y-49474476D01*
X75887619Y-49093523D02*
X75840000Y-49045904D01*
X75792380Y-48950666D01*
X75792380Y-48712571D01*
X75840000Y-48617333D01*
X75887619Y-48569714D01*
X75982857Y-48522095D01*
X76078095Y-48522095D01*
X76220952Y-48569714D01*
X76792380Y-49141142D01*
X76792380Y-48522095D01*
%TO.C,D60*%
X109616380Y-79700285D02*
X108616380Y-79700285D01*
X108616380Y-79462190D01*
X108664000Y-79319333D01*
X108759238Y-79224095D01*
X108854476Y-79176476D01*
X109044952Y-79128857D01*
X109187809Y-79128857D01*
X109378285Y-79176476D01*
X109473523Y-79224095D01*
X109568761Y-79319333D01*
X109616380Y-79462190D01*
X109616380Y-79700285D01*
X108616380Y-78271714D02*
X108616380Y-78462190D01*
X108664000Y-78557428D01*
X108711619Y-78605047D01*
X108854476Y-78700285D01*
X109044952Y-78747904D01*
X109425904Y-78747904D01*
X109521142Y-78700285D01*
X109568761Y-78652666D01*
X109616380Y-78557428D01*
X109616380Y-78366952D01*
X109568761Y-78271714D01*
X109521142Y-78224095D01*
X109425904Y-78176476D01*
X109187809Y-78176476D01*
X109092571Y-78224095D01*
X109044952Y-78271714D01*
X108997333Y-78366952D01*
X108997333Y-78557428D01*
X109044952Y-78652666D01*
X109092571Y-78700285D01*
X109187809Y-78747904D01*
X108616380Y-77557428D02*
X108616380Y-77462190D01*
X108664000Y-77366952D01*
X108711619Y-77319333D01*
X108806857Y-77271714D01*
X108997333Y-77224095D01*
X109235428Y-77224095D01*
X109425904Y-77271714D01*
X109521142Y-77319333D01*
X109568761Y-77366952D01*
X109616380Y-77462190D01*
X109616380Y-77557428D01*
X109568761Y-77652666D01*
X109521142Y-77700285D01*
X109425904Y-77747904D01*
X109235428Y-77795523D01*
X108997333Y-77795523D01*
X108806857Y-77747904D01*
X108711619Y-77700285D01*
X108664000Y-77652666D01*
X108616380Y-77557428D01*
%TO.C,D26*%
X77032380Y-64968285D02*
X76032380Y-64968285D01*
X76032380Y-64730190D01*
X76080000Y-64587333D01*
X76175238Y-64492095D01*
X76270476Y-64444476D01*
X76460952Y-64396857D01*
X76603809Y-64396857D01*
X76794285Y-64444476D01*
X76889523Y-64492095D01*
X76984761Y-64587333D01*
X77032380Y-64730190D01*
X77032380Y-64968285D01*
X76127619Y-64015904D02*
X76080000Y-63968285D01*
X76032380Y-63873047D01*
X76032380Y-63634952D01*
X76080000Y-63539714D01*
X76127619Y-63492095D01*
X76222857Y-63444476D01*
X76318095Y-63444476D01*
X76460952Y-63492095D01*
X77032380Y-64063523D01*
X77032380Y-63444476D01*
X76032380Y-62587333D02*
X76032380Y-62777809D01*
X76080000Y-62873047D01*
X76127619Y-62920666D01*
X76270476Y-63015904D01*
X76460952Y-63063523D01*
X76841904Y-63063523D01*
X76937142Y-63015904D01*
X76984761Y-62968285D01*
X77032380Y-62873047D01*
X77032380Y-62682571D01*
X76984761Y-62587333D01*
X76937142Y-62539714D01*
X76841904Y-62492095D01*
X76603809Y-62492095D01*
X76508571Y-62539714D01*
X76460952Y-62587333D01*
X76413333Y-62682571D01*
X76413333Y-62873047D01*
X76460952Y-62968285D01*
X76508571Y-63015904D01*
X76603809Y-63063523D01*
%TO.C,D25*%
X73464380Y-64714285D02*
X72464380Y-64714285D01*
X72464380Y-64476190D01*
X72512000Y-64333333D01*
X72607238Y-64238095D01*
X72702476Y-64190476D01*
X72892952Y-64142857D01*
X73035809Y-64142857D01*
X73226285Y-64190476D01*
X73321523Y-64238095D01*
X73416761Y-64333333D01*
X73464380Y-64476190D01*
X73464380Y-64714285D01*
X72559619Y-63761904D02*
X72512000Y-63714285D01*
X72464380Y-63619047D01*
X72464380Y-63380952D01*
X72512000Y-63285714D01*
X72559619Y-63238095D01*
X72654857Y-63190476D01*
X72750095Y-63190476D01*
X72892952Y-63238095D01*
X73464380Y-63809523D01*
X73464380Y-63190476D01*
X72464380Y-62285714D02*
X72464380Y-62761904D01*
X72940571Y-62809523D01*
X72892952Y-62761904D01*
X72845333Y-62666666D01*
X72845333Y-62428571D01*
X72892952Y-62333333D01*
X72940571Y-62285714D01*
X73035809Y-62238095D01*
X73273904Y-62238095D01*
X73369142Y-62285714D01*
X73416761Y-62333333D01*
X73464380Y-62428571D01*
X73464380Y-62666666D01*
X73416761Y-62761904D01*
X73369142Y-62809523D01*
%TO.C,D35*%
X104195714Y-66874380D02*
X104195714Y-65874380D01*
X104433809Y-65874380D01*
X104576666Y-65922000D01*
X104671904Y-66017238D01*
X104719523Y-66112476D01*
X104767142Y-66302952D01*
X104767142Y-66445809D01*
X104719523Y-66636285D01*
X104671904Y-66731523D01*
X104576666Y-66826761D01*
X104433809Y-66874380D01*
X104195714Y-66874380D01*
X105100476Y-65874380D02*
X105719523Y-65874380D01*
X105386190Y-66255333D01*
X105529047Y-66255333D01*
X105624285Y-66302952D01*
X105671904Y-66350571D01*
X105719523Y-66445809D01*
X105719523Y-66683904D01*
X105671904Y-66779142D01*
X105624285Y-66826761D01*
X105529047Y-66874380D01*
X105243333Y-66874380D01*
X105148095Y-66826761D01*
X105100476Y-66779142D01*
X106624285Y-65874380D02*
X106148095Y-65874380D01*
X106100476Y-66350571D01*
X106148095Y-66302952D01*
X106243333Y-66255333D01*
X106481428Y-66255333D01*
X106576666Y-66302952D01*
X106624285Y-66350571D01*
X106671904Y-66445809D01*
X106671904Y-66683904D01*
X106624285Y-66779142D01*
X106576666Y-66826761D01*
X106481428Y-66874380D01*
X106243333Y-66874380D01*
X106148095Y-66826761D01*
X106100476Y-66779142D01*
%TO.C,U4*%
X63752380Y-91861904D02*
X64561904Y-91861904D01*
X64657142Y-91814285D01*
X64704761Y-91766666D01*
X64752380Y-91671428D01*
X64752380Y-91480952D01*
X64704761Y-91385714D01*
X64657142Y-91338095D01*
X64561904Y-91290476D01*
X63752380Y-91290476D01*
X64085714Y-90385714D02*
X64752380Y-90385714D01*
X63704761Y-90623809D02*
X64419047Y-90861904D01*
X64419047Y-90242857D01*
%TO.C,D40*%
X95305714Y-67052380D02*
X95305714Y-66052380D01*
X95543809Y-66052380D01*
X95686666Y-66100000D01*
X95781904Y-66195238D01*
X95829523Y-66290476D01*
X95877142Y-66480952D01*
X95877142Y-66623809D01*
X95829523Y-66814285D01*
X95781904Y-66909523D01*
X95686666Y-67004761D01*
X95543809Y-67052380D01*
X95305714Y-67052380D01*
X96734285Y-66385714D02*
X96734285Y-67052380D01*
X96496190Y-66004761D02*
X96258095Y-66719047D01*
X96877142Y-66719047D01*
X97448571Y-66052380D02*
X97543809Y-66052380D01*
X97639047Y-66100000D01*
X97686666Y-66147619D01*
X97734285Y-66242857D01*
X97781904Y-66433333D01*
X97781904Y-66671428D01*
X97734285Y-66861904D01*
X97686666Y-66957142D01*
X97639047Y-67004761D01*
X97543809Y-67052380D01*
X97448571Y-67052380D01*
X97353333Y-67004761D01*
X97305714Y-66957142D01*
X97258095Y-66861904D01*
X97210476Y-66671428D01*
X97210476Y-66433333D01*
X97258095Y-66242857D01*
X97305714Y-66147619D01*
X97353333Y-66100000D01*
X97448571Y-66052380D01*
%TO.C,D13*%
X90733714Y-84018380D02*
X90733714Y-83018380D01*
X90971809Y-83018380D01*
X91114666Y-83066000D01*
X91209904Y-83161238D01*
X91257523Y-83256476D01*
X91305142Y-83446952D01*
X91305142Y-83589809D01*
X91257523Y-83780285D01*
X91209904Y-83875523D01*
X91114666Y-83970761D01*
X90971809Y-84018380D01*
X90733714Y-84018380D01*
X92257523Y-84018380D02*
X91686095Y-84018380D01*
X91971809Y-84018380D02*
X91971809Y-83018380D01*
X91876571Y-83161238D01*
X91781333Y-83256476D01*
X91686095Y-83304095D01*
X92590857Y-83018380D02*
X93209904Y-83018380D01*
X92876571Y-83399333D01*
X93019428Y-83399333D01*
X93114666Y-83446952D01*
X93162285Y-83494571D01*
X93209904Y-83589809D01*
X93209904Y-83827904D01*
X93162285Y-83923142D01*
X93114666Y-83970761D01*
X93019428Y-84018380D01*
X92733714Y-84018380D01*
X92638476Y-83970761D01*
X92590857Y-83923142D01*
%TO.C,D39*%
X49515714Y-103912380D02*
X49515714Y-102912380D01*
X49753809Y-102912380D01*
X49896666Y-102960000D01*
X49991904Y-103055238D01*
X50039523Y-103150476D01*
X50087142Y-103340952D01*
X50087142Y-103483809D01*
X50039523Y-103674285D01*
X49991904Y-103769523D01*
X49896666Y-103864761D01*
X49753809Y-103912380D01*
X49515714Y-103912380D01*
X50420476Y-102912380D02*
X51039523Y-102912380D01*
X50706190Y-103293333D01*
X50849047Y-103293333D01*
X50944285Y-103340952D01*
X50991904Y-103388571D01*
X51039523Y-103483809D01*
X51039523Y-103721904D01*
X50991904Y-103817142D01*
X50944285Y-103864761D01*
X50849047Y-103912380D01*
X50563333Y-103912380D01*
X50468095Y-103864761D01*
X50420476Y-103817142D01*
X51515714Y-103912380D02*
X51706190Y-103912380D01*
X51801428Y-103864761D01*
X51849047Y-103817142D01*
X51944285Y-103674285D01*
X51991904Y-103483809D01*
X51991904Y-103102857D01*
X51944285Y-103007619D01*
X51896666Y-102960000D01*
X51801428Y-102912380D01*
X51610952Y-102912380D01*
X51515714Y-102960000D01*
X51468095Y-103007619D01*
X51420476Y-103102857D01*
X51420476Y-103340952D01*
X51468095Y-103436190D01*
X51515714Y-103483809D01*
X51610952Y-103531428D01*
X51801428Y-103531428D01*
X51896666Y-103483809D01*
X51944285Y-103436190D01*
X51991904Y-103340952D01*
%TO.C,U1*%
X80177380Y-106361904D02*
X80986904Y-106361904D01*
X81082142Y-106314285D01*
X81129761Y-106266666D01*
X81177380Y-106171428D01*
X81177380Y-105980952D01*
X81129761Y-105885714D01*
X81082142Y-105838095D01*
X80986904Y-105790476D01*
X80177380Y-105790476D01*
X81177380Y-104790476D02*
X81177380Y-105361904D01*
X81177380Y-105076190D02*
X80177380Y-105076190D01*
X80320238Y-105171428D01*
X80415476Y-105266666D01*
X80463095Y-105361904D01*
%TO.C,R3*%
X85452380Y-100666666D02*
X84976190Y-101000000D01*
X85452380Y-101238095D02*
X84452380Y-101238095D01*
X84452380Y-100857142D01*
X84500000Y-100761904D01*
X84547619Y-100714285D01*
X84642857Y-100666666D01*
X84785714Y-100666666D01*
X84880952Y-100714285D01*
X84928571Y-100761904D01*
X84976190Y-100857142D01*
X84976190Y-101238095D01*
X84452380Y-100333333D02*
X84452380Y-99714285D01*
X84833333Y-100047619D01*
X84833333Y-99904761D01*
X84880952Y-99809523D01*
X84928571Y-99761904D01*
X85023809Y-99714285D01*
X85261904Y-99714285D01*
X85357142Y-99761904D01*
X85404761Y-99809523D01*
X85452380Y-99904761D01*
X85452380Y-100190476D01*
X85404761Y-100285714D01*
X85357142Y-100333333D01*
%TO.C,D46*%
X31485714Y-75952380D02*
X31485714Y-74952380D01*
X31723809Y-74952380D01*
X31866666Y-75000000D01*
X31961904Y-75095238D01*
X32009523Y-75190476D01*
X32057142Y-75380952D01*
X32057142Y-75523809D01*
X32009523Y-75714285D01*
X31961904Y-75809523D01*
X31866666Y-75904761D01*
X31723809Y-75952380D01*
X31485714Y-75952380D01*
X32914285Y-75285714D02*
X32914285Y-75952380D01*
X32676190Y-74904761D02*
X32438095Y-75619047D01*
X33057142Y-75619047D01*
X33866666Y-74952380D02*
X33676190Y-74952380D01*
X33580952Y-75000000D01*
X33533333Y-75047619D01*
X33438095Y-75190476D01*
X33390476Y-75380952D01*
X33390476Y-75761904D01*
X33438095Y-75857142D01*
X33485714Y-75904761D01*
X33580952Y-75952380D01*
X33771428Y-75952380D01*
X33866666Y-75904761D01*
X33914285Y-75857142D01*
X33961904Y-75761904D01*
X33961904Y-75523809D01*
X33914285Y-75428571D01*
X33866666Y-75380952D01*
X33771428Y-75333333D01*
X33580952Y-75333333D01*
X33485714Y-75380952D01*
X33438095Y-75428571D01*
X33390476Y-75523809D01*
%TO.C,D37*%
X49285714Y-93852380D02*
X49285714Y-92852380D01*
X49523809Y-92852380D01*
X49666666Y-92900000D01*
X49761904Y-92995238D01*
X49809523Y-93090476D01*
X49857142Y-93280952D01*
X49857142Y-93423809D01*
X49809523Y-93614285D01*
X49761904Y-93709523D01*
X49666666Y-93804761D01*
X49523809Y-93852380D01*
X49285714Y-93852380D01*
X50190476Y-92852380D02*
X50809523Y-92852380D01*
X50476190Y-93233333D01*
X50619047Y-93233333D01*
X50714285Y-93280952D01*
X50761904Y-93328571D01*
X50809523Y-93423809D01*
X50809523Y-93661904D01*
X50761904Y-93757142D01*
X50714285Y-93804761D01*
X50619047Y-93852380D01*
X50333333Y-93852380D01*
X50238095Y-93804761D01*
X50190476Y-93757142D01*
X51142857Y-92852380D02*
X51809523Y-92852380D01*
X51380952Y-93852380D01*
%TO.C,R1*%
X85452380Y-108166666D02*
X84976190Y-108500000D01*
X85452380Y-108738095D02*
X84452380Y-108738095D01*
X84452380Y-108357142D01*
X84500000Y-108261904D01*
X84547619Y-108214285D01*
X84642857Y-108166666D01*
X84785714Y-108166666D01*
X84880952Y-108214285D01*
X84928571Y-108261904D01*
X84976190Y-108357142D01*
X84976190Y-108738095D01*
X85452380Y-107214285D02*
X85452380Y-107785714D01*
X85452380Y-107500000D02*
X84452380Y-107500000D01*
X84595238Y-107595238D01*
X84690476Y-107690476D01*
X84738095Y-107785714D01*
%TO.C,C1*%
X82797042Y-113938266D02*
X82844661Y-113985885D01*
X82892280Y-114128742D01*
X82892280Y-114223980D01*
X82844661Y-114366838D01*
X82749423Y-114462076D01*
X82654185Y-114509695D01*
X82463709Y-114557314D01*
X82320852Y-114557314D01*
X82130376Y-114509695D01*
X82035138Y-114462076D01*
X81939900Y-114366838D01*
X81892280Y-114223980D01*
X81892280Y-114128742D01*
X81939900Y-113985885D01*
X81987519Y-113938266D01*
X82892280Y-112985885D02*
X82892280Y-113557314D01*
X82892280Y-113271600D02*
X81892280Y-113271600D01*
X82035138Y-113366838D01*
X82130376Y-113462076D01*
X82177995Y-113557314D01*
%TO.C,D16*%
X43252380Y-31214285D02*
X42252380Y-31214285D01*
X42252380Y-30976190D01*
X42300000Y-30833333D01*
X42395238Y-30738095D01*
X42490476Y-30690476D01*
X42680952Y-30642857D01*
X42823809Y-30642857D01*
X43014285Y-30690476D01*
X43109523Y-30738095D01*
X43204761Y-30833333D01*
X43252380Y-30976190D01*
X43252380Y-31214285D01*
X43252380Y-29690476D02*
X43252380Y-30261904D01*
X43252380Y-29976190D02*
X42252380Y-29976190D01*
X42395238Y-30071428D01*
X42490476Y-30166666D01*
X42538095Y-30261904D01*
X42252380Y-28833333D02*
X42252380Y-29023809D01*
X42300000Y-29119047D01*
X42347619Y-29166666D01*
X42490476Y-29261904D01*
X42680952Y-29309523D01*
X43061904Y-29309523D01*
X43157142Y-29261904D01*
X43204761Y-29214285D01*
X43252380Y-29119047D01*
X43252380Y-28928571D01*
X43204761Y-28833333D01*
X43157142Y-28785714D01*
X43061904Y-28738095D01*
X42823809Y-28738095D01*
X42728571Y-28785714D01*
X42680952Y-28833333D01*
X42633333Y-28928571D01*
X42633333Y-29119047D01*
X42680952Y-29214285D01*
X42728571Y-29261904D01*
X42823809Y-29309523D01*
%TO.C,R4*%
X64714380Y-95416666D02*
X64238190Y-95750000D01*
X64714380Y-95988095D02*
X63714380Y-95988095D01*
X63714380Y-95607142D01*
X63762000Y-95511904D01*
X63809619Y-95464285D01*
X63904857Y-95416666D01*
X64047714Y-95416666D01*
X64142952Y-95464285D01*
X64190571Y-95511904D01*
X64238190Y-95607142D01*
X64238190Y-95988095D01*
X64047714Y-94559523D02*
X64714380Y-94559523D01*
X63666761Y-94797619D02*
X64381047Y-95035714D01*
X64381047Y-94416666D01*
%TO.C,D62*%
X92257714Y-46736380D02*
X92257714Y-45736380D01*
X92495809Y-45736380D01*
X92638666Y-45784000D01*
X92733904Y-45879238D01*
X92781523Y-45974476D01*
X92829142Y-46164952D01*
X92829142Y-46307809D01*
X92781523Y-46498285D01*
X92733904Y-46593523D01*
X92638666Y-46688761D01*
X92495809Y-46736380D01*
X92257714Y-46736380D01*
X93686285Y-45736380D02*
X93495809Y-45736380D01*
X93400571Y-45784000D01*
X93352952Y-45831619D01*
X93257714Y-45974476D01*
X93210095Y-46164952D01*
X93210095Y-46545904D01*
X93257714Y-46641142D01*
X93305333Y-46688761D01*
X93400571Y-46736380D01*
X93591047Y-46736380D01*
X93686285Y-46688761D01*
X93733904Y-46641142D01*
X93781523Y-46545904D01*
X93781523Y-46307809D01*
X93733904Y-46212571D01*
X93686285Y-46164952D01*
X93591047Y-46117333D01*
X93400571Y-46117333D01*
X93305333Y-46164952D01*
X93257714Y-46212571D01*
X93210095Y-46307809D01*
X94162476Y-45831619D02*
X94210095Y-45784000D01*
X94305333Y-45736380D01*
X94543428Y-45736380D01*
X94638666Y-45784000D01*
X94686285Y-45831619D01*
X94733904Y-45926857D01*
X94733904Y-46022095D01*
X94686285Y-46164952D01*
X94114857Y-46736380D01*
X94733904Y-46736380D01*
%TO.C,D47*%
X31385714Y-72602380D02*
X31385714Y-71602380D01*
X31623809Y-71602380D01*
X31766666Y-71650000D01*
X31861904Y-71745238D01*
X31909523Y-71840476D01*
X31957142Y-72030952D01*
X31957142Y-72173809D01*
X31909523Y-72364285D01*
X31861904Y-72459523D01*
X31766666Y-72554761D01*
X31623809Y-72602380D01*
X31385714Y-72602380D01*
X32814285Y-71935714D02*
X32814285Y-72602380D01*
X32576190Y-71554761D02*
X32338095Y-72269047D01*
X32957142Y-72269047D01*
X33242857Y-71602380D02*
X33909523Y-71602380D01*
X33480952Y-72602380D01*
%TO.C,D34*%
X104285714Y-62060380D02*
X104285714Y-61060380D01*
X104523809Y-61060380D01*
X104666666Y-61108000D01*
X104761904Y-61203238D01*
X104809523Y-61298476D01*
X104857142Y-61488952D01*
X104857142Y-61631809D01*
X104809523Y-61822285D01*
X104761904Y-61917523D01*
X104666666Y-62012761D01*
X104523809Y-62060380D01*
X104285714Y-62060380D01*
X105190476Y-61060380D02*
X105809523Y-61060380D01*
X105476190Y-61441333D01*
X105619047Y-61441333D01*
X105714285Y-61488952D01*
X105761904Y-61536571D01*
X105809523Y-61631809D01*
X105809523Y-61869904D01*
X105761904Y-61965142D01*
X105714285Y-62012761D01*
X105619047Y-62060380D01*
X105333333Y-62060380D01*
X105238095Y-62012761D01*
X105190476Y-61965142D01*
X106666666Y-61393714D02*
X106666666Y-62060380D01*
X106428571Y-61012761D02*
X106190476Y-61727047D01*
X106809523Y-61727047D01*
%TO.C,D38*%
X49455714Y-97602380D02*
X49455714Y-96602380D01*
X49693809Y-96602380D01*
X49836666Y-96650000D01*
X49931904Y-96745238D01*
X49979523Y-96840476D01*
X50027142Y-97030952D01*
X50027142Y-97173809D01*
X49979523Y-97364285D01*
X49931904Y-97459523D01*
X49836666Y-97554761D01*
X49693809Y-97602380D01*
X49455714Y-97602380D01*
X50360476Y-96602380D02*
X50979523Y-96602380D01*
X50646190Y-96983333D01*
X50789047Y-96983333D01*
X50884285Y-97030952D01*
X50931904Y-97078571D01*
X50979523Y-97173809D01*
X50979523Y-97411904D01*
X50931904Y-97507142D01*
X50884285Y-97554761D01*
X50789047Y-97602380D01*
X50503333Y-97602380D01*
X50408095Y-97554761D01*
X50360476Y-97507142D01*
X51550952Y-97030952D02*
X51455714Y-96983333D01*
X51408095Y-96935714D01*
X51360476Y-96840476D01*
X51360476Y-96792857D01*
X51408095Y-96697619D01*
X51455714Y-96650000D01*
X51550952Y-96602380D01*
X51741428Y-96602380D01*
X51836666Y-96650000D01*
X51884285Y-96697619D01*
X51931904Y-96792857D01*
X51931904Y-96840476D01*
X51884285Y-96935714D01*
X51836666Y-96983333D01*
X51741428Y-97030952D01*
X51550952Y-97030952D01*
X51455714Y-97078571D01*
X51408095Y-97126190D01*
X51360476Y-97221428D01*
X51360476Y-97411904D01*
X51408095Y-97507142D01*
X51455714Y-97554761D01*
X51550952Y-97602380D01*
X51741428Y-97602380D01*
X51836666Y-97554761D01*
X51884285Y-97507142D01*
X51931904Y-97411904D01*
X51931904Y-97221428D01*
X51884285Y-97126190D01*
X51836666Y-97078571D01*
X51741428Y-97030952D01*
%TO.C,D36*%
X104055714Y-70390380D02*
X104055714Y-69390380D01*
X104293809Y-69390380D01*
X104436666Y-69438000D01*
X104531904Y-69533238D01*
X104579523Y-69628476D01*
X104627142Y-69818952D01*
X104627142Y-69961809D01*
X104579523Y-70152285D01*
X104531904Y-70247523D01*
X104436666Y-70342761D01*
X104293809Y-70390380D01*
X104055714Y-70390380D01*
X104960476Y-69390380D02*
X105579523Y-69390380D01*
X105246190Y-69771333D01*
X105389047Y-69771333D01*
X105484285Y-69818952D01*
X105531904Y-69866571D01*
X105579523Y-69961809D01*
X105579523Y-70199904D01*
X105531904Y-70295142D01*
X105484285Y-70342761D01*
X105389047Y-70390380D01*
X105103333Y-70390380D01*
X105008095Y-70342761D01*
X104960476Y-70295142D01*
X106436666Y-69390380D02*
X106246190Y-69390380D01*
X106150952Y-69438000D01*
X106103333Y-69485619D01*
X106008095Y-69628476D01*
X105960476Y-69818952D01*
X105960476Y-70199904D01*
X106008095Y-70295142D01*
X106055714Y-70342761D01*
X106150952Y-70390380D01*
X106341428Y-70390380D01*
X106436666Y-70342761D01*
X106484285Y-70295142D01*
X106531904Y-70199904D01*
X106531904Y-69961809D01*
X106484285Y-69866571D01*
X106436666Y-69818952D01*
X106341428Y-69771333D01*
X106150952Y-69771333D01*
X106055714Y-69818952D01*
X106008095Y-69866571D01*
X105960476Y-69961809D01*
%TO.C,D41*%
X95305714Y-71802380D02*
X95305714Y-70802380D01*
X95543809Y-70802380D01*
X95686666Y-70850000D01*
X95781904Y-70945238D01*
X95829523Y-71040476D01*
X95877142Y-71230952D01*
X95877142Y-71373809D01*
X95829523Y-71564285D01*
X95781904Y-71659523D01*
X95686666Y-71754761D01*
X95543809Y-71802380D01*
X95305714Y-71802380D01*
X96734285Y-71135714D02*
X96734285Y-71802380D01*
X96496190Y-70754761D02*
X96258095Y-71469047D01*
X96877142Y-71469047D01*
X97781904Y-71802380D02*
X97210476Y-71802380D01*
X97496190Y-71802380D02*
X97496190Y-70802380D01*
X97400952Y-70945238D01*
X97305714Y-71040476D01*
X97210476Y-71088095D01*
%TO.C,D20*%
X61538380Y-50714285D02*
X60538380Y-50714285D01*
X60538380Y-50476190D01*
X60586000Y-50333333D01*
X60681238Y-50238095D01*
X60776476Y-50190476D01*
X60966952Y-50142857D01*
X61109809Y-50142857D01*
X61300285Y-50190476D01*
X61395523Y-50238095D01*
X61490761Y-50333333D01*
X61538380Y-50476190D01*
X61538380Y-50714285D01*
X60633619Y-49761904D02*
X60586000Y-49714285D01*
X60538380Y-49619047D01*
X60538380Y-49380952D01*
X60586000Y-49285714D01*
X60633619Y-49238095D01*
X60728857Y-49190476D01*
X60824095Y-49190476D01*
X60966952Y-49238095D01*
X61538380Y-49809523D01*
X61538380Y-49190476D01*
X60538380Y-48571428D02*
X60538380Y-48476190D01*
X60586000Y-48380952D01*
X60633619Y-48333333D01*
X60728857Y-48285714D01*
X60919333Y-48238095D01*
X61157428Y-48238095D01*
X61347904Y-48285714D01*
X61443142Y-48333333D01*
X61490761Y-48380952D01*
X61538380Y-48476190D01*
X61538380Y-48571428D01*
X61490761Y-48666666D01*
X61443142Y-48714285D01*
X61347904Y-48761904D01*
X61157428Y-48809523D01*
X60919333Y-48809523D01*
X60728857Y-48761904D01*
X60633619Y-48714285D01*
X60586000Y-48666666D01*
X60538380Y-48571428D01*
%TO.C,D11*%
X58475714Y-78652380D02*
X58475714Y-77652380D01*
X58713809Y-77652380D01*
X58856666Y-77700000D01*
X58951904Y-77795238D01*
X58999523Y-77890476D01*
X59047142Y-78080952D01*
X59047142Y-78223809D01*
X58999523Y-78414285D01*
X58951904Y-78509523D01*
X58856666Y-78604761D01*
X58713809Y-78652380D01*
X58475714Y-78652380D01*
X59999523Y-78652380D02*
X59428095Y-78652380D01*
X59713809Y-78652380D02*
X59713809Y-77652380D01*
X59618571Y-77795238D01*
X59523333Y-77890476D01*
X59428095Y-77938095D01*
X60951904Y-78652380D02*
X60380476Y-78652380D01*
X60666190Y-78652380D02*
X60666190Y-77652380D01*
X60570952Y-77795238D01*
X60475714Y-77890476D01*
X60380476Y-77938095D01*
%TO.C,D44*%
X66552380Y-88964285D02*
X65552380Y-88964285D01*
X65552380Y-88726190D01*
X65600000Y-88583333D01*
X65695238Y-88488095D01*
X65790476Y-88440476D01*
X65980952Y-88392857D01*
X66123809Y-88392857D01*
X66314285Y-88440476D01*
X66409523Y-88488095D01*
X66504761Y-88583333D01*
X66552380Y-88726190D01*
X66552380Y-88964285D01*
X65885714Y-87535714D02*
X66552380Y-87535714D01*
X65504761Y-87773809D02*
X66219047Y-88011904D01*
X66219047Y-87392857D01*
X65885714Y-86583333D02*
X66552380Y-86583333D01*
X65504761Y-86821428D02*
X66219047Y-87059523D01*
X66219047Y-86440476D01*
%TO.C,D33*%
X31965714Y-110492380D02*
X31965714Y-109492380D01*
X32203809Y-109492380D01*
X32346666Y-109540000D01*
X32441904Y-109635238D01*
X32489523Y-109730476D01*
X32537142Y-109920952D01*
X32537142Y-110063809D01*
X32489523Y-110254285D01*
X32441904Y-110349523D01*
X32346666Y-110444761D01*
X32203809Y-110492380D01*
X31965714Y-110492380D01*
X32870476Y-109492380D02*
X33489523Y-109492380D01*
X33156190Y-109873333D01*
X33299047Y-109873333D01*
X33394285Y-109920952D01*
X33441904Y-109968571D01*
X33489523Y-110063809D01*
X33489523Y-110301904D01*
X33441904Y-110397142D01*
X33394285Y-110444761D01*
X33299047Y-110492380D01*
X33013333Y-110492380D01*
X32918095Y-110444761D01*
X32870476Y-110397142D01*
X33822857Y-109492380D02*
X34441904Y-109492380D01*
X34108571Y-109873333D01*
X34251428Y-109873333D01*
X34346666Y-109920952D01*
X34394285Y-109968571D01*
X34441904Y-110063809D01*
X34441904Y-110301904D01*
X34394285Y-110397142D01*
X34346666Y-110444761D01*
X34251428Y-110492380D01*
X33965714Y-110492380D01*
X33870476Y-110444761D01*
X33822857Y-110397142D01*
%TO.C,R9*%
X62452380Y-94856666D02*
X61976190Y-95190000D01*
X62452380Y-95428095D02*
X61452380Y-95428095D01*
X61452380Y-95047142D01*
X61500000Y-94951904D01*
X61547619Y-94904285D01*
X61642857Y-94856666D01*
X61785714Y-94856666D01*
X61880952Y-94904285D01*
X61928571Y-94951904D01*
X61976190Y-95047142D01*
X61976190Y-95428095D01*
X62452380Y-94380476D02*
X62452380Y-94190000D01*
X62404761Y-94094761D01*
X62357142Y-94047142D01*
X62214285Y-93951904D01*
X62023809Y-93904285D01*
X61642857Y-93904285D01*
X61547619Y-93951904D01*
X61500000Y-93999523D01*
X61452380Y-94094761D01*
X61452380Y-94285238D01*
X61500000Y-94380476D01*
X61547619Y-94428095D01*
X61642857Y-94475714D01*
X61880952Y-94475714D01*
X61976190Y-94428095D01*
X62023809Y-94380476D01*
X62071428Y-94285238D01*
X62071428Y-94094761D01*
X62023809Y-93999523D01*
X61976190Y-93951904D01*
X61880952Y-93904285D01*
%TO.C,R2*%
X63952380Y-101004666D02*
X63476190Y-101338000D01*
X63952380Y-101576095D02*
X62952380Y-101576095D01*
X62952380Y-101195142D01*
X63000000Y-101099904D01*
X63047619Y-101052285D01*
X63142857Y-101004666D01*
X63285714Y-101004666D01*
X63380952Y-101052285D01*
X63428571Y-101099904D01*
X63476190Y-101195142D01*
X63476190Y-101576095D01*
X63047619Y-100623714D02*
X63000000Y-100576095D01*
X62952380Y-100480857D01*
X62952380Y-100242761D01*
X63000000Y-100147523D01*
X63047619Y-100099904D01*
X63142857Y-100052285D01*
X63238095Y-100052285D01*
X63380952Y-100099904D01*
X63952380Y-100671333D01*
X63952380Y-100052285D01*
%TO.C,R10*%
X78605142Y-83452380D02*
X78271809Y-82976190D01*
X78033714Y-83452380D02*
X78033714Y-82452380D01*
X78414666Y-82452380D01*
X78509904Y-82500000D01*
X78557523Y-82547619D01*
X78605142Y-82642857D01*
X78605142Y-82785714D01*
X78557523Y-82880952D01*
X78509904Y-82928571D01*
X78414666Y-82976190D01*
X78033714Y-82976190D01*
X79557523Y-83452380D02*
X78986095Y-83452380D01*
X79271809Y-83452380D02*
X79271809Y-82452380D01*
X79176571Y-82595238D01*
X79081333Y-82690476D01*
X78986095Y-82738095D01*
X80176571Y-82452380D02*
X80271809Y-82452380D01*
X80367047Y-82500000D01*
X80414666Y-82547619D01*
X80462285Y-82642857D01*
X80509904Y-82833333D01*
X80509904Y-83071428D01*
X80462285Y-83261904D01*
X80414666Y-83357142D01*
X80367047Y-83404761D01*
X80271809Y-83452380D01*
X80176571Y-83452380D01*
X80081333Y-83404761D01*
X80033714Y-83357142D01*
X79986095Y-83261904D01*
X79938476Y-83071428D01*
X79938476Y-82833333D01*
X79986095Y-82642857D01*
X80033714Y-82547619D01*
X80081333Y-82500000D01*
X80176571Y-82452380D01*
%TO.C,D31*%
X31865714Y-102052380D02*
X31865714Y-101052380D01*
X32103809Y-101052380D01*
X32246666Y-101100000D01*
X32341904Y-101195238D01*
X32389523Y-101290476D01*
X32437142Y-101480952D01*
X32437142Y-101623809D01*
X32389523Y-101814285D01*
X32341904Y-101909523D01*
X32246666Y-102004761D01*
X32103809Y-102052380D01*
X31865714Y-102052380D01*
X32770476Y-101052380D02*
X33389523Y-101052380D01*
X33056190Y-101433333D01*
X33199047Y-101433333D01*
X33294285Y-101480952D01*
X33341904Y-101528571D01*
X33389523Y-101623809D01*
X33389523Y-101861904D01*
X33341904Y-101957142D01*
X33294285Y-102004761D01*
X33199047Y-102052380D01*
X32913333Y-102052380D01*
X32818095Y-102004761D01*
X32770476Y-101957142D01*
X34341904Y-102052380D02*
X33770476Y-102052380D01*
X34056190Y-102052380D02*
X34056190Y-101052380D01*
X33960952Y-101195238D01*
X33865714Y-101290476D01*
X33770476Y-101338095D01*
%TO.C,D56*%
X41910380Y-60650285D02*
X40910380Y-60650285D01*
X40910380Y-60412190D01*
X40958000Y-60269333D01*
X41053238Y-60174095D01*
X41148476Y-60126476D01*
X41338952Y-60078857D01*
X41481809Y-60078857D01*
X41672285Y-60126476D01*
X41767523Y-60174095D01*
X41862761Y-60269333D01*
X41910380Y-60412190D01*
X41910380Y-60650285D01*
X40910380Y-59174095D02*
X40910380Y-59650285D01*
X41386571Y-59697904D01*
X41338952Y-59650285D01*
X41291333Y-59555047D01*
X41291333Y-59316952D01*
X41338952Y-59221714D01*
X41386571Y-59174095D01*
X41481809Y-59126476D01*
X41719904Y-59126476D01*
X41815142Y-59174095D01*
X41862761Y-59221714D01*
X41910380Y-59316952D01*
X41910380Y-59555047D01*
X41862761Y-59650285D01*
X41815142Y-59697904D01*
X40910380Y-58269333D02*
X40910380Y-58459809D01*
X40958000Y-58555047D01*
X41005619Y-58602666D01*
X41148476Y-58697904D01*
X41338952Y-58745523D01*
X41719904Y-58745523D01*
X41815142Y-58697904D01*
X41862761Y-58650285D01*
X41910380Y-58555047D01*
X41910380Y-58364571D01*
X41862761Y-58269333D01*
X41815142Y-58221714D01*
X41719904Y-58174095D01*
X41481809Y-58174095D01*
X41386571Y-58221714D01*
X41338952Y-58269333D01*
X41291333Y-58364571D01*
X41291333Y-58555047D01*
X41338952Y-58650285D01*
X41386571Y-58697904D01*
X41481809Y-58745523D01*
%TO.C,D17*%
X48202380Y-31014285D02*
X47202380Y-31014285D01*
X47202380Y-30776190D01*
X47250000Y-30633333D01*
X47345238Y-30538095D01*
X47440476Y-30490476D01*
X47630952Y-30442857D01*
X47773809Y-30442857D01*
X47964285Y-30490476D01*
X48059523Y-30538095D01*
X48154761Y-30633333D01*
X48202380Y-30776190D01*
X48202380Y-31014285D01*
X48202380Y-29490476D02*
X48202380Y-30061904D01*
X48202380Y-29776190D02*
X47202380Y-29776190D01*
X47345238Y-29871428D01*
X47440476Y-29966666D01*
X47488095Y-30061904D01*
X47202380Y-29157142D02*
X47202380Y-28490476D01*
X48202380Y-28919047D01*
%TO.C,R12*%
X60627142Y-114677380D02*
X60293809Y-114201190D01*
X60055714Y-114677380D02*
X60055714Y-113677380D01*
X60436666Y-113677380D01*
X60531904Y-113725000D01*
X60579523Y-113772619D01*
X60627142Y-113867857D01*
X60627142Y-114010714D01*
X60579523Y-114105952D01*
X60531904Y-114153571D01*
X60436666Y-114201190D01*
X60055714Y-114201190D01*
X61579523Y-114677380D02*
X61008095Y-114677380D01*
X61293809Y-114677380D02*
X61293809Y-113677380D01*
X61198571Y-113820238D01*
X61103333Y-113915476D01*
X61008095Y-113963095D01*
X61960476Y-113772619D02*
X62008095Y-113725000D01*
X62103333Y-113677380D01*
X62341428Y-113677380D01*
X62436666Y-113725000D01*
X62484285Y-113772619D01*
X62531904Y-113867857D01*
X62531904Y-113963095D01*
X62484285Y-114105952D01*
X61912857Y-114677380D01*
X62531904Y-114677380D01*
%TO.C,D5*%
X44761904Y-73102380D02*
X44761904Y-72102380D01*
X45000000Y-72102380D01*
X45142857Y-72150000D01*
X45238095Y-72245238D01*
X45285714Y-72340476D01*
X45333333Y-72530952D01*
X45333333Y-72673809D01*
X45285714Y-72864285D01*
X45238095Y-72959523D01*
X45142857Y-73054761D01*
X45000000Y-73102380D01*
X44761904Y-73102380D01*
X46238095Y-72102380D02*
X45761904Y-72102380D01*
X45714285Y-72578571D01*
X45761904Y-72530952D01*
X45857142Y-72483333D01*
X46095238Y-72483333D01*
X46190476Y-72530952D01*
X46238095Y-72578571D01*
X46285714Y-72673809D01*
X46285714Y-72911904D01*
X46238095Y-73007142D01*
X46190476Y-73054761D01*
X46095238Y-73102380D01*
X45857142Y-73102380D01*
X45761904Y-73054761D01*
X45714285Y-73007142D01*
%TO.C,D53*%
X115435714Y-73352380D02*
X115435714Y-72352380D01*
X115673809Y-72352380D01*
X115816666Y-72400000D01*
X115911904Y-72495238D01*
X115959523Y-72590476D01*
X116007142Y-72780952D01*
X116007142Y-72923809D01*
X115959523Y-73114285D01*
X115911904Y-73209523D01*
X115816666Y-73304761D01*
X115673809Y-73352380D01*
X115435714Y-73352380D01*
X116911904Y-72352380D02*
X116435714Y-72352380D01*
X116388095Y-72828571D01*
X116435714Y-72780952D01*
X116530952Y-72733333D01*
X116769047Y-72733333D01*
X116864285Y-72780952D01*
X116911904Y-72828571D01*
X116959523Y-72923809D01*
X116959523Y-73161904D01*
X116911904Y-73257142D01*
X116864285Y-73304761D01*
X116769047Y-73352380D01*
X116530952Y-73352380D01*
X116435714Y-73304761D01*
X116388095Y-73257142D01*
X117292857Y-72352380D02*
X117911904Y-72352380D01*
X117578571Y-72733333D01*
X117721428Y-72733333D01*
X117816666Y-72780952D01*
X117864285Y-72828571D01*
X117911904Y-72923809D01*
X117911904Y-73161904D01*
X117864285Y-73257142D01*
X117816666Y-73304761D01*
X117721428Y-73352380D01*
X117435714Y-73352380D01*
X117340476Y-73304761D01*
X117292857Y-73257142D01*
%TO.C,D28*%
X76352380Y-76271285D02*
X75352380Y-76271285D01*
X75352380Y-76033190D01*
X75400000Y-75890333D01*
X75495238Y-75795095D01*
X75590476Y-75747476D01*
X75780952Y-75699857D01*
X75923809Y-75699857D01*
X76114285Y-75747476D01*
X76209523Y-75795095D01*
X76304761Y-75890333D01*
X76352380Y-76033190D01*
X76352380Y-76271285D01*
X75447619Y-75318904D02*
X75400000Y-75271285D01*
X75352380Y-75176047D01*
X75352380Y-74937952D01*
X75400000Y-74842714D01*
X75447619Y-74795095D01*
X75542857Y-74747476D01*
X75638095Y-74747476D01*
X75780952Y-74795095D01*
X76352380Y-75366523D01*
X76352380Y-74747476D01*
X75780952Y-74176047D02*
X75733333Y-74271285D01*
X75685714Y-74318904D01*
X75590476Y-74366523D01*
X75542857Y-74366523D01*
X75447619Y-74318904D01*
X75400000Y-74271285D01*
X75352380Y-74176047D01*
X75352380Y-73985571D01*
X75400000Y-73890333D01*
X75447619Y-73842714D01*
X75542857Y-73795095D01*
X75590476Y-73795095D01*
X75685714Y-73842714D01*
X75733333Y-73890333D01*
X75780952Y-73985571D01*
X75780952Y-74176047D01*
X75828571Y-74271285D01*
X75876190Y-74318904D01*
X75971428Y-74366523D01*
X76161904Y-74366523D01*
X76257142Y-74318904D01*
X76304761Y-74271285D01*
X76352380Y-74176047D01*
X76352380Y-73985571D01*
X76304761Y-73890333D01*
X76257142Y-73842714D01*
X76161904Y-73795095D01*
X75971428Y-73795095D01*
X75876190Y-73842714D01*
X75828571Y-73890333D01*
X75780952Y-73985571D01*
%TO.C,D7*%
X102385904Y-87942380D02*
X102385904Y-86942380D01*
X102624000Y-86942380D01*
X102766857Y-86990000D01*
X102862095Y-87085238D01*
X102909714Y-87180476D01*
X102957333Y-87370952D01*
X102957333Y-87513809D01*
X102909714Y-87704285D01*
X102862095Y-87799523D01*
X102766857Y-87894761D01*
X102624000Y-87942380D01*
X102385904Y-87942380D01*
X103290666Y-86942380D02*
X103957333Y-86942380D01*
X103528761Y-87942380D01*
%TO.C,R11*%
X62095142Y-109340380D02*
X61761809Y-108864190D01*
X61523714Y-109340380D02*
X61523714Y-108340380D01*
X61904666Y-108340380D01*
X61999904Y-108388000D01*
X62047523Y-108435619D01*
X62095142Y-108530857D01*
X62095142Y-108673714D01*
X62047523Y-108768952D01*
X61999904Y-108816571D01*
X61904666Y-108864190D01*
X61523714Y-108864190D01*
X63047523Y-109340380D02*
X62476095Y-109340380D01*
X62761809Y-109340380D02*
X62761809Y-108340380D01*
X62666571Y-108483238D01*
X62571333Y-108578476D01*
X62476095Y-108626095D01*
X63999904Y-109340380D02*
X63428476Y-109340380D01*
X63714190Y-109340380D02*
X63714190Y-108340380D01*
X63618952Y-108483238D01*
X63523714Y-108578476D01*
X63428476Y-108626095D01*
%TO.C,D23*%
X81606380Y-50490285D02*
X80606380Y-50490285D01*
X80606380Y-50252190D01*
X80654000Y-50109333D01*
X80749238Y-50014095D01*
X80844476Y-49966476D01*
X81034952Y-49918857D01*
X81177809Y-49918857D01*
X81368285Y-49966476D01*
X81463523Y-50014095D01*
X81558761Y-50109333D01*
X81606380Y-50252190D01*
X81606380Y-50490285D01*
X80701619Y-49537904D02*
X80654000Y-49490285D01*
X80606380Y-49395047D01*
X80606380Y-49156952D01*
X80654000Y-49061714D01*
X80701619Y-49014095D01*
X80796857Y-48966476D01*
X80892095Y-48966476D01*
X81034952Y-49014095D01*
X81606380Y-49585523D01*
X81606380Y-48966476D01*
X80606380Y-48633142D02*
X80606380Y-48014095D01*
X80987333Y-48347428D01*
X80987333Y-48204571D01*
X81034952Y-48109333D01*
X81082571Y-48061714D01*
X81177809Y-48014095D01*
X81415904Y-48014095D01*
X81511142Y-48061714D01*
X81558761Y-48109333D01*
X81606380Y-48204571D01*
X81606380Y-48490285D01*
X81558761Y-48585523D01*
X81511142Y-48633142D01*
%TO.C,D43*%
X70052380Y-88214285D02*
X69052380Y-88214285D01*
X69052380Y-87976190D01*
X69100000Y-87833333D01*
X69195238Y-87738095D01*
X69290476Y-87690476D01*
X69480952Y-87642857D01*
X69623809Y-87642857D01*
X69814285Y-87690476D01*
X69909523Y-87738095D01*
X70004761Y-87833333D01*
X70052380Y-87976190D01*
X70052380Y-88214285D01*
X69385714Y-86785714D02*
X70052380Y-86785714D01*
X69004761Y-87023809D02*
X69719047Y-87261904D01*
X69719047Y-86642857D01*
X69052380Y-86357142D02*
X69052380Y-85738095D01*
X69433333Y-86071428D01*
X69433333Y-85928571D01*
X69480952Y-85833333D01*
X69528571Y-85785714D01*
X69623809Y-85738095D01*
X69861904Y-85738095D01*
X69957142Y-85785714D01*
X70004761Y-85833333D01*
X70052380Y-85928571D01*
X70052380Y-86214285D01*
X70004761Y-86309523D01*
X69957142Y-86357142D01*
%TO.C,D27*%
X82748380Y-64714285D02*
X81748380Y-64714285D01*
X81748380Y-64476190D01*
X81796000Y-64333333D01*
X81891238Y-64238095D01*
X81986476Y-64190476D01*
X82176952Y-64142857D01*
X82319809Y-64142857D01*
X82510285Y-64190476D01*
X82605523Y-64238095D01*
X82700761Y-64333333D01*
X82748380Y-64476190D01*
X82748380Y-64714285D01*
X81843619Y-63761904D02*
X81796000Y-63714285D01*
X81748380Y-63619047D01*
X81748380Y-63380952D01*
X81796000Y-63285714D01*
X81843619Y-63238095D01*
X81938857Y-63190476D01*
X82034095Y-63190476D01*
X82176952Y-63238095D01*
X82748380Y-63809523D01*
X82748380Y-63190476D01*
X81748380Y-62857142D02*
X81748380Y-62190476D01*
X82748380Y-62619047D01*
%TO.C,D6*%
X44491904Y-68912380D02*
X44491904Y-67912380D01*
X44730000Y-67912380D01*
X44872857Y-67960000D01*
X44968095Y-68055238D01*
X45015714Y-68150476D01*
X45063333Y-68340952D01*
X45063333Y-68483809D01*
X45015714Y-68674285D01*
X44968095Y-68769523D01*
X44872857Y-68864761D01*
X44730000Y-68912380D01*
X44491904Y-68912380D01*
X45920476Y-67912380D02*
X45730000Y-67912380D01*
X45634761Y-67960000D01*
X45587142Y-68007619D01*
X45491904Y-68150476D01*
X45444285Y-68340952D01*
X45444285Y-68721904D01*
X45491904Y-68817142D01*
X45539523Y-68864761D01*
X45634761Y-68912380D01*
X45825238Y-68912380D01*
X45920476Y-68864761D01*
X45968095Y-68817142D01*
X46015714Y-68721904D01*
X46015714Y-68483809D01*
X45968095Y-68388571D01*
X45920476Y-68340952D01*
X45825238Y-68293333D01*
X45634761Y-68293333D01*
X45539523Y-68340952D01*
X45491904Y-68388571D01*
X45444285Y-68483809D01*
%TO.C,D2*%
X118261904Y-110102380D02*
X118261904Y-109102380D01*
X118500000Y-109102380D01*
X118642857Y-109150000D01*
X118738095Y-109245238D01*
X118785714Y-109340476D01*
X118833333Y-109530952D01*
X118833333Y-109673809D01*
X118785714Y-109864285D01*
X118738095Y-109959523D01*
X118642857Y-110054761D01*
X118500000Y-110102380D01*
X118261904Y-110102380D01*
X119214285Y-109197619D02*
X119261904Y-109150000D01*
X119357142Y-109102380D01*
X119595238Y-109102380D01*
X119690476Y-109150000D01*
X119738095Y-109197619D01*
X119785714Y-109292857D01*
X119785714Y-109388095D01*
X119738095Y-109530952D01*
X119166666Y-110102380D01*
X119785714Y-110102380D01*
%TO.C,R5*%
X85692380Y-93086666D02*
X85216190Y-93420000D01*
X85692380Y-93658095D02*
X84692380Y-93658095D01*
X84692380Y-93277142D01*
X84740000Y-93181904D01*
X84787619Y-93134285D01*
X84882857Y-93086666D01*
X85025714Y-93086666D01*
X85120952Y-93134285D01*
X85168571Y-93181904D01*
X85216190Y-93277142D01*
X85216190Y-93658095D01*
X84692380Y-92181904D02*
X84692380Y-92658095D01*
X85168571Y-92705714D01*
X85120952Y-92658095D01*
X85073333Y-92562857D01*
X85073333Y-92324761D01*
X85120952Y-92229523D01*
X85168571Y-92181904D01*
X85263809Y-92134285D01*
X85501904Y-92134285D01*
X85597142Y-92181904D01*
X85644761Y-92229523D01*
X85692380Y-92324761D01*
X85692380Y-92562857D01*
X85644761Y-92658095D01*
X85597142Y-92705714D01*
%TO.C,D1*%
X118261904Y-114852380D02*
X118261904Y-113852380D01*
X118500000Y-113852380D01*
X118642857Y-113900000D01*
X118738095Y-113995238D01*
X118785714Y-114090476D01*
X118833333Y-114280952D01*
X118833333Y-114423809D01*
X118785714Y-114614285D01*
X118738095Y-114709523D01*
X118642857Y-114804761D01*
X118500000Y-114852380D01*
X118261904Y-114852380D01*
X119785714Y-114852380D02*
X119214285Y-114852380D01*
X119500000Y-114852380D02*
X119500000Y-113852380D01*
X119404761Y-113995238D01*
X119309523Y-114090476D01*
X119214285Y-114138095D01*
%TO.C,D59*%
X36765380Y-99258285D02*
X35765380Y-99258285D01*
X35765380Y-99020190D01*
X35813000Y-98877333D01*
X35908238Y-98782095D01*
X36003476Y-98734476D01*
X36193952Y-98686857D01*
X36336809Y-98686857D01*
X36527285Y-98734476D01*
X36622523Y-98782095D01*
X36717761Y-98877333D01*
X36765380Y-99020190D01*
X36765380Y-99258285D01*
X35765380Y-97782095D02*
X35765380Y-98258285D01*
X36241571Y-98305904D01*
X36193952Y-98258285D01*
X36146333Y-98163047D01*
X36146333Y-97924952D01*
X36193952Y-97829714D01*
X36241571Y-97782095D01*
X36336809Y-97734476D01*
X36574904Y-97734476D01*
X36670142Y-97782095D01*
X36717761Y-97829714D01*
X36765380Y-97924952D01*
X36765380Y-98163047D01*
X36717761Y-98258285D01*
X36670142Y-98305904D01*
X36765380Y-97258285D02*
X36765380Y-97067809D01*
X36717761Y-96972571D01*
X36670142Y-96924952D01*
X36527285Y-96829714D01*
X36336809Y-96782095D01*
X35955857Y-96782095D01*
X35860619Y-96829714D01*
X35813000Y-96877333D01*
X35765380Y-96972571D01*
X35765380Y-97163047D01*
X35813000Y-97258285D01*
X35860619Y-97305904D01*
X35955857Y-97353523D01*
X36193952Y-97353523D01*
X36289190Y-97305904D01*
X36336809Y-97258285D01*
X36384428Y-97163047D01*
X36384428Y-96972571D01*
X36336809Y-96877333D01*
X36289190Y-96829714D01*
X36193952Y-96782095D01*
%TO.C,D12*%
X58729714Y-85454380D02*
X58729714Y-84454380D01*
X58967809Y-84454380D01*
X59110666Y-84502000D01*
X59205904Y-84597238D01*
X59253523Y-84692476D01*
X59301142Y-84882952D01*
X59301142Y-85025809D01*
X59253523Y-85216285D01*
X59205904Y-85311523D01*
X59110666Y-85406761D01*
X58967809Y-85454380D01*
X58729714Y-85454380D01*
X60253523Y-85454380D02*
X59682095Y-85454380D01*
X59967809Y-85454380D02*
X59967809Y-84454380D01*
X59872571Y-84597238D01*
X59777333Y-84692476D01*
X59682095Y-84740095D01*
X60634476Y-84549619D02*
X60682095Y-84502000D01*
X60777333Y-84454380D01*
X61015428Y-84454380D01*
X61110666Y-84502000D01*
X61158285Y-84549619D01*
X61205904Y-84644857D01*
X61205904Y-84740095D01*
X61158285Y-84882952D01*
X60586857Y-85454380D01*
X61205904Y-85454380D01*
%TO.C,D15*%
X86412380Y-88459285D02*
X85412380Y-88459285D01*
X85412380Y-88221190D01*
X85460000Y-88078333D01*
X85555238Y-87983095D01*
X85650476Y-87935476D01*
X85840952Y-87887857D01*
X85983809Y-87887857D01*
X86174285Y-87935476D01*
X86269523Y-87983095D01*
X86364761Y-88078333D01*
X86412380Y-88221190D01*
X86412380Y-88459285D01*
X86412380Y-86935476D02*
X86412380Y-87506904D01*
X86412380Y-87221190D02*
X85412380Y-87221190D01*
X85555238Y-87316428D01*
X85650476Y-87411666D01*
X85698095Y-87506904D01*
X85412380Y-86030714D02*
X85412380Y-86506904D01*
X85888571Y-86554523D01*
X85840952Y-86506904D01*
X85793333Y-86411666D01*
X85793333Y-86173571D01*
X85840952Y-86078333D01*
X85888571Y-86030714D01*
X85983809Y-85983095D01*
X86221904Y-85983095D01*
X86317142Y-86030714D01*
X86364761Y-86078333D01*
X86412380Y-86173571D01*
X86412380Y-86411666D01*
X86364761Y-86506904D01*
X86317142Y-86554523D01*
%TO.C,R6*%
X78952380Y-108486666D02*
X78476190Y-108820000D01*
X78952380Y-109058095D02*
X77952380Y-109058095D01*
X77952380Y-108677142D01*
X78000000Y-108581904D01*
X78047619Y-108534285D01*
X78142857Y-108486666D01*
X78285714Y-108486666D01*
X78380952Y-108534285D01*
X78428571Y-108581904D01*
X78476190Y-108677142D01*
X78476190Y-109058095D01*
X77952380Y-107629523D02*
X77952380Y-107820000D01*
X78000000Y-107915238D01*
X78047619Y-107962857D01*
X78190476Y-108058095D01*
X78380952Y-108105714D01*
X78761904Y-108105714D01*
X78857142Y-108058095D01*
X78904761Y-108010476D01*
X78952380Y-107915238D01*
X78952380Y-107724761D01*
X78904761Y-107629523D01*
X78857142Y-107581904D01*
X78761904Y-107534285D01*
X78523809Y-107534285D01*
X78428571Y-107581904D01*
X78380952Y-107629523D01*
X78333333Y-107724761D01*
X78333333Y-107915238D01*
X78380952Y-108010476D01*
X78428571Y-108058095D01*
X78523809Y-108105714D01*
%TO.C,D4*%
X44761904Y-78352380D02*
X44761904Y-77352380D01*
X45000000Y-77352380D01*
X45142857Y-77400000D01*
X45238095Y-77495238D01*
X45285714Y-77590476D01*
X45333333Y-77780952D01*
X45333333Y-77923809D01*
X45285714Y-78114285D01*
X45238095Y-78209523D01*
X45142857Y-78304761D01*
X45000000Y-78352380D01*
X44761904Y-78352380D01*
X46190476Y-77685714D02*
X46190476Y-78352380D01*
X45952380Y-77304761D02*
X45714285Y-78019047D01*
X46333333Y-78019047D01*
%TO.C,D10*%
X58729714Y-73972380D02*
X58729714Y-72972380D01*
X58967809Y-72972380D01*
X59110666Y-73020000D01*
X59205904Y-73115238D01*
X59253523Y-73210476D01*
X59301142Y-73400952D01*
X59301142Y-73543809D01*
X59253523Y-73734285D01*
X59205904Y-73829523D01*
X59110666Y-73924761D01*
X58967809Y-73972380D01*
X58729714Y-73972380D01*
X60253523Y-73972380D02*
X59682095Y-73972380D01*
X59967809Y-73972380D02*
X59967809Y-72972380D01*
X59872571Y-73115238D01*
X59777333Y-73210476D01*
X59682095Y-73258095D01*
X60872571Y-72972380D02*
X60967809Y-72972380D01*
X61063047Y-73020000D01*
X61110666Y-73067619D01*
X61158285Y-73162857D01*
X61205904Y-73353333D01*
X61205904Y-73591428D01*
X61158285Y-73781904D01*
X61110666Y-73877142D01*
X61063047Y-73924761D01*
X60967809Y-73972380D01*
X60872571Y-73972380D01*
X60777333Y-73924761D01*
X60729714Y-73877142D01*
X60682095Y-73781904D01*
X60634476Y-73591428D01*
X60634476Y-73353333D01*
X60682095Y-73162857D01*
X60729714Y-73067619D01*
X60777333Y-73020000D01*
X60872571Y-72972380D01*
%TO.C,D70*%
X36845380Y-63571285D02*
X35845380Y-63571285D01*
X35845380Y-63333190D01*
X35893000Y-63190333D01*
X35988238Y-63095095D01*
X36083476Y-63047476D01*
X36273952Y-62999857D01*
X36416809Y-62999857D01*
X36607285Y-63047476D01*
X36702523Y-63095095D01*
X36797761Y-63190333D01*
X36845380Y-63333190D01*
X36845380Y-63571285D01*
X35845380Y-62666523D02*
X35845380Y-61999857D01*
X36845380Y-62428428D01*
X35845380Y-61428428D02*
X35845380Y-61333190D01*
X35893000Y-61237952D01*
X35940619Y-61190333D01*
X36035857Y-61142714D01*
X36226333Y-61095095D01*
X36464428Y-61095095D01*
X36654904Y-61142714D01*
X36750142Y-61190333D01*
X36797761Y-61237952D01*
X36845380Y-61333190D01*
X36845380Y-61428428D01*
X36797761Y-61523666D01*
X36750142Y-61571285D01*
X36654904Y-61618904D01*
X36464428Y-61666523D01*
X36226333Y-61666523D01*
X36035857Y-61618904D01*
X35940619Y-61571285D01*
X35893000Y-61523666D01*
X35845380Y-61428428D01*
%TO.C,D51*%
X95217380Y-33819285D02*
X94217380Y-33819285D01*
X94217380Y-33581190D01*
X94265000Y-33438333D01*
X94360238Y-33343095D01*
X94455476Y-33295476D01*
X94645952Y-33247857D01*
X94788809Y-33247857D01*
X94979285Y-33295476D01*
X95074523Y-33343095D01*
X95169761Y-33438333D01*
X95217380Y-33581190D01*
X95217380Y-33819285D01*
X94217380Y-32343095D02*
X94217380Y-32819285D01*
X94693571Y-32866904D01*
X94645952Y-32819285D01*
X94598333Y-32724047D01*
X94598333Y-32485952D01*
X94645952Y-32390714D01*
X94693571Y-32343095D01*
X94788809Y-32295476D01*
X95026904Y-32295476D01*
X95122142Y-32343095D01*
X95169761Y-32390714D01*
X95217380Y-32485952D01*
X95217380Y-32724047D01*
X95169761Y-32819285D01*
X95122142Y-32866904D01*
X95217380Y-31343095D02*
X95217380Y-31914523D01*
X95217380Y-31628809D02*
X94217380Y-31628809D01*
X94360238Y-31724047D01*
X94455476Y-31819285D01*
X94503095Y-31914523D01*
%TO.C,D50*%
X91802380Y-33889285D02*
X90802380Y-33889285D01*
X90802380Y-33651190D01*
X90850000Y-33508333D01*
X90945238Y-33413095D01*
X91040476Y-33365476D01*
X91230952Y-33317857D01*
X91373809Y-33317857D01*
X91564285Y-33365476D01*
X91659523Y-33413095D01*
X91754761Y-33508333D01*
X91802380Y-33651190D01*
X91802380Y-33889285D01*
X90802380Y-32413095D02*
X90802380Y-32889285D01*
X91278571Y-32936904D01*
X91230952Y-32889285D01*
X91183333Y-32794047D01*
X91183333Y-32555952D01*
X91230952Y-32460714D01*
X91278571Y-32413095D01*
X91373809Y-32365476D01*
X91611904Y-32365476D01*
X91707142Y-32413095D01*
X91754761Y-32460714D01*
X91802380Y-32555952D01*
X91802380Y-32794047D01*
X91754761Y-32889285D01*
X91707142Y-32936904D01*
X90802380Y-31746428D02*
X90802380Y-31651190D01*
X90850000Y-31555952D01*
X90897619Y-31508333D01*
X90992857Y-31460714D01*
X91183333Y-31413095D01*
X91421428Y-31413095D01*
X91611904Y-31460714D01*
X91707142Y-31508333D01*
X91754761Y-31555952D01*
X91802380Y-31651190D01*
X91802380Y-31746428D01*
X91754761Y-31841666D01*
X91707142Y-31889285D01*
X91611904Y-31936904D01*
X91421428Y-31984523D01*
X91183333Y-31984523D01*
X90992857Y-31936904D01*
X90897619Y-31889285D01*
X90850000Y-31841666D01*
X90802380Y-31746428D01*
%TO.C,D52*%
X115435714Y-78102380D02*
X115435714Y-77102380D01*
X115673809Y-77102380D01*
X115816666Y-77150000D01*
X115911904Y-77245238D01*
X115959523Y-77340476D01*
X116007142Y-77530952D01*
X116007142Y-77673809D01*
X115959523Y-77864285D01*
X115911904Y-77959523D01*
X115816666Y-78054761D01*
X115673809Y-78102380D01*
X115435714Y-78102380D01*
X116911904Y-77102380D02*
X116435714Y-77102380D01*
X116388095Y-77578571D01*
X116435714Y-77530952D01*
X116530952Y-77483333D01*
X116769047Y-77483333D01*
X116864285Y-77530952D01*
X116911904Y-77578571D01*
X116959523Y-77673809D01*
X116959523Y-77911904D01*
X116911904Y-78007142D01*
X116864285Y-78054761D01*
X116769047Y-78102380D01*
X116530952Y-78102380D01*
X116435714Y-78054761D01*
X116388095Y-78007142D01*
X117340476Y-77197619D02*
X117388095Y-77150000D01*
X117483333Y-77102380D01*
X117721428Y-77102380D01*
X117816666Y-77150000D01*
X117864285Y-77197619D01*
X117911904Y-77292857D01*
X117911904Y-77388095D01*
X117864285Y-77530952D01*
X117292857Y-78102380D01*
X117911904Y-78102380D01*
%TO.C,D21*%
X67674380Y-50744285D02*
X66674380Y-50744285D01*
X66674380Y-50506190D01*
X66722000Y-50363333D01*
X66817238Y-50268095D01*
X66912476Y-50220476D01*
X67102952Y-50172857D01*
X67245809Y-50172857D01*
X67436285Y-50220476D01*
X67531523Y-50268095D01*
X67626761Y-50363333D01*
X67674380Y-50506190D01*
X67674380Y-50744285D01*
X66769619Y-49791904D02*
X66722000Y-49744285D01*
X66674380Y-49649047D01*
X66674380Y-49410952D01*
X66722000Y-49315714D01*
X66769619Y-49268095D01*
X66864857Y-49220476D01*
X66960095Y-49220476D01*
X67102952Y-49268095D01*
X67674380Y-49839523D01*
X67674380Y-49220476D01*
X67674380Y-48268095D02*
X67674380Y-48839523D01*
X67674380Y-48553809D02*
X66674380Y-48553809D01*
X66817238Y-48649047D01*
X66912476Y-48744285D01*
X66960095Y-48839523D01*
%TO.C,U5*%
X80177380Y-91686904D02*
X80986904Y-91686904D01*
X81082142Y-91639285D01*
X81129761Y-91591666D01*
X81177380Y-91496428D01*
X81177380Y-91305952D01*
X81129761Y-91210714D01*
X81082142Y-91163095D01*
X80986904Y-91115476D01*
X80177380Y-91115476D01*
X80177380Y-90163095D02*
X80177380Y-90639285D01*
X80653571Y-90686904D01*
X80605952Y-90639285D01*
X80558333Y-90544047D01*
X80558333Y-90305952D01*
X80605952Y-90210714D01*
X80653571Y-90163095D01*
X80748809Y-90115476D01*
X80986904Y-90115476D01*
X81082142Y-90163095D01*
X81129761Y-90210714D01*
X81177380Y-90305952D01*
X81177380Y-90544047D01*
X81129761Y-90639285D01*
X81082142Y-90686904D01*
%TO.C,D14*%
X89952380Y-89014285D02*
X88952380Y-89014285D01*
X88952380Y-88776190D01*
X89000000Y-88633333D01*
X89095238Y-88538095D01*
X89190476Y-88490476D01*
X89380952Y-88442857D01*
X89523809Y-88442857D01*
X89714285Y-88490476D01*
X89809523Y-88538095D01*
X89904761Y-88633333D01*
X89952380Y-88776190D01*
X89952380Y-89014285D01*
X89952380Y-87490476D02*
X89952380Y-88061904D01*
X89952380Y-87776190D02*
X88952380Y-87776190D01*
X89095238Y-87871428D01*
X89190476Y-87966666D01*
X89238095Y-88061904D01*
X89285714Y-86633333D02*
X89952380Y-86633333D01*
X88904761Y-86871428D02*
X89619047Y-87109523D01*
X89619047Y-86490476D01*
%TO.C,D55*%
X115477380Y-97414285D02*
X114477380Y-97414285D01*
X114477380Y-97176190D01*
X114525000Y-97033333D01*
X114620238Y-96938095D01*
X114715476Y-96890476D01*
X114905952Y-96842857D01*
X115048809Y-96842857D01*
X115239285Y-96890476D01*
X115334523Y-96938095D01*
X115429761Y-97033333D01*
X115477380Y-97176190D01*
X115477380Y-97414285D01*
X114477380Y-95938095D02*
X114477380Y-96414285D01*
X114953571Y-96461904D01*
X114905952Y-96414285D01*
X114858333Y-96319047D01*
X114858333Y-96080952D01*
X114905952Y-95985714D01*
X114953571Y-95938095D01*
X115048809Y-95890476D01*
X115286904Y-95890476D01*
X115382142Y-95938095D01*
X115429761Y-95985714D01*
X115477380Y-96080952D01*
X115477380Y-96319047D01*
X115429761Y-96414285D01*
X115382142Y-96461904D01*
X114477380Y-94985714D02*
X114477380Y-95461904D01*
X114953571Y-95509523D01*
X114905952Y-95461904D01*
X114858333Y-95366666D01*
X114858333Y-95128571D01*
X114905952Y-95033333D01*
X114953571Y-94985714D01*
X115048809Y-94938095D01*
X115286904Y-94938095D01*
X115382142Y-94985714D01*
X115429761Y-95033333D01*
X115477380Y-95128571D01*
X115477380Y-95366666D01*
X115429761Y-95461904D01*
X115382142Y-95509523D01*
%TO.C,D8*%
X102385904Y-91510380D02*
X102385904Y-90510380D01*
X102624000Y-90510380D01*
X102766857Y-90558000D01*
X102862095Y-90653238D01*
X102909714Y-90748476D01*
X102957333Y-90938952D01*
X102957333Y-91081809D01*
X102909714Y-91272285D01*
X102862095Y-91367523D01*
X102766857Y-91462761D01*
X102624000Y-91510380D01*
X102385904Y-91510380D01*
X103528761Y-90938952D02*
X103433523Y-90891333D01*
X103385904Y-90843714D01*
X103338285Y-90748476D01*
X103338285Y-90700857D01*
X103385904Y-90605619D01*
X103433523Y-90558000D01*
X103528761Y-90510380D01*
X103719238Y-90510380D01*
X103814476Y-90558000D01*
X103862095Y-90605619D01*
X103909714Y-90700857D01*
X103909714Y-90748476D01*
X103862095Y-90843714D01*
X103814476Y-90891333D01*
X103719238Y-90938952D01*
X103528761Y-90938952D01*
X103433523Y-90986571D01*
X103385904Y-91034190D01*
X103338285Y-91129428D01*
X103338285Y-91319904D01*
X103385904Y-91415142D01*
X103433523Y-91462761D01*
X103528761Y-91510380D01*
X103719238Y-91510380D01*
X103814476Y-91462761D01*
X103862095Y-91415142D01*
X103909714Y-91319904D01*
X103909714Y-91129428D01*
X103862095Y-91034190D01*
X103814476Y-90986571D01*
X103719238Y-90938952D01*
%TO.C,D61*%
X99726380Y-102052285D02*
X98726380Y-102052285D01*
X98726380Y-101814190D01*
X98774000Y-101671333D01*
X98869238Y-101576095D01*
X98964476Y-101528476D01*
X99154952Y-101480857D01*
X99297809Y-101480857D01*
X99488285Y-101528476D01*
X99583523Y-101576095D01*
X99678761Y-101671333D01*
X99726380Y-101814190D01*
X99726380Y-102052285D01*
X98726380Y-100623714D02*
X98726380Y-100814190D01*
X98774000Y-100909428D01*
X98821619Y-100957047D01*
X98964476Y-101052285D01*
X99154952Y-101099904D01*
X99535904Y-101099904D01*
X99631142Y-101052285D01*
X99678761Y-101004666D01*
X99726380Y-100909428D01*
X99726380Y-100718952D01*
X99678761Y-100623714D01*
X99631142Y-100576095D01*
X99535904Y-100528476D01*
X99297809Y-100528476D01*
X99202571Y-100576095D01*
X99154952Y-100623714D01*
X99107333Y-100718952D01*
X99107333Y-100909428D01*
X99154952Y-101004666D01*
X99202571Y-101052285D01*
X99297809Y-101099904D01*
X99726380Y-99576095D02*
X99726380Y-100147523D01*
X99726380Y-99861809D02*
X98726380Y-99861809D01*
X98869238Y-99957047D01*
X98964476Y-100052285D01*
X99012095Y-100147523D01*
%TO.C,D68*%
X76144380Y-69032285D02*
X75144380Y-69032285D01*
X75144380Y-68794190D01*
X75192000Y-68651333D01*
X75287238Y-68556095D01*
X75382476Y-68508476D01*
X75572952Y-68460857D01*
X75715809Y-68460857D01*
X75906285Y-68508476D01*
X76001523Y-68556095D01*
X76096761Y-68651333D01*
X76144380Y-68794190D01*
X76144380Y-69032285D01*
X75144380Y-67603714D02*
X75144380Y-67794190D01*
X75192000Y-67889428D01*
X75239619Y-67937047D01*
X75382476Y-68032285D01*
X75572952Y-68079904D01*
X75953904Y-68079904D01*
X76049142Y-68032285D01*
X76096761Y-67984666D01*
X76144380Y-67889428D01*
X76144380Y-67698952D01*
X76096761Y-67603714D01*
X76049142Y-67556095D01*
X75953904Y-67508476D01*
X75715809Y-67508476D01*
X75620571Y-67556095D01*
X75572952Y-67603714D01*
X75525333Y-67698952D01*
X75525333Y-67889428D01*
X75572952Y-67984666D01*
X75620571Y-68032285D01*
X75715809Y-68079904D01*
X75572952Y-66937047D02*
X75525333Y-67032285D01*
X75477714Y-67079904D01*
X75382476Y-67127523D01*
X75334857Y-67127523D01*
X75239619Y-67079904D01*
X75192000Y-67032285D01*
X75144380Y-66937047D01*
X75144380Y-66746571D01*
X75192000Y-66651333D01*
X75239619Y-66603714D01*
X75334857Y-66556095D01*
X75382476Y-66556095D01*
X75477714Y-66603714D01*
X75525333Y-66651333D01*
X75572952Y-66746571D01*
X75572952Y-66937047D01*
X75620571Y-67032285D01*
X75668190Y-67079904D01*
X75763428Y-67127523D01*
X75953904Y-67127523D01*
X76049142Y-67079904D01*
X76096761Y-67032285D01*
X76144380Y-66937047D01*
X76144380Y-66746571D01*
X76096761Y-66651333D01*
X76049142Y-66603714D01*
X75953904Y-66556095D01*
X75763428Y-66556095D01*
X75668190Y-66603714D01*
X75620571Y-66651333D01*
X75572952Y-66746571D01*
%TO.C,D66*%
X95559714Y-87828380D02*
X95559714Y-86828380D01*
X95797809Y-86828380D01*
X95940666Y-86876000D01*
X96035904Y-86971238D01*
X96083523Y-87066476D01*
X96131142Y-87256952D01*
X96131142Y-87399809D01*
X96083523Y-87590285D01*
X96035904Y-87685523D01*
X95940666Y-87780761D01*
X95797809Y-87828380D01*
X95559714Y-87828380D01*
X96988285Y-86828380D02*
X96797809Y-86828380D01*
X96702571Y-86876000D01*
X96654952Y-86923619D01*
X96559714Y-87066476D01*
X96512095Y-87256952D01*
X96512095Y-87637904D01*
X96559714Y-87733142D01*
X96607333Y-87780761D01*
X96702571Y-87828380D01*
X96893047Y-87828380D01*
X96988285Y-87780761D01*
X97035904Y-87733142D01*
X97083523Y-87637904D01*
X97083523Y-87399809D01*
X97035904Y-87304571D01*
X96988285Y-87256952D01*
X96893047Y-87209333D01*
X96702571Y-87209333D01*
X96607333Y-87256952D01*
X96559714Y-87304571D01*
X96512095Y-87399809D01*
X97940666Y-86828380D02*
X97750190Y-86828380D01*
X97654952Y-86876000D01*
X97607333Y-86923619D01*
X97512095Y-87066476D01*
X97464476Y-87256952D01*
X97464476Y-87637904D01*
X97512095Y-87733142D01*
X97559714Y-87780761D01*
X97654952Y-87828380D01*
X97845428Y-87828380D01*
X97940666Y-87780761D01*
X97988285Y-87733142D01*
X98035904Y-87637904D01*
X98035904Y-87399809D01*
X97988285Y-87304571D01*
X97940666Y-87256952D01*
X97845428Y-87209333D01*
X97654952Y-87209333D01*
X97559714Y-87256952D01*
X97512095Y-87304571D01*
X97464476Y-87399809D01*
%TO.C,D54*%
X115590714Y-70012380D02*
X115590714Y-69012380D01*
X115828809Y-69012380D01*
X115971666Y-69060000D01*
X116066904Y-69155238D01*
X116114523Y-69250476D01*
X116162142Y-69440952D01*
X116162142Y-69583809D01*
X116114523Y-69774285D01*
X116066904Y-69869523D01*
X115971666Y-69964761D01*
X115828809Y-70012380D01*
X115590714Y-70012380D01*
X117066904Y-69012380D02*
X116590714Y-69012380D01*
X116543095Y-69488571D01*
X116590714Y-69440952D01*
X116685952Y-69393333D01*
X116924047Y-69393333D01*
X117019285Y-69440952D01*
X117066904Y-69488571D01*
X117114523Y-69583809D01*
X117114523Y-69821904D01*
X117066904Y-69917142D01*
X117019285Y-69964761D01*
X116924047Y-70012380D01*
X116685952Y-70012380D01*
X116590714Y-69964761D01*
X116543095Y-69917142D01*
X117971666Y-69345714D02*
X117971666Y-70012380D01*
X117733571Y-68964761D02*
X117495476Y-69679047D01*
X118114523Y-69679047D01*
%TO.C,D42*%
X95305714Y-75216380D02*
X95305714Y-74216380D01*
X95543809Y-74216380D01*
X95686666Y-74264000D01*
X95781904Y-74359238D01*
X95829523Y-74454476D01*
X95877142Y-74644952D01*
X95877142Y-74787809D01*
X95829523Y-74978285D01*
X95781904Y-75073523D01*
X95686666Y-75168761D01*
X95543809Y-75216380D01*
X95305714Y-75216380D01*
X96734285Y-74549714D02*
X96734285Y-75216380D01*
X96496190Y-74168761D02*
X96258095Y-74883047D01*
X96877142Y-74883047D01*
X97210476Y-74311619D02*
X97258095Y-74264000D01*
X97353333Y-74216380D01*
X97591428Y-74216380D01*
X97686666Y-74264000D01*
X97734285Y-74311619D01*
X97781904Y-74406857D01*
X97781904Y-74502095D01*
X97734285Y-74644952D01*
X97162857Y-75216380D01*
X97781904Y-75216380D01*
%TO.C,D57*%
X59745714Y-27178380D02*
X59745714Y-26178380D01*
X59983809Y-26178380D01*
X60126666Y-26226000D01*
X60221904Y-26321238D01*
X60269523Y-26416476D01*
X60317142Y-26606952D01*
X60317142Y-26749809D01*
X60269523Y-26940285D01*
X60221904Y-27035523D01*
X60126666Y-27130761D01*
X59983809Y-27178380D01*
X59745714Y-27178380D01*
X61221904Y-26178380D02*
X60745714Y-26178380D01*
X60698095Y-26654571D01*
X60745714Y-26606952D01*
X60840952Y-26559333D01*
X61079047Y-26559333D01*
X61174285Y-26606952D01*
X61221904Y-26654571D01*
X61269523Y-26749809D01*
X61269523Y-26987904D01*
X61221904Y-27083142D01*
X61174285Y-27130761D01*
X61079047Y-27178380D01*
X60840952Y-27178380D01*
X60745714Y-27130761D01*
X60698095Y-27083142D01*
X61602857Y-26178380D02*
X62269523Y-26178380D01*
X61840952Y-27178380D01*
%TO.C,D64*%
X58856714Y-69286380D02*
X58856714Y-68286380D01*
X59094809Y-68286380D01*
X59237666Y-68334000D01*
X59332904Y-68429238D01*
X59380523Y-68524476D01*
X59428142Y-68714952D01*
X59428142Y-68857809D01*
X59380523Y-69048285D01*
X59332904Y-69143523D01*
X59237666Y-69238761D01*
X59094809Y-69286380D01*
X58856714Y-69286380D01*
X60285285Y-68286380D02*
X60094809Y-68286380D01*
X59999571Y-68334000D01*
X59951952Y-68381619D01*
X59856714Y-68524476D01*
X59809095Y-68714952D01*
X59809095Y-69095904D01*
X59856714Y-69191142D01*
X59904333Y-69238761D01*
X59999571Y-69286380D01*
X60190047Y-69286380D01*
X60285285Y-69238761D01*
X60332904Y-69191142D01*
X60380523Y-69095904D01*
X60380523Y-68857809D01*
X60332904Y-68762571D01*
X60285285Y-68714952D01*
X60190047Y-68667333D01*
X59999571Y-68667333D01*
X59904333Y-68714952D01*
X59856714Y-68762571D01*
X59809095Y-68857809D01*
X61237666Y-68619714D02*
X61237666Y-69286380D01*
X60999571Y-68238761D02*
X60761476Y-68953047D01*
X61380523Y-68953047D01*
%TO.C,U3*%
X80177380Y-99436904D02*
X80986904Y-99436904D01*
X81082142Y-99389285D01*
X81129761Y-99341666D01*
X81177380Y-99246428D01*
X81177380Y-99055952D01*
X81129761Y-98960714D01*
X81082142Y-98913095D01*
X80986904Y-98865476D01*
X80177380Y-98865476D01*
X80177380Y-98484523D02*
X80177380Y-97865476D01*
X80558333Y-98198809D01*
X80558333Y-98055952D01*
X80605952Y-97960714D01*
X80653571Y-97913095D01*
X80748809Y-97865476D01*
X80986904Y-97865476D01*
X81082142Y-97913095D01*
X81129761Y-97960714D01*
X81177380Y-98055952D01*
X81177380Y-98341666D01*
X81129761Y-98436904D01*
X81082142Y-98484523D01*
%TO.C,D30*%
X85412380Y-76271285D02*
X84412380Y-76271285D01*
X84412380Y-76033190D01*
X84460000Y-75890333D01*
X84555238Y-75795095D01*
X84650476Y-75747476D01*
X84840952Y-75699857D01*
X84983809Y-75699857D01*
X85174285Y-75747476D01*
X85269523Y-75795095D01*
X85364761Y-75890333D01*
X85412380Y-76033190D01*
X85412380Y-76271285D01*
X84412380Y-75366523D02*
X84412380Y-74747476D01*
X84793333Y-75080809D01*
X84793333Y-74937952D01*
X84840952Y-74842714D01*
X84888571Y-74795095D01*
X84983809Y-74747476D01*
X85221904Y-74747476D01*
X85317142Y-74795095D01*
X85364761Y-74842714D01*
X85412380Y-74937952D01*
X85412380Y-75223666D01*
X85364761Y-75318904D01*
X85317142Y-75366523D01*
X84412380Y-74128428D02*
X84412380Y-74033190D01*
X84460000Y-73937952D01*
X84507619Y-73890333D01*
X84602857Y-73842714D01*
X84793333Y-73795095D01*
X85031428Y-73795095D01*
X85221904Y-73842714D01*
X85317142Y-73890333D01*
X85364761Y-73937952D01*
X85412380Y-74033190D01*
X85412380Y-74128428D01*
X85364761Y-74223666D01*
X85317142Y-74271285D01*
X85221904Y-74318904D01*
X85031428Y-74366523D01*
X84793333Y-74366523D01*
X84602857Y-74318904D01*
X84507619Y-74271285D01*
X84460000Y-74223666D01*
X84412380Y-74128428D01*
%TO.C,D72*%
X113665380Y-60904285D02*
X112665380Y-60904285D01*
X112665380Y-60666190D01*
X112713000Y-60523333D01*
X112808238Y-60428095D01*
X112903476Y-60380476D01*
X113093952Y-60332857D01*
X113236809Y-60332857D01*
X113427285Y-60380476D01*
X113522523Y-60428095D01*
X113617761Y-60523333D01*
X113665380Y-60666190D01*
X113665380Y-60904285D01*
X112665380Y-59999523D02*
X112665380Y-59332857D01*
X113665380Y-59761428D01*
X112760619Y-58999523D02*
X112713000Y-58951904D01*
X112665380Y-58856666D01*
X112665380Y-58618571D01*
X112713000Y-58523333D01*
X112760619Y-58475714D01*
X112855857Y-58428095D01*
X112951095Y-58428095D01*
X113093952Y-58475714D01*
X113665380Y-59047142D01*
X113665380Y-58428095D01*
%TO.C,D69*%
X71563380Y-82748285D02*
X70563380Y-82748285D01*
X70563380Y-82510190D01*
X70611000Y-82367333D01*
X70706238Y-82272095D01*
X70801476Y-82224476D01*
X70991952Y-82176857D01*
X71134809Y-82176857D01*
X71325285Y-82224476D01*
X71420523Y-82272095D01*
X71515761Y-82367333D01*
X71563380Y-82510190D01*
X71563380Y-82748285D01*
X70563380Y-81319714D02*
X70563380Y-81510190D01*
X70611000Y-81605428D01*
X70658619Y-81653047D01*
X70801476Y-81748285D01*
X70991952Y-81795904D01*
X71372904Y-81795904D01*
X71468142Y-81748285D01*
X71515761Y-81700666D01*
X71563380Y-81605428D01*
X71563380Y-81414952D01*
X71515761Y-81319714D01*
X71468142Y-81272095D01*
X71372904Y-81224476D01*
X71134809Y-81224476D01*
X71039571Y-81272095D01*
X70991952Y-81319714D01*
X70944333Y-81414952D01*
X70944333Y-81605428D01*
X70991952Y-81700666D01*
X71039571Y-81748285D01*
X71134809Y-81795904D01*
X71563380Y-80748285D02*
X71563380Y-80557809D01*
X71515761Y-80462571D01*
X71468142Y-80414952D01*
X71325285Y-80319714D01*
X71134809Y-80272095D01*
X70753857Y-80272095D01*
X70658619Y-80319714D01*
X70611000Y-80367333D01*
X70563380Y-80462571D01*
X70563380Y-80653047D01*
X70611000Y-80748285D01*
X70658619Y-80795904D01*
X70753857Y-80843523D01*
X70991952Y-80843523D01*
X71087190Y-80795904D01*
X71134809Y-80748285D01*
X71182428Y-80653047D01*
X71182428Y-80462571D01*
X71134809Y-80367333D01*
X71087190Y-80319714D01*
X70991952Y-80272095D01*
%TO.C,U6*%
X63602380Y-107686904D02*
X64411904Y-107686904D01*
X64507142Y-107639285D01*
X64554761Y-107591666D01*
X64602380Y-107496428D01*
X64602380Y-107305952D01*
X64554761Y-107210714D01*
X64507142Y-107163095D01*
X64411904Y-107115476D01*
X63602380Y-107115476D01*
X63602380Y-106210714D02*
X63602380Y-106401190D01*
X63650000Y-106496428D01*
X63697619Y-106544047D01*
X63840476Y-106639285D01*
X64030952Y-106686904D01*
X64411904Y-106686904D01*
X64507142Y-106639285D01*
X64554761Y-106591666D01*
X64602380Y-106496428D01*
X64602380Y-106305952D01*
X64554761Y-106210714D01*
X64507142Y-106163095D01*
X64411904Y-106115476D01*
X64173809Y-106115476D01*
X64078571Y-106163095D01*
X64030952Y-106210714D01*
X63983333Y-106305952D01*
X63983333Y-106496428D01*
X64030952Y-106591666D01*
X64078571Y-106639285D01*
X64173809Y-106686904D01*
%TO.C,D71*%
X103052714Y-29337380D02*
X103052714Y-28337380D01*
X103290809Y-28337380D01*
X103433666Y-28385000D01*
X103528904Y-28480238D01*
X103576523Y-28575476D01*
X103624142Y-28765952D01*
X103624142Y-28908809D01*
X103576523Y-29099285D01*
X103528904Y-29194523D01*
X103433666Y-29289761D01*
X103290809Y-29337380D01*
X103052714Y-29337380D01*
X103957476Y-28337380D02*
X104624142Y-28337380D01*
X104195571Y-29337380D01*
X105528904Y-29337380D02*
X104957476Y-29337380D01*
X105243190Y-29337380D02*
X105243190Y-28337380D01*
X105147952Y-28480238D01*
X105052714Y-28575476D01*
X104957476Y-28623095D01*
%TO.C,R7*%
X59126380Y-97194666D02*
X58650190Y-97528000D01*
X59126380Y-97766095D02*
X58126380Y-97766095D01*
X58126380Y-97385142D01*
X58174000Y-97289904D01*
X58221619Y-97242285D01*
X58316857Y-97194666D01*
X58459714Y-97194666D01*
X58554952Y-97242285D01*
X58602571Y-97289904D01*
X58650190Y-97385142D01*
X58650190Y-97766095D01*
X58126380Y-96861333D02*
X58126380Y-96194666D01*
X59126380Y-96623238D01*
%TO.C,D19*%
X57970380Y-50490285D02*
X56970380Y-50490285D01*
X56970380Y-50252190D01*
X57018000Y-50109333D01*
X57113238Y-50014095D01*
X57208476Y-49966476D01*
X57398952Y-49918857D01*
X57541809Y-49918857D01*
X57732285Y-49966476D01*
X57827523Y-50014095D01*
X57922761Y-50109333D01*
X57970380Y-50252190D01*
X57970380Y-50490285D01*
X57970380Y-48966476D02*
X57970380Y-49537904D01*
X57970380Y-49252190D02*
X56970380Y-49252190D01*
X57113238Y-49347428D01*
X57208476Y-49442666D01*
X57256095Y-49537904D01*
X57970380Y-48490285D02*
X57970380Y-48299809D01*
X57922761Y-48204571D01*
X57875142Y-48156952D01*
X57732285Y-48061714D01*
X57541809Y-48014095D01*
X57160857Y-48014095D01*
X57065619Y-48061714D01*
X57018000Y-48109333D01*
X56970380Y-48204571D01*
X56970380Y-48395047D01*
X57018000Y-48490285D01*
X57065619Y-48537904D01*
X57160857Y-48585523D01*
X57398952Y-48585523D01*
X57494190Y-48537904D01*
X57541809Y-48490285D01*
X57589428Y-48395047D01*
X57589428Y-48204571D01*
X57541809Y-48109333D01*
X57494190Y-48061714D01*
X57398952Y-48014095D01*
%TO.C,R8*%
X78702380Y-97606666D02*
X78226190Y-97940000D01*
X78702380Y-98178095D02*
X77702380Y-98178095D01*
X77702380Y-97797142D01*
X77750000Y-97701904D01*
X77797619Y-97654285D01*
X77892857Y-97606666D01*
X78035714Y-97606666D01*
X78130952Y-97654285D01*
X78178571Y-97701904D01*
X78226190Y-97797142D01*
X78226190Y-98178095D01*
X78130952Y-97035238D02*
X78083333Y-97130476D01*
X78035714Y-97178095D01*
X77940476Y-97225714D01*
X77892857Y-97225714D01*
X77797619Y-97178095D01*
X77750000Y-97130476D01*
X77702380Y-97035238D01*
X77702380Y-96844761D01*
X77750000Y-96749523D01*
X77797619Y-96701904D01*
X77892857Y-96654285D01*
X77940476Y-96654285D01*
X78035714Y-96701904D01*
X78083333Y-96749523D01*
X78130952Y-96844761D01*
X78130952Y-97035238D01*
X78178571Y-97130476D01*
X78226190Y-97178095D01*
X78321428Y-97225714D01*
X78511904Y-97225714D01*
X78607142Y-97178095D01*
X78654761Y-97130476D01*
X78702380Y-97035238D01*
X78702380Y-96844761D01*
X78654761Y-96749523D01*
X78607142Y-96701904D01*
X78511904Y-96654285D01*
X78321428Y-96654285D01*
X78226190Y-96701904D01*
X78178571Y-96749523D01*
X78130952Y-96844761D01*
%TO.C,D48*%
X31355714Y-66692380D02*
X31355714Y-65692380D01*
X31593809Y-65692380D01*
X31736666Y-65740000D01*
X31831904Y-65835238D01*
X31879523Y-65930476D01*
X31927142Y-66120952D01*
X31927142Y-66263809D01*
X31879523Y-66454285D01*
X31831904Y-66549523D01*
X31736666Y-66644761D01*
X31593809Y-66692380D01*
X31355714Y-66692380D01*
X32784285Y-66025714D02*
X32784285Y-66692380D01*
X32546190Y-65644761D02*
X32308095Y-66359047D01*
X32927142Y-66359047D01*
X33450952Y-66120952D02*
X33355714Y-66073333D01*
X33308095Y-66025714D01*
X33260476Y-65930476D01*
X33260476Y-65882857D01*
X33308095Y-65787619D01*
X33355714Y-65740000D01*
X33450952Y-65692380D01*
X33641428Y-65692380D01*
X33736666Y-65740000D01*
X33784285Y-65787619D01*
X33831904Y-65882857D01*
X33831904Y-65930476D01*
X33784285Y-66025714D01*
X33736666Y-66073333D01*
X33641428Y-66120952D01*
X33450952Y-66120952D01*
X33355714Y-66168571D01*
X33308095Y-66216190D01*
X33260476Y-66311428D01*
X33260476Y-66501904D01*
X33308095Y-66597142D01*
X33355714Y-66644761D01*
X33450952Y-66692380D01*
X33641428Y-66692380D01*
X33736666Y-66644761D01*
X33784285Y-66597142D01*
X33831904Y-66501904D01*
X33831904Y-66311428D01*
X33784285Y-66216190D01*
X33736666Y-66168571D01*
X33641428Y-66120952D01*
%TO.C,D24*%
X85376380Y-50744285D02*
X84376380Y-50744285D01*
X84376380Y-50506190D01*
X84424000Y-50363333D01*
X84519238Y-50268095D01*
X84614476Y-50220476D01*
X84804952Y-50172857D01*
X84947809Y-50172857D01*
X85138285Y-50220476D01*
X85233523Y-50268095D01*
X85328761Y-50363333D01*
X85376380Y-50506190D01*
X85376380Y-50744285D01*
X84471619Y-49791904D02*
X84424000Y-49744285D01*
X84376380Y-49649047D01*
X84376380Y-49410952D01*
X84424000Y-49315714D01*
X84471619Y-49268095D01*
X84566857Y-49220476D01*
X84662095Y-49220476D01*
X84804952Y-49268095D01*
X85376380Y-49839523D01*
X85376380Y-49220476D01*
X84709714Y-48363333D02*
X85376380Y-48363333D01*
X84328761Y-48601428D02*
X85043047Y-48839523D01*
X85043047Y-48220476D01*
%TO.C,D67*%
X93924380Y-79065285D02*
X92924380Y-79065285D01*
X92924380Y-78827190D01*
X92972000Y-78684333D01*
X93067238Y-78589095D01*
X93162476Y-78541476D01*
X93352952Y-78493857D01*
X93495809Y-78493857D01*
X93686285Y-78541476D01*
X93781523Y-78589095D01*
X93876761Y-78684333D01*
X93924380Y-78827190D01*
X93924380Y-79065285D01*
X92924380Y-77636714D02*
X92924380Y-77827190D01*
X92972000Y-77922428D01*
X93019619Y-77970047D01*
X93162476Y-78065285D01*
X93352952Y-78112904D01*
X93733904Y-78112904D01*
X93829142Y-78065285D01*
X93876761Y-78017666D01*
X93924380Y-77922428D01*
X93924380Y-77731952D01*
X93876761Y-77636714D01*
X93829142Y-77589095D01*
X93733904Y-77541476D01*
X93495809Y-77541476D01*
X93400571Y-77589095D01*
X93352952Y-77636714D01*
X93305333Y-77731952D01*
X93305333Y-77922428D01*
X93352952Y-78017666D01*
X93400571Y-78065285D01*
X93495809Y-78112904D01*
X92924380Y-77208142D02*
X92924380Y-76541476D01*
X93924380Y-76970047D01*
D11*
%TO.C,U2*%
X68030000Y-104430000D02*
X66930000Y-104430000D01*
X68030000Y-98070000D02*
X65200000Y-98070000D01*
X69530000Y-97800000D02*
X68030000Y-97800000D01*
X69530000Y-104700000D02*
X68030000Y-104700000D01*
X68030000Y-104700000D02*
X68030000Y-104430000D01*
X68030000Y-97800000D02*
X68030000Y-98070000D01*
%TO.C,D63*%
X53546000Y-81582000D02*
X53546000Y-83957000D01*
X53546000Y-87457000D02*
X53546000Y-85082000D01*
X49546000Y-87582000D02*
X53546000Y-87582000D01*
X49546000Y-81582000D02*
X53546000Y-81582000D01*
%TO.C,D18*%
X52964000Y-31490000D02*
X53120000Y-31490000D01*
X55280000Y-31490000D02*
X55436000Y-31490000D01*
X53120163Y-28888870D02*
G75*
G03*
X53120000Y-30970961I1079837J-1041130D01*
G01*
X55280000Y-30970961D02*
G75*
G03*
X55279837Y-28888870I-1080000J1040961D01*
G01*
X53121392Y-28257665D02*
G75*
G03*
X52964484Y-31490000I1078608J-1672335D01*
G01*
X55435516Y-31490000D02*
G75*
G03*
X55278608Y-28257665I-1235516J1560000D01*
G01*
%TO.C,D32*%
X31140000Y-107040000D02*
X31140000Y-108960000D01*
X31140000Y-108960000D02*
X34000000Y-108960000D01*
X34000000Y-107040000D02*
X31140000Y-107040000D01*
%TO.C,D65*%
X83106000Y-64754000D02*
X83106000Y-60754000D01*
X83106000Y-60754000D02*
X85481000Y-60754000D01*
X89106000Y-64754000D02*
X89106000Y-60754000D01*
X88981000Y-60754000D02*
X86606000Y-60754000D01*
%TO.C,J1*%
X75974000Y-116194000D02*
X75974000Y-118094000D01*
X66774000Y-116194000D02*
X69374000Y-116194000D01*
X66774000Y-130894000D02*
X66774000Y-116194000D01*
X66574000Y-117044000D02*
X66574000Y-115994000D01*
X75974000Y-122094000D02*
X75974000Y-130894000D01*
X73274000Y-116194000D02*
X75974000Y-116194000D01*
X67624000Y-115994000D02*
X66574000Y-115994000D01*
X75974000Y-130894000D02*
X66774000Y-130894000D01*
%TO.C,D3*%
X120625000Y-101920000D02*
X120625000Y-101764000D01*
X120625000Y-104236000D02*
X120625000Y-104080000D01*
X120105961Y-101920000D02*
G75*
G03*
X118023870Y-101920163I-1040961J-1080000D01*
G01*
X118023870Y-104079837D02*
G75*
G03*
X120105961Y-104080000I1041130J1079837D01*
G01*
X117392665Y-104078608D02*
G75*
G03*
X120625000Y-104235516I1672335J1078608D01*
G01*
X120625000Y-101764484D02*
G75*
G03*
X117392665Y-101921392I-1560000J-1235516D01*
G01*
%TO.C,D29*%
X76510000Y-73197000D02*
X76510000Y-76057000D01*
X78430000Y-76057000D02*
X78430000Y-73197000D01*
X78430000Y-73197000D02*
X76510000Y-73197000D01*
%TO.C,D58*%
X68120000Y-50784000D02*
X68120000Y-46784000D01*
X73995000Y-46784000D02*
X71620000Y-46784000D01*
X68120000Y-46784000D02*
X70495000Y-46784000D01*
X74120000Y-50784000D02*
X74120000Y-46784000D01*
%TO.C,D49*%
X87200000Y-35300000D02*
X90400000Y-35300000D01*
X90400000Y-31400000D02*
X90400000Y-35300000D01*
X87200000Y-31400000D02*
X87200000Y-35300000D01*
%TO.C,D9*%
X104684000Y-95216000D02*
X104684000Y-95060000D01*
X104684000Y-92900000D02*
X104684000Y-92744000D01*
X104684000Y-92744484D02*
G75*
G03*
X101451665Y-92901392I-1560000J-1235516D01*
G01*
X104164961Y-92900000D02*
G75*
G03*
X102082870Y-92900163I-1040961J-1080000D01*
G01*
X101451665Y-95058608D02*
G75*
G03*
X104684000Y-95215516I1672335J1078608D01*
G01*
X102082870Y-95059837D02*
G75*
G03*
X104164961Y-95060000I1041130J1079837D01*
G01*
%TO.C,D45*%
X64080000Y-88815000D02*
X64236000Y-88815000D01*
X61764000Y-88815000D02*
X61920000Y-88815000D01*
X64235516Y-88815000D02*
G75*
G03*
X64078608Y-85582665I-1235516J1560000D01*
G01*
X61921392Y-85582665D02*
G75*
G03*
X61764484Y-88815000I1078608J-1672335D01*
G01*
X64080000Y-88295961D02*
G75*
G03*
X64079837Y-86213870I-1080000J1040961D01*
G01*
X61920163Y-86213870D02*
G75*
G03*
X61920000Y-88295961I1079837J-1041130D01*
G01*
%TO.C,D22*%
X77140000Y-48384000D02*
X77140000Y-52284000D01*
X77140000Y-52284000D02*
X80340000Y-52284000D01*
X80340000Y-48384000D02*
X80340000Y-52284000D01*
%TO.C,D60*%
X102664000Y-75611000D02*
X102664000Y-77986000D01*
X106664000Y-75486000D02*
X102664000Y-75486000D01*
X106664000Y-81486000D02*
X102664000Y-81486000D01*
X102664000Y-81486000D02*
X102664000Y-79111000D01*
%TO.C,D26*%
X73970000Y-61894000D02*
X73970000Y-64754000D01*
X75890000Y-64754000D02*
X75890000Y-61894000D01*
X75890000Y-61894000D02*
X73970000Y-61894000D01*
%TO.C,D25*%
X69012000Y-64900000D02*
X69012000Y-61000000D01*
X72212000Y-61000000D02*
X69012000Y-61000000D01*
X72212000Y-64900000D02*
X72212000Y-61000000D01*
%TO.C,D35*%
X103550000Y-67112000D02*
X103550000Y-69032000D01*
X106410000Y-67112000D02*
X103550000Y-67112000D01*
X103550000Y-69032000D02*
X106410000Y-69032000D01*
%TO.C,U4*%
X69530000Y-90050000D02*
X68030000Y-90050000D01*
X68030000Y-90320000D02*
X65200000Y-90320000D01*
X68030000Y-96950000D02*
X68030000Y-96680000D01*
X68030000Y-90050000D02*
X68030000Y-90320000D01*
X68030000Y-96680000D02*
X66930000Y-96680000D01*
X69530000Y-96950000D02*
X68030000Y-96950000D01*
%TO.C,D40*%
X97920000Y-70600000D02*
X94020000Y-70600000D01*
X94020000Y-67400000D02*
X94020000Y-70600000D01*
X97920000Y-67400000D02*
X94020000Y-67400000D01*
%TO.C,D13*%
X90400000Y-88400000D02*
X90400000Y-84500000D01*
X93600000Y-88400000D02*
X93600000Y-84500000D01*
X93600000Y-84500000D02*
X90400000Y-84500000D01*
%TO.C,D39*%
X52290000Y-99420000D02*
X52290000Y-99264000D01*
X52290000Y-101736000D02*
X52290000Y-101580000D01*
X49057665Y-101578608D02*
G75*
G03*
X52290000Y-101735516I1672335J1078608D01*
G01*
X49688870Y-101579837D02*
G75*
G03*
X51770961Y-101580000I1041130J1079837D01*
G01*
X52290000Y-99264484D02*
G75*
G03*
X49057665Y-99421392I-1560000J-1235516D01*
G01*
X51770961Y-99420000D02*
G75*
G03*
X49688870Y-99420163I-1040961J-1080000D01*
G01*
%TO.C,U1*%
X84530000Y-105320000D02*
X81700000Y-105320000D01*
X86030000Y-111950000D02*
X84530000Y-111950000D01*
X86030000Y-105050000D02*
X84530000Y-105050000D01*
X84530000Y-105050000D02*
X84530000Y-105320000D01*
X84530000Y-111950000D02*
X84530000Y-111680000D01*
X84530000Y-111680000D02*
X83430000Y-111680000D01*
%TO.C,J3*%
X55566000Y-126528000D02*
X65846000Y-126528000D01*
X55566000Y-117167000D02*
X65846000Y-117167000D01*
X55326000Y-127328000D02*
X55826000Y-127328000D01*
X62212000Y-123667000D02*
X62177000Y-123702000D01*
X55566000Y-127088000D02*
X65846000Y-127088000D01*
X55566000Y-125028000D02*
X65846000Y-125028000D01*
X65846000Y-117167000D02*
X65846000Y-127088000D01*
X62019000Y-123451000D02*
X61972000Y-123497000D01*
X55566000Y-120127000D02*
X65846000Y-120127000D01*
X55326000Y-126588000D02*
X55326000Y-127328000D01*
X55566000Y-117167000D02*
X55566000Y-127088000D01*
X64316000Y-121153000D02*
X64281000Y-121189000D01*
X64521000Y-121359000D02*
X64474000Y-121405000D01*
X57482000Y-123963000D02*
G75*
G03*
X58194805Y-124108253I683999J1535001D01*
G01*
X56631000Y-121744000D02*
G75*
G03*
X56630573Y-123111042I1534993J-684001D01*
G01*
X58850000Y-120893000D02*
G75*
G03*
X57482958Y-120892573I-684001J-1534993D01*
G01*
X59701001Y-123112000D02*
G75*
G03*
X59701427Y-121744958I-1535001J684000D01*
G01*
X58166000Y-124108000D02*
G75*
G03*
X58849318Y-123962756I0J1680000D01*
G01*
X64926000Y-122428000D02*
G75*
G03*
X64926000Y-122428000I-1680000J0D01*
G01*
%TO.C,R3*%
X81772936Y-99765000D02*
X82227064Y-99765000D01*
X81772936Y-101235000D02*
X82227064Y-101235000D01*
%TO.C,D46*%
X30200000Y-76300000D02*
X30200000Y-79500000D01*
X34100000Y-76300000D02*
X30200000Y-76300000D01*
X34100000Y-79500000D02*
X30200000Y-79500000D01*
%TO.C,D37*%
X49100000Y-92600000D02*
X53000000Y-92600000D01*
X49100000Y-89400000D02*
X53000000Y-89400000D01*
X53000000Y-92600000D02*
X53000000Y-89400000D01*
%TO.C,R1*%
X81772936Y-108735000D02*
X82227064Y-108735000D01*
X81772936Y-107265000D02*
X82227064Y-107265000D01*
%TO.C,C1*%
X85321252Y-114405000D02*
X84798748Y-114405000D01*
X85321252Y-112935000D02*
X84798748Y-112935000D01*
%TO.C,D16*%
X46800000Y-28600000D02*
X46800000Y-32500000D01*
X43600000Y-28600000D02*
X43600000Y-32500000D01*
X43600000Y-32500000D02*
X46800000Y-32500000D01*
%TO.C,R4*%
X65727064Y-92265000D02*
X65272936Y-92265000D01*
X65727064Y-93735000D02*
X65272936Y-93735000D01*
%TO.C,D62*%
X96472000Y-52784000D02*
X94097000Y-52784000D01*
X90472000Y-48784000D02*
X90472000Y-52784000D01*
X90597000Y-52784000D02*
X92972000Y-52784000D01*
X96472000Y-48784000D02*
X96472000Y-52784000D01*
%TO.C,D47*%
X33600000Y-72840000D02*
X30740000Y-72840000D01*
X30740000Y-74760000D02*
X33600000Y-74760000D01*
X30740000Y-72840000D02*
X30740000Y-74760000D01*
%TO.C,D34*%
X103000000Y-62408000D02*
X103000000Y-65608000D01*
X106900000Y-62408000D02*
X103000000Y-62408000D01*
X106900000Y-65608000D02*
X103000000Y-65608000D01*
%TO.C,D38*%
X49670000Y-96460000D02*
X52530000Y-96460000D01*
X52530000Y-94540000D02*
X49670000Y-94540000D01*
X52530000Y-96460000D02*
X52530000Y-94540000D01*
%TO.C,D36*%
X103710000Y-71662000D02*
X103710000Y-71818000D01*
X103710000Y-73978000D02*
X103710000Y-74134000D01*
X106311130Y-71818163D02*
G75*
G03*
X104229039Y-71818000I-1041130J-1079837D01*
G01*
X103710000Y-74133516D02*
G75*
G03*
X106942335Y-73976608I1560000J1235516D01*
G01*
X106942335Y-71819392D02*
G75*
G03*
X103710000Y-71662484I-1672335J-1078608D01*
G01*
X104229039Y-73978000D02*
G75*
G03*
X106311130Y-73977837I1040961J1080000D01*
G01*
%TO.C,D41*%
X94660000Y-72040000D02*
X94660000Y-73960000D01*
X94660000Y-73960000D02*
X97520000Y-73960000D01*
X97520000Y-72040000D02*
X94660000Y-72040000D01*
%TO.C,D20*%
X58476000Y-47640000D02*
X58476000Y-50500000D01*
X60396000Y-50500000D02*
X60396000Y-47640000D01*
X60396000Y-47640000D02*
X58476000Y-47640000D01*
%TO.C,D11*%
X61550000Y-77160000D02*
X61550000Y-75240000D01*
X61550000Y-75240000D02*
X58690000Y-75240000D01*
X58690000Y-77160000D02*
X61550000Y-77160000D01*
%TO.C,D44*%
X68710000Y-89610000D02*
X68710000Y-86750000D01*
X66790000Y-89610000D02*
X68710000Y-89610000D01*
X66790000Y-86750000D02*
X66790000Y-89610000D01*
%TO.C,D33*%
X31620000Y-114080000D02*
X31620000Y-114236000D01*
X31620000Y-111764000D02*
X31620000Y-111920000D01*
X31620000Y-114235516D02*
G75*
G03*
X34852335Y-114078608I1560000J1235516D01*
G01*
X34221130Y-111920163D02*
G75*
G03*
X32139039Y-111920000I-1041130J-1079837D01*
G01*
X32139039Y-114080000D02*
G75*
G03*
X34221130Y-114079837I1040961J1080000D01*
G01*
X34852335Y-111921392D02*
G75*
G03*
X31620000Y-111764484I-1672335J-1078608D01*
G01*
%TO.C,R9*%
X60630000Y-91420000D02*
X60960000Y-91420000D01*
X63040000Y-97960000D02*
X63370000Y-97960000D01*
X60960000Y-97960000D02*
X60630000Y-97960000D01*
X63370000Y-97960000D02*
X63370000Y-91420000D01*
X60630000Y-97960000D02*
X60630000Y-91420000D01*
X63370000Y-91420000D02*
X63040000Y-91420000D01*
%TO.C,R2*%
X65812936Y-100103000D02*
X66267064Y-100103000D01*
X65812936Y-101573000D02*
X66267064Y-101573000D01*
%TO.C,R10*%
X75978000Y-84040000D02*
X75978000Y-84370000D01*
X82518000Y-81630000D02*
X82518000Y-81960000D01*
X82518000Y-84370000D02*
X82518000Y-84040000D01*
X75978000Y-84370000D02*
X82518000Y-84370000D01*
X75978000Y-81630000D02*
X82518000Y-81630000D01*
X75978000Y-81960000D02*
X75978000Y-81630000D01*
%TO.C,D31*%
X34480000Y-102400000D02*
X30580000Y-102400000D01*
X34480000Y-105600000D02*
X30580000Y-105600000D01*
X30580000Y-102400000D02*
X30580000Y-105600000D01*
%TO.C,D56*%
X47958000Y-56436000D02*
X47958000Y-58811000D01*
X47958000Y-62311000D02*
X47958000Y-59936000D01*
X43958000Y-56436000D02*
X47958000Y-56436000D01*
X43958000Y-62436000D02*
X47958000Y-62436000D01*
%TO.C,D17*%
X48440000Y-28800000D02*
X48440000Y-31660000D01*
X48440000Y-31660000D02*
X50360000Y-31660000D01*
X50360000Y-31660000D02*
X50360000Y-28800000D01*
%TO.C,R12*%
X58000000Y-112880000D02*
X58000000Y-113210000D01*
X58000000Y-115620000D02*
X58000000Y-115290000D01*
X64540000Y-115620000D02*
X58000000Y-115620000D01*
X64540000Y-115290000D02*
X64540000Y-115620000D01*
X64540000Y-112880000D02*
X58000000Y-112880000D01*
X64540000Y-113210000D02*
X64540000Y-112880000D01*
%TO.C,D5*%
X44500000Y-71960000D02*
X47360000Y-71960000D01*
X47360000Y-71960000D02*
X47360000Y-70040000D01*
X47360000Y-70040000D02*
X44500000Y-70040000D01*
%TO.C,D53*%
X118510000Y-72210000D02*
X118510000Y-70290000D01*
X115650000Y-72210000D02*
X118510000Y-72210000D01*
X118510000Y-70290000D02*
X115650000Y-70290000D01*
%TO.C,D28*%
X75100000Y-72557000D02*
X71900000Y-72557000D01*
X75100000Y-76457000D02*
X75100000Y-72557000D01*
X71900000Y-76457000D02*
X71900000Y-72557000D01*
%TO.C,D7*%
X101724000Y-86690000D02*
X105624000Y-86690000D01*
X105624000Y-86690000D02*
X105624000Y-83490000D01*
X101724000Y-83490000D02*
X105624000Y-83490000D01*
%TO.C,R11*%
X66227064Y-108065000D02*
X65772936Y-108065000D01*
X66227064Y-109535000D02*
X65772936Y-109535000D01*
%TO.C,D23*%
X81844000Y-51136000D02*
X83764000Y-51136000D01*
X81844000Y-48276000D02*
X81844000Y-51136000D01*
X83764000Y-51136000D02*
X83764000Y-48276000D01*
%TO.C,D43*%
X73600000Y-85600000D02*
X73600000Y-89500000D01*
X70400000Y-85600000D02*
X70400000Y-89500000D01*
X70400000Y-89500000D02*
X73600000Y-89500000D01*
%TO.C,D27*%
X78422000Y-62194000D02*
X78266000Y-62194000D01*
X80738000Y-62194000D02*
X80582000Y-62194000D01*
X80580608Y-65426335D02*
G75*
G03*
X80737516Y-62194000I-1078608J1672335D01*
G01*
X80581837Y-64795130D02*
G75*
G03*
X80582000Y-62713039I-1079837J1041130D01*
G01*
X78422000Y-62713039D02*
G75*
G03*
X78422163Y-64795130I1080000J-1040961D01*
G01*
X78266484Y-62194000D02*
G75*
G03*
X78423392Y-65426335I1235516J-1560000D01*
G01*
%TO.C,D6*%
X46790000Y-64420000D02*
X46790000Y-64264000D01*
X46790000Y-66736000D02*
X46790000Y-66580000D01*
X43557665Y-66578608D02*
G75*
G03*
X46790000Y-66735516I1672335J1078608D01*
G01*
X46270961Y-64420000D02*
G75*
G03*
X44188870Y-64420163I-1040961J-1080000D01*
G01*
X44188870Y-66579837D02*
G75*
G03*
X46270961Y-66580000I1041130J1079837D01*
G01*
X46790000Y-64264484D02*
G75*
G03*
X43557665Y-64421392I-1560000J-1235516D01*
G01*
%TO.C,D2*%
X120860000Y-108960000D02*
X120860000Y-107040000D01*
X120860000Y-107040000D02*
X118000000Y-107040000D01*
X118000000Y-108960000D02*
X120860000Y-108960000D01*
%TO.C,R5*%
X83031064Y-93735000D02*
X82576936Y-93735000D01*
X83031064Y-92265000D02*
X82576936Y-92265000D01*
%TO.C,D1*%
X117600000Y-113600000D02*
X121500000Y-113600000D01*
X121500000Y-113600000D02*
X121500000Y-110400000D01*
X117600000Y-110400000D02*
X121500000Y-110400000D01*
%TO.C,D59*%
X33813000Y-95044000D02*
X29813000Y-95044000D01*
X33813000Y-101044000D02*
X29813000Y-101044000D01*
X29813000Y-101044000D02*
X29813000Y-98669000D01*
X29813000Y-95169000D02*
X29813000Y-97544000D01*
%TO.C,D12*%
X61504000Y-83278000D02*
X61504000Y-83122000D01*
X61504000Y-80962000D02*
X61504000Y-80806000D01*
X58271665Y-83120608D02*
G75*
G03*
X61504000Y-83277516I1672335J1078608D01*
G01*
X60984961Y-80962000D02*
G75*
G03*
X58902870Y-80962163I-1040961J-1080000D01*
G01*
X61504000Y-80806484D02*
G75*
G03*
X58271665Y-80963392I-1560000J-1235516D01*
G01*
X58902870Y-83121837D02*
G75*
G03*
X60984961Y-83122000I1041130J1079837D01*
G01*
%TO.C,D15*%
X84236000Y-85685000D02*
X84080000Y-85685000D01*
X81920000Y-85685000D02*
X81764000Y-85685000D01*
X81920000Y-86204039D02*
G75*
G03*
X81920163Y-88286130I1080000J-1040961D01*
G01*
X81764484Y-85685000D02*
G75*
G03*
X81921392Y-88917335I1235516J-1560000D01*
G01*
X84079837Y-88286130D02*
G75*
G03*
X84080000Y-86204039I-1079837J1041130D01*
G01*
X84078608Y-88917335D02*
G75*
G03*
X84235516Y-85685000I-1078608J1672335D01*
G01*
%TO.C,R6*%
X77130000Y-111590000D02*
X77460000Y-111590000D01*
X77130000Y-105050000D02*
X77130000Y-111590000D01*
X79870000Y-111590000D02*
X79540000Y-111590000D01*
X79540000Y-105050000D02*
X79870000Y-105050000D01*
X77460000Y-105050000D02*
X77130000Y-105050000D01*
X79870000Y-105050000D02*
X79870000Y-111590000D01*
%TO.C,D4*%
X44100000Y-73900000D02*
X48000000Y-73900000D01*
X44100000Y-77100000D02*
X48000000Y-77100000D01*
X48000000Y-77100000D02*
X48000000Y-73900000D01*
%TO.C,D10*%
X58544000Y-69520000D02*
X62444000Y-69520000D01*
X58544000Y-72720000D02*
X62444000Y-72720000D01*
X62444000Y-72720000D02*
X62444000Y-69520000D01*
%TO.C,D70*%
X29893000Y-59482000D02*
X29893000Y-61857000D01*
X29893000Y-65357000D02*
X29893000Y-62982000D01*
X33893000Y-65357000D02*
X29893000Y-65357000D01*
X33893000Y-59357000D02*
X29893000Y-59357000D01*
%TO.C,D51*%
X98805000Y-34165000D02*
X98961000Y-34165000D01*
X96489000Y-34165000D02*
X96645000Y-34165000D01*
X98960516Y-34165000D02*
G75*
G03*
X98803608Y-30932665I-1235516J1560000D01*
G01*
X96646392Y-30932665D02*
G75*
G03*
X96489484Y-34165000I1078608J-1672335D01*
G01*
X98805000Y-33645961D02*
G75*
G03*
X98804837Y-31563870I-1080000J1040961D01*
G01*
X96645163Y-31563870D02*
G75*
G03*
X96645000Y-33645961I1079837J-1041130D01*
G01*
%TO.C,D50*%
X92040000Y-34535000D02*
X93960000Y-34535000D01*
X92040000Y-31675000D02*
X92040000Y-34535000D01*
X93960000Y-34535000D02*
X93960000Y-31675000D01*
%TO.C,D52*%
X119150000Y-76850000D02*
X119150000Y-73650000D01*
X115250000Y-76850000D02*
X119150000Y-76850000D01*
X115250000Y-73650000D02*
X119150000Y-73650000D01*
%TO.C,D21*%
X63182000Y-47970000D02*
X63026000Y-47970000D01*
X65498000Y-47970000D02*
X65342000Y-47970000D01*
X65340608Y-51202335D02*
G75*
G03*
X65497516Y-47970000I-1078608J1672335D01*
G01*
X63182000Y-48489039D02*
G75*
G03*
X63182163Y-50571130I1080000J-1040961D01*
G01*
X63026484Y-47970000D02*
G75*
G03*
X63183392Y-51202335I1235516J-1560000D01*
G01*
X65341837Y-50571130D02*
G75*
G03*
X65342000Y-48489039I-1079837J1041130D01*
G01*
%TO.C,U5*%
X84530000Y-96680000D02*
X83430000Y-96680000D01*
X84530000Y-90320000D02*
X81700000Y-90320000D01*
X84530000Y-90050000D02*
X84530000Y-90320000D01*
X86030000Y-96950000D02*
X84530000Y-96950000D01*
X86030000Y-90050000D02*
X84530000Y-90050000D01*
X84530000Y-96950000D02*
X84530000Y-96680000D01*
%TO.C,D14*%
X86890000Y-85940000D02*
X86890000Y-88800000D01*
X88810000Y-88800000D02*
X88810000Y-85940000D01*
X88810000Y-85940000D02*
X86890000Y-85940000D01*
%TO.C,D55*%
X121525000Y-99075000D02*
X121525000Y-96700000D01*
X117525000Y-99200000D02*
X121525000Y-99200000D01*
X117525000Y-93200000D02*
X121525000Y-93200000D01*
X121525000Y-93200000D02*
X121525000Y-95575000D01*
%TO.C,D8*%
X104984000Y-90368000D02*
X104984000Y-88448000D01*
X104984000Y-88448000D02*
X102124000Y-88448000D01*
X102124000Y-90368000D02*
X104984000Y-90368000D01*
%TO.C,D61*%
X101774000Y-103838000D02*
X105774000Y-103838000D01*
X101774000Y-97838000D02*
X105774000Y-97838000D01*
X105774000Y-97838000D02*
X105774000Y-100213000D01*
X105774000Y-103713000D02*
X105774000Y-101338000D01*
%TO.C,D68*%
X82375000Y-72770000D02*
X80000000Y-72770000D01*
X76375000Y-68770000D02*
X76375000Y-72770000D01*
X82375000Y-68770000D02*
X82375000Y-72770000D01*
X76500000Y-72770000D02*
X78875000Y-72770000D01*
%TO.C,D66*%
X98028000Y-86312000D02*
X94028000Y-86312000D01*
X94028000Y-86312000D02*
X94028000Y-83937000D01*
X94028000Y-80437000D02*
X94028000Y-82812000D01*
X98028000Y-80312000D02*
X94028000Y-80312000D01*
%TO.C,D54*%
X118365000Y-65520000D02*
X118365000Y-65364000D01*
X118365000Y-67836000D02*
X118365000Y-67680000D01*
X118365000Y-65364484D02*
G75*
G03*
X115132665Y-65521392I-1560000J-1235516D01*
G01*
X117845961Y-65520000D02*
G75*
G03*
X115763870Y-65520163I-1040961J-1080000D01*
G01*
X115132665Y-67678608D02*
G75*
G03*
X118365000Y-67835516I1672335J1078608D01*
G01*
X115763870Y-67679837D02*
G75*
G03*
X117845961Y-67680000I1041130J1079837D01*
G01*
%TO.C,D42*%
X94960000Y-76488000D02*
X94960000Y-76644000D01*
X94960000Y-78804000D02*
X94960000Y-78960000D01*
X98192335Y-76645392D02*
G75*
G03*
X94960000Y-76488484I-1672335J-1078608D01*
G01*
X94960000Y-78959516D02*
G75*
G03*
X98192335Y-78802608I1560000J1235516D01*
G01*
X97561130Y-76644163D02*
G75*
G03*
X95479039Y-76644000I-1041130J-1079837D01*
G01*
X95479039Y-78804000D02*
G75*
G03*
X97561130Y-78803837I1040961J1080000D01*
G01*
%TO.C,SW1*%
X90124000Y-126334000D02*
X90124000Y-127074000D01*
X90364000Y-119873000D02*
X100644000Y-119873000D01*
X90364000Y-116913000D02*
X100644000Y-116913000D01*
X100644000Y-116913000D02*
X100644000Y-126834000D01*
X90364000Y-116913000D02*
X90364000Y-126834000D01*
X90364000Y-124774000D02*
X100644000Y-124774000D01*
X96817000Y-123197000D02*
X96770000Y-123243000D01*
X90364000Y-126274000D02*
X100644000Y-126274000D01*
X90364000Y-126834000D02*
X100644000Y-126834000D01*
X99114000Y-120899000D02*
X99079000Y-120935000D01*
X97010000Y-123413000D02*
X96975000Y-123448000D01*
X90124000Y-127074000D02*
X90624000Y-127074000D01*
X99319000Y-121105000D02*
X99272000Y-121151000D01*
X92280000Y-123709000D02*
G75*
G03*
X92992805Y-123854253I683999J1535001D01*
G01*
X92964000Y-123854000D02*
G75*
G03*
X93647318Y-123708756I0J1680000D01*
G01*
X91429000Y-121490000D02*
G75*
G03*
X91428573Y-122857042I1534993J-684001D01*
G01*
X93648000Y-120639000D02*
G75*
G03*
X92280958Y-120638573I-684001J-1534993D01*
G01*
X94499001Y-122858000D02*
G75*
G03*
X94499427Y-121490958I-1535001J684000D01*
G01*
X99724000Y-122174000D02*
G75*
G03*
X99724000Y-122174000I-1680000J0D01*
G01*
%TO.C,D57*%
X63960000Y-33226000D02*
X61585000Y-33226000D01*
X58085000Y-33226000D02*
X60460000Y-33226000D01*
X57960000Y-29226000D02*
X57960000Y-33226000D01*
X63960000Y-29226000D02*
X63960000Y-33226000D01*
%TO.C,D64*%
X59024000Y-62151000D02*
X63024000Y-62151000D01*
X63024000Y-62151000D02*
X63024000Y-64526000D01*
X63024000Y-68026000D02*
X63024000Y-65651000D01*
X59024000Y-68151000D02*
X63024000Y-68151000D01*
%TO.C,U3*%
X84530000Y-104180000D02*
X83430000Y-104180000D01*
X86030000Y-104450000D02*
X84530000Y-104450000D01*
X86030000Y-97550000D02*
X84530000Y-97550000D01*
X84530000Y-104450000D02*
X84530000Y-104180000D01*
X84530000Y-97550000D02*
X84530000Y-97820000D01*
X84530000Y-97820000D02*
X81700000Y-97820000D01*
%TO.C,D30*%
X83236000Y-73497000D02*
X83080000Y-73497000D01*
X80920000Y-73497000D02*
X80764000Y-73497000D01*
X83079837Y-76098130D02*
G75*
G03*
X83080000Y-74016039I-1079837J1041130D01*
G01*
X80764484Y-73497000D02*
G75*
G03*
X80921392Y-76729335I1235516J-1560000D01*
G01*
X83078608Y-76729335D02*
G75*
G03*
X83235516Y-73497000I-1078608J1672335D01*
G01*
X80920000Y-74016039D02*
G75*
G03*
X80920163Y-76098130I1080000J-1040961D01*
G01*
%TO.C,D72*%
X115713000Y-62690000D02*
X119713000Y-62690000D01*
X115713000Y-56690000D02*
X119713000Y-56690000D01*
X119713000Y-62565000D02*
X119713000Y-60190000D01*
X119713000Y-56690000D02*
X119713000Y-59065000D01*
%TO.C,D69*%
X64611000Y-84534000D02*
X64611000Y-82159000D01*
X68611000Y-78534000D02*
X64611000Y-78534000D01*
X64611000Y-78659000D02*
X64611000Y-81034000D01*
X68611000Y-84534000D02*
X64611000Y-84534000D01*
%TO.C,U6*%
X67905000Y-112380000D02*
X66805000Y-112380000D01*
X67905000Y-105750000D02*
X67905000Y-106020000D01*
X69405000Y-112650000D02*
X67905000Y-112650000D01*
X67905000Y-112650000D02*
X67905000Y-112380000D01*
X67905000Y-106020000D02*
X65075000Y-106020000D01*
X69405000Y-105750000D02*
X67905000Y-105750000D01*
%TO.C,D71*%
X107267000Y-31385000D02*
X107267000Y-35385000D01*
X107267000Y-35385000D02*
X104892000Y-35385000D01*
X101392000Y-35385000D02*
X103767000Y-35385000D01*
X101267000Y-31385000D02*
X101267000Y-35385000D01*
%TO.C,R7*%
X57634000Y-93758000D02*
X57304000Y-93758000D01*
X57304000Y-100298000D02*
X57634000Y-100298000D01*
X60044000Y-100298000D02*
X59714000Y-100298000D01*
X57304000Y-93758000D02*
X57304000Y-100298000D01*
X60044000Y-93758000D02*
X60044000Y-100298000D01*
X59714000Y-93758000D02*
X60044000Y-93758000D01*
%TO.C,D19*%
X56718000Y-50676000D02*
X56718000Y-46776000D01*
X56718000Y-46776000D02*
X53518000Y-46776000D01*
X53518000Y-50676000D02*
X53518000Y-46776000D01*
%TO.C,R8*%
X77210000Y-100710000D02*
X76880000Y-100710000D01*
X79620000Y-100710000D02*
X79620000Y-94170000D01*
X79620000Y-94170000D02*
X79290000Y-94170000D01*
X76880000Y-100710000D02*
X76880000Y-94170000D01*
X79290000Y-100710000D02*
X79620000Y-100710000D01*
X76880000Y-94170000D02*
X77210000Y-94170000D01*
%TO.C,D48*%
X31010000Y-67964000D02*
X31010000Y-68120000D01*
X31010000Y-70280000D02*
X31010000Y-70436000D01*
X31010000Y-70435516D02*
G75*
G03*
X34242335Y-70278608I1560000J1235516D01*
G01*
X33611130Y-68120163D02*
G75*
G03*
X31529039Y-68120000I-1041130J-1079837D01*
G01*
X34242335Y-68121392D02*
G75*
G03*
X31010000Y-67964484I-1672335J-1078608D01*
G01*
X31529039Y-70280000D02*
G75*
G03*
X33611130Y-70279837I1040961J1080000D01*
G01*
%TO.C,D24*%
X88964000Y-51090000D02*
X89120000Y-51090000D01*
X86648000Y-51090000D02*
X86804000Y-51090000D01*
X86804163Y-48488870D02*
G75*
G03*
X86804000Y-50570961I1079837J-1041130D01*
G01*
X88964000Y-50570961D02*
G75*
G03*
X88963837Y-48488870I-1080000J1040961D01*
G01*
X89119516Y-51090000D02*
G75*
G03*
X88962608Y-47857665I-1235516J1560000D01*
G01*
X86805392Y-47857665D02*
G75*
G03*
X86648484Y-51090000I1078608J-1672335D01*
G01*
%TO.C,D67*%
X90662000Y-74851000D02*
X86662000Y-74851000D01*
X90662000Y-80851000D02*
X86662000Y-80851000D01*
X86662000Y-80851000D02*
X86662000Y-78476000D01*
X86662000Y-74976000D02*
X86662000Y-77351000D01*
%TD*%
%LPC*%
D12*
%TO.C,U2*%
X66300000Y-103530000D03*
D13*
X72600000Y-101250000D03*
D12*
X66300000Y-98970000D03*
%TD*%
D14*
%TO.C,D63*%
X52371000Y-84582000D03*
X48721000Y-84582000D03*
D15*
X50546000Y-84582000D03*
%TD*%
D16*
%TO.C,D18*%
X54200000Y-31200000D03*
D17*
X54200000Y-28660000D03*
%TD*%
D18*
%TO.C,D32*%
X31975000Y-108000000D03*
X34025000Y-108000000D03*
%TD*%
D19*
%TO.C,D65*%
X86106000Y-61929000D03*
X86106000Y-65579000D03*
D20*
X86106000Y-63754000D03*
%TD*%
D21*
%TO.C,J1*%
X71374000Y-117094000D03*
D22*
X71374000Y-123094000D03*
D23*
X76074000Y-120094000D03*
%TD*%
D16*
%TO.C,D3*%
X120335000Y-103000000D03*
D17*
X117795000Y-103000000D03*
%TD*%
D24*
%TO.C,H2*%
X89500000Y-70000000D03*
%TD*%
D25*
%TO.C,D29*%
X77470000Y-74032000D03*
X77470000Y-76082000D03*
%TD*%
D19*
%TO.C,D58*%
X71120000Y-47959000D03*
X71120000Y-51609000D03*
D20*
X71120000Y-49784000D03*
%TD*%
D26*
%TO.C,D49*%
X88800000Y-33850000D03*
D27*
X88800000Y-31275000D03*
%TD*%
D16*
%TO.C,D9*%
X104394000Y-93980000D03*
D17*
X101854000Y-93980000D03*
%TD*%
D16*
%TO.C,D45*%
X63000000Y-88525000D03*
D17*
X63000000Y-85985000D03*
%TD*%
D28*
%TO.C,H11*%
X30000000Y-120000000D03*
%TD*%
D26*
%TO.C,D22*%
X78740000Y-50834000D03*
D27*
X78740000Y-48259000D03*
%TD*%
D14*
%TO.C,D60*%
X103839000Y-78486000D03*
X107489000Y-78486000D03*
D15*
X105664000Y-78486000D03*
%TD*%
D25*
%TO.C,D26*%
X74930000Y-62729000D03*
X74930000Y-64779000D03*
%TD*%
D26*
%TO.C,D25*%
X70612000Y-62450000D03*
D27*
X70612000Y-65025000D03*
%TD*%
D18*
%TO.C,D35*%
X104385000Y-68072000D03*
X106435000Y-68072000D03*
%TD*%
D12*
%TO.C,U4*%
X66300000Y-95780000D03*
D13*
X72600000Y-93500000D03*
D12*
X66300000Y-91220000D03*
%TD*%
D29*
%TO.C,D40*%
X95470000Y-69000000D03*
D30*
X98045000Y-69000000D03*
%TD*%
D26*
%TO.C,D13*%
X92000000Y-85950000D03*
D27*
X92000000Y-88525000D03*
%TD*%
D16*
%TO.C,D39*%
X52000000Y-100500000D03*
D17*
X49460000Y-100500000D03*
%TD*%
D12*
%TO.C,U1*%
X82800000Y-110780000D03*
D13*
X89100000Y-108500000D03*
D12*
X82800000Y-106220000D03*
%TD*%
D31*
%TO.C,J3*%
X58166000Y-122428000D03*
D32*
X63246000Y-122428000D03*
%TD*%
D33*
%TO.C,R3*%
X81000000Y-100500000D03*
X83000000Y-100500000D03*
%TD*%
D29*
%TO.C,D46*%
X31650000Y-77900000D03*
D30*
X34225000Y-77900000D03*
%TD*%
D29*
%TO.C,D37*%
X51550000Y-91000000D03*
D30*
X48975000Y-91000000D03*
%TD*%
D33*
%TO.C,R1*%
X81000000Y-108000000D03*
X83000000Y-108000000D03*
%TD*%
D34*
%TO.C,C1*%
X86097500Y-113670000D03*
X84022500Y-113670000D03*
%TD*%
D26*
%TO.C,D16*%
X45200000Y-31050000D03*
D27*
X45200000Y-28475000D03*
%TD*%
D35*
%TO.C,R4*%
X66500000Y-93000000D03*
X64500000Y-93000000D03*
%TD*%
D19*
%TO.C,D62*%
X93472000Y-51609000D03*
X93472000Y-47959000D03*
D20*
X93472000Y-49784000D03*
%TD*%
D18*
%TO.C,D47*%
X31575000Y-73800000D03*
X33625000Y-73800000D03*
%TD*%
D29*
%TO.C,D34*%
X104450000Y-64008000D03*
D30*
X107025000Y-64008000D03*
%TD*%
D36*
%TO.C,D38*%
X51695000Y-95500000D03*
X49645000Y-95500000D03*
%TD*%
D16*
%TO.C,D36*%
X104000000Y-72898000D03*
D17*
X106540000Y-72898000D03*
%TD*%
D18*
%TO.C,D41*%
X95495000Y-73000000D03*
X97545000Y-73000000D03*
%TD*%
D25*
%TO.C,D20*%
X59436000Y-48475000D03*
X59436000Y-50525000D03*
%TD*%
D36*
%TO.C,D11*%
X60715000Y-76200000D03*
X58665000Y-76200000D03*
%TD*%
D37*
%TO.C,D44*%
X67750000Y-88775000D03*
X67750000Y-86725000D03*
%TD*%
D28*
%TO.C,H12*%
X44000000Y-109000000D03*
%TD*%
D16*
%TO.C,D33*%
X31910000Y-113000000D03*
D17*
X34450000Y-113000000D03*
%TD*%
D38*
%TO.C,R9*%
X62000000Y-98500000D03*
D39*
X62000000Y-90880000D03*
%TD*%
D33*
%TO.C,R2*%
X65040000Y-100838000D03*
X67040000Y-100838000D03*
%TD*%
D38*
%TO.C,R10*%
X75438000Y-83000000D03*
D39*
X83058000Y-83000000D03*
%TD*%
D29*
%TO.C,D31*%
X32030000Y-104000000D03*
D30*
X34605000Y-104000000D03*
%TD*%
D14*
%TO.C,D56*%
X46783000Y-59436000D03*
X43133000Y-59436000D03*
D15*
X44958000Y-59436000D03*
%TD*%
D37*
%TO.C,D17*%
X49400000Y-30825000D03*
X49400000Y-28775000D03*
%TD*%
D38*
%TO.C,R12*%
X65080000Y-114250000D03*
D39*
X57460000Y-114250000D03*
%TD*%
D36*
%TO.C,D5*%
X46525000Y-71000000D03*
X44475000Y-71000000D03*
%TD*%
%TO.C,D53*%
X117675000Y-71250000D03*
X115625000Y-71250000D03*
%TD*%
D24*
%TO.C,H3*%
X60000000Y-106330000D03*
%TD*%
D26*
%TO.C,D28*%
X73500000Y-74007000D03*
D27*
X73500000Y-76582000D03*
%TD*%
D28*
%TO.C,H1*%
X105000000Y-48000000D03*
%TD*%
D29*
%TO.C,D7*%
X104174000Y-85090000D03*
D30*
X101599000Y-85090000D03*
%TD*%
D35*
%TO.C,R11*%
X65000000Y-108800000D03*
X67000000Y-108800000D03*
%TD*%
D37*
%TO.C,D23*%
X82804000Y-50301000D03*
X82804000Y-48251000D03*
%TD*%
D26*
%TO.C,D43*%
X72000000Y-88050000D03*
D27*
X72000000Y-85475000D03*
%TD*%
D24*
%TO.C,H10*%
X96500000Y-106500000D03*
%TD*%
D16*
%TO.C,D27*%
X79502000Y-62484000D03*
D17*
X79502000Y-65024000D03*
%TD*%
D28*
%TO.C,H9*%
X44000000Y-48000000D03*
%TD*%
D16*
%TO.C,D6*%
X46500000Y-65500000D03*
D17*
X43960000Y-65500000D03*
%TD*%
D36*
%TO.C,D2*%
X120025000Y-108000000D03*
X117975000Y-108000000D03*
%TD*%
D35*
%TO.C,R5*%
X83804000Y-93000000D03*
X81804000Y-93000000D03*
%TD*%
D29*
%TO.C,D1*%
X120050000Y-112000000D03*
D30*
X117475000Y-112000000D03*
%TD*%
D14*
%TO.C,D59*%
X30988000Y-98044000D03*
X34638000Y-98044000D03*
D15*
X32813000Y-98044000D03*
%TD*%
D16*
%TO.C,D12*%
X61214000Y-82042000D03*
D17*
X58674000Y-82042000D03*
%TD*%
D16*
%TO.C,D15*%
X83000000Y-85975000D03*
D17*
X83000000Y-88515000D03*
%TD*%
D38*
%TO.C,R6*%
X78500000Y-104510000D03*
D39*
X78500000Y-112130000D03*
%TD*%
D29*
%TO.C,D4*%
X46550000Y-75500000D03*
D30*
X43975000Y-75500000D03*
%TD*%
D29*
%TO.C,D10*%
X60994000Y-71120000D03*
D30*
X58419000Y-71120000D03*
%TD*%
D14*
%TO.C,D70*%
X31068000Y-62357000D03*
X34718000Y-62357000D03*
D15*
X32893000Y-62357000D03*
%TD*%
D16*
%TO.C,D51*%
X97725000Y-33875000D03*
D17*
X97725000Y-31335000D03*
%TD*%
D37*
%TO.C,D50*%
X93000000Y-33700000D03*
X93000000Y-31650000D03*
%TD*%
D29*
%TO.C,D52*%
X117700000Y-75250000D03*
D30*
X115125000Y-75250000D03*
%TD*%
D28*
%TO.C,H4*%
X30000000Y-30000000D03*
%TD*%
D16*
%TO.C,D21*%
X64262000Y-48260000D03*
D17*
X64262000Y-50800000D03*
%TD*%
D12*
%TO.C,U5*%
X82800000Y-91220000D03*
D13*
X89100000Y-93500000D03*
D12*
X82800000Y-95780000D03*
%TD*%
D28*
%TO.C,H7*%
X105000000Y-109000000D03*
%TD*%
D25*
%TO.C,D14*%
X87850000Y-86775000D03*
X87850000Y-88825000D03*
%TD*%
D14*
%TO.C,D55*%
X120350000Y-96200000D03*
X116700000Y-96200000D03*
D15*
X118525000Y-96200000D03*
%TD*%
D36*
%TO.C,D8*%
X104149000Y-89408000D03*
X102099000Y-89408000D03*
%TD*%
D14*
%TO.C,D61*%
X104599000Y-100838000D03*
X100949000Y-100838000D03*
D15*
X102774000Y-100838000D03*
%TD*%
D19*
%TO.C,D68*%
X79375000Y-71595000D03*
X79375000Y-67945000D03*
D20*
X79375000Y-69770000D03*
%TD*%
D14*
%TO.C,D66*%
X95203000Y-83312000D03*
X98853000Y-83312000D03*
D15*
X97028000Y-83312000D03*
%TD*%
D16*
%TO.C,D54*%
X118075000Y-66600000D03*
D17*
X115535000Y-66600000D03*
%TD*%
D16*
%TO.C,D42*%
X95250000Y-77724000D03*
D17*
X97790000Y-77724000D03*
%TD*%
D31*
%TO.C,SW1*%
X92964000Y-122174000D03*
D32*
X98044000Y-122174000D03*
%TD*%
D19*
%TO.C,D57*%
X60960000Y-32051000D03*
X60960000Y-28401000D03*
D20*
X60960000Y-30226000D03*
%TD*%
D14*
%TO.C,D64*%
X61849000Y-65151000D03*
X58199000Y-65151000D03*
D15*
X60024000Y-65151000D03*
%TD*%
D12*
%TO.C,U3*%
X82800000Y-98720000D03*
D13*
X89100000Y-101000000D03*
D12*
X82800000Y-103280000D03*
%TD*%
D16*
%TO.C,D30*%
X82000000Y-73787000D03*
D17*
X82000000Y-76327000D03*
%TD*%
D14*
%TO.C,D72*%
X118538000Y-59690000D03*
X114888000Y-59690000D03*
D15*
X116713000Y-59690000D03*
%TD*%
D14*
%TO.C,D69*%
X65786000Y-81534000D03*
X69436000Y-81534000D03*
D15*
X67611000Y-81534000D03*
%TD*%
D12*
%TO.C,U6*%
X66175000Y-106920000D03*
D13*
X72475000Y-109200000D03*
D12*
X66175000Y-111480000D03*
%TD*%
D28*
%TO.C,H5*%
X120000000Y-120000000D03*
%TD*%
D19*
%TO.C,D71*%
X104267000Y-34210000D03*
X104267000Y-30560000D03*
D20*
X104267000Y-32385000D03*
%TD*%
D39*
%TO.C,R7*%
X58674000Y-100838000D03*
D38*
X58674000Y-93218000D03*
%TD*%
D26*
%TO.C,D19*%
X55118000Y-48226000D03*
D27*
X55118000Y-50801000D03*
%TD*%
D38*
%TO.C,R8*%
X78250000Y-101250000D03*
D39*
X78250000Y-93630000D03*
%TD*%
D28*
%TO.C,H6*%
X121000000Y-30000000D03*
%TD*%
D16*
%TO.C,D48*%
X31300000Y-69200000D03*
D17*
X33840000Y-69200000D03*
%TD*%
D24*
%TO.C,H8*%
X67000000Y-70000000D03*
%TD*%
D16*
%TO.C,D24*%
X87884000Y-50800000D03*
D17*
X87884000Y-48260000D03*
%TD*%
D14*
%TO.C,D67*%
X87837000Y-77851000D03*
X91487000Y-77851000D03*
D15*
X89662000Y-77851000D03*
%TD*%
D21*
%TO.C,J2*%
X85090000Y-117043200D03*
D22*
X85090000Y-123043200D03*
D23*
X80390000Y-120043200D03*
%TD*%
M02*
