%TF.GenerationSoftware,KiCad,Pcbnew,(6.0.11)*%
%TF.CreationDate,2023-06-08T13:50:34-05:00*%
%TF.ProjectId,LEDpanel,4c454470-616e-4656-9c2e-6b696361645f,rev?*%
%TF.SameCoordinates,Original*%
%TF.FileFunction,Copper,L2,Bot*%
%TF.FilePolarity,Positive*%
%FSLAX46Y46*%
G04 Gerber Fmt 4.6, Leading zero omitted, Abs format (unit mm)*
G04 Created by KiCad (PCBNEW (6.0.11)) date 2023-06-08 13:50:34*
%MOMM*%
%LPD*%
G01*
G04 APERTURE LIST*
G04 Aperture macros list*
%AMRoundRect*
0 Rectangle with rounded corners*
0 $1 Rounding radius*
0 $2 $3 $4 $5 $6 $7 $8 $9 X,Y pos of 4 corners*
0 Add a 4 corners polygon primitive as box body*
4,1,4,$2,$3,$4,$5,$6,$7,$8,$9,$2,$3,0*
0 Add four circle primitives for the rounded corners*
1,1,$1+$1,$2,$3*
1,1,$1+$1,$4,$5*
1,1,$1+$1,$6,$7*
1,1,$1+$1,$8,$9*
0 Add four rect primitives between the rounded corners*
20,1,$1+$1,$2,$3,$4,$5,0*
20,1,$1+$1,$4,$5,$6,$7,0*
20,1,$1+$1,$6,$7,$8,$9,0*
20,1,$1+$1,$8,$9,$2,$3,0*%
G04 Aperture macros list end*
%TA.AperFunction,ComponentPad*%
%ADD10R,1.800000X1.800000*%
%TD*%
%TA.AperFunction,ComponentPad*%
%ADD11C,1.800000*%
%TD*%
%TA.AperFunction,ComponentPad*%
%ADD12R,3.500000X3.500000*%
%TD*%
%TA.AperFunction,ComponentPad*%
%ADD13RoundRect,0.750000X1.000000X-0.750000X1.000000X0.750000X-1.000000X0.750000X-1.000000X-0.750000X0*%
%TD*%
%TA.AperFunction,ComponentPad*%
%ADD14RoundRect,0.875000X0.875000X-0.875000X0.875000X0.875000X-0.875000X0.875000X-0.875000X-0.875000X0*%
%TD*%
%TA.AperFunction,ComponentPad*%
%ADD15R,2.600000X2.600000*%
%TD*%
%TA.AperFunction,ComponentPad*%
%ADD16C,2.600000*%
%TD*%
%TA.AperFunction,ComponentPad*%
%ADD17C,1.600000*%
%TD*%
%TA.AperFunction,ComponentPad*%
%ADD18O,1.600000X1.600000*%
%TD*%
%TA.AperFunction,ViaPad*%
%ADD19C,0.800000*%
%TD*%
%TA.AperFunction,Conductor*%
%ADD20C,1.500000*%
%TD*%
G04 APERTURE END LIST*
D10*
%TO.P,D18,1,K*%
%TO.N,Net-(D16-Pad1)*%
X54200000Y-31200000D03*
D11*
%TO.P,D18,2,A*%
%TO.N,Net-(D1-Pad1)*%
X54200000Y-28660000D03*
%TD*%
D12*
%TO.P,J1,1*%
%TO.N,+VDC*%
X69374000Y-117094000D03*
D13*
%TO.P,J1,2*%
%TO.N,GND*%
X69374000Y-123094000D03*
D14*
%TO.P,J1,3*%
%TO.N,unconnected-(J1-Pad3)*%
X74074000Y-120094000D03*
%TD*%
D10*
%TO.P,D3,1,K*%
%TO.N,Net-(D1-Pad1)*%
X122200000Y-101200000D03*
D11*
%TO.P,D3,2,A*%
%TO.N,Net-(R1-Pad2)*%
X119660000Y-101200000D03*
%TD*%
D10*
%TO.P,D9,1,K*%
%TO.N,Net-(D22-Pad2)*%
X108336000Y-93384000D03*
D11*
%TO.P,D9,2,A*%
%TO.N,Net-(R3-Pad2)*%
X105796000Y-93384000D03*
%TD*%
D10*
%TO.P,D45,1,K*%
%TO.N,GND*%
X66224500Y-91827000D03*
D11*
%TO.P,D45,2,A*%
%TO.N,Net-(D28-Pad1)*%
X66224500Y-89287000D03*
%TD*%
D10*
%TO.P,D39,1,K*%
%TO.N,GND*%
X46860000Y-101110000D03*
D11*
%TO.P,D39,2,A*%
%TO.N,Net-(D22-Pad1)*%
X44320000Y-101110000D03*
%TD*%
D15*
%TO.P,J3,1,Pin_1*%
%TO.N,Net-(C1-Pad1)*%
X56166000Y-122428000D03*
D16*
%TO.P,J3,2,Pin_2*%
%TO.N,GND*%
X61246000Y-122428000D03*
%TD*%
D10*
%TO.P,D36,1,K*%
%TO.N,GND*%
X105941000Y-72898000D03*
D11*
%TO.P,D36,2,A*%
%TO.N,Net-(D19-Pad1)*%
X108481000Y-72898000D03*
%TD*%
D10*
%TO.P,D33,1,K*%
%TO.N,GND*%
X28885000Y-109425000D03*
D11*
%TO.P,D33,2,A*%
%TO.N,Net-(D16-Pad1)*%
X31425000Y-109425000D03*
%TD*%
D17*
%TO.P,R9,1*%
%TO.N,Net-(R4-Pad1)*%
X59468000Y-101600000D03*
D18*
%TO.P,R9,2*%
%TO.N,Net-(R4-Pad2)*%
X59468000Y-93980000D03*
%TD*%
D17*
%TO.P,R10,1*%
%TO.N,Net-(R10-Pad1)*%
X75978000Y-103124000D03*
D18*
%TO.P,R10,2*%
%TO.N,Net-(D13-Pad2)*%
X75978000Y-95504000D03*
%TD*%
D17*
%TO.P,R12,1*%
%TO.N,Net-(R11-Pad1)*%
X49900000Y-106800000D03*
D18*
%TO.P,R12,2*%
%TO.N,Net-(D46-Pad2)*%
X49900000Y-114420000D03*
%TD*%
D10*
%TO.P,D27,1,K*%
%TO.N,Net-(D25-Pad1)*%
X87000000Y-62230000D03*
D11*
%TO.P,D27,2,A*%
%TO.N,Net-(D10-Pad1)*%
X87000000Y-64770000D03*
%TD*%
D10*
%TO.P,D6,1,K*%
%TO.N,Net-(D19-Pad2)*%
X46500000Y-65500000D03*
D11*
%TO.P,D6,2,A*%
%TO.N,Net-(D4-Pad2)*%
X43960000Y-65500000D03*
%TD*%
D10*
%TO.P,D12,1,K*%
%TO.N,Net-(D10-Pad1)*%
X59722000Y-82042000D03*
D11*
%TO.P,D12,2,A*%
%TO.N,Net-(R4-Pad2)*%
X57182000Y-82042000D03*
%TD*%
D10*
%TO.P,D15,1,K*%
%TO.N,Net-(D13-Pad1)*%
X86138000Y-92770000D03*
D11*
%TO.P,D15,2,A*%
%TO.N,Net-(D13-Pad2)*%
X86138000Y-95310000D03*
%TD*%
D17*
%TO.P,R6,1*%
%TO.N,Net-(R1-Pad1)*%
X111400000Y-114300000D03*
D18*
%TO.P,R6,2*%
%TO.N,Net-(R1-Pad2)*%
X111400000Y-106680000D03*
%TD*%
D10*
%TO.P,D51,1,K*%
%TO.N,Net-(D49-Pad1)*%
X96908000Y-31665000D03*
D11*
%TO.P,D51,2,A*%
%TO.N,Net-(D46-Pad1)*%
X96908000Y-29125000D03*
%TD*%
D10*
%TO.P,D21,1,K*%
%TO.N,Net-(D19-Pad1)*%
X64262000Y-48260000D03*
D11*
%TO.P,D21,2,A*%
%TO.N,Net-(D19-Pad2)*%
X64262000Y-50800000D03*
%TD*%
D10*
%TO.P,D54,1,K*%
%TO.N,GND*%
X121862000Y-66664500D03*
D11*
%TO.P,D54,2,A*%
%TO.N,Net-(D49-Pad1)*%
X119322000Y-66664500D03*
%TD*%
D10*
%TO.P,D42,1,K*%
%TO.N,GND*%
X93250000Y-80860000D03*
D11*
%TO.P,D42,2,A*%
%TO.N,Net-(D25-Pad1)*%
X95790000Y-80860000D03*
%TD*%
D15*
%TO.P,SW1,1,A*%
%TO.N,+VDC*%
X90964000Y-122174000D03*
D16*
%TO.P,SW1,2,B*%
%TO.N,Net-(C1-Pad1)*%
X96044000Y-122174000D03*
%TD*%
D10*
%TO.P,D30,1,K*%
%TO.N,Net-(D28-Pad1)*%
X69000000Y-62500000D03*
D11*
%TO.P,D30,2,A*%
%TO.N,Net-(D13-Pad1)*%
X69000000Y-65040000D03*
%TD*%
D17*
%TO.P,R7,1*%
%TO.N,Net-(R2-Pad1)*%
X72422000Y-104140000D03*
D18*
%TO.P,R7,2*%
%TO.N,Net-(D4-Pad2)*%
X64802000Y-104140000D03*
%TD*%
D17*
%TO.P,R8,1*%
%TO.N,Net-(R3-Pad1)*%
X76486000Y-113792000D03*
D18*
%TO.P,R8,2*%
%TO.N,Net-(R3-Pad2)*%
X76486000Y-106172000D03*
%TD*%
D10*
%TO.P,D48,1,K*%
%TO.N,Net-(D46-Pad1)*%
X29450000Y-62050000D03*
D11*
%TO.P,D48,2,A*%
%TO.N,Net-(D46-Pad2)*%
X31990000Y-62050000D03*
%TD*%
D10*
%TO.P,D24,1,K*%
%TO.N,Net-(D22-Pad1)*%
X87884000Y-50800000D03*
D11*
%TO.P,D24,2,A*%
%TO.N,Net-(D22-Pad2)*%
X87884000Y-48260000D03*
%TD*%
D12*
%TO.P,J2,1*%
%TO.N,+VDC*%
X83090000Y-117043200D03*
D13*
%TO.P,J2,2*%
%TO.N,GND*%
X83090000Y-123043200D03*
D14*
%TO.P,J2,3*%
%TO.N,unconnected-(J2-Pad3)*%
X78390000Y-120043200D03*
%TD*%
D19*
%TO.N,GND*%
X44450000Y-54483000D03*
X57500000Y-66000000D03*
X106934000Y-103886000D03*
X94012000Y-89916000D03*
X93965000Y-86868000D03*
X67056000Y-31750000D03*
X29741000Y-89135000D03*
X121516000Y-79439500D03*
X120500000Y-52000000D03*
X59866500Y-89869000D03*
X57500000Y-68000000D03*
X73325000Y-63675000D03*
X74500000Y-63675000D03*
X45790000Y-79760000D03*
X60869000Y-89869000D03*
X57500000Y-66802000D03*
X120100000Y-89875000D03*
X91218000Y-83566000D03*
X107500000Y-75000000D03*
X71000000Y-64000000D03*
X75057000Y-50038000D03*
X89186000Y-63246000D03*
X58000000Y-70000000D03*
X92996000Y-63500000D03*
X63786000Y-90678000D03*
X78010000Y-93980000D03*
X94000000Y-63500000D03*
X90424000Y-49911000D03*
X108530000Y-30302000D03*
X30662000Y-49492000D03*
X97282000Y-50292000D03*
%TD*%
D20*
%TO.N,GND*%
X57500000Y-66000000D02*
X57500000Y-66802000D01*
X60869000Y-89869000D02*
X59866500Y-89869000D01*
%TD*%
%TA.AperFunction,Conductor*%
%TO.N,GND*%
G36*
X124433621Y-25528502D02*
G01*
X124480114Y-25582158D01*
X124491500Y-25634500D01*
X124491500Y-124365500D01*
X124471498Y-124433621D01*
X124417842Y-124480114D01*
X124365500Y-124491500D01*
X85350230Y-124491500D01*
X85282109Y-124471498D01*
X85235616Y-124417842D01*
X85225512Y-124347568D01*
X85235666Y-124313049D01*
X85278299Y-124219931D01*
X85282033Y-124209385D01*
X85335147Y-124002521D01*
X85336918Y-123991966D01*
X85347793Y-123858270D01*
X85348000Y-123853164D01*
X85348000Y-123522134D01*
X89155500Y-123522134D01*
X89162255Y-123584316D01*
X89213385Y-123720705D01*
X89300739Y-123837261D01*
X89417295Y-123924615D01*
X89553684Y-123975745D01*
X89615866Y-123982500D01*
X92312134Y-123982500D01*
X92374316Y-123975745D01*
X92510705Y-123924615D01*
X92627261Y-123837261D01*
X92714615Y-123720705D01*
X92765745Y-123584316D01*
X92772500Y-123522134D01*
X92772500Y-122126526D01*
X94231050Y-122126526D01*
X94231274Y-122131192D01*
X94231274Y-122131197D01*
X94236176Y-122233236D01*
X94243947Y-122395019D01*
X94296388Y-122658656D01*
X94387220Y-122911646D01*
X94514450Y-123148431D01*
X94517241Y-123152168D01*
X94517245Y-123152175D01*
X94598887Y-123261506D01*
X94675281Y-123363810D01*
X94678590Y-123367090D01*
X94678595Y-123367096D01*
X94862863Y-123549762D01*
X94866180Y-123553050D01*
X94869942Y-123555808D01*
X94869945Y-123555811D01*
X94918912Y-123591715D01*
X95082954Y-123711995D01*
X95087089Y-123714171D01*
X95087093Y-123714173D01*
X95316698Y-123834975D01*
X95320840Y-123837154D01*
X95381310Y-123858271D01*
X95512156Y-123903964D01*
X95574613Y-123925775D01*
X95579206Y-123926647D01*
X95834109Y-123975042D01*
X95834112Y-123975042D01*
X95838698Y-123975913D01*
X95966370Y-123980929D01*
X96102625Y-123986283D01*
X96102630Y-123986283D01*
X96107293Y-123986466D01*
X96211607Y-123975042D01*
X96369844Y-123957713D01*
X96369850Y-123957712D01*
X96374497Y-123957203D01*
X96486302Y-123927767D01*
X96629918Y-123889956D01*
X96629920Y-123889955D01*
X96634441Y-123888765D01*
X96741795Y-123842642D01*
X96877120Y-123784502D01*
X96877122Y-123784501D01*
X96881414Y-123782657D01*
X97000071Y-123709230D01*
X97106017Y-123643669D01*
X97106021Y-123643666D01*
X97109990Y-123641210D01*
X97315149Y-123467530D01*
X97492382Y-123265434D01*
X97637797Y-123039361D01*
X97748199Y-122794278D01*
X97785209Y-122663051D01*
X97819893Y-122540072D01*
X97819894Y-122540069D01*
X97821163Y-122535568D01*
X97836066Y-122418420D01*
X97854688Y-122272045D01*
X97854688Y-122272041D01*
X97855086Y-122268915D01*
X97855488Y-122253580D01*
X97857488Y-122177160D01*
X97857571Y-122174000D01*
X97837650Y-121905937D01*
X97831106Y-121877015D01*
X97779361Y-121648331D01*
X97779360Y-121648326D01*
X97778327Y-121643763D01*
X97680902Y-121393238D01*
X97547518Y-121159864D01*
X97544237Y-121155701D01*
X97459373Y-121048052D01*
X97381105Y-120948769D01*
X97185317Y-120764591D01*
X96999527Y-120635703D01*
X96968299Y-120614039D01*
X96968296Y-120614037D01*
X96964457Y-120611374D01*
X96960264Y-120609306D01*
X96727564Y-120494551D01*
X96727561Y-120494550D01*
X96723376Y-120492486D01*
X96675745Y-120477239D01*
X96497657Y-120420233D01*
X96467370Y-120410538D01*
X96462763Y-120409788D01*
X96462760Y-120409787D01*
X96249337Y-120375029D01*
X96202063Y-120367330D01*
X96071719Y-120365624D01*
X95937961Y-120363873D01*
X95937958Y-120363873D01*
X95933284Y-120363812D01*
X95666937Y-120400060D01*
X95408874Y-120475278D01*
X95164763Y-120587815D01*
X95160854Y-120590378D01*
X94943881Y-120732631D01*
X94943876Y-120732635D01*
X94939968Y-120735197D01*
X94936476Y-120738314D01*
X94784331Y-120874109D01*
X94739426Y-120914188D01*
X94567544Y-121120854D01*
X94565121Y-121124847D01*
X94432556Y-121343307D01*
X94428096Y-121350656D01*
X94426287Y-121354970D01*
X94426285Y-121354974D01*
X94338648Y-121563966D01*
X94324148Y-121598545D01*
X94257981Y-121859077D01*
X94231050Y-122126526D01*
X92772500Y-122126526D01*
X92772500Y-120825866D01*
X92765745Y-120763684D01*
X92714615Y-120627295D01*
X92627261Y-120510739D01*
X92510705Y-120423385D01*
X92374316Y-120372255D01*
X92312134Y-120365500D01*
X89615866Y-120365500D01*
X89553684Y-120372255D01*
X89417295Y-120423385D01*
X89300739Y-120510739D01*
X89213385Y-120627295D01*
X89162255Y-120763684D01*
X89155500Y-120825866D01*
X89155500Y-123522134D01*
X85348000Y-123522134D01*
X85348000Y-123315315D01*
X85343525Y-123300076D01*
X85342135Y-123298871D01*
X85334452Y-123297200D01*
X80850116Y-123297200D01*
X80834877Y-123301675D01*
X80833672Y-123303065D01*
X80832001Y-123310748D01*
X80832001Y-123853161D01*
X80832209Y-123858271D01*
X80843082Y-123991967D01*
X80844852Y-124002520D01*
X80897967Y-124209385D01*
X80901701Y-124219931D01*
X80944334Y-124313049D01*
X80954505Y-124383313D01*
X80925073Y-124447922D01*
X80865383Y-124486362D01*
X80829770Y-124491500D01*
X71657488Y-124491500D01*
X71589367Y-124471498D01*
X71542874Y-124417842D01*
X71532770Y-124347568D01*
X71542924Y-124313049D01*
X71562299Y-124270731D01*
X71566033Y-124260185D01*
X71619147Y-124053321D01*
X71620918Y-124042766D01*
X71631793Y-123909070D01*
X71632000Y-123903964D01*
X71632000Y-123366115D01*
X71627525Y-123350876D01*
X71626135Y-123349671D01*
X71618452Y-123348000D01*
X67134116Y-123348000D01*
X67118877Y-123352475D01*
X67117672Y-123353865D01*
X67116001Y-123361548D01*
X67116001Y-123903961D01*
X67116209Y-123909071D01*
X67127082Y-124042767D01*
X67128852Y-124053320D01*
X67181967Y-124260185D01*
X67185701Y-124270731D01*
X67205076Y-124313049D01*
X67215247Y-124383313D01*
X67185815Y-124447922D01*
X67126125Y-124486362D01*
X67090512Y-124491500D01*
X61314891Y-124491500D01*
X61308974Y-124489763D01*
X61294937Y-124491500D01*
X25634500Y-124491500D01*
X25566379Y-124471498D01*
X25519886Y-124417842D01*
X25508500Y-124365500D01*
X25508500Y-123776134D01*
X54357500Y-123776134D01*
X54364255Y-123838316D01*
X54415385Y-123974705D01*
X54502739Y-124091261D01*
X54619295Y-124178615D01*
X54755684Y-124229745D01*
X54817866Y-124236500D01*
X57514134Y-124236500D01*
X57576316Y-124229745D01*
X57712705Y-124178615D01*
X57829261Y-124091261D01*
X57916615Y-123974705D01*
X57954778Y-123872906D01*
X60165839Y-123872906D01*
X60174553Y-123884427D01*
X60281452Y-123962809D01*
X60289351Y-123967745D01*
X60518905Y-124088519D01*
X60527454Y-124092236D01*
X60772327Y-124177749D01*
X60781336Y-124180163D01*
X61036166Y-124228544D01*
X61045423Y-124229598D01*
X61299884Y-124239597D01*
X61303284Y-124240742D01*
X61310492Y-124239577D01*
X61313920Y-124239457D01*
X61571753Y-124211220D01*
X61580930Y-124209519D01*
X61831758Y-124143481D01*
X61840574Y-124140445D01*
X62078880Y-124038062D01*
X62087167Y-124033748D01*
X62307718Y-123897266D01*
X62315268Y-123891780D01*
X62320559Y-123887301D01*
X62328997Y-123874497D01*
X62322935Y-123864145D01*
X61258812Y-122800022D01*
X61244868Y-122792408D01*
X61243035Y-122792539D01*
X61236420Y-122796790D01*
X60172497Y-123860713D01*
X60165839Y-123872906D01*
X57954778Y-123872906D01*
X57967745Y-123838316D01*
X57974500Y-123776134D01*
X57974500Y-122385211D01*
X59433775Y-122385211D01*
X59446220Y-122644288D01*
X59447356Y-122653543D01*
X59497961Y-122907945D01*
X59500449Y-122916917D01*
X59588095Y-123161033D01*
X59591895Y-123169568D01*
X59714658Y-123398042D01*
X59719666Y-123405904D01*
X59789720Y-123499716D01*
X59800979Y-123508165D01*
X59813397Y-123501393D01*
X60873978Y-122440812D01*
X60880356Y-122429132D01*
X61610408Y-122429132D01*
X61610539Y-122430965D01*
X61614790Y-122437580D01*
X62682094Y-123504884D01*
X62694474Y-123511644D01*
X62702815Y-123505400D01*
X62836832Y-123297048D01*
X62841275Y-123288864D01*
X62947807Y-123052370D01*
X62950997Y-123043605D01*
X63013530Y-122821885D01*
X67116000Y-122821885D01*
X67120475Y-122837124D01*
X67121865Y-122838329D01*
X67129548Y-122840000D01*
X69101885Y-122840000D01*
X69117124Y-122835525D01*
X69118329Y-122834135D01*
X69120000Y-122826452D01*
X69120000Y-122821885D01*
X69628000Y-122821885D01*
X69632475Y-122837124D01*
X69633865Y-122838329D01*
X69641548Y-122840000D01*
X71613884Y-122840000D01*
X71629123Y-122835525D01*
X71630328Y-122834135D01*
X71631999Y-122826452D01*
X71631999Y-122771085D01*
X80832000Y-122771085D01*
X80836475Y-122786324D01*
X80837865Y-122787529D01*
X80845548Y-122789200D01*
X82817885Y-122789200D01*
X82833124Y-122784725D01*
X82834329Y-122783335D01*
X82836000Y-122775652D01*
X82836000Y-122771085D01*
X83344000Y-122771085D01*
X83348475Y-122786324D01*
X83349865Y-122787529D01*
X83357548Y-122789200D01*
X85329884Y-122789200D01*
X85345123Y-122784725D01*
X85346328Y-122783335D01*
X85347999Y-122775652D01*
X85347999Y-122233239D01*
X85347791Y-122228129D01*
X85336918Y-122094433D01*
X85335148Y-122083880D01*
X85282033Y-121877015D01*
X85278299Y-121866469D01*
X85189490Y-121672495D01*
X85183954Y-121662788D01*
X85062197Y-121487603D01*
X85055024Y-121479024D01*
X84904176Y-121328176D01*
X84895597Y-121321003D01*
X84720412Y-121199246D01*
X84710705Y-121193710D01*
X84516731Y-121104901D01*
X84506185Y-121101167D01*
X84299321Y-121048053D01*
X84288766Y-121046282D01*
X84155070Y-121035407D01*
X84149964Y-121035200D01*
X83362115Y-121035200D01*
X83346876Y-121039675D01*
X83345671Y-121041065D01*
X83344000Y-121048748D01*
X83344000Y-122771085D01*
X82836000Y-122771085D01*
X82836000Y-121053316D01*
X82831525Y-121038077D01*
X82830135Y-121036872D01*
X82822452Y-121035201D01*
X82030039Y-121035201D01*
X82024929Y-121035409D01*
X81891233Y-121046282D01*
X81880680Y-121048052D01*
X81673815Y-121101167D01*
X81663269Y-121104901D01*
X81469295Y-121193710D01*
X81459588Y-121199246D01*
X81284403Y-121321003D01*
X81275824Y-121328176D01*
X81124976Y-121479024D01*
X81117803Y-121487603D01*
X80996046Y-121662788D01*
X80990510Y-121672495D01*
X80901701Y-121866469D01*
X80897967Y-121877015D01*
X80844853Y-122083879D01*
X80843082Y-122094434D01*
X80832207Y-122228130D01*
X80832000Y-122233236D01*
X80832000Y-122771085D01*
X71631999Y-122771085D01*
X71631999Y-122284039D01*
X71631791Y-122278929D01*
X71620918Y-122145233D01*
X71619148Y-122134680D01*
X71566033Y-121927815D01*
X71562299Y-121917269D01*
X71473490Y-121723295D01*
X71467954Y-121713588D01*
X71346197Y-121538403D01*
X71339024Y-121529824D01*
X71188176Y-121378976D01*
X71179597Y-121371803D01*
X71004412Y-121250046D01*
X70994705Y-121244510D01*
X70800731Y-121155701D01*
X70790185Y-121151967D01*
X70583321Y-121098853D01*
X70572766Y-121097082D01*
X70439070Y-121086207D01*
X70433964Y-121086000D01*
X69646115Y-121086000D01*
X69630876Y-121090475D01*
X69629671Y-121091865D01*
X69628000Y-121099548D01*
X69628000Y-122821885D01*
X69120000Y-122821885D01*
X69120000Y-121104116D01*
X69115525Y-121088877D01*
X69114135Y-121087672D01*
X69106452Y-121086001D01*
X68314039Y-121086001D01*
X68308929Y-121086209D01*
X68175233Y-121097082D01*
X68164680Y-121098852D01*
X67957815Y-121151967D01*
X67947269Y-121155701D01*
X67753295Y-121244510D01*
X67743588Y-121250046D01*
X67568403Y-121371803D01*
X67559824Y-121378976D01*
X67408976Y-121529824D01*
X67401803Y-121538403D01*
X67280046Y-121713588D01*
X67274510Y-121723295D01*
X67185701Y-121917269D01*
X67181967Y-121927815D01*
X67128853Y-122134679D01*
X67127082Y-122145234D01*
X67116207Y-122278930D01*
X67116000Y-122284036D01*
X67116000Y-122821885D01*
X63013530Y-122821885D01*
X63021402Y-122793972D01*
X63023262Y-122784830D01*
X63056187Y-122526019D01*
X63056668Y-122519733D01*
X63058987Y-122431160D01*
X63058836Y-122424851D01*
X63039501Y-122164662D01*
X63038125Y-122155457D01*
X62980878Y-121902467D01*
X62978154Y-121893556D01*
X62884143Y-121651806D01*
X62880132Y-121643397D01*
X62751422Y-121418202D01*
X62746211Y-121410476D01*
X62702996Y-121355658D01*
X62691071Y-121347187D01*
X62679537Y-121353673D01*
X61618022Y-122415188D01*
X61610408Y-122429132D01*
X60880356Y-122429132D01*
X60881592Y-122426868D01*
X60881461Y-122425035D01*
X60877210Y-122418420D01*
X59811816Y-121353026D01*
X59798507Y-121345758D01*
X59788472Y-121352878D01*
X59772937Y-121371556D01*
X59767531Y-121379135D01*
X59632965Y-121600891D01*
X59628736Y-121609192D01*
X59528432Y-121848389D01*
X59525471Y-121857239D01*
X59461628Y-122108625D01*
X59460006Y-122117822D01*
X59434020Y-122375885D01*
X59433775Y-122385211D01*
X57974500Y-122385211D01*
X57974500Y-121079866D01*
X57967745Y-121017684D01*
X57953876Y-120980689D01*
X60163102Y-120980689D01*
X60167675Y-120990465D01*
X61233188Y-122055978D01*
X61247132Y-122063592D01*
X61248965Y-122063461D01*
X61255580Y-122059210D01*
X62320349Y-120994441D01*
X62326733Y-120982751D01*
X62317321Y-120970641D01*
X62170045Y-120868471D01*
X62162010Y-120863738D01*
X61929376Y-120749016D01*
X61920743Y-120745528D01*
X61673703Y-120666450D01*
X61664643Y-120664274D01*
X61408630Y-120622580D01*
X61399343Y-120621768D01*
X61139992Y-120618373D01*
X61130681Y-120618943D01*
X60873682Y-120653919D01*
X60864546Y-120655860D01*
X60615543Y-120728439D01*
X60606800Y-120731707D01*
X60371252Y-120840296D01*
X60363097Y-120844816D01*
X60172240Y-120969947D01*
X60163102Y-120980689D01*
X57953876Y-120980689D01*
X57916615Y-120881295D01*
X57829261Y-120764739D01*
X57712705Y-120677385D01*
X57576316Y-120626255D01*
X57514134Y-120619500D01*
X54817866Y-120619500D01*
X54755684Y-120626255D01*
X54619295Y-120677385D01*
X54502739Y-120764739D01*
X54415385Y-120881295D01*
X54364255Y-121017684D01*
X54357500Y-121079866D01*
X54357500Y-123776134D01*
X25508500Y-123776134D01*
X25508500Y-120157821D01*
X27491500Y-120157821D01*
X27531060Y-120470975D01*
X27609557Y-120776702D01*
X27611010Y-120780371D01*
X27611010Y-120780372D01*
X27716993Y-121048053D01*
X27725753Y-121070179D01*
X27727659Y-121073647D01*
X27727660Y-121073648D01*
X27796709Y-121199246D01*
X27877816Y-121346779D01*
X28063346Y-121602140D01*
X28279418Y-121832233D01*
X28282469Y-121834757D01*
X28282470Y-121834758D01*
X28394956Y-121927815D01*
X28522625Y-122033432D01*
X28789131Y-122202562D01*
X28792710Y-122204246D01*
X28792717Y-122204250D01*
X29071144Y-122335267D01*
X29071148Y-122335269D01*
X29074734Y-122336956D01*
X29078506Y-122338182D01*
X29078507Y-122338182D01*
X29122293Y-122352409D01*
X29374928Y-122434495D01*
X29684980Y-122493641D01*
X29921162Y-122508500D01*
X30078838Y-122508500D01*
X30315020Y-122493641D01*
X30625072Y-122434495D01*
X30877707Y-122352409D01*
X30921493Y-122338182D01*
X30921494Y-122338182D01*
X30925266Y-122336956D01*
X30928852Y-122335269D01*
X30928856Y-122335267D01*
X31207283Y-122204250D01*
X31207290Y-122204246D01*
X31210869Y-122202562D01*
X31477375Y-122033432D01*
X31605044Y-121927815D01*
X31717530Y-121834758D01*
X31717531Y-121834757D01*
X31720582Y-121832233D01*
X31936654Y-121602140D01*
X32122184Y-121346779D01*
X32203292Y-121199246D01*
X32272340Y-121073648D01*
X32272341Y-121073647D01*
X32274247Y-121070179D01*
X32283008Y-121048053D01*
X32388990Y-120780372D01*
X32388990Y-120780371D01*
X32390443Y-120776702D01*
X32468940Y-120470975D01*
X32508500Y-120157821D01*
X32508500Y-119842179D01*
X32468940Y-119529025D01*
X32390443Y-119223298D01*
X32386224Y-119212642D01*
X32275702Y-118933495D01*
X32275700Y-118933490D01*
X32274247Y-118929821D01*
X32253528Y-118892134D01*
X67115500Y-118892134D01*
X67122255Y-118954316D01*
X67173385Y-119090705D01*
X67260739Y-119207261D01*
X67377295Y-119294615D01*
X67513684Y-119345745D01*
X67575866Y-119352500D01*
X71172134Y-119352500D01*
X71234316Y-119345745D01*
X71370705Y-119294615D01*
X71487261Y-119207261D01*
X71574615Y-119090705D01*
X71577764Y-119082304D01*
X71578981Y-119080082D01*
X71629240Y-119029936D01*
X71698631Y-119014923D01*
X71765123Y-119039809D01*
X71807605Y-119096693D01*
X71815500Y-119140592D01*
X71815500Y-121061364D01*
X71815591Y-121063037D01*
X71815591Y-121063052D01*
X71817815Y-121104116D01*
X71818619Y-121118957D01*
X71819456Y-121123243D01*
X71852678Y-121293360D01*
X71863620Y-121349393D01*
X71946804Y-121568952D01*
X72001967Y-121662788D01*
X72038328Y-121724639D01*
X72065791Y-121771356D01*
X72217181Y-121950819D01*
X72396644Y-122102209D01*
X72401248Y-122104915D01*
X72401250Y-122104917D01*
X72445954Y-122131197D01*
X72599048Y-122221196D01*
X72818607Y-122304380D01*
X73049043Y-122349381D01*
X73053401Y-122349617D01*
X73104948Y-122352409D01*
X73104963Y-122352409D01*
X73106636Y-122352500D01*
X75041364Y-122352500D01*
X75043037Y-122352409D01*
X75043052Y-122352409D01*
X75094599Y-122349617D01*
X75098957Y-122349381D01*
X75329393Y-122304380D01*
X75548952Y-122221196D01*
X75702046Y-122131197D01*
X75746750Y-122104917D01*
X75746752Y-122104915D01*
X75751356Y-122102209D01*
X75930819Y-121950819D01*
X76082209Y-121771356D01*
X76109673Y-121724639D01*
X76138311Y-121675923D01*
X76190077Y-121627335D01*
X76259894Y-121614446D01*
X76325595Y-121641350D01*
X76355553Y-121675924D01*
X76379080Y-121715946D01*
X76379083Y-121715950D01*
X76381791Y-121720556D01*
X76533181Y-121900019D01*
X76712644Y-122051409D01*
X76915048Y-122170396D01*
X77134607Y-122253580D01*
X77139839Y-122254602D01*
X77139840Y-122254602D01*
X77229160Y-122272045D01*
X77365043Y-122298581D01*
X77369401Y-122298817D01*
X77420948Y-122301609D01*
X77420963Y-122301609D01*
X77422636Y-122301700D01*
X79357364Y-122301700D01*
X79359037Y-122301609D01*
X79359052Y-122301609D01*
X79410599Y-122298817D01*
X79414957Y-122298581D01*
X79550840Y-122272045D01*
X79640160Y-122254602D01*
X79640161Y-122254602D01*
X79645393Y-122253580D01*
X79864952Y-122170396D01*
X80067356Y-122051409D01*
X80246819Y-121900019D01*
X80398209Y-121720556D01*
X80402306Y-121713588D01*
X80468556Y-121600891D01*
X80517196Y-121518152D01*
X80600380Y-121298593D01*
X80645381Y-121068157D01*
X80646848Y-121041065D01*
X80648409Y-121012252D01*
X80648409Y-121012237D01*
X80648500Y-121010564D01*
X80648500Y-120157821D01*
X117491500Y-120157821D01*
X117531060Y-120470975D01*
X117609557Y-120776702D01*
X117611010Y-120780371D01*
X117611010Y-120780372D01*
X117716993Y-121048053D01*
X117725753Y-121070179D01*
X117727659Y-121073647D01*
X117727660Y-121073648D01*
X117796709Y-121199246D01*
X117877816Y-121346779D01*
X118063346Y-121602140D01*
X118279418Y-121832233D01*
X118282469Y-121834757D01*
X118282470Y-121834758D01*
X118394956Y-121927815D01*
X118522625Y-122033432D01*
X118789131Y-122202562D01*
X118792710Y-122204246D01*
X118792717Y-122204250D01*
X119071144Y-122335267D01*
X119071148Y-122335269D01*
X119074734Y-122336956D01*
X119078506Y-122338182D01*
X119078507Y-122338182D01*
X119122293Y-122352409D01*
X119374928Y-122434495D01*
X119684980Y-122493641D01*
X119921162Y-122508500D01*
X120078838Y-122508500D01*
X120315020Y-122493641D01*
X120625072Y-122434495D01*
X120877707Y-122352409D01*
X120921493Y-122338182D01*
X120921494Y-122338182D01*
X120925266Y-122336956D01*
X120928852Y-122335269D01*
X120928856Y-122335267D01*
X121207283Y-122204250D01*
X121207290Y-122204246D01*
X121210869Y-122202562D01*
X121477375Y-122033432D01*
X121605044Y-121927815D01*
X121717530Y-121834758D01*
X121717531Y-121834757D01*
X121720582Y-121832233D01*
X121936654Y-121602140D01*
X122122184Y-121346779D01*
X122203292Y-121199246D01*
X122272340Y-121073648D01*
X122272341Y-121073647D01*
X122274247Y-121070179D01*
X122283008Y-121048053D01*
X122388990Y-120780372D01*
X122388990Y-120780371D01*
X122390443Y-120776702D01*
X122468940Y-120470975D01*
X122508500Y-120157821D01*
X122508500Y-119842179D01*
X122468940Y-119529025D01*
X122390443Y-119223298D01*
X122386224Y-119212642D01*
X122275702Y-118933495D01*
X122275700Y-118933490D01*
X122274247Y-118929821D01*
X122225601Y-118841334D01*
X122124093Y-118656693D01*
X122124091Y-118656690D01*
X122122184Y-118653221D01*
X121936654Y-118397860D01*
X121720582Y-118167767D01*
X121477375Y-117966568D01*
X121210869Y-117797438D01*
X121207290Y-117795754D01*
X121207283Y-117795750D01*
X120928856Y-117664733D01*
X120928852Y-117664731D01*
X120925266Y-117663044D01*
X120625072Y-117565505D01*
X120315020Y-117506359D01*
X120078838Y-117491500D01*
X119921162Y-117491500D01*
X119684980Y-117506359D01*
X119374928Y-117565505D01*
X119074734Y-117663044D01*
X119071148Y-117664731D01*
X119071144Y-117664733D01*
X118792717Y-117795750D01*
X118792710Y-117795754D01*
X118789131Y-117797438D01*
X118522625Y-117966568D01*
X118279418Y-118167767D01*
X118063346Y-118397860D01*
X117877816Y-118653221D01*
X117875909Y-118656690D01*
X117875907Y-118656693D01*
X117774399Y-118841334D01*
X117725753Y-118929821D01*
X117724300Y-118933490D01*
X117724298Y-118933495D01*
X117613776Y-119212642D01*
X117609557Y-119223298D01*
X117531060Y-119529025D01*
X117491500Y-119842179D01*
X117491500Y-120157821D01*
X80648500Y-120157821D01*
X80648500Y-119089792D01*
X80668502Y-119021671D01*
X80722158Y-118975178D01*
X80792432Y-118965074D01*
X80857012Y-118994568D01*
X80885019Y-119029282D01*
X80886236Y-119031504D01*
X80889385Y-119039905D01*
X80976739Y-119156461D01*
X81093295Y-119243815D01*
X81229684Y-119294945D01*
X81291866Y-119301700D01*
X84888134Y-119301700D01*
X84950316Y-119294945D01*
X85086705Y-119243815D01*
X85203261Y-119156461D01*
X85290615Y-119039905D01*
X85341745Y-118903516D01*
X85348500Y-118841334D01*
X85348500Y-115245066D01*
X85341745Y-115182884D01*
X85290615Y-115046495D01*
X85203261Y-114929939D01*
X85086705Y-114842585D01*
X84950316Y-114791455D01*
X84888134Y-114784700D01*
X81291866Y-114784700D01*
X81229684Y-114791455D01*
X81093295Y-114842585D01*
X80976739Y-114929939D01*
X80889385Y-115046495D01*
X80838255Y-115182884D01*
X80831500Y-115245066D01*
X80831500Y-118709627D01*
X80811498Y-118777748D01*
X80757842Y-118824241D01*
X80687568Y-118834345D01*
X80622988Y-118804851D01*
X80587673Y-118754268D01*
X80538332Y-118624034D01*
X80517196Y-118568248D01*
X80430783Y-118421254D01*
X80400917Y-118370450D01*
X80400915Y-118370448D01*
X80398209Y-118365844D01*
X80246819Y-118186381D01*
X80067356Y-118034991D01*
X79864952Y-117916004D01*
X79645393Y-117832820D01*
X79414957Y-117787819D01*
X79409227Y-117787509D01*
X79359052Y-117784791D01*
X79359037Y-117784791D01*
X79357364Y-117784700D01*
X77422636Y-117784700D01*
X77420963Y-117784791D01*
X77420948Y-117784791D01*
X77370773Y-117787509D01*
X77365043Y-117787819D01*
X77134607Y-117832820D01*
X76915048Y-117916004D01*
X76712644Y-118034991D01*
X76533181Y-118186381D01*
X76381791Y-118365844D01*
X76379085Y-118370448D01*
X76379083Y-118370450D01*
X76325689Y-118461277D01*
X76273923Y-118509865D01*
X76204106Y-118522754D01*
X76138405Y-118495850D01*
X76108447Y-118461276D01*
X76084920Y-118421254D01*
X76084915Y-118421246D01*
X76082209Y-118416644D01*
X75930819Y-118237181D01*
X75751356Y-118085791D01*
X75548952Y-117966804D01*
X75329393Y-117883620D01*
X75098957Y-117838619D01*
X75093227Y-117838309D01*
X75043052Y-117835591D01*
X75043037Y-117835591D01*
X75041364Y-117835500D01*
X73106636Y-117835500D01*
X73104963Y-117835591D01*
X73104948Y-117835591D01*
X73054773Y-117838309D01*
X73049043Y-117838619D01*
X72818607Y-117883620D01*
X72599048Y-117966804D01*
X72396644Y-118085791D01*
X72217181Y-118237181D01*
X72065791Y-118416644D01*
X71946804Y-118619048D01*
X71912487Y-118709627D01*
X71876327Y-118805068D01*
X71833488Y-118861683D01*
X71766840Y-118886151D01*
X71697545Y-118870702D01*
X71647602Y-118820241D01*
X71632500Y-118760427D01*
X71632500Y-115295866D01*
X71625745Y-115233684D01*
X71574615Y-115097295D01*
X71487261Y-114980739D01*
X71370705Y-114893385D01*
X71234316Y-114842255D01*
X71172134Y-114835500D01*
X67575866Y-114835500D01*
X67513684Y-114842255D01*
X67377295Y-114893385D01*
X67260739Y-114980739D01*
X67173385Y-115097295D01*
X67122255Y-115233684D01*
X67115500Y-115295866D01*
X67115500Y-118892134D01*
X32253528Y-118892134D01*
X32225601Y-118841334D01*
X32124093Y-118656693D01*
X32124091Y-118656690D01*
X32122184Y-118653221D01*
X31936654Y-118397860D01*
X31720582Y-118167767D01*
X31477375Y-117966568D01*
X31210869Y-117797438D01*
X31207290Y-117795754D01*
X31207283Y-117795750D01*
X30928856Y-117664733D01*
X30928852Y-117664731D01*
X30925266Y-117663044D01*
X30625072Y-117565505D01*
X30315020Y-117506359D01*
X30078838Y-117491500D01*
X29921162Y-117491500D01*
X29684980Y-117506359D01*
X29374928Y-117565505D01*
X29074734Y-117663044D01*
X29071148Y-117664731D01*
X29071144Y-117664733D01*
X28792717Y-117795750D01*
X28792710Y-117795754D01*
X28789131Y-117797438D01*
X28522625Y-117966568D01*
X28279418Y-118167767D01*
X28063346Y-118397860D01*
X27877816Y-118653221D01*
X27875909Y-118656690D01*
X27875907Y-118656693D01*
X27774399Y-118841334D01*
X27725753Y-118929821D01*
X27724300Y-118933490D01*
X27724298Y-118933495D01*
X27613776Y-119212642D01*
X27609557Y-119223298D01*
X27531060Y-119529025D01*
X27491500Y-119842179D01*
X27491500Y-120157821D01*
X25508500Y-120157821D01*
X25508500Y-114420000D01*
X48586502Y-114420000D01*
X48606457Y-114648087D01*
X48607881Y-114653400D01*
X48607881Y-114653402D01*
X48658485Y-114842255D01*
X48665716Y-114869243D01*
X48668039Y-114874224D01*
X48668039Y-114874225D01*
X48760151Y-115071762D01*
X48760154Y-115071767D01*
X48762477Y-115076749D01*
X48782751Y-115105703D01*
X48882727Y-115248483D01*
X48893802Y-115264300D01*
X49055700Y-115426198D01*
X49060208Y-115429355D01*
X49060211Y-115429357D01*
X49138389Y-115484098D01*
X49243251Y-115557523D01*
X49248233Y-115559846D01*
X49248238Y-115559849D01*
X49445775Y-115651961D01*
X49450757Y-115654284D01*
X49456065Y-115655706D01*
X49456067Y-115655707D01*
X49666598Y-115712119D01*
X49666600Y-115712119D01*
X49671913Y-115713543D01*
X49900000Y-115733498D01*
X50128087Y-115713543D01*
X50133400Y-115712119D01*
X50133402Y-115712119D01*
X50343933Y-115655707D01*
X50343935Y-115655706D01*
X50349243Y-115654284D01*
X50354225Y-115651961D01*
X50551762Y-115559849D01*
X50551767Y-115559846D01*
X50556749Y-115557523D01*
X50661611Y-115484098D01*
X50739789Y-115429357D01*
X50739792Y-115429355D01*
X50744300Y-115426198D01*
X50906198Y-115264300D01*
X50917274Y-115248483D01*
X51017249Y-115105703D01*
X51037523Y-115076749D01*
X51039846Y-115071767D01*
X51039849Y-115071762D01*
X51131961Y-114874225D01*
X51131961Y-114874224D01*
X51134284Y-114869243D01*
X51141516Y-114842255D01*
X51192119Y-114653402D01*
X51192119Y-114653400D01*
X51193543Y-114648087D01*
X51213498Y-114420000D01*
X51193543Y-114191913D01*
X51134284Y-113970757D01*
X51080804Y-113856067D01*
X51050929Y-113792000D01*
X75172502Y-113792000D01*
X75192457Y-114020087D01*
X75251716Y-114241243D01*
X75254039Y-114246224D01*
X75254039Y-114246225D01*
X75346151Y-114443762D01*
X75346154Y-114443767D01*
X75348477Y-114448749D01*
X75479802Y-114636300D01*
X75641700Y-114798198D01*
X75646208Y-114801355D01*
X75646211Y-114801357D01*
X75704620Y-114842255D01*
X75829251Y-114929523D01*
X75834233Y-114931846D01*
X75834238Y-114931849D01*
X75954482Y-114987919D01*
X76036757Y-115026284D01*
X76042065Y-115027706D01*
X76042067Y-115027707D01*
X76252598Y-115084119D01*
X76252600Y-115084119D01*
X76257913Y-115085543D01*
X76486000Y-115105498D01*
X76714087Y-115085543D01*
X76719400Y-115084119D01*
X76719402Y-115084119D01*
X76929933Y-115027707D01*
X76929935Y-115027706D01*
X76935243Y-115026284D01*
X77017518Y-114987919D01*
X77137762Y-114931849D01*
X77137767Y-114931846D01*
X77142749Y-114929523D01*
X77267380Y-114842255D01*
X77325789Y-114801357D01*
X77325792Y-114801355D01*
X77330300Y-114798198D01*
X77492198Y-114636300D01*
X77623523Y-114448749D01*
X77625846Y-114443767D01*
X77625849Y-114443762D01*
X77692886Y-114300000D01*
X110086502Y-114300000D01*
X110106457Y-114528087D01*
X110165716Y-114749243D01*
X110168039Y-114754224D01*
X110168039Y-114754225D01*
X110260151Y-114951762D01*
X110260154Y-114951767D01*
X110262477Y-114956749D01*
X110320286Y-115039309D01*
X110360889Y-115097295D01*
X110393802Y-115144300D01*
X110555700Y-115306198D01*
X110560208Y-115309355D01*
X110560211Y-115309357D01*
X110638389Y-115364098D01*
X110743251Y-115437523D01*
X110748233Y-115439846D01*
X110748238Y-115439849D01*
X110945775Y-115531961D01*
X110950757Y-115534284D01*
X110956065Y-115535706D01*
X110956067Y-115535707D01*
X111166598Y-115592119D01*
X111166600Y-115592119D01*
X111171913Y-115593543D01*
X111400000Y-115613498D01*
X111628087Y-115593543D01*
X111633400Y-115592119D01*
X111633402Y-115592119D01*
X111843933Y-115535707D01*
X111843935Y-115535706D01*
X111849243Y-115534284D01*
X111854225Y-115531961D01*
X112051762Y-115439849D01*
X112051767Y-115439846D01*
X112056749Y-115437523D01*
X112161611Y-115364098D01*
X112239789Y-115309357D01*
X112239792Y-115309355D01*
X112244300Y-115306198D01*
X112406198Y-115144300D01*
X112439112Y-115097295D01*
X112479714Y-115039309D01*
X112537523Y-114956749D01*
X112539846Y-114951767D01*
X112539849Y-114951762D01*
X112631961Y-114754225D01*
X112631961Y-114754224D01*
X112634284Y-114749243D01*
X112693543Y-114528087D01*
X112713498Y-114300000D01*
X112693543Y-114071913D01*
X112634284Y-113850757D01*
X112631961Y-113845775D01*
X112539849Y-113648238D01*
X112539846Y-113648233D01*
X112537523Y-113643251D01*
X112406198Y-113455700D01*
X112244300Y-113293802D01*
X112239792Y-113290645D01*
X112239789Y-113290643D01*
X112093255Y-113188039D01*
X112056749Y-113162477D01*
X112051767Y-113160154D01*
X112051762Y-113160151D01*
X111854225Y-113068039D01*
X111854224Y-113068039D01*
X111849243Y-113065716D01*
X111843935Y-113064294D01*
X111843933Y-113064293D01*
X111633402Y-113007881D01*
X111633400Y-113007881D01*
X111628087Y-113006457D01*
X111400000Y-112986502D01*
X111171913Y-113006457D01*
X111166600Y-113007881D01*
X111166598Y-113007881D01*
X110956067Y-113064293D01*
X110956065Y-113064294D01*
X110950757Y-113065716D01*
X110945776Y-113068039D01*
X110945775Y-113068039D01*
X110748238Y-113160151D01*
X110748233Y-113160154D01*
X110743251Y-113162477D01*
X110706745Y-113188039D01*
X110560211Y-113290643D01*
X110560208Y-113290645D01*
X110555700Y-113293802D01*
X110393802Y-113455700D01*
X110262477Y-113643251D01*
X110260154Y-113648233D01*
X110260151Y-113648238D01*
X110168039Y-113845775D01*
X110165716Y-113850757D01*
X110106457Y-114071913D01*
X110086502Y-114300000D01*
X77692886Y-114300000D01*
X77717961Y-114246225D01*
X77717961Y-114246224D01*
X77720284Y-114241243D01*
X77779543Y-114020087D01*
X77799498Y-113792000D01*
X77779543Y-113563913D01*
X77720284Y-113342757D01*
X77695983Y-113290643D01*
X77625849Y-113140238D01*
X77625846Y-113140233D01*
X77623523Y-113135251D01*
X77492198Y-112947700D01*
X77330300Y-112785802D01*
X77325792Y-112782645D01*
X77325789Y-112782643D01*
X77247611Y-112727902D01*
X77142749Y-112654477D01*
X77137767Y-112652154D01*
X77137762Y-112652151D01*
X76940225Y-112560039D01*
X76940224Y-112560039D01*
X76935243Y-112557716D01*
X76929935Y-112556294D01*
X76929933Y-112556293D01*
X76719402Y-112499881D01*
X76719400Y-112499881D01*
X76714087Y-112498457D01*
X76486000Y-112478502D01*
X76257913Y-112498457D01*
X76252600Y-112499881D01*
X76252598Y-112499881D01*
X76042067Y-112556293D01*
X76042065Y-112556294D01*
X76036757Y-112557716D01*
X76031776Y-112560039D01*
X76031775Y-112560039D01*
X75834238Y-112652151D01*
X75834233Y-112652154D01*
X75829251Y-112654477D01*
X75724389Y-112727902D01*
X75646211Y-112782643D01*
X75646208Y-112782645D01*
X75641700Y-112785802D01*
X75479802Y-112947700D01*
X75348477Y-113135251D01*
X75346154Y-113140233D01*
X75346151Y-113140238D01*
X75276017Y-113290643D01*
X75251716Y-113342757D01*
X75192457Y-113563913D01*
X75172502Y-113792000D01*
X51050929Y-113792000D01*
X51039849Y-113768238D01*
X51039846Y-113768233D01*
X51037523Y-113763251D01*
X50906198Y-113575700D01*
X50744300Y-113413802D01*
X50739792Y-113410645D01*
X50739789Y-113410643D01*
X50650421Y-113348067D01*
X50556749Y-113282477D01*
X50551767Y-113280154D01*
X50551762Y-113280151D01*
X50354225Y-113188039D01*
X50354224Y-113188039D01*
X50349243Y-113185716D01*
X50343935Y-113184294D01*
X50343933Y-113184293D01*
X50133402Y-113127881D01*
X50133400Y-113127881D01*
X50128087Y-113126457D01*
X49900000Y-113106502D01*
X49671913Y-113126457D01*
X49666600Y-113127881D01*
X49666598Y-113127881D01*
X49456067Y-113184293D01*
X49456065Y-113184294D01*
X49450757Y-113185716D01*
X49445776Y-113188039D01*
X49445775Y-113188039D01*
X49248238Y-113280151D01*
X49248233Y-113280154D01*
X49243251Y-113282477D01*
X49149579Y-113348067D01*
X49060211Y-113410643D01*
X49060208Y-113410645D01*
X49055700Y-113413802D01*
X48893802Y-113575700D01*
X48762477Y-113763251D01*
X48760154Y-113768233D01*
X48760151Y-113768238D01*
X48719196Y-113856067D01*
X48665716Y-113970757D01*
X48606457Y-114191913D01*
X48586502Y-114420000D01*
X25508500Y-114420000D01*
X25508500Y-110369669D01*
X27477001Y-110369669D01*
X27477371Y-110376490D01*
X27482895Y-110427352D01*
X27486521Y-110442604D01*
X27531676Y-110563054D01*
X27540214Y-110578649D01*
X27616715Y-110680724D01*
X27629276Y-110693285D01*
X27731351Y-110769786D01*
X27746946Y-110778324D01*
X27867394Y-110823478D01*
X27882649Y-110827105D01*
X27933514Y-110832631D01*
X27940328Y-110833000D01*
X28612885Y-110833000D01*
X28628124Y-110828525D01*
X28629329Y-110827135D01*
X28631000Y-110819452D01*
X28631000Y-110814884D01*
X29139000Y-110814884D01*
X29143475Y-110830123D01*
X29144865Y-110831328D01*
X29152548Y-110832999D01*
X29829669Y-110832999D01*
X29836490Y-110832629D01*
X29887352Y-110827105D01*
X29902604Y-110823479D01*
X30023054Y-110778324D01*
X30038649Y-110769786D01*
X30140724Y-110693285D01*
X30153285Y-110680724D01*
X30229786Y-110578649D01*
X30238324Y-110563054D01*
X30259773Y-110505840D01*
X30302415Y-110449075D01*
X30368977Y-110424376D01*
X30438325Y-110439584D01*
X30458240Y-110453126D01*
X30614349Y-110582730D01*
X30814322Y-110699584D01*
X31030694Y-110782209D01*
X31035760Y-110783240D01*
X31035761Y-110783240D01*
X31088846Y-110794040D01*
X31257656Y-110828385D01*
X31388324Y-110833176D01*
X31483949Y-110836683D01*
X31483953Y-110836683D01*
X31489113Y-110836872D01*
X31494233Y-110836216D01*
X31494235Y-110836216D01*
X31593668Y-110823478D01*
X31718847Y-110807442D01*
X31723795Y-110805957D01*
X31723802Y-110805956D01*
X31935747Y-110742369D01*
X31940690Y-110740886D01*
X32021236Y-110701427D01*
X32144049Y-110641262D01*
X32144052Y-110641260D01*
X32148684Y-110638991D01*
X32337243Y-110504494D01*
X32501303Y-110341005D01*
X32636458Y-110152917D01*
X32677350Y-110070179D01*
X32736784Y-109949922D01*
X32736785Y-109949920D01*
X32739078Y-109945280D01*
X32806408Y-109723671D01*
X32836640Y-109494041D01*
X32838327Y-109425000D01*
X32832032Y-109348434D01*
X32819773Y-109199318D01*
X32819772Y-109199312D01*
X32819349Y-109194167D01*
X32810220Y-109157821D01*
X41491500Y-109157821D01*
X41531060Y-109470975D01*
X41609557Y-109776702D01*
X41611010Y-109780371D01*
X41611010Y-109780372D01*
X41722609Y-110062237D01*
X41725753Y-110070179D01*
X41727659Y-110073647D01*
X41727660Y-110073648D01*
X41874642Y-110341005D01*
X41877816Y-110346779D01*
X42063346Y-110602140D01*
X42195030Y-110742369D01*
X42274631Y-110827135D01*
X42279418Y-110832233D01*
X42282469Y-110834757D01*
X42282470Y-110834758D01*
X42401022Y-110932833D01*
X42522625Y-111033432D01*
X42789131Y-111202562D01*
X42792710Y-111204246D01*
X42792717Y-111204250D01*
X43071144Y-111335267D01*
X43071148Y-111335269D01*
X43074734Y-111336956D01*
X43374928Y-111434495D01*
X43684980Y-111493641D01*
X43921162Y-111508500D01*
X44078838Y-111508500D01*
X44315020Y-111493641D01*
X44625072Y-111434495D01*
X44925266Y-111336956D01*
X44928852Y-111335269D01*
X44928856Y-111335267D01*
X45207283Y-111204250D01*
X45207290Y-111204246D01*
X45210869Y-111202562D01*
X45477375Y-111033432D01*
X45598978Y-110932833D01*
X45717530Y-110834758D01*
X45717531Y-110834757D01*
X45720582Y-110832233D01*
X45725370Y-110827135D01*
X45804970Y-110742369D01*
X45936654Y-110602140D01*
X46122184Y-110346779D01*
X46125359Y-110341005D01*
X46272340Y-110073648D01*
X46272341Y-110073647D01*
X46274247Y-110070179D01*
X46277392Y-110062237D01*
X46388990Y-109780372D01*
X46388990Y-109780371D01*
X46390443Y-109776702D01*
X46468940Y-109470975D01*
X46508500Y-109157821D01*
X102491500Y-109157821D01*
X102531060Y-109470975D01*
X102609557Y-109776702D01*
X102611010Y-109780371D01*
X102611010Y-109780372D01*
X102722609Y-110062237D01*
X102725753Y-110070179D01*
X102727659Y-110073647D01*
X102727660Y-110073648D01*
X102874642Y-110341005D01*
X102877816Y-110346779D01*
X103063346Y-110602140D01*
X103195030Y-110742369D01*
X103274631Y-110827135D01*
X103279418Y-110832233D01*
X103282469Y-110834757D01*
X103282470Y-110834758D01*
X103401022Y-110932833D01*
X103522625Y-111033432D01*
X103789131Y-111202562D01*
X103792710Y-111204246D01*
X103792717Y-111204250D01*
X104071144Y-111335267D01*
X104071148Y-111335269D01*
X104074734Y-111336956D01*
X104374928Y-111434495D01*
X104684980Y-111493641D01*
X104921162Y-111508500D01*
X105078838Y-111508500D01*
X105315020Y-111493641D01*
X105625072Y-111434495D01*
X105925266Y-111336956D01*
X105928852Y-111335269D01*
X105928856Y-111335267D01*
X106207283Y-111204250D01*
X106207290Y-111204246D01*
X106210869Y-111202562D01*
X106477375Y-111033432D01*
X106598978Y-110932833D01*
X106717530Y-110834758D01*
X106717531Y-110834757D01*
X106720582Y-110832233D01*
X106725370Y-110827135D01*
X106804970Y-110742369D01*
X106936654Y-110602140D01*
X107122184Y-110346779D01*
X107125359Y-110341005D01*
X107272340Y-110073648D01*
X107272341Y-110073647D01*
X107274247Y-110070179D01*
X107277392Y-110062237D01*
X107388990Y-109780372D01*
X107388990Y-109780371D01*
X107390443Y-109776702D01*
X107468940Y-109470975D01*
X107508500Y-109157821D01*
X107508500Y-108842179D01*
X107468940Y-108529025D01*
X107390443Y-108223298D01*
X107359405Y-108144904D01*
X107275702Y-107933495D01*
X107275700Y-107933490D01*
X107274247Y-107929821D01*
X107266488Y-107915707D01*
X107124093Y-107656693D01*
X107124091Y-107656690D01*
X107122184Y-107653221D01*
X106943808Y-107407707D01*
X106938982Y-107401064D01*
X106938981Y-107401062D01*
X106936654Y-107397860D01*
X106733344Y-107181357D01*
X106723297Y-107170658D01*
X106723296Y-107170657D01*
X106720582Y-107167767D01*
X106477375Y-106966568D01*
X106210869Y-106797438D01*
X106207290Y-106795754D01*
X106207283Y-106795750D01*
X105961300Y-106680000D01*
X110086502Y-106680000D01*
X110106457Y-106908087D01*
X110107881Y-106913400D01*
X110107881Y-106913402D01*
X110143384Y-107045898D01*
X110165716Y-107129243D01*
X110168039Y-107134224D01*
X110168039Y-107134225D01*
X110260151Y-107331762D01*
X110260154Y-107331767D01*
X110262477Y-107336749D01*
X110335902Y-107441611D01*
X110364743Y-107482799D01*
X110393802Y-107524300D01*
X110555700Y-107686198D01*
X110560208Y-107689355D01*
X110560211Y-107689357D01*
X110584210Y-107706161D01*
X110743251Y-107817523D01*
X110748233Y-107819846D01*
X110748238Y-107819849D01*
X110945775Y-107911961D01*
X110950757Y-107914284D01*
X110956065Y-107915706D01*
X110956067Y-107915707D01*
X111166598Y-107972119D01*
X111166600Y-107972119D01*
X111171913Y-107973543D01*
X111400000Y-107993498D01*
X111628087Y-107973543D01*
X111633400Y-107972119D01*
X111633402Y-107972119D01*
X111843933Y-107915707D01*
X111843935Y-107915706D01*
X111849243Y-107914284D01*
X111854225Y-107911961D01*
X112051762Y-107819849D01*
X112051767Y-107819846D01*
X112056749Y-107817523D01*
X112215790Y-107706161D01*
X112239789Y-107689357D01*
X112239792Y-107689355D01*
X112244300Y-107686198D01*
X112406198Y-107524300D01*
X112435258Y-107482799D01*
X112464098Y-107441611D01*
X112537523Y-107336749D01*
X112539846Y-107331767D01*
X112539849Y-107331762D01*
X112631961Y-107134225D01*
X112631961Y-107134224D01*
X112634284Y-107129243D01*
X112656617Y-107045898D01*
X112692119Y-106913402D01*
X112692119Y-106913400D01*
X112693543Y-106908087D01*
X112713498Y-106680000D01*
X112693543Y-106451913D01*
X112678188Y-106394607D01*
X112635707Y-106236067D01*
X112635706Y-106236065D01*
X112634284Y-106230757D01*
X112620680Y-106201583D01*
X112539849Y-106028238D01*
X112539846Y-106028233D01*
X112537523Y-106023251D01*
X112406198Y-105835700D01*
X112244300Y-105673802D01*
X112239792Y-105670645D01*
X112239789Y-105670643D01*
X112093255Y-105568039D01*
X112056749Y-105542477D01*
X112051767Y-105540154D01*
X112051762Y-105540151D01*
X111854225Y-105448039D01*
X111854224Y-105448039D01*
X111849243Y-105445716D01*
X111843935Y-105444294D01*
X111843933Y-105444293D01*
X111633402Y-105387881D01*
X111633400Y-105387881D01*
X111628087Y-105386457D01*
X111400000Y-105366502D01*
X111171913Y-105386457D01*
X111166600Y-105387881D01*
X111166598Y-105387881D01*
X110956067Y-105444293D01*
X110956065Y-105444294D01*
X110950757Y-105445716D01*
X110945776Y-105448039D01*
X110945775Y-105448039D01*
X110748238Y-105540151D01*
X110748233Y-105540154D01*
X110743251Y-105542477D01*
X110706745Y-105568039D01*
X110560211Y-105670643D01*
X110560208Y-105670645D01*
X110555700Y-105673802D01*
X110393802Y-105835700D01*
X110262477Y-106023251D01*
X110260154Y-106028233D01*
X110260151Y-106028238D01*
X110179320Y-106201583D01*
X110165716Y-106230757D01*
X110164294Y-106236065D01*
X110164293Y-106236067D01*
X110121812Y-106394607D01*
X110106457Y-106451913D01*
X110086502Y-106680000D01*
X105961300Y-106680000D01*
X105928856Y-106664733D01*
X105928852Y-106664731D01*
X105925266Y-106663044D01*
X105899845Y-106654784D01*
X105661659Y-106577393D01*
X105625072Y-106565505D01*
X105315020Y-106506359D01*
X105078838Y-106491500D01*
X104921162Y-106491500D01*
X104684980Y-106506359D01*
X104374928Y-106565505D01*
X104338341Y-106577393D01*
X104100156Y-106654784D01*
X104074734Y-106663044D01*
X104071148Y-106664731D01*
X104071144Y-106664733D01*
X103792717Y-106795750D01*
X103792710Y-106795754D01*
X103789131Y-106797438D01*
X103522625Y-106966568D01*
X103279418Y-107167767D01*
X103276704Y-107170657D01*
X103276703Y-107170658D01*
X103266656Y-107181357D01*
X103063346Y-107397860D01*
X103061019Y-107401062D01*
X103061018Y-107401064D01*
X103056192Y-107407707D01*
X102877816Y-107653221D01*
X102875909Y-107656690D01*
X102875907Y-107656693D01*
X102733512Y-107915707D01*
X102725753Y-107929821D01*
X102724300Y-107933490D01*
X102724298Y-107933495D01*
X102640595Y-108144904D01*
X102609557Y-108223298D01*
X102531060Y-108529025D01*
X102491500Y-108842179D01*
X102491500Y-109157821D01*
X46508500Y-109157821D01*
X46508500Y-108842179D01*
X46468940Y-108529025D01*
X46390443Y-108223298D01*
X46359405Y-108144904D01*
X46275702Y-107933495D01*
X46275700Y-107933490D01*
X46274247Y-107929821D01*
X46266488Y-107915707D01*
X46124093Y-107656693D01*
X46124091Y-107656690D01*
X46122184Y-107653221D01*
X45943808Y-107407707D01*
X45938982Y-107401064D01*
X45938981Y-107401062D01*
X45936654Y-107397860D01*
X45733344Y-107181357D01*
X45723297Y-107170658D01*
X45723296Y-107170657D01*
X45720582Y-107167767D01*
X45477375Y-106966568D01*
X45214906Y-106800000D01*
X48586502Y-106800000D01*
X48606457Y-107028087D01*
X48665716Y-107249243D01*
X48668039Y-107254224D01*
X48668039Y-107254225D01*
X48760151Y-107451762D01*
X48760154Y-107451767D01*
X48762477Y-107456749D01*
X48893802Y-107644300D01*
X49055700Y-107806198D01*
X49060208Y-107809355D01*
X49060211Y-107809357D01*
X49138389Y-107864098D01*
X49243251Y-107937523D01*
X49248233Y-107939846D01*
X49248238Y-107939849D01*
X49426333Y-108022895D01*
X49450757Y-108034284D01*
X49456065Y-108035706D01*
X49456067Y-108035707D01*
X49666598Y-108092119D01*
X49666600Y-108092119D01*
X49671913Y-108093543D01*
X49900000Y-108113498D01*
X50128087Y-108093543D01*
X50133400Y-108092119D01*
X50133402Y-108092119D01*
X50343933Y-108035707D01*
X50343935Y-108035706D01*
X50349243Y-108034284D01*
X50373667Y-108022895D01*
X50551762Y-107939849D01*
X50551767Y-107939846D01*
X50556749Y-107937523D01*
X50661611Y-107864098D01*
X50739789Y-107809357D01*
X50739792Y-107809355D01*
X50744300Y-107806198D01*
X50906198Y-107644300D01*
X51037523Y-107456749D01*
X51039846Y-107451767D01*
X51039849Y-107451762D01*
X51131961Y-107254225D01*
X51131961Y-107254224D01*
X51134284Y-107249243D01*
X51193543Y-107028087D01*
X51213498Y-106800000D01*
X51193543Y-106571913D01*
X51164280Y-106462703D01*
X55890743Y-106462703D01*
X55891302Y-106466947D01*
X55891302Y-106466951D01*
X55896490Y-106506359D01*
X55928268Y-106747734D01*
X55929401Y-106751874D01*
X55929401Y-106751876D01*
X55941404Y-106795750D01*
X56004129Y-107025036D01*
X56005813Y-107028984D01*
X56078325Y-107198984D01*
X56116923Y-107289476D01*
X56180062Y-107394974D01*
X56259795Y-107528197D01*
X56264561Y-107536161D01*
X56444313Y-107760528D01*
X56567711Y-107877628D01*
X56643618Y-107949661D01*
X56652851Y-107958423D01*
X56886317Y-108126186D01*
X56890112Y-108128195D01*
X56890113Y-108128196D01*
X56909334Y-108138373D01*
X57140392Y-108260712D01*
X57410373Y-108359511D01*
X57691264Y-108420755D01*
X57710197Y-108422245D01*
X57914282Y-108438307D01*
X57914291Y-108438307D01*
X57916739Y-108438500D01*
X58072271Y-108438500D01*
X58074407Y-108438354D01*
X58074418Y-108438354D01*
X58282548Y-108424165D01*
X58282554Y-108424164D01*
X58286825Y-108423873D01*
X58291020Y-108423004D01*
X58291022Y-108423004D01*
X58465772Y-108386815D01*
X58568342Y-108365574D01*
X58839343Y-108269607D01*
X59094812Y-108137750D01*
X59098313Y-108135289D01*
X59098317Y-108135287D01*
X59220567Y-108049368D01*
X59330023Y-107972441D01*
X59408403Y-107899606D01*
X59537479Y-107779661D01*
X59537481Y-107779658D01*
X59540622Y-107776740D01*
X59722713Y-107554268D01*
X59872927Y-107309142D01*
X59988483Y-107045898D01*
X60067244Y-106769406D01*
X60104575Y-106507103D01*
X60107146Y-106489036D01*
X60107146Y-106489034D01*
X60107751Y-106484784D01*
X60107845Y-106466951D01*
X60109235Y-106201583D01*
X60109235Y-106201576D01*
X60109257Y-106197297D01*
X60106648Y-106177475D01*
X60105927Y-106172000D01*
X75172502Y-106172000D01*
X75192457Y-106400087D01*
X75193881Y-106405400D01*
X75193881Y-106405402D01*
X75236582Y-106564761D01*
X75251716Y-106621243D01*
X75254039Y-106626224D01*
X75254039Y-106626225D01*
X75346151Y-106823762D01*
X75346154Y-106823767D01*
X75348477Y-106828749D01*
X75351634Y-106833257D01*
X75443491Y-106964442D01*
X75479802Y-107016300D01*
X75641700Y-107178198D01*
X75646208Y-107181355D01*
X75646211Y-107181357D01*
X75695541Y-107215898D01*
X75829251Y-107309523D01*
X75834233Y-107311846D01*
X75834238Y-107311849D01*
X76031775Y-107403961D01*
X76036757Y-107406284D01*
X76042065Y-107407706D01*
X76042067Y-107407707D01*
X76252598Y-107464119D01*
X76252600Y-107464119D01*
X76257913Y-107465543D01*
X76486000Y-107485498D01*
X76714087Y-107465543D01*
X76719400Y-107464119D01*
X76719402Y-107464119D01*
X76929933Y-107407707D01*
X76929935Y-107407706D01*
X76935243Y-107406284D01*
X76940225Y-107403961D01*
X77137762Y-107311849D01*
X77137767Y-107311846D01*
X77142749Y-107309523D01*
X77276459Y-107215898D01*
X77325789Y-107181357D01*
X77325792Y-107181355D01*
X77330300Y-107178198D01*
X77492198Y-107016300D01*
X77528510Y-106964442D01*
X77620366Y-106833257D01*
X77623523Y-106828749D01*
X77625846Y-106823767D01*
X77625849Y-106823762D01*
X77714940Y-106632703D01*
X92390743Y-106632703D01*
X92391302Y-106636947D01*
X92391302Y-106636951D01*
X92405327Y-106743478D01*
X92428268Y-106917734D01*
X92504129Y-107195036D01*
X92505813Y-107198984D01*
X92613633Y-107451762D01*
X92616923Y-107459476D01*
X92662818Y-107536161D01*
X92730961Y-107650019D01*
X92764561Y-107706161D01*
X92944313Y-107930528D01*
X93037386Y-108018851D01*
X93148713Y-108124496D01*
X93152851Y-108128423D01*
X93386317Y-108296186D01*
X93390112Y-108298195D01*
X93390113Y-108298196D01*
X93411869Y-108309715D01*
X93640392Y-108430712D01*
X93910373Y-108529511D01*
X94191264Y-108590755D01*
X94219841Y-108593004D01*
X94414282Y-108608307D01*
X94414291Y-108608307D01*
X94416739Y-108608500D01*
X94572271Y-108608500D01*
X94574407Y-108608354D01*
X94574418Y-108608354D01*
X94782548Y-108594165D01*
X94782554Y-108594164D01*
X94786825Y-108593873D01*
X94791020Y-108593004D01*
X94791022Y-108593004D01*
X94956004Y-108558838D01*
X95068342Y-108535574D01*
X95339343Y-108439607D01*
X95459590Y-108377543D01*
X95591005Y-108309715D01*
X95591006Y-108309715D01*
X95594812Y-108307750D01*
X95598313Y-108305289D01*
X95598317Y-108305287D01*
X95720197Y-108219628D01*
X95830023Y-108142441D01*
X95946414Y-108034284D01*
X96037479Y-107949661D01*
X96037481Y-107949658D01*
X96040622Y-107946740D01*
X96222713Y-107724268D01*
X96372927Y-107479142D01*
X96445947Y-107312799D01*
X96486757Y-107219830D01*
X96488483Y-107215898D01*
X96567244Y-106939406D01*
X96604162Y-106680000D01*
X96607146Y-106659036D01*
X96607146Y-106659034D01*
X96607751Y-106654784D01*
X96607845Y-106636951D01*
X96609235Y-106371583D01*
X96609235Y-106371576D01*
X96609257Y-106367297D01*
X96607080Y-106350757D01*
X96572292Y-106086522D01*
X96571732Y-106082266D01*
X96495871Y-105804964D01*
X96460807Y-105722757D01*
X96384763Y-105544476D01*
X96384761Y-105544472D01*
X96383077Y-105540524D01*
X96279214Y-105366981D01*
X96237643Y-105297521D01*
X96237640Y-105297517D01*
X96235439Y-105293839D01*
X96055687Y-105069472D01*
X95916845Y-104937716D01*
X95850258Y-104874527D01*
X95850255Y-104874525D01*
X95847149Y-104871577D01*
X95613683Y-104703814D01*
X95591843Y-104692250D01*
X95568654Y-104679972D01*
X95359608Y-104569288D01*
X95089627Y-104470489D01*
X94808736Y-104409245D01*
X94777685Y-104406801D01*
X94585718Y-104391693D01*
X94585709Y-104391693D01*
X94583261Y-104391500D01*
X94427729Y-104391500D01*
X94425593Y-104391646D01*
X94425582Y-104391646D01*
X94217452Y-104405835D01*
X94217446Y-104405836D01*
X94213175Y-104406127D01*
X94208980Y-104406996D01*
X94208978Y-104406996D01*
X94072417Y-104435276D01*
X93931658Y-104464426D01*
X93660657Y-104560393D01*
X93405188Y-104692250D01*
X93401687Y-104694711D01*
X93401683Y-104694713D01*
X93385167Y-104706321D01*
X93169977Y-104857559D01*
X93138748Y-104886579D01*
X92976194Y-105037634D01*
X92959378Y-105053260D01*
X92777287Y-105275732D01*
X92733491Y-105347201D01*
X92633272Y-105510743D01*
X92627073Y-105520858D01*
X92625347Y-105524791D01*
X92625346Y-105524792D01*
X92538446Y-105722757D01*
X92511517Y-105784102D01*
X92432756Y-106060594D01*
X92392249Y-106345216D01*
X92392227Y-106349505D01*
X92392226Y-106349512D01*
X92390765Y-106628417D01*
X92390743Y-106632703D01*
X77714940Y-106632703D01*
X77717961Y-106626225D01*
X77717961Y-106626224D01*
X77720284Y-106621243D01*
X77735419Y-106564761D01*
X77778119Y-106405402D01*
X77778119Y-106405400D01*
X77779543Y-106400087D01*
X77799498Y-106172000D01*
X77779543Y-105943913D01*
X77743421Y-105809103D01*
X77721707Y-105728067D01*
X77721706Y-105728065D01*
X77720284Y-105722757D01*
X77695983Y-105670643D01*
X77625849Y-105520238D01*
X77625846Y-105520233D01*
X77623523Y-105515251D01*
X77511168Y-105354792D01*
X77495357Y-105332211D01*
X77495355Y-105332208D01*
X77492198Y-105327700D01*
X77330300Y-105165802D01*
X77325792Y-105162645D01*
X77325789Y-105162643D01*
X77239773Y-105102414D01*
X77142749Y-105034477D01*
X77137767Y-105032154D01*
X77137762Y-105032151D01*
X76940225Y-104940039D01*
X76940224Y-104940039D01*
X76935243Y-104937716D01*
X76929935Y-104936294D01*
X76929933Y-104936293D01*
X76719402Y-104879881D01*
X76719400Y-104879881D01*
X76714087Y-104878457D01*
X76486000Y-104858502D01*
X76257913Y-104878457D01*
X76252600Y-104879881D01*
X76252598Y-104879881D01*
X76042067Y-104936293D01*
X76042065Y-104936294D01*
X76036757Y-104937716D01*
X76031776Y-104940039D01*
X76031775Y-104940039D01*
X75834238Y-105032151D01*
X75834233Y-105032154D01*
X75829251Y-105034477D01*
X75732227Y-105102414D01*
X75646211Y-105162643D01*
X75646208Y-105162645D01*
X75641700Y-105165802D01*
X75479802Y-105327700D01*
X75476645Y-105332208D01*
X75476643Y-105332211D01*
X75460832Y-105354792D01*
X75348477Y-105515251D01*
X75346154Y-105520233D01*
X75346151Y-105520238D01*
X75276017Y-105670643D01*
X75251716Y-105722757D01*
X75250294Y-105728065D01*
X75250293Y-105728067D01*
X75228579Y-105809103D01*
X75192457Y-105943913D01*
X75172502Y-106172000D01*
X60105927Y-106172000D01*
X60075898Y-105943913D01*
X60071732Y-105912266D01*
X59995871Y-105634964D01*
X59946936Y-105520238D01*
X59884763Y-105374476D01*
X59884761Y-105374472D01*
X59883077Y-105370524D01*
X59762886Y-105169699D01*
X59737643Y-105127521D01*
X59737640Y-105127517D01*
X59735439Y-105123839D01*
X59555687Y-104899472D01*
X59347149Y-104701577D01*
X59113683Y-104533814D01*
X59091843Y-104522250D01*
X59068654Y-104509972D01*
X58859608Y-104399288D01*
X58589627Y-104300489D01*
X58308736Y-104239245D01*
X58277685Y-104236801D01*
X58085718Y-104221693D01*
X58085709Y-104221693D01*
X58083261Y-104221500D01*
X57927729Y-104221500D01*
X57925593Y-104221646D01*
X57925582Y-104221646D01*
X57717452Y-104235835D01*
X57717446Y-104235836D01*
X57713175Y-104236127D01*
X57708980Y-104236996D01*
X57708978Y-104236996D01*
X57579310Y-104263849D01*
X57431658Y-104294426D01*
X57160657Y-104390393D01*
X56905188Y-104522250D01*
X56901687Y-104524711D01*
X56901683Y-104524713D01*
X56802778Y-104594225D01*
X56669977Y-104687559D01*
X56654892Y-104701577D01*
X56464547Y-104878457D01*
X56459378Y-104883260D01*
X56277287Y-105105732D01*
X56127073Y-105350858D01*
X56125347Y-105354791D01*
X56125346Y-105354792D01*
X56052720Y-105520238D01*
X56011517Y-105614102D01*
X56010342Y-105618229D01*
X56010341Y-105618230D01*
X55997737Y-105662477D01*
X55932756Y-105890594D01*
X55892249Y-106175216D01*
X55892227Y-106179505D01*
X55892226Y-106179512D01*
X55890765Y-106458417D01*
X55890743Y-106462703D01*
X51164280Y-106462703D01*
X51146034Y-106394607D01*
X51135707Y-106356067D01*
X51135706Y-106356065D01*
X51134284Y-106350757D01*
X51131700Y-106345216D01*
X51039849Y-106148238D01*
X51039846Y-106148233D01*
X51037523Y-106143251D01*
X50906198Y-105955700D01*
X50744300Y-105793802D01*
X50739792Y-105790645D01*
X50739789Y-105790643D01*
X50650421Y-105728067D01*
X50556749Y-105662477D01*
X50551767Y-105660154D01*
X50551762Y-105660151D01*
X50354225Y-105568039D01*
X50354224Y-105568039D01*
X50349243Y-105565716D01*
X50343935Y-105564294D01*
X50343933Y-105564293D01*
X50133402Y-105507881D01*
X50133400Y-105507881D01*
X50128087Y-105506457D01*
X49900000Y-105486502D01*
X49671913Y-105506457D01*
X49666600Y-105507881D01*
X49666598Y-105507881D01*
X49456067Y-105564293D01*
X49456065Y-105564294D01*
X49450757Y-105565716D01*
X49445776Y-105568039D01*
X49445775Y-105568039D01*
X49248238Y-105660151D01*
X49248233Y-105660154D01*
X49243251Y-105662477D01*
X49149579Y-105728067D01*
X49060211Y-105790643D01*
X49060208Y-105790645D01*
X49055700Y-105793802D01*
X48893802Y-105955700D01*
X48762477Y-106143251D01*
X48760154Y-106148233D01*
X48760151Y-106148238D01*
X48668300Y-106345216D01*
X48665716Y-106350757D01*
X48664294Y-106356065D01*
X48664293Y-106356067D01*
X48653966Y-106394607D01*
X48606457Y-106571913D01*
X48586502Y-106800000D01*
X45214906Y-106800000D01*
X45210869Y-106797438D01*
X45207290Y-106795754D01*
X45207283Y-106795750D01*
X44928856Y-106664733D01*
X44928852Y-106664731D01*
X44925266Y-106663044D01*
X44899845Y-106654784D01*
X44661659Y-106577393D01*
X44625072Y-106565505D01*
X44315020Y-106506359D01*
X44078838Y-106491500D01*
X43921162Y-106491500D01*
X43684980Y-106506359D01*
X43374928Y-106565505D01*
X43338341Y-106577393D01*
X43100156Y-106654784D01*
X43074734Y-106663044D01*
X43071148Y-106664731D01*
X43071144Y-106664733D01*
X42792717Y-106795750D01*
X42792710Y-106795754D01*
X42789131Y-106797438D01*
X42522625Y-106966568D01*
X42279418Y-107167767D01*
X42276704Y-107170657D01*
X42276703Y-107170658D01*
X42266656Y-107181357D01*
X42063346Y-107397860D01*
X42061019Y-107401062D01*
X42061018Y-107401064D01*
X42056192Y-107407707D01*
X41877816Y-107653221D01*
X41875909Y-107656690D01*
X41875907Y-107656693D01*
X41733512Y-107915707D01*
X41725753Y-107929821D01*
X41724300Y-107933490D01*
X41724298Y-107933495D01*
X41640595Y-108144904D01*
X41609557Y-108223298D01*
X41531060Y-108529025D01*
X41491500Y-108842179D01*
X41491500Y-109157821D01*
X32810220Y-109157821D01*
X32762925Y-108969533D01*
X32748771Y-108936981D01*
X32672630Y-108761868D01*
X32672628Y-108761865D01*
X32670570Y-108757131D01*
X32544764Y-108562665D01*
X32510665Y-108525190D01*
X32432790Y-108439607D01*
X32388887Y-108391358D01*
X32384836Y-108388159D01*
X32384832Y-108388155D01*
X32211177Y-108251011D01*
X32211172Y-108251008D01*
X32207123Y-108247810D01*
X32202607Y-108245317D01*
X32202604Y-108245315D01*
X32008879Y-108138373D01*
X32008875Y-108138371D01*
X32004355Y-108135876D01*
X31999486Y-108134152D01*
X31999482Y-108134150D01*
X31790903Y-108060288D01*
X31790899Y-108060287D01*
X31786028Y-108058562D01*
X31780935Y-108057655D01*
X31780932Y-108057654D01*
X31563095Y-108018851D01*
X31563089Y-108018850D01*
X31558006Y-108017945D01*
X31480644Y-108017000D01*
X31331581Y-108015179D01*
X31331579Y-108015179D01*
X31326411Y-108015116D01*
X31097464Y-108050150D01*
X30877314Y-108122106D01*
X30872726Y-108124494D01*
X30872722Y-108124496D01*
X30689975Y-108219628D01*
X30671872Y-108229052D01*
X30667739Y-108232155D01*
X30667736Y-108232157D01*
X30490790Y-108365012D01*
X30486655Y-108368117D01*
X30483083Y-108371855D01*
X30468787Y-108386815D01*
X30407263Y-108422245D01*
X30336351Y-108418788D01*
X30278564Y-108377543D01*
X30259711Y-108343994D01*
X30238324Y-108286946D01*
X30229786Y-108271351D01*
X30153285Y-108169276D01*
X30140724Y-108156715D01*
X30038649Y-108080214D01*
X30023054Y-108071676D01*
X29902606Y-108026522D01*
X29887351Y-108022895D01*
X29836486Y-108017369D01*
X29829672Y-108017000D01*
X29157115Y-108017000D01*
X29141876Y-108021475D01*
X29140671Y-108022865D01*
X29139000Y-108030548D01*
X29139000Y-110814884D01*
X28631000Y-110814884D01*
X28631000Y-109697115D01*
X28626525Y-109681876D01*
X28625135Y-109680671D01*
X28617452Y-109679000D01*
X27495116Y-109679000D01*
X27479877Y-109683475D01*
X27478672Y-109684865D01*
X27477001Y-109692548D01*
X27477001Y-110369669D01*
X25508500Y-110369669D01*
X25508500Y-109152885D01*
X27477000Y-109152885D01*
X27481475Y-109168124D01*
X27482865Y-109169329D01*
X27490548Y-109171000D01*
X28612885Y-109171000D01*
X28628124Y-109166525D01*
X28629329Y-109165135D01*
X28631000Y-109157452D01*
X28631000Y-108035116D01*
X28626525Y-108019877D01*
X28625135Y-108018672D01*
X28617452Y-108017001D01*
X27940331Y-108017001D01*
X27933510Y-108017371D01*
X27882648Y-108022895D01*
X27867396Y-108026521D01*
X27746946Y-108071676D01*
X27731351Y-108080214D01*
X27629276Y-108156715D01*
X27616715Y-108169276D01*
X27540214Y-108271351D01*
X27531676Y-108286946D01*
X27486522Y-108407394D01*
X27482895Y-108422649D01*
X27477369Y-108473514D01*
X27477000Y-108480328D01*
X27477000Y-109152885D01*
X25508500Y-109152885D01*
X25508500Y-104140000D01*
X63488502Y-104140000D01*
X63508457Y-104368087D01*
X63509881Y-104373400D01*
X63509881Y-104373402D01*
X63559986Y-104560393D01*
X63567716Y-104589243D01*
X63570039Y-104594224D01*
X63570039Y-104594225D01*
X63662151Y-104791762D01*
X63662154Y-104791767D01*
X63664477Y-104796749D01*
X63795802Y-104984300D01*
X63957700Y-105146198D01*
X63962208Y-105149355D01*
X63962211Y-105149357D01*
X64040389Y-105204098D01*
X64145251Y-105277523D01*
X64150233Y-105279846D01*
X64150238Y-105279849D01*
X64347775Y-105371961D01*
X64352757Y-105374284D01*
X64358065Y-105375706D01*
X64358067Y-105375707D01*
X64568598Y-105432119D01*
X64568600Y-105432119D01*
X64573913Y-105433543D01*
X64802000Y-105453498D01*
X65030087Y-105433543D01*
X65035400Y-105432119D01*
X65035402Y-105432119D01*
X65245933Y-105375707D01*
X65245935Y-105375706D01*
X65251243Y-105374284D01*
X65256225Y-105371961D01*
X65453762Y-105279849D01*
X65453767Y-105279846D01*
X65458749Y-105277523D01*
X65563611Y-105204098D01*
X65641789Y-105149357D01*
X65641792Y-105149355D01*
X65646300Y-105146198D01*
X65808198Y-104984300D01*
X65939523Y-104796749D01*
X65941846Y-104791767D01*
X65941849Y-104791762D01*
X66033961Y-104594225D01*
X66033961Y-104594224D01*
X66036284Y-104589243D01*
X66044015Y-104560393D01*
X66094119Y-104373402D01*
X66094119Y-104373400D01*
X66095543Y-104368087D01*
X66115498Y-104140000D01*
X71108502Y-104140000D01*
X71128457Y-104368087D01*
X71129881Y-104373400D01*
X71129881Y-104373402D01*
X71179986Y-104560393D01*
X71187716Y-104589243D01*
X71190039Y-104594224D01*
X71190039Y-104594225D01*
X71282151Y-104791762D01*
X71282154Y-104791767D01*
X71284477Y-104796749D01*
X71415802Y-104984300D01*
X71577700Y-105146198D01*
X71582208Y-105149355D01*
X71582211Y-105149357D01*
X71660389Y-105204098D01*
X71765251Y-105277523D01*
X71770233Y-105279846D01*
X71770238Y-105279849D01*
X71967775Y-105371961D01*
X71972757Y-105374284D01*
X71978065Y-105375706D01*
X71978067Y-105375707D01*
X72188598Y-105432119D01*
X72188600Y-105432119D01*
X72193913Y-105433543D01*
X72422000Y-105453498D01*
X72650087Y-105433543D01*
X72655400Y-105432119D01*
X72655402Y-105432119D01*
X72865933Y-105375707D01*
X72865935Y-105375706D01*
X72871243Y-105374284D01*
X72876225Y-105371961D01*
X73073762Y-105279849D01*
X73073767Y-105279846D01*
X73078749Y-105277523D01*
X73183611Y-105204098D01*
X73261789Y-105149357D01*
X73261792Y-105149355D01*
X73266300Y-105146198D01*
X73428198Y-104984300D01*
X73559523Y-104796749D01*
X73561846Y-104791767D01*
X73561849Y-104791762D01*
X73653961Y-104594225D01*
X73653961Y-104594224D01*
X73656284Y-104589243D01*
X73664015Y-104560393D01*
X73714119Y-104373402D01*
X73714119Y-104373400D01*
X73715543Y-104368087D01*
X73735498Y-104140000D01*
X73715543Y-103911913D01*
X73714119Y-103906598D01*
X73657707Y-103696067D01*
X73657706Y-103696065D01*
X73656284Y-103690757D01*
X73599011Y-103567933D01*
X73561849Y-103488238D01*
X73561846Y-103488233D01*
X73559523Y-103483251D01*
X73428198Y-103295700D01*
X73266300Y-103133802D01*
X73261792Y-103130645D01*
X73261789Y-103130643D01*
X73252302Y-103124000D01*
X74664502Y-103124000D01*
X74684457Y-103352087D01*
X74685881Y-103357400D01*
X74685881Y-103357402D01*
X74719603Y-103483251D01*
X74743716Y-103573243D01*
X74746039Y-103578224D01*
X74746039Y-103578225D01*
X74838151Y-103775762D01*
X74838154Y-103775767D01*
X74840477Y-103780749D01*
X74971802Y-103968300D01*
X75133700Y-104130198D01*
X75138208Y-104133355D01*
X75138211Y-104133357D01*
X75216389Y-104188098D01*
X75321251Y-104261523D01*
X75326233Y-104263846D01*
X75326238Y-104263849D01*
X75523775Y-104355961D01*
X75528757Y-104358284D01*
X75534065Y-104359706D01*
X75534067Y-104359707D01*
X75744598Y-104416119D01*
X75744600Y-104416119D01*
X75749913Y-104417543D01*
X75978000Y-104437498D01*
X76206087Y-104417543D01*
X76211400Y-104416119D01*
X76211402Y-104416119D01*
X76421933Y-104359707D01*
X76421935Y-104359706D01*
X76427243Y-104358284D01*
X76432225Y-104355961D01*
X76629762Y-104263849D01*
X76629767Y-104263846D01*
X76634749Y-104261523D01*
X76739611Y-104188098D01*
X76817789Y-104133357D01*
X76817792Y-104133355D01*
X76822300Y-104130198D01*
X76984198Y-103968300D01*
X77115523Y-103780749D01*
X77117846Y-103775767D01*
X77117849Y-103775762D01*
X77209961Y-103578225D01*
X77209961Y-103578224D01*
X77212284Y-103573243D01*
X77236398Y-103483251D01*
X77270119Y-103357402D01*
X77270119Y-103357400D01*
X77271543Y-103352087D01*
X77291498Y-103124000D01*
X77271543Y-102895913D01*
X77255411Y-102835707D01*
X77213707Y-102680067D01*
X77213706Y-102680065D01*
X77212284Y-102674757D01*
X77209961Y-102669775D01*
X77117849Y-102472238D01*
X77117846Y-102472233D01*
X77115523Y-102467251D01*
X76984198Y-102279700D01*
X76822300Y-102117802D01*
X76817792Y-102114645D01*
X76817789Y-102114643D01*
X76710031Y-102039190D01*
X76634749Y-101986477D01*
X76629767Y-101984154D01*
X76629762Y-101984151D01*
X76432225Y-101892039D01*
X76432224Y-101892039D01*
X76427243Y-101889716D01*
X76421935Y-101888294D01*
X76421933Y-101888293D01*
X76211402Y-101831881D01*
X76211400Y-101831881D01*
X76206087Y-101830457D01*
X75978000Y-101810502D01*
X75749913Y-101830457D01*
X75744600Y-101831881D01*
X75744598Y-101831881D01*
X75534067Y-101888293D01*
X75534065Y-101888294D01*
X75528757Y-101889716D01*
X75523776Y-101892039D01*
X75523775Y-101892039D01*
X75326238Y-101984151D01*
X75326233Y-101984154D01*
X75321251Y-101986477D01*
X75245969Y-102039190D01*
X75138211Y-102114643D01*
X75138208Y-102114645D01*
X75133700Y-102117802D01*
X74971802Y-102279700D01*
X74840477Y-102467251D01*
X74838154Y-102472233D01*
X74838151Y-102472238D01*
X74746039Y-102669775D01*
X74743716Y-102674757D01*
X74742294Y-102680065D01*
X74742293Y-102680067D01*
X74700589Y-102835707D01*
X74684457Y-102895913D01*
X74664502Y-103124000D01*
X73252302Y-103124000D01*
X73183611Y-103075902D01*
X73078749Y-103002477D01*
X73073767Y-103000154D01*
X73073762Y-103000151D01*
X72876225Y-102908039D01*
X72876224Y-102908039D01*
X72871243Y-102905716D01*
X72865935Y-102904294D01*
X72865933Y-102904293D01*
X72655402Y-102847881D01*
X72655400Y-102847881D01*
X72650087Y-102846457D01*
X72422000Y-102826502D01*
X72193913Y-102846457D01*
X72188600Y-102847881D01*
X72188598Y-102847881D01*
X71978067Y-102904293D01*
X71978065Y-102904294D01*
X71972757Y-102905716D01*
X71967776Y-102908039D01*
X71967775Y-102908039D01*
X71770238Y-103000151D01*
X71770233Y-103000154D01*
X71765251Y-103002477D01*
X71660389Y-103075902D01*
X71582211Y-103130643D01*
X71582208Y-103130645D01*
X71577700Y-103133802D01*
X71415802Y-103295700D01*
X71284477Y-103483251D01*
X71282154Y-103488233D01*
X71282151Y-103488238D01*
X71244989Y-103567933D01*
X71187716Y-103690757D01*
X71186294Y-103696065D01*
X71186293Y-103696067D01*
X71129881Y-103906598D01*
X71128457Y-103911913D01*
X71108502Y-104140000D01*
X66115498Y-104140000D01*
X66095543Y-103911913D01*
X66094119Y-103906598D01*
X66037707Y-103696067D01*
X66037706Y-103696065D01*
X66036284Y-103690757D01*
X65979011Y-103567933D01*
X65941849Y-103488238D01*
X65941846Y-103488233D01*
X65939523Y-103483251D01*
X65808198Y-103295700D01*
X65646300Y-103133802D01*
X65641792Y-103130645D01*
X65641789Y-103130643D01*
X65563611Y-103075902D01*
X65458749Y-103002477D01*
X65453767Y-103000154D01*
X65453762Y-103000151D01*
X65256225Y-102908039D01*
X65256224Y-102908039D01*
X65251243Y-102905716D01*
X65245935Y-102904294D01*
X65245933Y-102904293D01*
X65035402Y-102847881D01*
X65035400Y-102847881D01*
X65030087Y-102846457D01*
X64802000Y-102826502D01*
X64573913Y-102846457D01*
X64568600Y-102847881D01*
X64568598Y-102847881D01*
X64358067Y-102904293D01*
X64358065Y-102904294D01*
X64352757Y-102905716D01*
X64347776Y-102908039D01*
X64347775Y-102908039D01*
X64150238Y-103000151D01*
X64150233Y-103000154D01*
X64145251Y-103002477D01*
X64040389Y-103075902D01*
X63962211Y-103130643D01*
X63962208Y-103130645D01*
X63957700Y-103133802D01*
X63795802Y-103295700D01*
X63664477Y-103483251D01*
X63662154Y-103488233D01*
X63662151Y-103488238D01*
X63624989Y-103567933D01*
X63567716Y-103690757D01*
X63566294Y-103696065D01*
X63566293Y-103696067D01*
X63509881Y-103906598D01*
X63508457Y-103911913D01*
X63488502Y-104140000D01*
X25508500Y-104140000D01*
X25508500Y-101075469D01*
X42907095Y-101075469D01*
X42907392Y-101080622D01*
X42907392Y-101080625D01*
X42911436Y-101150757D01*
X42920427Y-101306697D01*
X42921564Y-101311743D01*
X42921565Y-101311749D01*
X42935124Y-101371913D01*
X42971346Y-101532642D01*
X42973288Y-101537424D01*
X42973289Y-101537428D01*
X43056540Y-101742450D01*
X43058484Y-101747237D01*
X43179501Y-101944719D01*
X43331147Y-102119784D01*
X43509349Y-102267730D01*
X43709322Y-102384584D01*
X43925694Y-102467209D01*
X43930760Y-102468240D01*
X43930761Y-102468240D01*
X43932737Y-102468642D01*
X44152656Y-102513385D01*
X44283324Y-102518176D01*
X44378949Y-102521683D01*
X44378953Y-102521683D01*
X44384113Y-102521872D01*
X44389233Y-102521216D01*
X44389235Y-102521216D01*
X44488668Y-102508478D01*
X44613847Y-102492442D01*
X44618795Y-102490957D01*
X44618802Y-102490956D01*
X44830747Y-102427369D01*
X44835690Y-102425886D01*
X44859971Y-102413991D01*
X45039049Y-102326262D01*
X45039052Y-102326260D01*
X45043684Y-102323991D01*
X45232243Y-102189494D01*
X45235898Y-102185852D01*
X45235906Y-102185845D01*
X45277697Y-102144199D01*
X45340068Y-102110282D01*
X45410875Y-102115470D01*
X45467637Y-102158116D01*
X45484619Y-102189218D01*
X45506677Y-102248056D01*
X45515214Y-102263649D01*
X45591715Y-102365724D01*
X45604276Y-102378285D01*
X45706351Y-102454786D01*
X45721946Y-102463324D01*
X45842394Y-102508478D01*
X45857649Y-102512105D01*
X45908514Y-102517631D01*
X45915328Y-102518000D01*
X46587885Y-102518000D01*
X46603124Y-102513525D01*
X46604329Y-102512135D01*
X46606000Y-102504452D01*
X46606000Y-102499884D01*
X47114000Y-102499884D01*
X47118475Y-102515123D01*
X47119865Y-102516328D01*
X47127548Y-102517999D01*
X47804669Y-102517999D01*
X47811490Y-102517629D01*
X47862352Y-102512105D01*
X47877604Y-102508479D01*
X47998054Y-102463324D01*
X48013649Y-102454786D01*
X48115724Y-102378285D01*
X48128285Y-102365724D01*
X48204786Y-102263649D01*
X48213324Y-102248054D01*
X48258478Y-102127606D01*
X48262105Y-102112351D01*
X48267631Y-102061486D01*
X48268000Y-102054672D01*
X48268000Y-101600000D01*
X58154502Y-101600000D01*
X58174457Y-101828087D01*
X58175881Y-101833400D01*
X58175881Y-101833402D01*
X58216275Y-101984151D01*
X58233716Y-102049243D01*
X58236039Y-102054224D01*
X58236039Y-102054225D01*
X58328151Y-102251762D01*
X58328154Y-102251767D01*
X58330477Y-102256749D01*
X58379151Y-102326262D01*
X58449947Y-102427369D01*
X58461802Y-102444300D01*
X58623700Y-102606198D01*
X58628208Y-102609355D01*
X58628211Y-102609357D01*
X58630866Y-102611216D01*
X58811251Y-102737523D01*
X58816233Y-102739846D01*
X58816238Y-102739849D01*
X59013775Y-102831961D01*
X59018757Y-102834284D01*
X59024065Y-102835706D01*
X59024067Y-102835707D01*
X59234598Y-102892119D01*
X59234600Y-102892119D01*
X59239913Y-102893543D01*
X59468000Y-102913498D01*
X59696087Y-102893543D01*
X59701400Y-102892119D01*
X59701402Y-102892119D01*
X59911933Y-102835707D01*
X59911935Y-102835706D01*
X59917243Y-102834284D01*
X59922225Y-102831961D01*
X60119762Y-102739849D01*
X60119767Y-102739846D01*
X60124749Y-102737523D01*
X60305134Y-102611216D01*
X60307789Y-102609357D01*
X60307792Y-102609355D01*
X60312300Y-102606198D01*
X60474198Y-102444300D01*
X60486054Y-102427369D01*
X60556849Y-102326262D01*
X60605523Y-102256749D01*
X60607846Y-102251767D01*
X60607849Y-102251762D01*
X60699961Y-102054225D01*
X60699961Y-102054224D01*
X60702284Y-102049243D01*
X60719726Y-101984151D01*
X60760119Y-101833402D01*
X60760119Y-101833400D01*
X60761543Y-101828087D01*
X60781498Y-101600000D01*
X60761543Y-101371913D01*
X60760119Y-101366598D01*
X60706226Y-101165469D01*
X118247095Y-101165469D01*
X118247392Y-101170622D01*
X118247392Y-101170625D01*
X118254940Y-101301529D01*
X118260427Y-101396697D01*
X118261564Y-101401743D01*
X118261565Y-101401749D01*
X118263125Y-101408671D01*
X118311346Y-101622642D01*
X118313288Y-101627424D01*
X118313289Y-101627428D01*
X118395536Y-101829978D01*
X118398484Y-101837237D01*
X118519501Y-102034719D01*
X118671147Y-102209784D01*
X118849349Y-102357730D01*
X119049322Y-102474584D01*
X119265694Y-102557209D01*
X119270760Y-102558240D01*
X119270761Y-102558240D01*
X119323846Y-102569040D01*
X119492656Y-102603385D01*
X119622089Y-102608131D01*
X119718949Y-102611683D01*
X119718953Y-102611683D01*
X119724113Y-102611872D01*
X119729233Y-102611216D01*
X119729235Y-102611216D01*
X119803166Y-102601745D01*
X119953847Y-102582442D01*
X119958795Y-102580957D01*
X119958802Y-102580956D01*
X120170747Y-102517369D01*
X120175690Y-102515886D01*
X120180324Y-102513616D01*
X120379049Y-102416262D01*
X120379052Y-102416260D01*
X120383684Y-102413991D01*
X120572243Y-102279494D01*
X120617309Y-102234585D01*
X120679681Y-102200669D01*
X120750487Y-102205857D01*
X120807249Y-102248503D01*
X120824231Y-102279607D01*
X120849385Y-102346705D01*
X120936739Y-102463261D01*
X121053295Y-102550615D01*
X121189684Y-102601745D01*
X121251866Y-102608500D01*
X123148134Y-102608500D01*
X123210316Y-102601745D01*
X123346705Y-102550615D01*
X123463261Y-102463261D01*
X123550615Y-102346705D01*
X123601745Y-102210316D01*
X123608500Y-102148134D01*
X123608500Y-100251866D01*
X123601745Y-100189684D01*
X123550615Y-100053295D01*
X123463261Y-99936739D01*
X123346705Y-99849385D01*
X123210316Y-99798255D01*
X123148134Y-99791500D01*
X121251866Y-99791500D01*
X121189684Y-99798255D01*
X121053295Y-99849385D01*
X120936739Y-99936739D01*
X120849385Y-100053295D01*
X120846233Y-100061703D01*
X120846232Y-100061705D01*
X120825538Y-100116906D01*
X120782897Y-100173671D01*
X120716335Y-100198371D01*
X120646986Y-100183164D01*
X120624167Y-100166666D01*
X120623887Y-100166358D01*
X120549547Y-100107648D01*
X120446177Y-100026011D01*
X120446172Y-100026008D01*
X120442123Y-100022810D01*
X120437607Y-100020317D01*
X120437604Y-100020315D01*
X120243879Y-99913373D01*
X120243875Y-99913371D01*
X120239355Y-99910876D01*
X120234486Y-99909152D01*
X120234482Y-99909150D01*
X120025903Y-99835288D01*
X120025899Y-99835287D01*
X120021028Y-99833562D01*
X120015935Y-99832655D01*
X120015932Y-99832654D01*
X119798095Y-99793851D01*
X119798089Y-99793850D01*
X119793006Y-99792945D01*
X119720096Y-99792054D01*
X119566581Y-99790179D01*
X119566579Y-99790179D01*
X119561411Y-99790116D01*
X119332464Y-99825150D01*
X119112314Y-99897106D01*
X119107726Y-99899494D01*
X119107722Y-99899496D01*
X118998505Y-99956351D01*
X118906872Y-100004052D01*
X118902739Y-100007155D01*
X118902736Y-100007157D01*
X118725790Y-100140012D01*
X118721655Y-100143117D01*
X118561639Y-100310564D01*
X118558725Y-100314836D01*
X118558724Y-100314837D01*
X118524017Y-100365716D01*
X118431119Y-100501899D01*
X118333602Y-100711981D01*
X118271707Y-100935169D01*
X118247095Y-101165469D01*
X60706226Y-101165469D01*
X60703707Y-101156067D01*
X60703706Y-101156065D01*
X60702284Y-101150757D01*
X60667177Y-101075469D01*
X60607849Y-100948238D01*
X60607846Y-100948233D01*
X60605523Y-100943251D01*
X60474198Y-100755700D01*
X60312300Y-100593802D01*
X60307792Y-100590645D01*
X60307789Y-100590643D01*
X60181049Y-100501899D01*
X60124749Y-100462477D01*
X60119767Y-100460154D01*
X60119762Y-100460151D01*
X59922225Y-100368039D01*
X59922224Y-100368039D01*
X59917243Y-100365716D01*
X59911935Y-100364294D01*
X59911933Y-100364293D01*
X59701402Y-100307881D01*
X59701400Y-100307881D01*
X59696087Y-100306457D01*
X59468000Y-100286502D01*
X59239913Y-100306457D01*
X59234600Y-100307881D01*
X59234598Y-100307881D01*
X59024067Y-100364293D01*
X59024065Y-100364294D01*
X59018757Y-100365716D01*
X59013776Y-100368039D01*
X59013775Y-100368039D01*
X58816238Y-100460151D01*
X58816233Y-100460154D01*
X58811251Y-100462477D01*
X58754951Y-100501899D01*
X58628211Y-100590643D01*
X58628208Y-100590645D01*
X58623700Y-100593802D01*
X58461802Y-100755700D01*
X58330477Y-100943251D01*
X58328154Y-100948233D01*
X58328151Y-100948238D01*
X58268823Y-101075469D01*
X58233716Y-101150757D01*
X58232294Y-101156065D01*
X58232293Y-101156067D01*
X58175881Y-101366598D01*
X58174457Y-101371913D01*
X58154502Y-101600000D01*
X48268000Y-101600000D01*
X48268000Y-101382115D01*
X48263525Y-101366876D01*
X48262135Y-101365671D01*
X48254452Y-101364000D01*
X47132115Y-101364000D01*
X47116876Y-101368475D01*
X47115671Y-101369865D01*
X47114000Y-101377548D01*
X47114000Y-102499884D01*
X46606000Y-102499884D01*
X46606000Y-100837885D01*
X47114000Y-100837885D01*
X47118475Y-100853124D01*
X47119865Y-100854329D01*
X47127548Y-100856000D01*
X48249884Y-100856000D01*
X48265123Y-100851525D01*
X48266328Y-100850135D01*
X48267999Y-100842452D01*
X48267999Y-100165331D01*
X48267629Y-100158510D01*
X48262105Y-100107648D01*
X48258479Y-100092396D01*
X48213324Y-99971946D01*
X48204786Y-99956351D01*
X48128285Y-99854276D01*
X48115724Y-99841715D01*
X48013649Y-99765214D01*
X47998054Y-99756676D01*
X47877606Y-99711522D01*
X47862351Y-99707895D01*
X47811486Y-99702369D01*
X47804672Y-99702000D01*
X47132115Y-99702000D01*
X47116876Y-99706475D01*
X47115671Y-99707865D01*
X47114000Y-99715548D01*
X47114000Y-100837885D01*
X46606000Y-100837885D01*
X46606000Y-99720116D01*
X46601525Y-99704877D01*
X46600135Y-99703672D01*
X46592452Y-99702001D01*
X45915331Y-99702001D01*
X45908510Y-99702371D01*
X45857648Y-99707895D01*
X45842396Y-99711521D01*
X45721946Y-99756676D01*
X45706351Y-99765214D01*
X45604276Y-99841715D01*
X45591715Y-99854276D01*
X45515214Y-99956351D01*
X45506675Y-99971948D01*
X45485934Y-100027275D01*
X45443293Y-100084040D01*
X45376731Y-100108740D01*
X45307383Y-100093533D01*
X45284388Y-100076909D01*
X45283887Y-100076358D01*
X45265333Y-100061705D01*
X45106177Y-99936011D01*
X45106172Y-99936008D01*
X45102123Y-99932810D01*
X45097607Y-99930317D01*
X45097604Y-99930315D01*
X44903879Y-99823373D01*
X44903875Y-99823371D01*
X44899355Y-99820876D01*
X44894486Y-99819152D01*
X44894482Y-99819150D01*
X44685903Y-99745288D01*
X44685899Y-99745287D01*
X44681028Y-99743562D01*
X44675935Y-99742655D01*
X44675932Y-99742654D01*
X44458095Y-99703851D01*
X44458089Y-99703850D01*
X44453006Y-99702945D01*
X44375644Y-99702000D01*
X44226581Y-99700179D01*
X44226579Y-99700179D01*
X44221411Y-99700116D01*
X43992464Y-99735150D01*
X43772314Y-99807106D01*
X43767726Y-99809494D01*
X43767722Y-99809496D01*
X43572973Y-99910876D01*
X43566872Y-99914052D01*
X43562739Y-99917155D01*
X43562736Y-99917157D01*
X43385790Y-100050012D01*
X43381655Y-100053117D01*
X43378083Y-100056855D01*
X43251149Y-100189684D01*
X43221639Y-100220564D01*
X43091119Y-100411899D01*
X42993602Y-100621981D01*
X42931707Y-100845169D01*
X42907095Y-101075469D01*
X25508500Y-101075469D01*
X25508500Y-95504000D01*
X74664502Y-95504000D01*
X74684457Y-95732087D01*
X74743716Y-95953243D01*
X74746039Y-95958224D01*
X74746039Y-95958225D01*
X74838151Y-96155762D01*
X74838154Y-96155767D01*
X74840477Y-96160749D01*
X74971802Y-96348300D01*
X75133700Y-96510198D01*
X75138208Y-96513355D01*
X75138211Y-96513357D01*
X75216389Y-96568098D01*
X75321251Y-96641523D01*
X75326233Y-96643846D01*
X75326238Y-96643849D01*
X75493561Y-96721872D01*
X75528757Y-96738284D01*
X75534065Y-96739706D01*
X75534067Y-96739707D01*
X75744598Y-96796119D01*
X75744600Y-96796119D01*
X75749913Y-96797543D01*
X75978000Y-96817498D01*
X76206087Y-96797543D01*
X76211400Y-96796119D01*
X76211402Y-96796119D01*
X76421933Y-96739707D01*
X76421935Y-96739706D01*
X76427243Y-96738284D01*
X76462439Y-96721872D01*
X76629762Y-96643849D01*
X76629767Y-96643846D01*
X76634749Y-96641523D01*
X76739611Y-96568098D01*
X76817789Y-96513357D01*
X76817792Y-96513355D01*
X76822300Y-96510198D01*
X76984198Y-96348300D01*
X77115523Y-96160749D01*
X77117846Y-96155767D01*
X77117849Y-96155762D01*
X77209961Y-95958225D01*
X77209961Y-95958224D01*
X77212284Y-95953243D01*
X77271543Y-95732087D01*
X77291498Y-95504000D01*
X77271543Y-95275913D01*
X77271424Y-95275469D01*
X84725095Y-95275469D01*
X84725392Y-95280622D01*
X84725392Y-95280625D01*
X84731067Y-95379041D01*
X84738427Y-95506697D01*
X84739564Y-95511743D01*
X84739565Y-95511749D01*
X84771741Y-95654523D01*
X84789346Y-95732642D01*
X84791288Y-95737424D01*
X84791289Y-95737428D01*
X84874540Y-95942450D01*
X84876484Y-95947237D01*
X84997501Y-96144719D01*
X85149147Y-96319784D01*
X85327349Y-96467730D01*
X85527322Y-96584584D01*
X85743694Y-96667209D01*
X85748760Y-96668240D01*
X85748761Y-96668240D01*
X85801846Y-96679040D01*
X85970656Y-96713385D01*
X86101324Y-96718176D01*
X86196949Y-96721683D01*
X86196953Y-96721683D01*
X86202113Y-96721872D01*
X86207233Y-96721216D01*
X86207235Y-96721216D01*
X86280270Y-96711860D01*
X86431847Y-96692442D01*
X86436795Y-96690957D01*
X86436802Y-96690956D01*
X86648747Y-96627369D01*
X86653690Y-96625886D01*
X86734236Y-96586427D01*
X86857049Y-96526262D01*
X86857052Y-96526260D01*
X86861684Y-96523991D01*
X87050243Y-96389494D01*
X87214303Y-96226005D01*
X87349458Y-96037917D01*
X87391307Y-95953243D01*
X87449784Y-95834922D01*
X87449785Y-95834920D01*
X87452078Y-95830280D01*
X87519408Y-95608671D01*
X87549640Y-95379041D01*
X87551327Y-95310000D01*
X87535694Y-95119849D01*
X87532773Y-95084318D01*
X87532772Y-95084312D01*
X87532349Y-95079167D01*
X87475925Y-94854533D01*
X87464474Y-94828197D01*
X87385630Y-94646868D01*
X87385628Y-94646865D01*
X87383570Y-94642131D01*
X87257764Y-94447665D01*
X87243968Y-94432503D01*
X87167848Y-94348848D01*
X87136796Y-94285002D01*
X87145192Y-94214504D01*
X87190369Y-94159736D01*
X87216812Y-94146067D01*
X87276297Y-94123767D01*
X87284705Y-94120615D01*
X87401261Y-94033261D01*
X87488615Y-93916705D01*
X87539745Y-93780316D01*
X87546500Y-93718134D01*
X87546500Y-93349469D01*
X104383095Y-93349469D01*
X104396427Y-93580697D01*
X104397564Y-93585743D01*
X104397565Y-93585749D01*
X104426630Y-93714717D01*
X104447346Y-93806642D01*
X104449288Y-93811424D01*
X104449289Y-93811428D01*
X104532540Y-94016450D01*
X104534484Y-94021237D01*
X104545150Y-94038642D01*
X104650145Y-94209978D01*
X104655501Y-94218719D01*
X104807147Y-94393784D01*
X104985349Y-94541730D01*
X105185322Y-94658584D01*
X105190147Y-94660426D01*
X105190148Y-94660427D01*
X105264665Y-94688883D01*
X105401694Y-94741209D01*
X105406760Y-94742240D01*
X105406761Y-94742240D01*
X105459846Y-94753040D01*
X105628656Y-94787385D01*
X105758089Y-94792131D01*
X105854949Y-94795683D01*
X105854953Y-94795683D01*
X105860113Y-94795872D01*
X105865233Y-94795216D01*
X105865235Y-94795216D01*
X105939166Y-94785745D01*
X106089847Y-94766442D01*
X106094795Y-94764957D01*
X106094802Y-94764956D01*
X106306747Y-94701369D01*
X106311690Y-94699886D01*
X106393720Y-94659700D01*
X106515049Y-94600262D01*
X106515052Y-94600260D01*
X106519684Y-94597991D01*
X106708243Y-94463494D01*
X106753309Y-94418585D01*
X106815681Y-94384669D01*
X106886487Y-94389857D01*
X106943249Y-94432503D01*
X106960231Y-94463607D01*
X106985385Y-94530705D01*
X107072739Y-94647261D01*
X107189295Y-94734615D01*
X107325684Y-94785745D01*
X107387866Y-94792500D01*
X109284134Y-94792500D01*
X109346316Y-94785745D01*
X109482705Y-94734615D01*
X109599261Y-94647261D01*
X109686615Y-94530705D01*
X109737745Y-94394316D01*
X109744500Y-94332134D01*
X109744500Y-92435866D01*
X109737745Y-92373684D01*
X109686615Y-92237295D01*
X109599261Y-92120739D01*
X109482705Y-92033385D01*
X109346316Y-91982255D01*
X109284134Y-91975500D01*
X107387866Y-91975500D01*
X107325684Y-91982255D01*
X107189295Y-92033385D01*
X107072739Y-92120739D01*
X106985385Y-92237295D01*
X106982233Y-92245703D01*
X106982232Y-92245705D01*
X106961538Y-92300906D01*
X106918897Y-92357671D01*
X106852335Y-92382371D01*
X106782986Y-92367164D01*
X106760167Y-92350666D01*
X106759887Y-92350358D01*
X106627373Y-92245705D01*
X106582177Y-92210011D01*
X106582172Y-92210008D01*
X106578123Y-92206810D01*
X106573607Y-92204317D01*
X106573604Y-92204315D01*
X106379879Y-92097373D01*
X106379875Y-92097371D01*
X106375355Y-92094876D01*
X106370486Y-92093152D01*
X106370482Y-92093150D01*
X106161903Y-92019288D01*
X106161899Y-92019287D01*
X106157028Y-92017562D01*
X106151935Y-92016655D01*
X106151932Y-92016654D01*
X105934095Y-91977851D01*
X105934089Y-91977850D01*
X105929006Y-91976945D01*
X105856096Y-91976054D01*
X105702581Y-91974179D01*
X105702579Y-91974179D01*
X105697411Y-91974116D01*
X105468464Y-92009150D01*
X105248314Y-92081106D01*
X105243726Y-92083494D01*
X105243722Y-92083496D01*
X105047461Y-92185663D01*
X105042872Y-92188052D01*
X105038739Y-92191155D01*
X105038736Y-92191157D01*
X104861790Y-92324012D01*
X104857655Y-92327117D01*
X104697639Y-92494564D01*
X104567119Y-92685899D01*
X104469602Y-92895981D01*
X104407707Y-93119169D01*
X104383095Y-93349469D01*
X87546500Y-93349469D01*
X87546500Y-91821866D01*
X87539745Y-91759684D01*
X87488615Y-91623295D01*
X87401261Y-91506739D01*
X87284705Y-91419385D01*
X87148316Y-91368255D01*
X87086134Y-91361500D01*
X85189866Y-91361500D01*
X85127684Y-91368255D01*
X84991295Y-91419385D01*
X84874739Y-91506739D01*
X84787385Y-91623295D01*
X84736255Y-91759684D01*
X84729500Y-91821866D01*
X84729500Y-93718134D01*
X84736255Y-93780316D01*
X84787385Y-93916705D01*
X84874739Y-94033261D01*
X84991295Y-94120615D01*
X84999704Y-94123767D01*
X84999705Y-94123768D01*
X85059164Y-94146058D01*
X85115929Y-94188699D01*
X85140629Y-94255261D01*
X85125422Y-94324609D01*
X85106029Y-94351091D01*
X85091326Y-94366477D01*
X85057652Y-94401715D01*
X85039639Y-94420564D01*
X85036725Y-94424836D01*
X85036724Y-94424837D01*
X85021152Y-94447665D01*
X84909119Y-94611899D01*
X84811602Y-94821981D01*
X84749707Y-95045169D01*
X84725095Y-95275469D01*
X77271424Y-95275469D01*
X77255411Y-95215707D01*
X77213707Y-95060067D01*
X77213706Y-95060065D01*
X77212284Y-95054757D01*
X77180315Y-94986198D01*
X77117849Y-94852238D01*
X77117846Y-94852233D01*
X77115523Y-94847251D01*
X77041271Y-94741209D01*
X76987357Y-94664211D01*
X76987355Y-94664208D01*
X76984198Y-94659700D01*
X76822300Y-94497802D01*
X76817792Y-94494645D01*
X76817789Y-94494643D01*
X76673747Y-94393784D01*
X76634749Y-94366477D01*
X76629767Y-94364154D01*
X76629762Y-94364151D01*
X76432225Y-94272039D01*
X76432224Y-94272039D01*
X76427243Y-94269716D01*
X76421935Y-94268294D01*
X76421933Y-94268293D01*
X76211402Y-94211881D01*
X76211400Y-94211881D01*
X76206087Y-94210457D01*
X75978000Y-94190502D01*
X75749913Y-94210457D01*
X75744600Y-94211881D01*
X75744598Y-94211881D01*
X75534067Y-94268293D01*
X75534065Y-94268294D01*
X75528757Y-94269716D01*
X75523776Y-94272039D01*
X75523775Y-94272039D01*
X75326238Y-94364151D01*
X75326233Y-94364154D01*
X75321251Y-94366477D01*
X75282253Y-94393784D01*
X75138211Y-94494643D01*
X75138208Y-94494645D01*
X75133700Y-94497802D01*
X74971802Y-94659700D01*
X74968645Y-94664208D01*
X74968643Y-94664211D01*
X74914729Y-94741209D01*
X74840477Y-94847251D01*
X74838154Y-94852233D01*
X74838151Y-94852238D01*
X74775685Y-94986198D01*
X74743716Y-95054757D01*
X74742294Y-95060065D01*
X74742293Y-95060067D01*
X74700589Y-95215707D01*
X74684457Y-95275913D01*
X74664502Y-95504000D01*
X25508500Y-95504000D01*
X25508500Y-93980000D01*
X58154502Y-93980000D01*
X58174457Y-94208087D01*
X58175881Y-94213400D01*
X58175881Y-94213402D01*
X58216275Y-94364151D01*
X58233716Y-94429243D01*
X58236039Y-94434224D01*
X58236039Y-94434225D01*
X58328151Y-94631762D01*
X58328154Y-94631767D01*
X58330477Y-94636749D01*
X58373097Y-94697616D01*
X58435403Y-94786598D01*
X58461802Y-94824300D01*
X58623700Y-94986198D01*
X58628208Y-94989355D01*
X58628211Y-94989357D01*
X58700818Y-95040197D01*
X58811251Y-95117523D01*
X58816233Y-95119846D01*
X58816238Y-95119849D01*
X59013775Y-95211961D01*
X59018757Y-95214284D01*
X59024065Y-95215706D01*
X59024067Y-95215707D01*
X59234598Y-95272119D01*
X59234600Y-95272119D01*
X59239913Y-95273543D01*
X59468000Y-95293498D01*
X59696087Y-95273543D01*
X59701400Y-95272119D01*
X59701402Y-95272119D01*
X59911933Y-95215707D01*
X59911935Y-95215706D01*
X59917243Y-95214284D01*
X59922225Y-95211961D01*
X60119762Y-95119849D01*
X60119767Y-95119846D01*
X60124749Y-95117523D01*
X60235182Y-95040197D01*
X60307789Y-94989357D01*
X60307792Y-94989355D01*
X60312300Y-94986198D01*
X60474198Y-94824300D01*
X60500598Y-94786598D01*
X60562903Y-94697616D01*
X60605523Y-94636749D01*
X60607846Y-94631767D01*
X60607849Y-94631762D01*
X60699961Y-94434225D01*
X60699961Y-94434224D01*
X60702284Y-94429243D01*
X60719726Y-94364151D01*
X60760119Y-94213402D01*
X60760119Y-94213400D01*
X60761543Y-94208087D01*
X60781498Y-93980000D01*
X60761543Y-93751913D01*
X60717019Y-93585749D01*
X60703707Y-93536067D01*
X60703706Y-93536065D01*
X60702284Y-93530757D01*
X60617749Y-93349469D01*
X60607849Y-93328238D01*
X60607846Y-93328233D01*
X60605523Y-93323251D01*
X60474198Y-93135700D01*
X60312300Y-92973802D01*
X60307792Y-92970645D01*
X60307789Y-92970643D01*
X60229611Y-92915902D01*
X60124749Y-92842477D01*
X60119767Y-92840154D01*
X60119762Y-92840151D01*
X59972900Y-92771669D01*
X64816501Y-92771669D01*
X64816871Y-92778490D01*
X64822395Y-92829352D01*
X64826021Y-92844604D01*
X64871176Y-92965054D01*
X64879714Y-92980649D01*
X64956215Y-93082724D01*
X64968776Y-93095285D01*
X65070851Y-93171786D01*
X65086446Y-93180324D01*
X65206894Y-93225478D01*
X65222149Y-93229105D01*
X65273014Y-93234631D01*
X65279828Y-93235000D01*
X65952385Y-93235000D01*
X65967624Y-93230525D01*
X65968829Y-93229135D01*
X65970500Y-93221452D01*
X65970500Y-93216884D01*
X66478500Y-93216884D01*
X66482975Y-93232123D01*
X66484365Y-93233328D01*
X66492048Y-93234999D01*
X67169169Y-93234999D01*
X67175990Y-93234629D01*
X67226852Y-93229105D01*
X67242104Y-93225479D01*
X67362554Y-93180324D01*
X67378149Y-93171786D01*
X67480224Y-93095285D01*
X67492785Y-93082724D01*
X67569286Y-92980649D01*
X67577824Y-92965054D01*
X67622978Y-92844606D01*
X67626605Y-92829351D01*
X67632131Y-92778486D01*
X67632500Y-92771672D01*
X67632500Y-92099115D01*
X67628025Y-92083876D01*
X67626635Y-92082671D01*
X67618952Y-92081000D01*
X66496615Y-92081000D01*
X66481376Y-92085475D01*
X66480171Y-92086865D01*
X66478500Y-92094548D01*
X66478500Y-93216884D01*
X65970500Y-93216884D01*
X65970500Y-92099115D01*
X65966025Y-92083876D01*
X65964635Y-92082671D01*
X65956952Y-92081000D01*
X64834616Y-92081000D01*
X64819377Y-92085475D01*
X64818172Y-92086865D01*
X64816501Y-92094548D01*
X64816501Y-92771669D01*
X59972900Y-92771669D01*
X59922225Y-92748039D01*
X59922224Y-92748039D01*
X59917243Y-92745716D01*
X59911935Y-92744294D01*
X59911933Y-92744293D01*
X59701402Y-92687881D01*
X59701400Y-92687881D01*
X59696087Y-92686457D01*
X59468000Y-92666502D01*
X59239913Y-92686457D01*
X59234600Y-92687881D01*
X59234598Y-92687881D01*
X59024067Y-92744293D01*
X59024065Y-92744294D01*
X59018757Y-92745716D01*
X59013776Y-92748039D01*
X59013775Y-92748039D01*
X58816238Y-92840151D01*
X58816233Y-92840154D01*
X58811251Y-92842477D01*
X58706389Y-92915902D01*
X58628211Y-92970643D01*
X58628208Y-92970645D01*
X58623700Y-92973802D01*
X58461802Y-93135700D01*
X58330477Y-93323251D01*
X58328154Y-93328233D01*
X58328151Y-93328238D01*
X58318251Y-93349469D01*
X58233716Y-93530757D01*
X58232294Y-93536065D01*
X58232293Y-93536067D01*
X58218981Y-93585749D01*
X58174457Y-93751913D01*
X58154502Y-93980000D01*
X25508500Y-93980000D01*
X25508500Y-89252469D01*
X64811595Y-89252469D01*
X64811892Y-89257622D01*
X64811892Y-89257625D01*
X64817567Y-89356041D01*
X64824927Y-89483697D01*
X64826064Y-89488743D01*
X64826065Y-89488749D01*
X64858241Y-89631523D01*
X64875846Y-89709642D01*
X64877788Y-89714424D01*
X64877789Y-89714428D01*
X64961040Y-89919450D01*
X64962984Y-89924237D01*
X65084001Y-90121719D01*
X65087382Y-90125622D01*
X65196153Y-90251191D01*
X65225635Y-90315776D01*
X65215520Y-90386049D01*
X65169019Y-90439697D01*
X65145146Y-90451670D01*
X65086444Y-90473677D01*
X65070851Y-90482214D01*
X64968776Y-90558715D01*
X64956215Y-90571276D01*
X64879714Y-90673351D01*
X64871176Y-90688946D01*
X64826022Y-90809394D01*
X64822395Y-90824649D01*
X64816869Y-90875514D01*
X64816500Y-90882328D01*
X64816500Y-91554885D01*
X64820975Y-91570124D01*
X64822365Y-91571329D01*
X64830048Y-91573000D01*
X67614384Y-91573000D01*
X67629623Y-91568525D01*
X67630828Y-91567135D01*
X67632499Y-91559452D01*
X67632499Y-90882331D01*
X67632129Y-90875510D01*
X67626605Y-90824648D01*
X67622979Y-90809396D01*
X67577824Y-90688946D01*
X67569286Y-90673351D01*
X67492785Y-90571276D01*
X67480224Y-90558715D01*
X67378149Y-90482214D01*
X67362552Y-90473675D01*
X67303915Y-90451693D01*
X67247150Y-90409052D01*
X67222450Y-90342490D01*
X67237657Y-90273141D01*
X67259203Y-90244461D01*
X67297141Y-90206654D01*
X67300803Y-90203005D01*
X67435958Y-90014917D01*
X67483141Y-89919450D01*
X67536284Y-89811922D01*
X67536285Y-89811920D01*
X67538578Y-89807280D01*
X67605908Y-89585671D01*
X67636140Y-89356041D01*
X67637827Y-89287000D01*
X67631532Y-89210434D01*
X67619273Y-89061318D01*
X67619272Y-89061312D01*
X67618849Y-89056167D01*
X67562425Y-88831533D01*
X67560366Y-88826797D01*
X67472130Y-88623868D01*
X67472128Y-88623865D01*
X67470070Y-88619131D01*
X67344264Y-88424665D01*
X67188387Y-88253358D01*
X67184336Y-88250159D01*
X67184332Y-88250155D01*
X67010677Y-88113011D01*
X67010672Y-88113008D01*
X67006623Y-88109810D01*
X67002107Y-88107317D01*
X67002104Y-88107315D01*
X66808379Y-88000373D01*
X66808375Y-88000371D01*
X66803855Y-87997876D01*
X66798986Y-87996152D01*
X66798982Y-87996150D01*
X66590403Y-87922288D01*
X66590399Y-87922287D01*
X66585528Y-87920562D01*
X66580435Y-87919655D01*
X66580432Y-87919654D01*
X66362595Y-87880851D01*
X66362589Y-87880850D01*
X66357506Y-87879945D01*
X66284596Y-87879054D01*
X66131081Y-87877179D01*
X66131079Y-87877179D01*
X66125911Y-87877116D01*
X65896964Y-87912150D01*
X65676814Y-87984106D01*
X65672226Y-87986494D01*
X65672222Y-87986496D01*
X65645565Y-88000373D01*
X65471372Y-88091052D01*
X65467239Y-88094155D01*
X65467236Y-88094157D01*
X65442125Y-88113011D01*
X65286155Y-88230117D01*
X65126139Y-88397564D01*
X65123225Y-88401836D01*
X65123224Y-88401837D01*
X65107652Y-88424665D01*
X64995619Y-88588899D01*
X64898102Y-88798981D01*
X64836207Y-89022169D01*
X64811595Y-89252469D01*
X25508500Y-89252469D01*
X25508500Y-82007469D01*
X55769095Y-82007469D01*
X55769392Y-82012622D01*
X55769392Y-82012625D01*
X55782129Y-82233529D01*
X55782427Y-82238697D01*
X55783564Y-82243743D01*
X55783565Y-82243749D01*
X55789903Y-82271872D01*
X55833346Y-82464642D01*
X55920484Y-82679237D01*
X56041501Y-82876719D01*
X56193147Y-83051784D01*
X56371349Y-83199730D01*
X56571322Y-83316584D01*
X56787694Y-83399209D01*
X56792760Y-83400240D01*
X56792761Y-83400240D01*
X56845846Y-83411040D01*
X57014656Y-83445385D01*
X57144089Y-83450131D01*
X57240949Y-83453683D01*
X57240953Y-83453683D01*
X57246113Y-83453872D01*
X57251233Y-83453216D01*
X57251235Y-83453216D01*
X57325166Y-83443745D01*
X57475847Y-83424442D01*
X57480795Y-83422957D01*
X57480802Y-83422956D01*
X57692747Y-83359369D01*
X57697690Y-83357886D01*
X57778236Y-83318427D01*
X57901049Y-83258262D01*
X57901052Y-83258260D01*
X57905684Y-83255991D01*
X58094243Y-83121494D01*
X58139309Y-83076585D01*
X58201681Y-83042669D01*
X58272487Y-83047857D01*
X58329249Y-83090503D01*
X58346231Y-83121607D01*
X58371385Y-83188705D01*
X58458739Y-83305261D01*
X58575295Y-83392615D01*
X58711684Y-83443745D01*
X58773866Y-83450500D01*
X60670134Y-83450500D01*
X60732316Y-83443745D01*
X60868705Y-83392615D01*
X60985261Y-83305261D01*
X61072615Y-83188705D01*
X61123745Y-83052316D01*
X61130500Y-82990134D01*
X61130500Y-81804669D01*
X91842001Y-81804669D01*
X91842371Y-81811490D01*
X91847895Y-81862352D01*
X91851521Y-81877604D01*
X91896676Y-81998054D01*
X91905214Y-82013649D01*
X91981715Y-82115724D01*
X91994276Y-82128285D01*
X92096351Y-82204786D01*
X92111946Y-82213324D01*
X92232394Y-82258478D01*
X92247649Y-82262105D01*
X92298514Y-82267631D01*
X92305328Y-82268000D01*
X92977885Y-82268000D01*
X92993124Y-82263525D01*
X92994329Y-82262135D01*
X92996000Y-82254452D01*
X92996000Y-82249884D01*
X93504000Y-82249884D01*
X93508475Y-82265123D01*
X93509865Y-82266328D01*
X93517548Y-82267999D01*
X94194669Y-82267999D01*
X94201490Y-82267629D01*
X94252352Y-82262105D01*
X94267604Y-82258479D01*
X94388054Y-82213324D01*
X94403649Y-82204786D01*
X94505724Y-82128285D01*
X94518285Y-82115724D01*
X94594786Y-82013649D01*
X94603324Y-81998054D01*
X94624773Y-81940840D01*
X94667415Y-81884075D01*
X94733977Y-81859376D01*
X94803325Y-81874584D01*
X94823240Y-81888126D01*
X94966990Y-82007469D01*
X94979349Y-82017730D01*
X95179322Y-82134584D01*
X95395694Y-82217209D01*
X95400760Y-82218240D01*
X95400761Y-82218240D01*
X95453846Y-82229040D01*
X95622656Y-82263385D01*
X95753324Y-82268176D01*
X95848949Y-82271683D01*
X95848953Y-82271683D01*
X95854113Y-82271872D01*
X95859233Y-82271216D01*
X95859235Y-82271216D01*
X95958668Y-82258478D01*
X96083847Y-82242442D01*
X96088795Y-82240957D01*
X96088802Y-82240956D01*
X96300747Y-82177369D01*
X96305690Y-82175886D01*
X96386236Y-82136427D01*
X96509049Y-82076262D01*
X96509052Y-82076260D01*
X96513684Y-82073991D01*
X96702243Y-81939494D01*
X96866303Y-81776005D01*
X97001458Y-81587917D01*
X97015773Y-81558954D01*
X97101784Y-81384922D01*
X97101785Y-81384920D01*
X97104078Y-81380280D01*
X97171408Y-81158671D01*
X97201640Y-80929041D01*
X97203131Y-80868011D01*
X97203245Y-80863365D01*
X97203245Y-80863361D01*
X97203327Y-80860000D01*
X97189907Y-80696771D01*
X97184773Y-80634318D01*
X97184772Y-80634312D01*
X97184349Y-80629167D01*
X97127925Y-80404533D01*
X97035570Y-80192131D01*
X96909764Y-79997665D01*
X96753887Y-79826358D01*
X96749836Y-79823159D01*
X96749832Y-79823155D01*
X96576177Y-79686011D01*
X96576172Y-79686008D01*
X96572123Y-79682810D01*
X96567607Y-79680317D01*
X96567604Y-79680315D01*
X96373879Y-79573373D01*
X96373875Y-79573371D01*
X96369355Y-79570876D01*
X96364486Y-79569152D01*
X96364482Y-79569150D01*
X96155903Y-79495288D01*
X96155899Y-79495287D01*
X96151028Y-79493562D01*
X96145935Y-79492655D01*
X96145932Y-79492654D01*
X95928095Y-79453851D01*
X95928089Y-79453850D01*
X95923006Y-79452945D01*
X95845644Y-79452000D01*
X95696581Y-79450179D01*
X95696579Y-79450179D01*
X95691411Y-79450116D01*
X95462464Y-79485150D01*
X95242314Y-79557106D01*
X95237726Y-79559494D01*
X95237722Y-79559496D01*
X95041461Y-79661663D01*
X95036872Y-79664052D01*
X95032739Y-79667155D01*
X95032736Y-79667157D01*
X94855790Y-79800012D01*
X94851655Y-79803117D01*
X94848083Y-79806855D01*
X94833787Y-79821815D01*
X94772263Y-79857245D01*
X94701351Y-79853788D01*
X94643564Y-79812543D01*
X94624711Y-79778994D01*
X94603324Y-79721946D01*
X94594786Y-79706351D01*
X94518285Y-79604276D01*
X94505724Y-79591715D01*
X94403649Y-79515214D01*
X94388054Y-79506676D01*
X94267606Y-79461522D01*
X94252351Y-79457895D01*
X94201486Y-79452369D01*
X94194672Y-79452000D01*
X93522115Y-79452000D01*
X93506876Y-79456475D01*
X93505671Y-79457865D01*
X93504000Y-79465548D01*
X93504000Y-82249884D01*
X92996000Y-82249884D01*
X92996000Y-81132115D01*
X92991525Y-81116876D01*
X92990135Y-81115671D01*
X92982452Y-81114000D01*
X91860116Y-81114000D01*
X91844877Y-81118475D01*
X91843672Y-81119865D01*
X91842001Y-81127548D01*
X91842001Y-81804669D01*
X61130500Y-81804669D01*
X61130500Y-81093866D01*
X61123745Y-81031684D01*
X61072615Y-80895295D01*
X60985261Y-80778739D01*
X60868705Y-80691385D01*
X60732316Y-80640255D01*
X60670134Y-80633500D01*
X58773866Y-80633500D01*
X58711684Y-80640255D01*
X58575295Y-80691385D01*
X58458739Y-80778739D01*
X58371385Y-80895295D01*
X58368233Y-80903703D01*
X58368232Y-80903705D01*
X58347538Y-80958906D01*
X58304897Y-81015671D01*
X58238335Y-81040371D01*
X58168986Y-81025164D01*
X58146167Y-81008666D01*
X58145887Y-81008358D01*
X58083270Y-80958906D01*
X57968177Y-80868011D01*
X57968172Y-80868008D01*
X57964123Y-80864810D01*
X57959607Y-80862317D01*
X57959604Y-80862315D01*
X57765879Y-80755373D01*
X57765875Y-80755371D01*
X57761355Y-80752876D01*
X57756486Y-80751152D01*
X57756482Y-80751150D01*
X57547903Y-80677288D01*
X57547899Y-80677287D01*
X57543028Y-80675562D01*
X57537935Y-80674655D01*
X57537932Y-80674654D01*
X57320095Y-80635851D01*
X57320089Y-80635850D01*
X57315006Y-80634945D01*
X57242096Y-80634054D01*
X57088581Y-80632179D01*
X57088579Y-80632179D01*
X57083411Y-80632116D01*
X56854464Y-80667150D01*
X56634314Y-80739106D01*
X56629726Y-80741494D01*
X56629722Y-80741496D01*
X56433461Y-80843663D01*
X56428872Y-80846052D01*
X56424739Y-80849155D01*
X56424736Y-80849157D01*
X56247790Y-80982012D01*
X56243655Y-80985117D01*
X56240083Y-80988855D01*
X56103181Y-81132115D01*
X56083639Y-81152564D01*
X55953119Y-81343899D01*
X55855602Y-81553981D01*
X55793707Y-81777169D01*
X55769095Y-82007469D01*
X25508500Y-82007469D01*
X25508500Y-80587885D01*
X91842000Y-80587885D01*
X91846475Y-80603124D01*
X91847865Y-80604329D01*
X91855548Y-80606000D01*
X92977885Y-80606000D01*
X92993124Y-80601525D01*
X92994329Y-80600135D01*
X92996000Y-80592452D01*
X92996000Y-79470116D01*
X92991525Y-79454877D01*
X92990135Y-79453672D01*
X92982452Y-79452001D01*
X92305331Y-79452001D01*
X92298510Y-79452371D01*
X92247648Y-79457895D01*
X92232396Y-79461521D01*
X92111946Y-79506676D01*
X92096351Y-79515214D01*
X91994276Y-79591715D01*
X91981715Y-79604276D01*
X91905214Y-79706351D01*
X91896676Y-79721946D01*
X91851522Y-79842394D01*
X91847895Y-79857649D01*
X91842369Y-79908514D01*
X91842000Y-79915328D01*
X91842000Y-80587885D01*
X25508500Y-80587885D01*
X25508500Y-73842669D01*
X104533001Y-73842669D01*
X104533371Y-73849490D01*
X104538895Y-73900352D01*
X104542521Y-73915604D01*
X104587676Y-74036054D01*
X104596214Y-74051649D01*
X104672715Y-74153724D01*
X104685276Y-74166285D01*
X104787351Y-74242786D01*
X104802946Y-74251324D01*
X104923394Y-74296478D01*
X104938649Y-74300105D01*
X104989514Y-74305631D01*
X104996328Y-74306000D01*
X105668885Y-74306000D01*
X105684124Y-74301525D01*
X105685329Y-74300135D01*
X105687000Y-74292452D01*
X105687000Y-74287884D01*
X106195000Y-74287884D01*
X106199475Y-74303123D01*
X106200865Y-74304328D01*
X106208548Y-74305999D01*
X106885669Y-74305999D01*
X106892490Y-74305629D01*
X106943352Y-74300105D01*
X106958604Y-74296479D01*
X107079054Y-74251324D01*
X107094649Y-74242786D01*
X107196724Y-74166285D01*
X107209285Y-74153724D01*
X107285786Y-74051649D01*
X107294324Y-74036054D01*
X107315773Y-73978840D01*
X107358415Y-73922075D01*
X107424977Y-73897376D01*
X107494325Y-73912584D01*
X107514240Y-73926126D01*
X107670349Y-74055730D01*
X107870322Y-74172584D01*
X108086694Y-74255209D01*
X108091760Y-74256240D01*
X108091761Y-74256240D01*
X108144846Y-74267040D01*
X108313656Y-74301385D01*
X108444324Y-74306176D01*
X108539949Y-74309683D01*
X108539953Y-74309683D01*
X108545113Y-74309872D01*
X108550233Y-74309216D01*
X108550235Y-74309216D01*
X108649668Y-74296478D01*
X108774847Y-74280442D01*
X108779795Y-74278957D01*
X108779802Y-74278956D01*
X108991747Y-74215369D01*
X108996690Y-74213886D01*
X109077236Y-74174427D01*
X109200049Y-74114262D01*
X109200052Y-74114260D01*
X109204684Y-74111991D01*
X109393243Y-73977494D01*
X109557303Y-73814005D01*
X109692458Y-73625917D01*
X109795078Y-73418280D01*
X109862408Y-73196671D01*
X109892640Y-72967041D01*
X109894327Y-72898000D01*
X109888032Y-72821434D01*
X109875773Y-72672318D01*
X109875772Y-72672312D01*
X109875349Y-72667167D01*
X109818925Y-72442533D01*
X109726570Y-72230131D01*
X109600764Y-72035665D01*
X109595165Y-72029511D01*
X109503434Y-71928701D01*
X109444887Y-71864358D01*
X109440836Y-71861159D01*
X109440832Y-71861155D01*
X109267177Y-71724011D01*
X109267172Y-71724008D01*
X109263123Y-71720810D01*
X109258607Y-71718317D01*
X109258604Y-71718315D01*
X109064879Y-71611373D01*
X109064875Y-71611371D01*
X109060355Y-71608876D01*
X109055486Y-71607152D01*
X109055482Y-71607150D01*
X108846903Y-71533288D01*
X108846899Y-71533287D01*
X108842028Y-71531562D01*
X108836935Y-71530655D01*
X108836932Y-71530654D01*
X108619095Y-71491851D01*
X108619089Y-71491850D01*
X108614006Y-71490945D01*
X108536644Y-71490000D01*
X108387581Y-71488179D01*
X108387579Y-71488179D01*
X108382411Y-71488116D01*
X108153464Y-71523150D01*
X107933314Y-71595106D01*
X107928726Y-71597494D01*
X107928722Y-71597496D01*
X107732461Y-71699663D01*
X107727872Y-71702052D01*
X107723739Y-71705155D01*
X107723736Y-71705157D01*
X107546790Y-71838012D01*
X107542655Y-71841117D01*
X107539083Y-71844855D01*
X107524787Y-71859815D01*
X107463263Y-71895245D01*
X107392351Y-71891788D01*
X107334564Y-71850543D01*
X107315711Y-71816994D01*
X107294324Y-71759946D01*
X107285786Y-71744351D01*
X107209285Y-71642276D01*
X107196724Y-71629715D01*
X107094649Y-71553214D01*
X107079054Y-71544676D01*
X106958606Y-71499522D01*
X106943351Y-71495895D01*
X106892486Y-71490369D01*
X106885672Y-71490000D01*
X106213115Y-71490000D01*
X106197876Y-71494475D01*
X106196671Y-71495865D01*
X106195000Y-71503548D01*
X106195000Y-74287884D01*
X105687000Y-74287884D01*
X105687000Y-73170115D01*
X105682525Y-73154876D01*
X105681135Y-73153671D01*
X105673452Y-73152000D01*
X104551116Y-73152000D01*
X104535877Y-73156475D01*
X104534672Y-73157865D01*
X104533001Y-73165548D01*
X104533001Y-73842669D01*
X25508500Y-73842669D01*
X25508500Y-72625885D01*
X104533000Y-72625885D01*
X104537475Y-72641124D01*
X104538865Y-72642329D01*
X104546548Y-72644000D01*
X105668885Y-72644000D01*
X105684124Y-72639525D01*
X105685329Y-72638135D01*
X105687000Y-72630452D01*
X105687000Y-71508116D01*
X105682525Y-71492877D01*
X105681135Y-71491672D01*
X105673452Y-71490001D01*
X104996331Y-71490001D01*
X104989510Y-71490371D01*
X104938648Y-71495895D01*
X104923396Y-71499521D01*
X104802946Y-71544676D01*
X104787351Y-71553214D01*
X104685276Y-71629715D01*
X104672715Y-71642276D01*
X104596214Y-71744351D01*
X104587676Y-71759946D01*
X104542522Y-71880394D01*
X104538895Y-71895649D01*
X104533369Y-71946514D01*
X104533000Y-71953328D01*
X104533000Y-72625885D01*
X25508500Y-72625885D01*
X25508500Y-70132703D01*
X62890743Y-70132703D01*
X62928268Y-70417734D01*
X63004129Y-70695036D01*
X63116923Y-70959476D01*
X63264561Y-71206161D01*
X63444313Y-71430528D01*
X63508934Y-71491851D01*
X63632253Y-71608876D01*
X63652851Y-71628423D01*
X63886317Y-71796186D01*
X63890112Y-71798195D01*
X63890113Y-71798196D01*
X63911869Y-71809715D01*
X64140392Y-71930712D01*
X64164699Y-71939607D01*
X64353133Y-72008564D01*
X64410373Y-72029511D01*
X64691264Y-72090755D01*
X64719841Y-72093004D01*
X64914282Y-72108307D01*
X64914291Y-72108307D01*
X64916739Y-72108500D01*
X65072271Y-72108500D01*
X65074407Y-72108354D01*
X65074418Y-72108354D01*
X65282548Y-72094165D01*
X65282554Y-72094164D01*
X65286825Y-72093873D01*
X65291020Y-72093004D01*
X65291022Y-72093004D01*
X65427583Y-72064724D01*
X65568342Y-72035574D01*
X65839343Y-71939607D01*
X66022922Y-71844855D01*
X66091005Y-71809715D01*
X66091006Y-71809715D01*
X66094812Y-71807750D01*
X66098313Y-71805289D01*
X66098317Y-71805287D01*
X66248604Y-71699663D01*
X66330023Y-71642441D01*
X66426043Y-71553214D01*
X66537479Y-71449661D01*
X66537481Y-71449658D01*
X66540622Y-71446740D01*
X66722713Y-71224268D01*
X66872927Y-70979142D01*
X66988483Y-70715898D01*
X67067244Y-70439406D01*
X67107751Y-70154784D01*
X67107845Y-70136951D01*
X67107867Y-70132703D01*
X85390743Y-70132703D01*
X85428268Y-70417734D01*
X85504129Y-70695036D01*
X85616923Y-70959476D01*
X85764561Y-71206161D01*
X85944313Y-71430528D01*
X86008934Y-71491851D01*
X86132253Y-71608876D01*
X86152851Y-71628423D01*
X86386317Y-71796186D01*
X86390112Y-71798195D01*
X86390113Y-71798196D01*
X86411869Y-71809715D01*
X86640392Y-71930712D01*
X86664699Y-71939607D01*
X86853133Y-72008564D01*
X86910373Y-72029511D01*
X87191264Y-72090755D01*
X87219841Y-72093004D01*
X87414282Y-72108307D01*
X87414291Y-72108307D01*
X87416739Y-72108500D01*
X87572271Y-72108500D01*
X87574407Y-72108354D01*
X87574418Y-72108354D01*
X87782548Y-72094165D01*
X87782554Y-72094164D01*
X87786825Y-72093873D01*
X87791020Y-72093004D01*
X87791022Y-72093004D01*
X87927583Y-72064724D01*
X88068342Y-72035574D01*
X88339343Y-71939607D01*
X88522922Y-71844855D01*
X88591005Y-71809715D01*
X88591006Y-71809715D01*
X88594812Y-71807750D01*
X88598313Y-71805289D01*
X88598317Y-71805287D01*
X88748604Y-71699663D01*
X88830023Y-71642441D01*
X88926043Y-71553214D01*
X89037479Y-71449661D01*
X89037481Y-71449658D01*
X89040622Y-71446740D01*
X89222713Y-71224268D01*
X89372927Y-70979142D01*
X89488483Y-70715898D01*
X89567244Y-70439406D01*
X89607751Y-70154784D01*
X89607845Y-70136951D01*
X89609235Y-69871583D01*
X89609235Y-69871576D01*
X89609257Y-69867297D01*
X89571732Y-69582266D01*
X89495871Y-69304964D01*
X89383077Y-69040524D01*
X89235439Y-68793839D01*
X89055687Y-68569472D01*
X88847149Y-68371577D01*
X88613683Y-68203814D01*
X88591843Y-68192250D01*
X88568654Y-68179972D01*
X88359608Y-68069288D01*
X88195645Y-68009286D01*
X88093658Y-67971964D01*
X88093656Y-67971963D01*
X88089627Y-67970489D01*
X87808736Y-67909245D01*
X87777685Y-67906801D01*
X87585718Y-67891693D01*
X87585709Y-67891693D01*
X87583261Y-67891500D01*
X87427729Y-67891500D01*
X87425593Y-67891646D01*
X87425582Y-67891646D01*
X87217452Y-67905835D01*
X87217446Y-67905836D01*
X87213175Y-67906127D01*
X87208980Y-67906996D01*
X87208978Y-67906996D01*
X87084448Y-67932785D01*
X86931658Y-67964426D01*
X86660657Y-68060393D01*
X86405188Y-68192250D01*
X86401687Y-68194711D01*
X86401683Y-68194713D01*
X86391594Y-68201804D01*
X86169977Y-68357559D01*
X85959378Y-68553260D01*
X85777287Y-68775732D01*
X85627073Y-69020858D01*
X85511517Y-69284102D01*
X85432756Y-69560594D01*
X85392249Y-69845216D01*
X85392227Y-69849505D01*
X85392226Y-69849512D01*
X85390765Y-70128417D01*
X85390743Y-70132703D01*
X67107867Y-70132703D01*
X67109235Y-69871583D01*
X67109235Y-69871576D01*
X67109257Y-69867297D01*
X67071732Y-69582266D01*
X66995871Y-69304964D01*
X66883077Y-69040524D01*
X66735439Y-68793839D01*
X66555687Y-68569472D01*
X66347149Y-68371577D01*
X66113683Y-68203814D01*
X66091843Y-68192250D01*
X66068654Y-68179972D01*
X65859608Y-68069288D01*
X65695645Y-68009286D01*
X65593658Y-67971964D01*
X65593656Y-67971963D01*
X65589627Y-67970489D01*
X65308736Y-67909245D01*
X65277685Y-67906801D01*
X65085718Y-67891693D01*
X65085709Y-67891693D01*
X65083261Y-67891500D01*
X64927729Y-67891500D01*
X64925593Y-67891646D01*
X64925582Y-67891646D01*
X64717452Y-67905835D01*
X64717446Y-67905836D01*
X64713175Y-67906127D01*
X64708980Y-67906996D01*
X64708978Y-67906996D01*
X64584448Y-67932785D01*
X64431658Y-67964426D01*
X64160657Y-68060393D01*
X63905188Y-68192250D01*
X63901687Y-68194711D01*
X63901683Y-68194713D01*
X63891594Y-68201804D01*
X63669977Y-68357559D01*
X63459378Y-68553260D01*
X63277287Y-68775732D01*
X63127073Y-69020858D01*
X63011517Y-69284102D01*
X62932756Y-69560594D01*
X62892249Y-69845216D01*
X62892227Y-69849505D01*
X62892226Y-69849512D01*
X62890765Y-70128417D01*
X62890743Y-70132703D01*
X25508500Y-70132703D01*
X25508500Y-65465469D01*
X42547095Y-65465469D01*
X42547392Y-65470622D01*
X42547392Y-65470625D01*
X42560021Y-65689653D01*
X42560427Y-65696697D01*
X42561564Y-65701743D01*
X42561565Y-65701749D01*
X42584195Y-65802165D01*
X42611346Y-65922642D01*
X42613288Y-65927424D01*
X42613289Y-65927428D01*
X42696540Y-66132450D01*
X42698484Y-66137237D01*
X42819501Y-66334719D01*
X42971147Y-66509784D01*
X43149349Y-66657730D01*
X43349322Y-66774584D01*
X43565694Y-66857209D01*
X43570760Y-66858240D01*
X43570761Y-66858240D01*
X43610127Y-66866249D01*
X43792656Y-66903385D01*
X43922089Y-66908131D01*
X44018949Y-66911683D01*
X44018953Y-66911683D01*
X44024113Y-66911872D01*
X44029233Y-66911216D01*
X44029235Y-66911216D01*
X44103166Y-66901745D01*
X44253847Y-66882442D01*
X44258795Y-66880957D01*
X44258802Y-66880956D01*
X44470747Y-66817369D01*
X44475690Y-66815886D01*
X44556236Y-66776427D01*
X44679049Y-66716262D01*
X44679052Y-66716260D01*
X44683684Y-66713991D01*
X44872243Y-66579494D01*
X44917309Y-66534585D01*
X44979681Y-66500669D01*
X45050487Y-66505857D01*
X45107249Y-66548503D01*
X45124231Y-66579607D01*
X45141187Y-66624836D01*
X45149385Y-66646705D01*
X45236739Y-66763261D01*
X45353295Y-66850615D01*
X45489684Y-66901745D01*
X45551866Y-66908500D01*
X47448134Y-66908500D01*
X47510316Y-66901745D01*
X47646705Y-66850615D01*
X47763261Y-66763261D01*
X47850615Y-66646705D01*
X47856889Y-66629969D01*
X117909095Y-66629969D01*
X117909392Y-66635122D01*
X117909392Y-66635125D01*
X117917283Y-66771977D01*
X117922427Y-66861197D01*
X117923564Y-66866243D01*
X117923565Y-66866249D01*
X117938394Y-66932048D01*
X117973346Y-67087142D01*
X117975288Y-67091924D01*
X117975289Y-67091928D01*
X118058540Y-67296950D01*
X118060484Y-67301737D01*
X118181501Y-67499219D01*
X118333147Y-67674284D01*
X118511349Y-67822230D01*
X118711322Y-67939084D01*
X118927694Y-68021709D01*
X118932760Y-68022740D01*
X118932761Y-68022740D01*
X118985846Y-68033540D01*
X119154656Y-68067885D01*
X119285324Y-68072676D01*
X119380949Y-68076183D01*
X119380953Y-68076183D01*
X119386113Y-68076372D01*
X119391233Y-68075716D01*
X119391235Y-68075716D01*
X119495500Y-68062359D01*
X119615847Y-68046942D01*
X119620795Y-68045457D01*
X119620802Y-68045456D01*
X119832747Y-67981869D01*
X119837690Y-67980386D01*
X119842324Y-67978116D01*
X120041049Y-67880762D01*
X120041052Y-67880760D01*
X120045684Y-67878491D01*
X120234243Y-67743994D01*
X120237898Y-67740352D01*
X120237906Y-67740345D01*
X120279697Y-67698699D01*
X120342068Y-67664782D01*
X120412875Y-67669970D01*
X120469637Y-67712616D01*
X120486619Y-67743718D01*
X120508677Y-67802556D01*
X120517214Y-67818149D01*
X120593715Y-67920224D01*
X120606276Y-67932785D01*
X120708351Y-68009286D01*
X120723946Y-68017824D01*
X120844394Y-68062978D01*
X120859649Y-68066605D01*
X120910514Y-68072131D01*
X120917328Y-68072500D01*
X121589885Y-68072500D01*
X121605124Y-68068025D01*
X121606329Y-68066635D01*
X121608000Y-68058952D01*
X121608000Y-68054384D01*
X122116000Y-68054384D01*
X122120475Y-68069623D01*
X122121865Y-68070828D01*
X122129548Y-68072499D01*
X122806669Y-68072499D01*
X122813490Y-68072129D01*
X122864352Y-68066605D01*
X122879604Y-68062979D01*
X123000054Y-68017824D01*
X123015649Y-68009286D01*
X123117724Y-67932785D01*
X123130285Y-67920224D01*
X123206786Y-67818149D01*
X123215324Y-67802554D01*
X123260478Y-67682106D01*
X123264105Y-67666851D01*
X123269631Y-67615986D01*
X123270000Y-67609172D01*
X123270000Y-66936615D01*
X123265525Y-66921376D01*
X123264135Y-66920171D01*
X123256452Y-66918500D01*
X122134115Y-66918500D01*
X122118876Y-66922975D01*
X122117671Y-66924365D01*
X122116000Y-66932048D01*
X122116000Y-68054384D01*
X121608000Y-68054384D01*
X121608000Y-66392385D01*
X122116000Y-66392385D01*
X122120475Y-66407624D01*
X122121865Y-66408829D01*
X122129548Y-66410500D01*
X123251884Y-66410500D01*
X123267123Y-66406025D01*
X123268328Y-66404635D01*
X123269999Y-66396952D01*
X123269999Y-65719831D01*
X123269629Y-65713010D01*
X123264105Y-65662148D01*
X123260479Y-65646896D01*
X123215324Y-65526446D01*
X123206786Y-65510851D01*
X123130285Y-65408776D01*
X123117724Y-65396215D01*
X123015649Y-65319714D01*
X123000054Y-65311176D01*
X122879606Y-65266022D01*
X122864351Y-65262395D01*
X122813486Y-65256869D01*
X122806672Y-65256500D01*
X122134115Y-65256500D01*
X122118876Y-65260975D01*
X122117671Y-65262365D01*
X122116000Y-65270048D01*
X122116000Y-66392385D01*
X121608000Y-66392385D01*
X121608000Y-65274616D01*
X121603525Y-65259377D01*
X121602135Y-65258172D01*
X121594452Y-65256501D01*
X120917331Y-65256501D01*
X120910510Y-65256871D01*
X120859648Y-65262395D01*
X120844396Y-65266021D01*
X120723946Y-65311176D01*
X120708351Y-65319714D01*
X120606276Y-65396215D01*
X120593715Y-65408776D01*
X120517214Y-65510851D01*
X120508675Y-65526448D01*
X120487934Y-65581775D01*
X120445293Y-65638540D01*
X120378731Y-65663240D01*
X120309383Y-65648033D01*
X120286388Y-65631409D01*
X120285887Y-65630858D01*
X120223737Y-65581775D01*
X120108177Y-65490511D01*
X120108172Y-65490508D01*
X120104123Y-65487310D01*
X120099607Y-65484817D01*
X120099604Y-65484815D01*
X119905879Y-65377873D01*
X119905875Y-65377871D01*
X119901355Y-65375376D01*
X119896486Y-65373652D01*
X119896482Y-65373650D01*
X119687903Y-65299788D01*
X119687899Y-65299787D01*
X119683028Y-65298062D01*
X119677935Y-65297155D01*
X119677932Y-65297154D01*
X119460095Y-65258351D01*
X119460089Y-65258350D01*
X119455006Y-65257445D01*
X119377644Y-65256500D01*
X119228581Y-65254679D01*
X119228579Y-65254679D01*
X119223411Y-65254616D01*
X118994464Y-65289650D01*
X118774314Y-65361606D01*
X118769726Y-65363994D01*
X118769722Y-65363996D01*
X118584655Y-65460336D01*
X118568872Y-65468552D01*
X118564739Y-65471655D01*
X118564736Y-65471657D01*
X118440519Y-65564922D01*
X118383655Y-65607617D01*
X118223639Y-65775064D01*
X118093119Y-65966399D01*
X117995602Y-66176481D01*
X117933707Y-66399669D01*
X117909095Y-66629969D01*
X47856889Y-66629969D01*
X47901745Y-66510316D01*
X47908500Y-66448134D01*
X47908500Y-65005469D01*
X67587095Y-65005469D01*
X67587392Y-65010622D01*
X67587392Y-65010625D01*
X67593067Y-65109041D01*
X67600427Y-65236697D01*
X67601564Y-65241743D01*
X67601565Y-65241749D01*
X67629115Y-65363996D01*
X67651346Y-65462642D01*
X67653288Y-65467424D01*
X67653289Y-65467428D01*
X67719651Y-65630858D01*
X67738484Y-65677237D01*
X67859501Y-65874719D01*
X68011147Y-66049784D01*
X68189349Y-66197730D01*
X68389322Y-66314584D01*
X68605694Y-66397209D01*
X68610760Y-66398240D01*
X68610761Y-66398240D01*
X68617785Y-66399669D01*
X68832656Y-66443385D01*
X68963324Y-66448176D01*
X69058949Y-66451683D01*
X69058953Y-66451683D01*
X69064113Y-66451872D01*
X69069233Y-66451216D01*
X69069235Y-66451216D01*
X69142270Y-66441860D01*
X69293847Y-66422442D01*
X69298795Y-66420957D01*
X69298802Y-66420956D01*
X69510747Y-66357369D01*
X69515690Y-66355886D01*
X69549771Y-66339190D01*
X69719049Y-66256262D01*
X69719052Y-66256260D01*
X69723684Y-66253991D01*
X69912243Y-66119494D01*
X70076303Y-65956005D01*
X70211458Y-65767917D01*
X70235224Y-65719831D01*
X70311784Y-65564922D01*
X70311785Y-65564920D01*
X70314078Y-65560280D01*
X70381408Y-65338671D01*
X70411640Y-65109041D01*
X70412506Y-65073617D01*
X70413245Y-65043365D01*
X70413245Y-65043361D01*
X70413327Y-65040000D01*
X70397078Y-64842359D01*
X70394773Y-64814318D01*
X70394772Y-64814312D01*
X70394349Y-64809167D01*
X70375837Y-64735469D01*
X85587095Y-64735469D01*
X85587392Y-64740622D01*
X85587392Y-64740625D01*
X85593067Y-64839041D01*
X85600427Y-64966697D01*
X85601564Y-64971743D01*
X85601565Y-64971749D01*
X85631751Y-65105691D01*
X85651346Y-65192642D01*
X85653288Y-65197424D01*
X85653289Y-65197428D01*
X85734008Y-65396215D01*
X85738484Y-65407237D01*
X85859501Y-65604719D01*
X86011147Y-65779784D01*
X86189349Y-65927730D01*
X86389322Y-66044584D01*
X86605694Y-66127209D01*
X86610760Y-66128240D01*
X86610761Y-66128240D01*
X86631454Y-66132450D01*
X86832656Y-66173385D01*
X86963324Y-66178176D01*
X87058949Y-66181683D01*
X87058953Y-66181683D01*
X87064113Y-66181872D01*
X87069233Y-66181216D01*
X87069235Y-66181216D01*
X87142728Y-66171801D01*
X87293847Y-66152442D01*
X87298795Y-66150957D01*
X87298802Y-66150956D01*
X87510747Y-66087369D01*
X87515690Y-66085886D01*
X87520324Y-66083616D01*
X87719049Y-65986262D01*
X87719052Y-65986260D01*
X87723684Y-65983991D01*
X87912243Y-65849494D01*
X88076303Y-65686005D01*
X88082604Y-65677237D01*
X88131908Y-65608622D01*
X88211458Y-65497917D01*
X88215119Y-65490511D01*
X88311784Y-65294922D01*
X88311785Y-65294920D01*
X88314078Y-65290280D01*
X88381408Y-65068671D01*
X88411640Y-64839041D01*
X88412433Y-64806587D01*
X88413245Y-64773365D01*
X88413245Y-64773361D01*
X88413327Y-64770000D01*
X88398079Y-64584533D01*
X88394773Y-64544318D01*
X88394772Y-64544312D01*
X88394349Y-64539167D01*
X88363639Y-64416906D01*
X88339184Y-64319544D01*
X88339183Y-64319540D01*
X88337925Y-64314533D01*
X88332329Y-64301663D01*
X88247630Y-64106868D01*
X88247628Y-64106865D01*
X88245570Y-64102131D01*
X88119764Y-63907665D01*
X88116282Y-63903838D01*
X88029848Y-63808848D01*
X87998796Y-63745002D01*
X88007192Y-63674504D01*
X88052369Y-63619736D01*
X88078812Y-63606067D01*
X88138297Y-63583767D01*
X88146705Y-63580615D01*
X88263261Y-63493261D01*
X88350615Y-63376705D01*
X88401745Y-63240316D01*
X88408500Y-63178134D01*
X88408500Y-61281866D01*
X88401745Y-61219684D01*
X88350615Y-61083295D01*
X88263261Y-60966739D01*
X88146705Y-60879385D01*
X88010316Y-60828255D01*
X87948134Y-60821500D01*
X86051866Y-60821500D01*
X85989684Y-60828255D01*
X85853295Y-60879385D01*
X85736739Y-60966739D01*
X85649385Y-61083295D01*
X85598255Y-61219684D01*
X85591500Y-61281866D01*
X85591500Y-63178134D01*
X85598255Y-63240316D01*
X85649385Y-63376705D01*
X85736739Y-63493261D01*
X85853295Y-63580615D01*
X85861704Y-63583767D01*
X85861705Y-63583768D01*
X85921164Y-63606058D01*
X85977929Y-63648699D01*
X86002629Y-63715261D01*
X85987422Y-63784609D01*
X85968029Y-63811091D01*
X85901639Y-63880564D01*
X85898725Y-63884836D01*
X85898724Y-63884837D01*
X85883152Y-63907665D01*
X85771119Y-64071899D01*
X85673602Y-64281981D01*
X85611707Y-64505169D01*
X85587095Y-64735469D01*
X70375837Y-64735469D01*
X70366137Y-64696850D01*
X70339184Y-64589544D01*
X70339183Y-64589540D01*
X70337925Y-64584533D01*
X70335866Y-64579797D01*
X70247630Y-64376868D01*
X70247628Y-64376865D01*
X70245570Y-64372131D01*
X70119764Y-64177665D01*
X70095104Y-64150564D01*
X70029848Y-64078848D01*
X69998796Y-64015002D01*
X70007192Y-63944504D01*
X70052369Y-63889736D01*
X70078812Y-63876067D01*
X70138297Y-63853767D01*
X70146705Y-63850615D01*
X70263261Y-63763261D01*
X70350615Y-63646705D01*
X70401745Y-63510316D01*
X70408500Y-63448134D01*
X70408500Y-61551866D01*
X70401745Y-61489684D01*
X70350615Y-61353295D01*
X70263261Y-61236739D01*
X70146705Y-61149385D01*
X70010316Y-61098255D01*
X69948134Y-61091500D01*
X68051866Y-61091500D01*
X67989684Y-61098255D01*
X67853295Y-61149385D01*
X67736739Y-61236739D01*
X67649385Y-61353295D01*
X67598255Y-61489684D01*
X67591500Y-61551866D01*
X67591500Y-63448134D01*
X67598255Y-63510316D01*
X67649385Y-63646705D01*
X67736739Y-63763261D01*
X67853295Y-63850615D01*
X67861704Y-63853767D01*
X67861705Y-63853768D01*
X67921164Y-63876058D01*
X67977929Y-63918699D01*
X68002629Y-63985261D01*
X67987422Y-64054609D01*
X67968029Y-64081091D01*
X67901639Y-64150564D01*
X67898725Y-64154836D01*
X67898724Y-64154837D01*
X67846525Y-64231358D01*
X67771119Y-64341899D01*
X67673602Y-64551981D01*
X67611707Y-64775169D01*
X67587095Y-65005469D01*
X47908500Y-65005469D01*
X47908500Y-64551866D01*
X47901745Y-64489684D01*
X47850615Y-64353295D01*
X47763261Y-64236739D01*
X47646705Y-64149385D01*
X47510316Y-64098255D01*
X47448134Y-64091500D01*
X45551866Y-64091500D01*
X45489684Y-64098255D01*
X45353295Y-64149385D01*
X45236739Y-64236739D01*
X45149385Y-64353295D01*
X45146233Y-64361703D01*
X45146232Y-64361705D01*
X45125538Y-64416906D01*
X45082897Y-64473671D01*
X45016335Y-64498371D01*
X44946986Y-64483164D01*
X44924167Y-64466666D01*
X44923887Y-64466358D01*
X44810573Y-64376868D01*
X44746177Y-64326011D01*
X44746172Y-64326008D01*
X44742123Y-64322810D01*
X44737607Y-64320317D01*
X44737604Y-64320315D01*
X44543879Y-64213373D01*
X44543875Y-64213371D01*
X44539355Y-64210876D01*
X44534486Y-64209152D01*
X44534482Y-64209150D01*
X44325903Y-64135288D01*
X44325899Y-64135287D01*
X44321028Y-64133562D01*
X44315935Y-64132655D01*
X44315932Y-64132654D01*
X44098095Y-64093851D01*
X44098089Y-64093850D01*
X44093006Y-64092945D01*
X44020096Y-64092054D01*
X43866581Y-64090179D01*
X43866579Y-64090179D01*
X43861411Y-64090116D01*
X43632464Y-64125150D01*
X43412314Y-64197106D01*
X43407726Y-64199494D01*
X43407722Y-64199496D01*
X43258260Y-64277301D01*
X43206872Y-64304052D01*
X43202739Y-64307155D01*
X43202736Y-64307157D01*
X43025790Y-64440012D01*
X43021655Y-64443117D01*
X43018083Y-64446855D01*
X42922095Y-64547301D01*
X42861639Y-64610564D01*
X42731119Y-64801899D01*
X42633602Y-65011981D01*
X42571707Y-65235169D01*
X42547095Y-65465469D01*
X25508500Y-65465469D01*
X25508500Y-62998134D01*
X28041500Y-62998134D01*
X28048255Y-63060316D01*
X28099385Y-63196705D01*
X28186739Y-63313261D01*
X28303295Y-63400615D01*
X28439684Y-63451745D01*
X28501866Y-63458500D01*
X30398134Y-63458500D01*
X30460316Y-63451745D01*
X30596705Y-63400615D01*
X30713261Y-63313261D01*
X30800615Y-63196705D01*
X30825180Y-63131178D01*
X30867822Y-63074414D01*
X30934383Y-63049714D01*
X31003732Y-63064921D01*
X31023647Y-63078464D01*
X31143700Y-63178134D01*
X31179349Y-63207730D01*
X31379322Y-63324584D01*
X31595694Y-63407209D01*
X31600760Y-63408240D01*
X31600761Y-63408240D01*
X31653846Y-63419040D01*
X31822656Y-63453385D01*
X31952089Y-63458131D01*
X32048949Y-63461683D01*
X32048953Y-63461683D01*
X32054113Y-63461872D01*
X32059233Y-63461216D01*
X32059235Y-63461216D01*
X32134836Y-63451531D01*
X32283847Y-63432442D01*
X32288795Y-63430957D01*
X32288802Y-63430956D01*
X32500747Y-63367369D01*
X32505690Y-63365886D01*
X32586236Y-63326427D01*
X32709049Y-63266262D01*
X32709052Y-63266260D01*
X32713684Y-63263991D01*
X32902243Y-63129494D01*
X33066303Y-62966005D01*
X33201458Y-62777917D01*
X33304078Y-62570280D01*
X33371408Y-62348671D01*
X33401640Y-62119041D01*
X33403327Y-62050000D01*
X33397032Y-61973434D01*
X33384773Y-61824318D01*
X33384772Y-61824312D01*
X33384349Y-61819167D01*
X33327925Y-61594533D01*
X33307896Y-61548469D01*
X33237630Y-61386868D01*
X33237628Y-61386865D01*
X33235570Y-61382131D01*
X33109764Y-61187665D01*
X32953887Y-61016358D01*
X32949836Y-61013159D01*
X32949832Y-61013155D01*
X32776177Y-60876011D01*
X32776172Y-60876008D01*
X32772123Y-60872810D01*
X32767607Y-60870317D01*
X32767604Y-60870315D01*
X32573879Y-60763373D01*
X32573875Y-60763371D01*
X32569355Y-60760876D01*
X32564486Y-60759152D01*
X32564482Y-60759150D01*
X32355903Y-60685288D01*
X32355899Y-60685287D01*
X32351028Y-60683562D01*
X32345935Y-60682655D01*
X32345932Y-60682654D01*
X32128095Y-60643851D01*
X32128089Y-60643850D01*
X32123006Y-60642945D01*
X32050096Y-60642054D01*
X31896581Y-60640179D01*
X31896579Y-60640179D01*
X31891411Y-60640116D01*
X31662464Y-60675150D01*
X31442314Y-60747106D01*
X31437726Y-60749494D01*
X31437722Y-60749496D01*
X31281099Y-60831029D01*
X31236872Y-60854052D01*
X31232739Y-60857155D01*
X31232736Y-60857157D01*
X31086787Y-60966739D01*
X31051655Y-60993117D01*
X31034170Y-61011414D01*
X30972646Y-61046844D01*
X30901733Y-61043387D01*
X30843947Y-61002141D01*
X30825094Y-60968592D01*
X30803768Y-60911705D01*
X30803767Y-60911703D01*
X30800615Y-60903295D01*
X30713261Y-60786739D01*
X30596705Y-60699385D01*
X30460316Y-60648255D01*
X30398134Y-60641500D01*
X28501866Y-60641500D01*
X28439684Y-60648255D01*
X28303295Y-60699385D01*
X28186739Y-60786739D01*
X28099385Y-60903295D01*
X28048255Y-61039684D01*
X28041500Y-61101866D01*
X28041500Y-62998134D01*
X25508500Y-62998134D01*
X25508500Y-50765469D01*
X62849095Y-50765469D01*
X62849392Y-50770622D01*
X62849392Y-50770625D01*
X62855067Y-50869041D01*
X62862427Y-50996697D01*
X62863564Y-51001743D01*
X62863565Y-51001749D01*
X62895741Y-51144523D01*
X62913346Y-51222642D01*
X62915288Y-51227424D01*
X62915289Y-51227428D01*
X62998540Y-51432450D01*
X63000484Y-51437237D01*
X63121501Y-51634719D01*
X63273147Y-51809784D01*
X63451349Y-51957730D01*
X63651322Y-52074584D01*
X63867694Y-52157209D01*
X63872760Y-52158240D01*
X63872761Y-52158240D01*
X63925846Y-52169040D01*
X64094656Y-52203385D01*
X64224089Y-52208131D01*
X64320949Y-52211683D01*
X64320953Y-52211683D01*
X64326113Y-52211872D01*
X64331233Y-52211216D01*
X64331235Y-52211216D01*
X64405166Y-52201745D01*
X64555847Y-52182442D01*
X64560795Y-52180957D01*
X64560802Y-52180956D01*
X64772747Y-52117369D01*
X64777690Y-52115886D01*
X64858236Y-52076427D01*
X64981049Y-52016262D01*
X64981052Y-52016260D01*
X64985684Y-52013991D01*
X65174243Y-51879494D01*
X65338303Y-51716005D01*
X65473458Y-51527917D01*
X65520641Y-51432450D01*
X65573784Y-51324922D01*
X65573785Y-51324920D01*
X65576078Y-51320280D01*
X65643408Y-51098671D01*
X65673640Y-50869041D01*
X65675327Y-50800000D01*
X65669032Y-50723434D01*
X65656773Y-50574318D01*
X65656772Y-50574312D01*
X65656349Y-50569167D01*
X65599925Y-50344533D01*
X65597164Y-50338182D01*
X65509630Y-50136868D01*
X65509628Y-50136865D01*
X65507570Y-50132131D01*
X65381764Y-49937665D01*
X65353704Y-49906827D01*
X65291848Y-49838848D01*
X65260796Y-49775002D01*
X65269192Y-49704504D01*
X65314369Y-49649736D01*
X65340812Y-49636067D01*
X65400297Y-49613767D01*
X65408705Y-49610615D01*
X65525261Y-49523261D01*
X65612615Y-49406705D01*
X65663745Y-49270316D01*
X65670500Y-49208134D01*
X65670500Y-48225469D01*
X86471095Y-48225469D01*
X86471392Y-48230622D01*
X86471392Y-48230625D01*
X86477067Y-48329041D01*
X86484427Y-48456697D01*
X86485564Y-48461743D01*
X86485565Y-48461749D01*
X86517741Y-48604523D01*
X86535346Y-48682642D01*
X86537288Y-48687424D01*
X86537289Y-48687428D01*
X86620540Y-48892450D01*
X86622484Y-48897237D01*
X86743501Y-49094719D01*
X86746882Y-49098622D01*
X86855304Y-49223788D01*
X86884786Y-49288373D01*
X86874671Y-49358646D01*
X86828170Y-49412294D01*
X86804296Y-49424267D01*
X86748515Y-49445179D01*
X86737295Y-49449385D01*
X86620739Y-49536739D01*
X86533385Y-49653295D01*
X86482255Y-49789684D01*
X86475500Y-49851866D01*
X86475500Y-51748134D01*
X86482255Y-51810316D01*
X86533385Y-51946705D01*
X86620739Y-52063261D01*
X86737295Y-52150615D01*
X86873684Y-52201745D01*
X86935866Y-52208500D01*
X88832134Y-52208500D01*
X88894316Y-52201745D01*
X89030705Y-52150615D01*
X89147261Y-52063261D01*
X89234615Y-51946705D01*
X89285745Y-51810316D01*
X89292500Y-51748134D01*
X89292500Y-49851866D01*
X89285745Y-49789684D01*
X89234615Y-49653295D01*
X89147261Y-49536739D01*
X89030705Y-49449385D01*
X89022296Y-49446233D01*
X89022295Y-49446232D01*
X88963804Y-49424305D01*
X88907039Y-49381664D01*
X88882339Y-49315103D01*
X88897546Y-49245754D01*
X88919093Y-49217073D01*
X88956636Y-49179660D01*
X88956640Y-49179655D01*
X88960303Y-49176005D01*
X89095458Y-48987917D01*
X89142641Y-48892450D01*
X89195784Y-48784922D01*
X89195785Y-48784920D01*
X89198078Y-48780280D01*
X89265408Y-48558671D01*
X89295640Y-48329041D01*
X89297327Y-48260000D01*
X89288926Y-48157821D01*
X102491500Y-48157821D01*
X102531060Y-48470975D01*
X102609557Y-48776702D01*
X102611010Y-48780371D01*
X102611010Y-48780372D01*
X102694846Y-48992116D01*
X102725753Y-49070179D01*
X102727659Y-49073647D01*
X102727660Y-49073648D01*
X102839848Y-49277715D01*
X102877816Y-49346779D01*
X103063346Y-49602140D01*
X103279418Y-49832233D01*
X103282469Y-49834757D01*
X103282470Y-49834758D01*
X103369586Y-49906827D01*
X103522625Y-50033432D01*
X103789131Y-50202562D01*
X103792710Y-50204246D01*
X103792717Y-50204250D01*
X104071144Y-50335267D01*
X104071148Y-50335269D01*
X104074734Y-50336956D01*
X104078506Y-50338182D01*
X104078507Y-50338182D01*
X104113476Y-50349544D01*
X104374928Y-50434495D01*
X104684980Y-50493641D01*
X104921162Y-50508500D01*
X105078838Y-50508500D01*
X105315020Y-50493641D01*
X105625072Y-50434495D01*
X105886524Y-50349544D01*
X105921493Y-50338182D01*
X105921494Y-50338182D01*
X105925266Y-50336956D01*
X105928852Y-50335269D01*
X105928856Y-50335267D01*
X106207283Y-50204250D01*
X106207290Y-50204246D01*
X106210869Y-50202562D01*
X106477375Y-50033432D01*
X106630414Y-49906827D01*
X106717530Y-49834758D01*
X106717531Y-49834757D01*
X106720582Y-49832233D01*
X106936654Y-49602140D01*
X107122184Y-49346779D01*
X107160153Y-49277715D01*
X107272340Y-49073648D01*
X107272341Y-49073647D01*
X107274247Y-49070179D01*
X107305155Y-48992116D01*
X107388990Y-48780372D01*
X107388990Y-48780371D01*
X107390443Y-48776702D01*
X107468940Y-48470975D01*
X107508500Y-48157821D01*
X107508500Y-47842179D01*
X107468940Y-47529025D01*
X107390443Y-47223298D01*
X107346890Y-47113295D01*
X107275702Y-46933495D01*
X107275700Y-46933490D01*
X107274247Y-46929821D01*
X107231392Y-46851869D01*
X107124093Y-46656693D01*
X107124091Y-46656690D01*
X107122184Y-46653221D01*
X106936654Y-46397860D01*
X106720582Y-46167767D01*
X106477375Y-45966568D01*
X106210869Y-45797438D01*
X106207290Y-45795754D01*
X106207283Y-45795750D01*
X105928856Y-45664733D01*
X105928852Y-45664731D01*
X105925266Y-45663044D01*
X105625072Y-45565505D01*
X105315020Y-45506359D01*
X105078838Y-45491500D01*
X104921162Y-45491500D01*
X104684980Y-45506359D01*
X104374928Y-45565505D01*
X104074734Y-45663044D01*
X104071148Y-45664731D01*
X104071144Y-45664733D01*
X103792717Y-45795750D01*
X103792710Y-45795754D01*
X103789131Y-45797438D01*
X103522625Y-45966568D01*
X103279418Y-46167767D01*
X103063346Y-46397860D01*
X102877816Y-46653221D01*
X102875909Y-46656690D01*
X102875907Y-46656693D01*
X102768608Y-46851869D01*
X102725753Y-46929821D01*
X102724300Y-46933490D01*
X102724298Y-46933495D01*
X102653110Y-47113295D01*
X102609557Y-47223298D01*
X102531060Y-47529025D01*
X102491500Y-47842179D01*
X102491500Y-48157821D01*
X89288926Y-48157821D01*
X89288601Y-48153862D01*
X89278773Y-48034318D01*
X89278772Y-48034312D01*
X89278349Y-48029167D01*
X89250137Y-47916850D01*
X89223184Y-47809544D01*
X89223183Y-47809540D01*
X89221925Y-47804533D01*
X89219866Y-47799797D01*
X89131630Y-47596868D01*
X89131628Y-47596865D01*
X89129570Y-47592131D01*
X89003764Y-47397665D01*
X88847887Y-47226358D01*
X88843836Y-47223159D01*
X88843832Y-47223155D01*
X88670177Y-47086011D01*
X88670172Y-47086008D01*
X88666123Y-47082810D01*
X88661607Y-47080317D01*
X88661604Y-47080315D01*
X88467879Y-46973373D01*
X88467875Y-46973371D01*
X88463355Y-46970876D01*
X88458486Y-46969152D01*
X88458482Y-46969150D01*
X88249903Y-46895288D01*
X88249899Y-46895287D01*
X88245028Y-46893562D01*
X88239935Y-46892655D01*
X88239932Y-46892654D01*
X88022095Y-46853851D01*
X88022089Y-46853850D01*
X88017006Y-46852945D01*
X87944096Y-46852054D01*
X87790581Y-46850179D01*
X87790579Y-46850179D01*
X87785411Y-46850116D01*
X87556464Y-46885150D01*
X87336314Y-46957106D01*
X87331726Y-46959494D01*
X87331722Y-46959496D01*
X87135461Y-47061663D01*
X87130872Y-47064052D01*
X87126739Y-47067155D01*
X87126736Y-47067157D01*
X87054088Y-47121703D01*
X86945655Y-47203117D01*
X86785639Y-47370564D01*
X86782725Y-47374836D01*
X86782724Y-47374837D01*
X86767152Y-47397665D01*
X86655119Y-47561899D01*
X86557602Y-47771981D01*
X86495707Y-47995169D01*
X86471095Y-48225469D01*
X65670500Y-48225469D01*
X65670500Y-47311866D01*
X65663745Y-47249684D01*
X65612615Y-47113295D01*
X65525261Y-46996739D01*
X65408705Y-46909385D01*
X65272316Y-46858255D01*
X65210134Y-46851500D01*
X63313866Y-46851500D01*
X63251684Y-46858255D01*
X63115295Y-46909385D01*
X62998739Y-46996739D01*
X62911385Y-47113295D01*
X62860255Y-47249684D01*
X62853500Y-47311866D01*
X62853500Y-49208134D01*
X62860255Y-49270316D01*
X62911385Y-49406705D01*
X62998739Y-49523261D01*
X63115295Y-49610615D01*
X63123704Y-49613767D01*
X63123705Y-49613768D01*
X63183164Y-49636058D01*
X63239929Y-49678699D01*
X63264629Y-49745261D01*
X63249422Y-49814609D01*
X63230029Y-49841091D01*
X63163639Y-49910564D01*
X63160725Y-49914836D01*
X63160724Y-49914837D01*
X63145152Y-49937665D01*
X63033119Y-50101899D01*
X62935602Y-50311981D01*
X62873707Y-50535169D01*
X62849095Y-50765469D01*
X25508500Y-50765469D01*
X25508500Y-48157821D01*
X41491500Y-48157821D01*
X41531060Y-48470975D01*
X41609557Y-48776702D01*
X41611010Y-48780371D01*
X41611010Y-48780372D01*
X41694846Y-48992116D01*
X41725753Y-49070179D01*
X41727659Y-49073647D01*
X41727660Y-49073648D01*
X41839848Y-49277715D01*
X41877816Y-49346779D01*
X42063346Y-49602140D01*
X42279418Y-49832233D01*
X42282469Y-49834757D01*
X42282470Y-49834758D01*
X42369586Y-49906827D01*
X42522625Y-50033432D01*
X42789131Y-50202562D01*
X42792710Y-50204246D01*
X42792717Y-50204250D01*
X43071144Y-50335267D01*
X43071148Y-50335269D01*
X43074734Y-50336956D01*
X43078506Y-50338182D01*
X43078507Y-50338182D01*
X43113476Y-50349544D01*
X43374928Y-50434495D01*
X43684980Y-50493641D01*
X43921162Y-50508500D01*
X44078838Y-50508500D01*
X44315020Y-50493641D01*
X44625072Y-50434495D01*
X44886524Y-50349544D01*
X44921493Y-50338182D01*
X44921494Y-50338182D01*
X44925266Y-50336956D01*
X44928852Y-50335269D01*
X44928856Y-50335267D01*
X45207283Y-50204250D01*
X45207290Y-50204246D01*
X45210869Y-50202562D01*
X45477375Y-50033432D01*
X45630414Y-49906827D01*
X45717530Y-49834758D01*
X45717531Y-49834757D01*
X45720582Y-49832233D01*
X45936654Y-49602140D01*
X46122184Y-49346779D01*
X46160153Y-49277715D01*
X46272340Y-49073648D01*
X46272341Y-49073647D01*
X46274247Y-49070179D01*
X46305155Y-48992116D01*
X46388990Y-48780372D01*
X46388990Y-48780371D01*
X46390443Y-48776702D01*
X46468940Y-48470975D01*
X46508500Y-48157821D01*
X46508500Y-47842179D01*
X46468940Y-47529025D01*
X46390443Y-47223298D01*
X46346890Y-47113295D01*
X46275702Y-46933495D01*
X46275700Y-46933490D01*
X46274247Y-46929821D01*
X46231392Y-46851869D01*
X46124093Y-46656693D01*
X46124091Y-46656690D01*
X46122184Y-46653221D01*
X45936654Y-46397860D01*
X45720582Y-46167767D01*
X45477375Y-45966568D01*
X45210869Y-45797438D01*
X45207290Y-45795754D01*
X45207283Y-45795750D01*
X44928856Y-45664733D01*
X44928852Y-45664731D01*
X44925266Y-45663044D01*
X44625072Y-45565505D01*
X44315020Y-45506359D01*
X44078838Y-45491500D01*
X43921162Y-45491500D01*
X43684980Y-45506359D01*
X43374928Y-45565505D01*
X43074734Y-45663044D01*
X43071148Y-45664731D01*
X43071144Y-45664733D01*
X42792717Y-45795750D01*
X42792710Y-45795754D01*
X42789131Y-45797438D01*
X42522625Y-45966568D01*
X42279418Y-46167767D01*
X42063346Y-46397860D01*
X41877816Y-46653221D01*
X41875909Y-46656690D01*
X41875907Y-46656693D01*
X41768608Y-46851869D01*
X41725753Y-46929821D01*
X41724300Y-46933490D01*
X41724298Y-46933495D01*
X41653110Y-47113295D01*
X41609557Y-47223298D01*
X41531060Y-47529025D01*
X41491500Y-47842179D01*
X41491500Y-48157821D01*
X25508500Y-48157821D01*
X25508500Y-30157821D01*
X27491500Y-30157821D01*
X27531060Y-30470975D01*
X27609557Y-30776702D01*
X27725753Y-31070179D01*
X27877816Y-31346779D01*
X28063346Y-31602140D01*
X28279418Y-31832233D01*
X28522625Y-32033432D01*
X28789131Y-32202562D01*
X28792710Y-32204246D01*
X28792717Y-32204250D01*
X29071144Y-32335267D01*
X29071148Y-32335269D01*
X29074734Y-32336956D01*
X29078506Y-32338182D01*
X29078507Y-32338182D01*
X29204287Y-32379050D01*
X29374928Y-32434495D01*
X29684980Y-32493641D01*
X29921162Y-32508500D01*
X30078838Y-32508500D01*
X30315020Y-32493641D01*
X30625072Y-32434495D01*
X30795713Y-32379050D01*
X30921493Y-32338182D01*
X30921494Y-32338182D01*
X30925266Y-32336956D01*
X30928852Y-32335269D01*
X30928856Y-32335267D01*
X31207283Y-32204250D01*
X31207290Y-32204246D01*
X31210869Y-32202562D01*
X31477375Y-32033432D01*
X31720582Y-31832233D01*
X31936654Y-31602140D01*
X32122184Y-31346779D01*
X32274247Y-31070179D01*
X32390443Y-30776702D01*
X32468940Y-30470975D01*
X32508500Y-30157821D01*
X32508500Y-29842179D01*
X32468940Y-29529025D01*
X32390443Y-29223298D01*
X32274247Y-28929821D01*
X32233222Y-28855197D01*
X32124093Y-28656693D01*
X32124091Y-28656690D01*
X32122184Y-28653221D01*
X32102021Y-28625469D01*
X52787095Y-28625469D01*
X52787392Y-28630622D01*
X52787392Y-28630625D01*
X52793067Y-28729041D01*
X52800427Y-28856697D01*
X52801564Y-28861743D01*
X52801565Y-28861749D01*
X52833741Y-29004523D01*
X52851346Y-29082642D01*
X52853288Y-29087424D01*
X52853289Y-29087428D01*
X52906970Y-29219628D01*
X52938484Y-29297237D01*
X53059501Y-29494719D01*
X53062882Y-29498622D01*
X53171304Y-29623788D01*
X53200786Y-29688373D01*
X53190671Y-29758646D01*
X53144170Y-29812294D01*
X53120296Y-29824267D01*
X53072517Y-29842179D01*
X53053295Y-29849385D01*
X52936739Y-29936739D01*
X52849385Y-30053295D01*
X52798255Y-30189684D01*
X52791500Y-30251866D01*
X52791500Y-32148134D01*
X52798255Y-32210316D01*
X52849385Y-32346705D01*
X52936739Y-32463261D01*
X53053295Y-32550615D01*
X53189684Y-32601745D01*
X53251866Y-32608500D01*
X55148134Y-32608500D01*
X55210316Y-32601745D01*
X55346705Y-32550615D01*
X55463261Y-32463261D01*
X55550615Y-32346705D01*
X55601745Y-32210316D01*
X55608500Y-32148134D01*
X55608500Y-30251866D01*
X55601745Y-30189684D01*
X55550615Y-30053295D01*
X55463261Y-29936739D01*
X55346705Y-29849385D01*
X55338296Y-29846233D01*
X55338295Y-29846232D01*
X55279804Y-29824305D01*
X55223039Y-29781664D01*
X55198339Y-29715103D01*
X55213546Y-29645754D01*
X55235093Y-29617073D01*
X55272636Y-29579660D01*
X55272640Y-29579655D01*
X55276303Y-29576005D01*
X55411458Y-29387917D01*
X55458641Y-29292450D01*
X55511784Y-29184922D01*
X55511785Y-29184920D01*
X55514078Y-29180280D01*
X55541365Y-29090469D01*
X95495095Y-29090469D01*
X95495392Y-29095622D01*
X95495392Y-29095625D01*
X95502974Y-29227119D01*
X95508427Y-29321697D01*
X95509564Y-29326743D01*
X95509565Y-29326749D01*
X95541741Y-29469523D01*
X95559346Y-29547642D01*
X95561288Y-29552424D01*
X95561289Y-29552428D01*
X95616491Y-29688373D01*
X95646484Y-29762237D01*
X95767501Y-29959719D01*
X95770882Y-29963622D01*
X95879304Y-30088788D01*
X95908786Y-30153373D01*
X95898671Y-30223646D01*
X95852170Y-30277294D01*
X95828296Y-30289267D01*
X95772515Y-30310179D01*
X95761295Y-30314385D01*
X95644739Y-30401739D01*
X95557385Y-30518295D01*
X95506255Y-30654684D01*
X95499500Y-30716866D01*
X95499500Y-32613134D01*
X95506255Y-32675316D01*
X95557385Y-32811705D01*
X95644739Y-32928261D01*
X95761295Y-33015615D01*
X95897684Y-33066745D01*
X95959866Y-33073500D01*
X97856134Y-33073500D01*
X97918316Y-33066745D01*
X98054705Y-33015615D01*
X98171261Y-32928261D01*
X98258615Y-32811705D01*
X98309745Y-32675316D01*
X98316500Y-32613134D01*
X98316500Y-30716866D01*
X98309745Y-30654684D01*
X98258615Y-30518295D01*
X98171261Y-30401739D01*
X98054705Y-30314385D01*
X98046296Y-30311233D01*
X98046295Y-30311232D01*
X97987804Y-30289305D01*
X97931039Y-30246664D01*
X97906339Y-30180103D01*
X97911225Y-30157821D01*
X118491500Y-30157821D01*
X118531060Y-30470975D01*
X118609557Y-30776702D01*
X118725753Y-31070179D01*
X118877816Y-31346779D01*
X119063346Y-31602140D01*
X119279418Y-31832233D01*
X119522625Y-32033432D01*
X119789131Y-32202562D01*
X119792710Y-32204246D01*
X119792717Y-32204250D01*
X120071144Y-32335267D01*
X120071148Y-32335269D01*
X120074734Y-32336956D01*
X120078506Y-32338182D01*
X120078507Y-32338182D01*
X120204287Y-32379050D01*
X120374928Y-32434495D01*
X120684980Y-32493641D01*
X120921162Y-32508500D01*
X121078838Y-32508500D01*
X121315020Y-32493641D01*
X121625072Y-32434495D01*
X121795713Y-32379050D01*
X121921493Y-32338182D01*
X121921494Y-32338182D01*
X121925266Y-32336956D01*
X121928852Y-32335269D01*
X121928856Y-32335267D01*
X122207283Y-32204250D01*
X122207290Y-32204246D01*
X122210869Y-32202562D01*
X122477375Y-32033432D01*
X122720582Y-31832233D01*
X122936654Y-31602140D01*
X123122184Y-31346779D01*
X123274247Y-31070179D01*
X123390443Y-30776702D01*
X123468940Y-30470975D01*
X123508500Y-30157821D01*
X123508500Y-29842179D01*
X123468940Y-29529025D01*
X123390443Y-29223298D01*
X123274247Y-28929821D01*
X123233222Y-28855197D01*
X123124093Y-28656693D01*
X123124091Y-28656690D01*
X123122184Y-28653221D01*
X122936654Y-28397860D01*
X122720582Y-28167767D01*
X122477375Y-27966568D01*
X122210869Y-27797438D01*
X122207290Y-27795754D01*
X122207283Y-27795750D01*
X121928856Y-27664733D01*
X121928852Y-27664731D01*
X121925266Y-27663044D01*
X121625072Y-27565505D01*
X121315020Y-27506359D01*
X121078838Y-27491500D01*
X120921162Y-27491500D01*
X120684980Y-27506359D01*
X120374928Y-27565505D01*
X120074734Y-27663044D01*
X120071148Y-27664731D01*
X120071144Y-27664733D01*
X119792717Y-27795750D01*
X119792710Y-27795754D01*
X119789131Y-27797438D01*
X119522625Y-27966568D01*
X119279418Y-28167767D01*
X119063346Y-28397860D01*
X118877816Y-28653221D01*
X118875909Y-28656690D01*
X118875907Y-28656693D01*
X118766778Y-28855197D01*
X118725753Y-28929821D01*
X118609557Y-29223298D01*
X118531060Y-29529025D01*
X118491500Y-29842179D01*
X118491500Y-30157821D01*
X97911225Y-30157821D01*
X97921546Y-30110754D01*
X97943093Y-30082073D01*
X97980636Y-30044660D01*
X97980640Y-30044655D01*
X97984303Y-30041005D01*
X98119458Y-29852917D01*
X98122762Y-29846233D01*
X98219784Y-29649922D01*
X98219785Y-29649920D01*
X98222078Y-29645280D01*
X98289408Y-29423671D01*
X98319640Y-29194041D01*
X98321327Y-29125000D01*
X98308059Y-28963617D01*
X98302773Y-28899318D01*
X98302772Y-28899312D01*
X98302349Y-28894167D01*
X98245925Y-28669533D01*
X98240322Y-28656646D01*
X98155630Y-28461868D01*
X98155628Y-28461865D01*
X98153570Y-28457131D01*
X98027764Y-28262665D01*
X97871887Y-28091358D01*
X97867836Y-28088159D01*
X97867832Y-28088155D01*
X97694177Y-27951011D01*
X97694172Y-27951008D01*
X97690123Y-27947810D01*
X97685607Y-27945317D01*
X97685604Y-27945315D01*
X97491879Y-27838373D01*
X97491875Y-27838371D01*
X97487355Y-27835876D01*
X97482486Y-27834152D01*
X97482482Y-27834150D01*
X97273903Y-27760288D01*
X97273899Y-27760287D01*
X97269028Y-27758562D01*
X97263935Y-27757655D01*
X97263932Y-27757654D01*
X97046095Y-27718851D01*
X97046089Y-27718850D01*
X97041006Y-27717945D01*
X96968096Y-27717054D01*
X96814581Y-27715179D01*
X96814579Y-27715179D01*
X96809411Y-27715116D01*
X96580464Y-27750150D01*
X96360314Y-27822106D01*
X96355726Y-27824494D01*
X96355722Y-27824496D01*
X96329065Y-27838373D01*
X96154872Y-27929052D01*
X96150739Y-27932155D01*
X96150736Y-27932157D01*
X95973790Y-28065012D01*
X95969655Y-28068117D01*
X95809639Y-28235564D01*
X95806725Y-28239836D01*
X95806724Y-28239837D01*
X95791152Y-28262665D01*
X95679119Y-28426899D01*
X95581602Y-28636981D01*
X95519707Y-28860169D01*
X95495095Y-29090469D01*
X55541365Y-29090469D01*
X55581408Y-28958671D01*
X55611640Y-28729041D01*
X55613327Y-28660000D01*
X55596648Y-28457131D01*
X55594773Y-28434318D01*
X55594772Y-28434312D01*
X55594349Y-28429167D01*
X55552527Y-28262665D01*
X55539184Y-28209544D01*
X55539183Y-28209540D01*
X55537925Y-28204533D01*
X55535866Y-28199797D01*
X55447630Y-27996868D01*
X55447628Y-27996865D01*
X55445570Y-27992131D01*
X55319764Y-27797665D01*
X55163887Y-27626358D01*
X55159836Y-27623159D01*
X55159832Y-27623155D01*
X54986177Y-27486011D01*
X54986172Y-27486008D01*
X54982123Y-27482810D01*
X54977607Y-27480317D01*
X54977604Y-27480315D01*
X54783879Y-27373373D01*
X54783875Y-27373371D01*
X54779355Y-27370876D01*
X54774486Y-27369152D01*
X54774482Y-27369150D01*
X54565903Y-27295288D01*
X54565899Y-27295287D01*
X54561028Y-27293562D01*
X54555935Y-27292655D01*
X54555932Y-27292654D01*
X54338095Y-27253851D01*
X54338089Y-27253850D01*
X54333006Y-27252945D01*
X54260096Y-27252054D01*
X54106581Y-27250179D01*
X54106579Y-27250179D01*
X54101411Y-27250116D01*
X53872464Y-27285150D01*
X53652314Y-27357106D01*
X53647726Y-27359494D01*
X53647722Y-27359496D01*
X53621065Y-27373373D01*
X53446872Y-27464052D01*
X53442739Y-27467155D01*
X53442736Y-27467157D01*
X53312740Y-27564761D01*
X53261655Y-27603117D01*
X53101639Y-27770564D01*
X53098725Y-27774836D01*
X53098724Y-27774837D01*
X53057086Y-27835876D01*
X52971119Y-27961899D01*
X52873602Y-28171981D01*
X52811707Y-28395169D01*
X52787095Y-28625469D01*
X32102021Y-28625469D01*
X31936654Y-28397860D01*
X31720582Y-28167767D01*
X31477375Y-27966568D01*
X31210869Y-27797438D01*
X31207290Y-27795754D01*
X31207283Y-27795750D01*
X30928856Y-27664733D01*
X30928852Y-27664731D01*
X30925266Y-27663044D01*
X30625072Y-27565505D01*
X30315020Y-27506359D01*
X30078838Y-27491500D01*
X29921162Y-27491500D01*
X29684980Y-27506359D01*
X29374928Y-27565505D01*
X29074734Y-27663044D01*
X29071148Y-27664731D01*
X29071144Y-27664733D01*
X28792717Y-27795750D01*
X28792710Y-27795754D01*
X28789131Y-27797438D01*
X28522625Y-27966568D01*
X28279418Y-28167767D01*
X28063346Y-28397860D01*
X27877816Y-28653221D01*
X27875909Y-28656690D01*
X27875907Y-28656693D01*
X27766778Y-28855197D01*
X27725753Y-28929821D01*
X27609557Y-29223298D01*
X27531060Y-29529025D01*
X27491500Y-29842179D01*
X27491500Y-30157821D01*
X25508500Y-30157821D01*
X25508500Y-25634500D01*
X25528502Y-25566379D01*
X25582158Y-25519886D01*
X25634500Y-25508500D01*
X124365500Y-25508500D01*
X124433621Y-25528502D01*
G37*
%TD.AperFunction*%
%TD*%
M02*
