%TF.GenerationSoftware,KiCad,Pcbnew,(6.0.11)*%
%TF.CreationDate,2023-06-08T13:50:34-05:00*%
%TF.ProjectId,LEDpanel,4c454470-616e-4656-9c2e-6b696361645f,rev?*%
%TF.SameCoordinates,Original*%
%TF.FileFunction,Legend,Bot*%
%TF.FilePolarity,Positive*%
%FSLAX46Y46*%
G04 Gerber Fmt 4.6, Leading zero omitted, Abs format (unit mm)*
G04 Created by KiCad (PCBNEW (6.0.11)) date 2023-06-08 13:50:34*
%MOMM*%
%LPD*%
G01*
G04 APERTURE LIST*
G04 Aperture macros list*
%AMRoundRect*
0 Rectangle with rounded corners*
0 $1 Rounding radius*
0 $2 $3 $4 $5 $6 $7 $8 $9 X,Y pos of 4 corners*
0 Add a 4 corners polygon primitive as box body*
4,1,4,$2,$3,$4,$5,$6,$7,$8,$9,$2,$3,0*
0 Add four circle primitives for the rounded corners*
1,1,$1+$1,$2,$3*
1,1,$1+$1,$4,$5*
1,1,$1+$1,$6,$7*
1,1,$1+$1,$8,$9*
0 Add four rect primitives between the rounded corners*
20,1,$1+$1,$2,$3,$4,$5,0*
20,1,$1+$1,$4,$5,$6,$7,0*
20,1,$1+$1,$6,$7,$8,$9,0*
20,1,$1+$1,$8,$9,$2,$3,0*%
G04 Aperture macros list end*
%ADD10C,0.150000*%
%ADD11C,0.120000*%
%ADD12R,1.800000X1.800000*%
%ADD13C,1.800000*%
%ADD14R,3.500000X3.500000*%
%ADD15RoundRect,0.750000X1.000000X-0.750000X1.000000X0.750000X-1.000000X0.750000X-1.000000X-0.750000X0*%
%ADD16RoundRect,0.875000X0.875000X-0.875000X0.875000X0.875000X-0.875000X0.875000X-0.875000X-0.875000X0*%
%ADD17C,3.200000*%
%ADD18C,4.000000*%
%ADD19R,2.600000X2.600000*%
%ADD20C,2.600000*%
%ADD21C,1.600000*%
%ADD22O,1.600000X1.600000*%
G04 APERTURE END LIST*
D10*
X114300000Y-124460000D02*
X114300000Y-40000000D01*
X37500000Y-40000000D02*
X114300000Y-40000000D01*
X37500000Y-40000000D02*
X37500000Y-123930000D01*
X99500000Y-125000000D02*
X99500000Y-59000000D01*
X52500000Y-59000000D02*
X99500000Y-59000000D01*
X52500000Y-59000000D02*
X52500000Y-125028000D01*
X90904761Y-76537380D02*
X90333333Y-76537380D01*
X90619047Y-77537380D02*
X90619047Y-76537380D01*
X90000000Y-77537380D02*
X90000000Y-76537380D01*
X90000000Y-77013571D02*
X89428571Y-77013571D01*
X89428571Y-77537380D02*
X89428571Y-76537380D01*
X88380952Y-77537380D02*
X88714285Y-77061190D01*
X88952380Y-77537380D02*
X88952380Y-76537380D01*
X88571428Y-76537380D01*
X88476190Y-76585000D01*
X88428571Y-76632619D01*
X88380952Y-76727857D01*
X88380952Y-76870714D01*
X88428571Y-76965952D01*
X88476190Y-77013571D01*
X88571428Y-77061190D01*
X88952380Y-77061190D01*
X87761904Y-76537380D02*
X87571428Y-76537380D01*
X87476190Y-76585000D01*
X87380952Y-76680238D01*
X87333333Y-76870714D01*
X87333333Y-77204047D01*
X87380952Y-77394523D01*
X87476190Y-77489761D01*
X87571428Y-77537380D01*
X87761904Y-77537380D01*
X87857142Y-77489761D01*
X87952380Y-77394523D01*
X88000000Y-77204047D01*
X88000000Y-76870714D01*
X87952380Y-76680238D01*
X87857142Y-76585000D01*
X87761904Y-76537380D01*
X86904761Y-76537380D02*
X86904761Y-77346904D01*
X86857142Y-77442142D01*
X86809523Y-77489761D01*
X86714285Y-77537380D01*
X86523809Y-77537380D01*
X86428571Y-77489761D01*
X86380952Y-77442142D01*
X86333333Y-77346904D01*
X86333333Y-76537380D01*
X85333333Y-76585000D02*
X85428571Y-76537380D01*
X85571428Y-76537380D01*
X85714285Y-76585000D01*
X85809523Y-76680238D01*
X85857142Y-76775476D01*
X85904761Y-76965952D01*
X85904761Y-77108809D01*
X85857142Y-77299285D01*
X85809523Y-77394523D01*
X85714285Y-77489761D01*
X85571428Y-77537380D01*
X85476190Y-77537380D01*
X85333333Y-77489761D01*
X85285714Y-77442142D01*
X85285714Y-77108809D01*
X85476190Y-77108809D01*
X84857142Y-77537380D02*
X84857142Y-76537380D01*
X84857142Y-77013571D02*
X84285714Y-77013571D01*
X84285714Y-77537380D02*
X84285714Y-76537380D01*
X83809523Y-77156428D02*
X83047619Y-77156428D01*
X82571428Y-77537380D02*
X82571428Y-76537380D01*
X82571428Y-77013571D02*
X82000000Y-77013571D01*
X82000000Y-77537380D02*
X82000000Y-76537380D01*
X81333333Y-76537380D02*
X81142857Y-76537380D01*
X81047619Y-76585000D01*
X80952380Y-76680238D01*
X80904761Y-76870714D01*
X80904761Y-77204047D01*
X80952380Y-77394523D01*
X81047619Y-77489761D01*
X81142857Y-77537380D01*
X81333333Y-77537380D01*
X81428571Y-77489761D01*
X81523809Y-77394523D01*
X81571428Y-77204047D01*
X81571428Y-76870714D01*
X81523809Y-76680238D01*
X81428571Y-76585000D01*
X81333333Y-76537380D01*
X80000000Y-77537380D02*
X80476190Y-77537380D01*
X80476190Y-76537380D01*
X79666666Y-77013571D02*
X79333333Y-77013571D01*
X79190476Y-77537380D02*
X79666666Y-77537380D01*
X79666666Y-76537380D01*
X79190476Y-76537380D01*
X77523809Y-77537380D02*
X78000000Y-77537380D01*
X78000000Y-76537380D01*
X77190476Y-77013571D02*
X76857142Y-77013571D01*
X76714285Y-77537380D02*
X77190476Y-77537380D01*
X77190476Y-76537380D01*
X76714285Y-76537380D01*
X76285714Y-77537380D02*
X76285714Y-76537380D01*
X76047619Y-76537380D01*
X75904761Y-76585000D01*
X75809523Y-76680238D01*
X75761904Y-76775476D01*
X75714285Y-76965952D01*
X75714285Y-77108809D01*
X75761904Y-77299285D01*
X75809523Y-77394523D01*
X75904761Y-77489761D01*
X76047619Y-77537380D01*
X76285714Y-77537380D01*
X75333333Y-77489761D02*
X75190476Y-77537380D01*
X74952380Y-77537380D01*
X74857142Y-77489761D01*
X74809523Y-77442142D01*
X74761904Y-77346904D01*
X74761904Y-77251666D01*
X74809523Y-77156428D01*
X74857142Y-77108809D01*
X74952380Y-77061190D01*
X75142857Y-77013571D01*
X75238095Y-76965952D01*
X75285714Y-76918333D01*
X75333333Y-76823095D01*
X75333333Y-76727857D01*
X75285714Y-76632619D01*
X75238095Y-76585000D01*
X75142857Y-76537380D01*
X74904761Y-76537380D01*
X74761904Y-76585000D01*
X74333333Y-77442142D02*
X74285714Y-77489761D01*
X74333333Y-77537380D01*
X74380952Y-77489761D01*
X74333333Y-77442142D01*
X74333333Y-77537380D01*
X74333333Y-76918333D02*
X74285714Y-76965952D01*
X74333333Y-77013571D01*
X74380952Y-76965952D01*
X74333333Y-76918333D01*
X74333333Y-77013571D01*
X72619047Y-77537380D02*
X73095238Y-77537380D01*
X73095238Y-76537380D01*
X72095238Y-76537380D02*
X71904761Y-76537380D01*
X71809523Y-76585000D01*
X71714285Y-76680238D01*
X71666666Y-76870714D01*
X71666666Y-77204047D01*
X71714285Y-77394523D01*
X71809523Y-77489761D01*
X71904761Y-77537380D01*
X72095238Y-77537380D01*
X72190476Y-77489761D01*
X72285714Y-77394523D01*
X72333333Y-77204047D01*
X72333333Y-76870714D01*
X72285714Y-76680238D01*
X72190476Y-76585000D01*
X72095238Y-76537380D01*
X71238095Y-77537380D02*
X71238095Y-76537380D01*
X70666666Y-77537380D01*
X70666666Y-76537380D01*
X69666666Y-76585000D02*
X69761904Y-76537380D01*
X69904761Y-76537380D01*
X70047619Y-76585000D01*
X70142857Y-76680238D01*
X70190476Y-76775476D01*
X70238095Y-76965952D01*
X70238095Y-77108809D01*
X70190476Y-77299285D01*
X70142857Y-77394523D01*
X70047619Y-77489761D01*
X69904761Y-77537380D01*
X69809523Y-77537380D01*
X69666666Y-77489761D01*
X69619047Y-77442142D01*
X69619047Y-77108809D01*
X69809523Y-77108809D01*
X67952380Y-77537380D02*
X68428571Y-77537380D01*
X68428571Y-76537380D01*
X67619047Y-77013571D02*
X67285714Y-77013571D01*
X67142857Y-77537380D02*
X67619047Y-77537380D01*
X67619047Y-76537380D01*
X67142857Y-76537380D01*
X66761904Y-77251666D02*
X66285714Y-77251666D01*
X66857142Y-77537380D02*
X66523809Y-76537380D01*
X66190476Y-77537380D01*
X65857142Y-77537380D02*
X65857142Y-76537380D01*
X65619047Y-76537380D01*
X65476190Y-76585000D01*
X65380952Y-76680238D01*
X65333333Y-76775476D01*
X65285714Y-76965952D01*
X65285714Y-77108809D01*
X65333333Y-77299285D01*
X65380952Y-77394523D01*
X65476190Y-77489761D01*
X65619047Y-77537380D01*
X65857142Y-77537380D01*
X64095238Y-77537380D02*
X64095238Y-76537380D01*
X63619047Y-77537380D02*
X63619047Y-76537380D01*
X63047619Y-77537380D01*
X63047619Y-76537380D01*
X62714285Y-76537380D02*
X62142857Y-76537380D01*
X62428571Y-77537380D02*
X62428571Y-76537380D01*
X61619047Y-76537380D02*
X61428571Y-76537380D01*
X61333333Y-76585000D01*
X61238095Y-76680238D01*
X61190476Y-76870714D01*
X61190476Y-77204047D01*
X61238095Y-77394523D01*
X61333333Y-77489761D01*
X61428571Y-77537380D01*
X61619047Y-77537380D01*
X61714285Y-77489761D01*
X61809523Y-77394523D01*
X61857142Y-77204047D01*
X61857142Y-76870714D01*
X61809523Y-76680238D01*
X61714285Y-76585000D01*
X61619047Y-76537380D01*
X90809523Y-79147380D02*
X91142857Y-78671190D01*
X91380952Y-79147380D02*
X91380952Y-78147380D01*
X91000000Y-78147380D01*
X90904761Y-78195000D01*
X90857142Y-78242619D01*
X90809523Y-78337857D01*
X90809523Y-78480714D01*
X90857142Y-78575952D01*
X90904761Y-78623571D01*
X91000000Y-78671190D01*
X91380952Y-78671190D01*
X90190476Y-78147380D02*
X90000000Y-78147380D01*
X89904761Y-78195000D01*
X89809523Y-78290238D01*
X89761904Y-78480714D01*
X89761904Y-78814047D01*
X89809523Y-79004523D01*
X89904761Y-79099761D01*
X90000000Y-79147380D01*
X90190476Y-79147380D01*
X90285714Y-79099761D01*
X90380952Y-79004523D01*
X90428571Y-78814047D01*
X90428571Y-78480714D01*
X90380952Y-78290238D01*
X90285714Y-78195000D01*
X90190476Y-78147380D01*
X89333333Y-78147380D02*
X89333333Y-78956904D01*
X89285714Y-79052142D01*
X89238095Y-79099761D01*
X89142857Y-79147380D01*
X88952380Y-79147380D01*
X88857142Y-79099761D01*
X88809523Y-79052142D01*
X88761904Y-78956904D01*
X88761904Y-78147380D01*
X88285714Y-79147380D02*
X88285714Y-78147380D01*
X87714285Y-79147380D01*
X87714285Y-78147380D01*
X87238095Y-79147380D02*
X87238095Y-78147380D01*
X87000000Y-78147380D01*
X86857142Y-78195000D01*
X86761904Y-78290238D01*
X86714285Y-78385476D01*
X86666666Y-78575952D01*
X86666666Y-78718809D01*
X86714285Y-78909285D01*
X86761904Y-79004523D01*
X86857142Y-79099761D01*
X87000000Y-79147380D01*
X87238095Y-79147380D01*
X85476190Y-79147380D02*
X85476190Y-78147380D01*
X85476190Y-78623571D02*
X84904761Y-78623571D01*
X84904761Y-79147380D02*
X84904761Y-78147380D01*
X84238095Y-78147380D02*
X84047619Y-78147380D01*
X83952380Y-78195000D01*
X83857142Y-78290238D01*
X83809523Y-78480714D01*
X83809523Y-78814047D01*
X83857142Y-79004523D01*
X83952380Y-79099761D01*
X84047619Y-79147380D01*
X84238095Y-79147380D01*
X84333333Y-79099761D01*
X84428571Y-79004523D01*
X84476190Y-78814047D01*
X84476190Y-78480714D01*
X84428571Y-78290238D01*
X84333333Y-78195000D01*
X84238095Y-78147380D01*
X82904761Y-79147380D02*
X83380952Y-79147380D01*
X83380952Y-78147380D01*
X82571428Y-78623571D02*
X82238095Y-78623571D01*
X82095238Y-79147380D02*
X82571428Y-79147380D01*
X82571428Y-78147380D01*
X82095238Y-78147380D01*
X81619047Y-79099761D02*
X81619047Y-79147380D01*
X81666666Y-79242619D01*
X81714285Y-79290238D01*
X80476190Y-79099761D02*
X80333333Y-79147380D01*
X80095238Y-79147380D01*
X80000000Y-79099761D01*
X79952380Y-79052142D01*
X79904761Y-78956904D01*
X79904761Y-78861666D01*
X79952380Y-78766428D01*
X80000000Y-78718809D01*
X80095238Y-78671190D01*
X80285714Y-78623571D01*
X80380952Y-78575952D01*
X80428571Y-78528333D01*
X80476190Y-78433095D01*
X80476190Y-78337857D01*
X80428571Y-78242619D01*
X80380952Y-78195000D01*
X80285714Y-78147380D01*
X80047619Y-78147380D01*
X79904761Y-78195000D01*
X79476190Y-79147380D02*
X79476190Y-78147380D01*
X79476190Y-78623571D02*
X78904761Y-78623571D01*
X78904761Y-79147380D02*
X78904761Y-78147380D01*
X78238095Y-78147380D02*
X78047619Y-78147380D01*
X77952380Y-78195000D01*
X77857142Y-78290238D01*
X77809523Y-78480714D01*
X77809523Y-78814047D01*
X77857142Y-79004523D01*
X77952380Y-79099761D01*
X78047619Y-79147380D01*
X78238095Y-79147380D01*
X78333333Y-79099761D01*
X78428571Y-79004523D01*
X78476190Y-78814047D01*
X78476190Y-78480714D01*
X78428571Y-78290238D01*
X78333333Y-78195000D01*
X78238095Y-78147380D01*
X76809523Y-79147380D02*
X77142857Y-78671190D01*
X77380952Y-79147380D02*
X77380952Y-78147380D01*
X77000000Y-78147380D01*
X76904761Y-78195000D01*
X76857142Y-78242619D01*
X76809523Y-78337857D01*
X76809523Y-78480714D01*
X76857142Y-78575952D01*
X76904761Y-78623571D01*
X77000000Y-78671190D01*
X77380952Y-78671190D01*
X76523809Y-78147380D02*
X75952380Y-78147380D01*
X76238095Y-79147380D02*
X76238095Y-78147380D01*
X74380952Y-79147380D02*
X74857142Y-79147380D01*
X74857142Y-78147380D01*
X74047619Y-78623571D02*
X73714285Y-78623571D01*
X73571428Y-79147380D02*
X74047619Y-79147380D01*
X74047619Y-78147380D01*
X73571428Y-78147380D01*
X73190476Y-78861666D02*
X72714285Y-78861666D01*
X73285714Y-79147380D02*
X72952380Y-78147380D01*
X72619047Y-79147380D01*
X72285714Y-79147380D02*
X72285714Y-78147380D01*
X72047619Y-78147380D01*
X71904761Y-78195000D01*
X71809523Y-78290238D01*
X71761904Y-78385476D01*
X71714285Y-78575952D01*
X71714285Y-78718809D01*
X71761904Y-78909285D01*
X71809523Y-79004523D01*
X71904761Y-79099761D01*
X72047619Y-79147380D01*
X72285714Y-79147380D01*
X70571428Y-79099761D02*
X70428571Y-79147380D01*
X70190476Y-79147380D01*
X70095238Y-79099761D01*
X70047619Y-79052142D01*
X70000000Y-78956904D01*
X70000000Y-78861666D01*
X70047619Y-78766428D01*
X70095238Y-78718809D01*
X70190476Y-78671190D01*
X70380952Y-78623571D01*
X70476190Y-78575952D01*
X70523809Y-78528333D01*
X70571428Y-78433095D01*
X70571428Y-78337857D01*
X70523809Y-78242619D01*
X70476190Y-78195000D01*
X70380952Y-78147380D01*
X70142857Y-78147380D01*
X70000000Y-78195000D01*
X68904761Y-79242619D02*
X69000000Y-79195000D01*
X69095238Y-79099761D01*
X69238095Y-78956904D01*
X69333333Y-78909285D01*
X69428571Y-78909285D01*
X69380952Y-79147380D02*
X69476190Y-79099761D01*
X69571428Y-79004523D01*
X69619047Y-78814047D01*
X69619047Y-78480714D01*
X69571428Y-78290238D01*
X69476190Y-78195000D01*
X69380952Y-78147380D01*
X69190476Y-78147380D01*
X69095238Y-78195000D01*
X69000000Y-78290238D01*
X68952380Y-78480714D01*
X68952380Y-78814047D01*
X69000000Y-79004523D01*
X69095238Y-79099761D01*
X69190476Y-79147380D01*
X69380952Y-79147380D01*
X68523809Y-78147380D02*
X68523809Y-78956904D01*
X68476190Y-79052142D01*
X68428571Y-79099761D01*
X68333333Y-79147380D01*
X68142857Y-79147380D01*
X68047619Y-79099761D01*
X68000000Y-79052142D01*
X67952380Y-78956904D01*
X67952380Y-78147380D01*
X67523809Y-78861666D02*
X67047619Y-78861666D01*
X67619047Y-79147380D02*
X67285714Y-78147380D01*
X66952380Y-79147380D01*
X66047619Y-79147380D02*
X66380952Y-78671190D01*
X66619047Y-79147380D02*
X66619047Y-78147380D01*
X66238095Y-78147380D01*
X66142857Y-78195000D01*
X66095238Y-78242619D01*
X66047619Y-78337857D01*
X66047619Y-78480714D01*
X66095238Y-78575952D01*
X66142857Y-78623571D01*
X66238095Y-78671190D01*
X66619047Y-78671190D01*
X65619047Y-78623571D02*
X65285714Y-78623571D01*
X65142857Y-79147380D02*
X65619047Y-79147380D01*
X65619047Y-78147380D01*
X65142857Y-78147380D01*
X63952380Y-79147380D02*
X63952380Y-78147380D01*
X63952380Y-78623571D02*
X63380952Y-78623571D01*
X63380952Y-79147380D02*
X63380952Y-78147380D01*
X62714285Y-78147380D02*
X62523809Y-78147380D01*
X62428571Y-78195000D01*
X62333333Y-78290238D01*
X62285714Y-78480714D01*
X62285714Y-78814047D01*
X62333333Y-79004523D01*
X62428571Y-79099761D01*
X62523809Y-79147380D01*
X62714285Y-79147380D01*
X62809523Y-79099761D01*
X62904761Y-79004523D01*
X62952380Y-78814047D01*
X62952380Y-78480714D01*
X62904761Y-78290238D01*
X62809523Y-78195000D01*
X62714285Y-78147380D01*
X61380952Y-79147380D02*
X61857142Y-79147380D01*
X61857142Y-78147380D01*
X61047619Y-78623571D02*
X60714285Y-78623571D01*
X60571428Y-79147380D02*
X61047619Y-79147380D01*
X61047619Y-78147380D01*
X60571428Y-78147380D01*
X88619047Y-80709761D02*
X88476190Y-80757380D01*
X88238095Y-80757380D01*
X88142857Y-80709761D01*
X88095238Y-80662142D01*
X88047619Y-80566904D01*
X88047619Y-80471666D01*
X88095238Y-80376428D01*
X88142857Y-80328809D01*
X88238095Y-80281190D01*
X88428571Y-80233571D01*
X88523809Y-80185952D01*
X88571428Y-80138333D01*
X88619047Y-80043095D01*
X88619047Y-79947857D01*
X88571428Y-79852619D01*
X88523809Y-79805000D01*
X88428571Y-79757380D01*
X88190476Y-79757380D01*
X88047619Y-79805000D01*
X87619047Y-79757380D02*
X87619047Y-80566904D01*
X87571428Y-80662142D01*
X87523809Y-80709761D01*
X87428571Y-80757380D01*
X87238095Y-80757380D01*
X87142857Y-80709761D01*
X87095238Y-80662142D01*
X87047619Y-80566904D01*
X87047619Y-79757380D01*
X86000000Y-80757380D02*
X86333333Y-80281190D01*
X86571428Y-80757380D02*
X86571428Y-79757380D01*
X86190476Y-79757380D01*
X86095238Y-79805000D01*
X86047619Y-79852619D01*
X86000000Y-79947857D01*
X86000000Y-80090714D01*
X86047619Y-80185952D01*
X86095238Y-80233571D01*
X86190476Y-80281190D01*
X86571428Y-80281190D01*
X85238095Y-80233571D02*
X85571428Y-80233571D01*
X85571428Y-80757380D02*
X85571428Y-79757380D01*
X85095238Y-79757380D01*
X84761904Y-80471666D02*
X84285714Y-80471666D01*
X84857142Y-80757380D02*
X84523809Y-79757380D01*
X84190476Y-80757380D01*
X83285714Y-80662142D02*
X83333333Y-80709761D01*
X83476190Y-80757380D01*
X83571428Y-80757380D01*
X83714285Y-80709761D01*
X83809523Y-80614523D01*
X83857142Y-80519285D01*
X83904761Y-80328809D01*
X83904761Y-80185952D01*
X83857142Y-79995476D01*
X83809523Y-79900238D01*
X83714285Y-79805000D01*
X83571428Y-79757380D01*
X83476190Y-79757380D01*
X83333333Y-79805000D01*
X83285714Y-79852619D01*
X82857142Y-80233571D02*
X82523809Y-80233571D01*
X82380952Y-80757380D02*
X82857142Y-80757380D01*
X82857142Y-79757380D01*
X82380952Y-79757380D01*
X81190476Y-80757380D02*
X81190476Y-79757380D01*
X80857142Y-80471666D01*
X80523809Y-79757380D01*
X80523809Y-80757380D01*
X79857142Y-79757380D02*
X79666666Y-79757380D01*
X79571428Y-79805000D01*
X79476190Y-79900238D01*
X79428571Y-80090714D01*
X79428571Y-80424047D01*
X79476190Y-80614523D01*
X79571428Y-80709761D01*
X79666666Y-80757380D01*
X79857142Y-80757380D01*
X79952380Y-80709761D01*
X80047619Y-80614523D01*
X80095238Y-80424047D01*
X80095238Y-80090714D01*
X80047619Y-79900238D01*
X79952380Y-79805000D01*
X79857142Y-79757380D01*
X79000000Y-79757380D02*
X79000000Y-80566904D01*
X78952380Y-80662142D01*
X78904761Y-80709761D01*
X78809523Y-80757380D01*
X78619047Y-80757380D01*
X78523809Y-80709761D01*
X78476190Y-80662142D01*
X78428571Y-80566904D01*
X78428571Y-79757380D01*
X77952380Y-80757380D02*
X77952380Y-79757380D01*
X77380952Y-80757380D01*
X77380952Y-79757380D01*
X77047619Y-79757380D02*
X76476190Y-79757380D01*
X76761904Y-80757380D02*
X76761904Y-79757380D01*
X74904761Y-80757380D02*
X75380952Y-80757380D01*
X75380952Y-79757380D01*
X74571428Y-80233571D02*
X74238095Y-80233571D01*
X74095238Y-80757380D02*
X74571428Y-80757380D01*
X74571428Y-79757380D01*
X74095238Y-79757380D01*
X73666666Y-80757380D02*
X73666666Y-79757380D01*
X73428571Y-79757380D01*
X73285714Y-79805000D01*
X73190476Y-79900238D01*
X73142857Y-79995476D01*
X73095238Y-80185952D01*
X73095238Y-80328809D01*
X73142857Y-80519285D01*
X73190476Y-80614523D01*
X73285714Y-80709761D01*
X73428571Y-80757380D01*
X73666666Y-80757380D01*
X72714285Y-80709761D02*
X72571428Y-80757380D01*
X72333333Y-80757380D01*
X72238095Y-80709761D01*
X72190476Y-80662142D01*
X72142857Y-80566904D01*
X72142857Y-80471666D01*
X72190476Y-80376428D01*
X72238095Y-80328809D01*
X72333333Y-80281190D01*
X72523809Y-80233571D01*
X72619047Y-80185952D01*
X72666666Y-80138333D01*
X72714285Y-80043095D01*
X72714285Y-79947857D01*
X72666666Y-79852619D01*
X72619047Y-79805000D01*
X72523809Y-79757380D01*
X72285714Y-79757380D01*
X72142857Y-79805000D01*
X71714285Y-80662142D02*
X71666666Y-80709761D01*
X71714285Y-80757380D01*
X71761904Y-80709761D01*
X71714285Y-80662142D01*
X71714285Y-80757380D01*
X71714285Y-80138333D02*
X71666666Y-80185952D01*
X71714285Y-80233571D01*
X71761904Y-80185952D01*
X71714285Y-80138333D01*
X71714285Y-80233571D01*
X70523809Y-80709761D02*
X70380952Y-80757380D01*
X70142857Y-80757380D01*
X70047619Y-80709761D01*
X70000000Y-80662142D01*
X69952380Y-80566904D01*
X69952380Y-80471666D01*
X70000000Y-80376428D01*
X70047619Y-80328809D01*
X70142857Y-80281190D01*
X70333333Y-80233571D01*
X70428571Y-80185952D01*
X70476190Y-80138333D01*
X70523809Y-80043095D01*
X70523809Y-79947857D01*
X70476190Y-79852619D01*
X70428571Y-79805000D01*
X70333333Y-79757380D01*
X70095238Y-79757380D01*
X69952380Y-79805000D01*
X69523809Y-80757380D02*
X69523809Y-79757380D01*
X69047619Y-80757380D02*
X69047619Y-79757380D01*
X68809523Y-79757380D01*
X68666666Y-79805000D01*
X68571428Y-79900238D01*
X68523809Y-79995476D01*
X68476190Y-80185952D01*
X68476190Y-80328809D01*
X68523809Y-80519285D01*
X68571428Y-80614523D01*
X68666666Y-80709761D01*
X68809523Y-80757380D01*
X69047619Y-80757380D01*
X68047619Y-80233571D02*
X67714285Y-80233571D01*
X67571428Y-80757380D02*
X68047619Y-80757380D01*
X68047619Y-79757380D01*
X67571428Y-79757380D01*
X66476190Y-79757380D02*
X66238095Y-80757380D01*
X66047619Y-80043095D01*
X65857142Y-80757380D01*
X65619047Y-79757380D01*
X65238095Y-80757380D02*
X65238095Y-79757380D01*
X64904761Y-79757380D02*
X64333333Y-79757380D01*
X64619047Y-80757380D02*
X64619047Y-79757380D01*
X64000000Y-80757380D02*
X64000000Y-79757380D01*
X64000000Y-80233571D02*
X63428571Y-80233571D01*
X63428571Y-80757380D02*
X63428571Y-79757380D01*
X90119047Y-82319761D02*
X89976190Y-82367380D01*
X89738095Y-82367380D01*
X89642857Y-82319761D01*
X89595238Y-82272142D01*
X89547619Y-82176904D01*
X89547619Y-82081666D01*
X89595238Y-81986428D01*
X89642857Y-81938809D01*
X89738095Y-81891190D01*
X89928571Y-81843571D01*
X90023809Y-81795952D01*
X90071428Y-81748333D01*
X90119047Y-81653095D01*
X90119047Y-81557857D01*
X90071428Y-81462619D01*
X90023809Y-81415000D01*
X89928571Y-81367380D01*
X89690476Y-81367380D01*
X89547619Y-81415000D01*
X89119047Y-82367380D02*
X89119047Y-81367380D01*
X88166666Y-82367380D02*
X88642857Y-82367380D01*
X88642857Y-81367380D01*
X87833333Y-82367380D02*
X87833333Y-81367380D01*
X87261904Y-82367380D02*
X87690476Y-81795952D01*
X87261904Y-81367380D02*
X87833333Y-81938809D01*
X86880952Y-82319761D02*
X86738095Y-82367380D01*
X86500000Y-82367380D01*
X86404761Y-82319761D01*
X86357142Y-82272142D01*
X86309523Y-82176904D01*
X86309523Y-82081666D01*
X86357142Y-81986428D01*
X86404761Y-81938809D01*
X86500000Y-81891190D01*
X86690476Y-81843571D01*
X86785714Y-81795952D01*
X86833333Y-81748333D01*
X86880952Y-81653095D01*
X86880952Y-81557857D01*
X86833333Y-81462619D01*
X86785714Y-81415000D01*
X86690476Y-81367380D01*
X86452380Y-81367380D01*
X86309523Y-81415000D01*
X85309523Y-82272142D02*
X85357142Y-82319761D01*
X85500000Y-82367380D01*
X85595238Y-82367380D01*
X85738095Y-82319761D01*
X85833333Y-82224523D01*
X85880952Y-82129285D01*
X85928571Y-81938809D01*
X85928571Y-81795952D01*
X85880952Y-81605476D01*
X85833333Y-81510238D01*
X85738095Y-81415000D01*
X85595238Y-81367380D01*
X85500000Y-81367380D01*
X85357142Y-81415000D01*
X85309523Y-81462619D01*
X84309523Y-82367380D02*
X84642857Y-81891190D01*
X84880952Y-82367380D02*
X84880952Y-81367380D01*
X84500000Y-81367380D01*
X84404761Y-81415000D01*
X84357142Y-81462619D01*
X84309523Y-81557857D01*
X84309523Y-81700714D01*
X84357142Y-81795952D01*
X84404761Y-81843571D01*
X84500000Y-81891190D01*
X84880952Y-81891190D01*
X83880952Y-81843571D02*
X83547619Y-81843571D01*
X83404761Y-82367380D02*
X83880952Y-82367380D01*
X83880952Y-81367380D01*
X83404761Y-81367380D01*
X82976190Y-81843571D02*
X82642857Y-81843571D01*
X82500000Y-82367380D02*
X82976190Y-82367380D01*
X82976190Y-81367380D01*
X82500000Y-81367380D01*
X82071428Y-82367380D02*
X82071428Y-81367380D01*
X81500000Y-82367380D01*
X81500000Y-81367380D01*
X79785714Y-82367380D02*
X80261904Y-82367380D01*
X80261904Y-81367380D01*
X79452380Y-82367380D02*
X79452380Y-81367380D01*
X78976190Y-82367380D02*
X78976190Y-81367380D01*
X78404761Y-82367380D01*
X78404761Y-81367380D01*
X77928571Y-81843571D02*
X77595238Y-81843571D01*
X77452380Y-82367380D02*
X77928571Y-82367380D01*
X77928571Y-81367380D01*
X77452380Y-81367380D01*
X77071428Y-82319761D02*
X76928571Y-82367380D01*
X76690476Y-82367380D01*
X76595238Y-82319761D01*
X76547619Y-82272142D01*
X76500000Y-82176904D01*
X76500000Y-82081666D01*
X76547619Y-81986428D01*
X76595238Y-81938809D01*
X76690476Y-81891190D01*
X76880952Y-81843571D01*
X76976190Y-81795952D01*
X77023809Y-81748333D01*
X77071428Y-81653095D01*
X77071428Y-81557857D01*
X77023809Y-81462619D01*
X76976190Y-81415000D01*
X76880952Y-81367380D01*
X76642857Y-81367380D01*
X76500000Y-81415000D01*
X75309523Y-82367380D02*
X75309523Y-81367380D01*
X74880952Y-82319761D02*
X74738095Y-82367380D01*
X74500000Y-82367380D01*
X74404761Y-82319761D01*
X74357142Y-82272142D01*
X74309523Y-82176904D01*
X74309523Y-82081666D01*
X74357142Y-81986428D01*
X74404761Y-81938809D01*
X74500000Y-81891190D01*
X74690476Y-81843571D01*
X74785714Y-81795952D01*
X74833333Y-81748333D01*
X74880952Y-81653095D01*
X74880952Y-81557857D01*
X74833333Y-81462619D01*
X74785714Y-81415000D01*
X74690476Y-81367380D01*
X74452380Y-81367380D01*
X74309523Y-81415000D01*
X72547619Y-82272142D02*
X72595238Y-82319761D01*
X72738095Y-82367380D01*
X72833333Y-82367380D01*
X72976190Y-82319761D01*
X73071428Y-82224523D01*
X73119047Y-82129285D01*
X73166666Y-81938809D01*
X73166666Y-81795952D01*
X73119047Y-81605476D01*
X73071428Y-81510238D01*
X72976190Y-81415000D01*
X72833333Y-81367380D01*
X72738095Y-81367380D01*
X72595238Y-81415000D01*
X72547619Y-81462619D01*
X72166666Y-82081666D02*
X71690476Y-82081666D01*
X72261904Y-82367380D02*
X71928571Y-81367380D01*
X71595238Y-82367380D01*
X71404761Y-81367380D02*
X70833333Y-81367380D01*
X71119047Y-82367380D02*
X71119047Y-81367380D01*
X70500000Y-82367380D02*
X70500000Y-81367380D01*
X70500000Y-81843571D02*
X69928571Y-81843571D01*
X69928571Y-82367380D02*
X69928571Y-81367380D01*
X69261904Y-81367380D02*
X69071428Y-81367380D01*
X68976190Y-81415000D01*
X68880952Y-81510238D01*
X68833333Y-81700714D01*
X68833333Y-82034047D01*
X68880952Y-82224523D01*
X68976190Y-82319761D01*
X69071428Y-82367380D01*
X69261904Y-82367380D01*
X69357142Y-82319761D01*
X69452380Y-82224523D01*
X69500000Y-82034047D01*
X69500000Y-81700714D01*
X69452380Y-81510238D01*
X69357142Y-81415000D01*
X69261904Y-81367380D01*
X68404761Y-82367380D02*
X68404761Y-81367380D01*
X68166666Y-81367380D01*
X68023809Y-81415000D01*
X67928571Y-81510238D01*
X67880952Y-81605476D01*
X67833333Y-81795952D01*
X67833333Y-81938809D01*
X67880952Y-82129285D01*
X67928571Y-82224523D01*
X68023809Y-82319761D01*
X68166666Y-82367380D01*
X68404761Y-82367380D01*
X67404761Y-81843571D02*
X67071428Y-81843571D01*
X66928571Y-82367380D02*
X67404761Y-82367380D01*
X67404761Y-81367380D01*
X66928571Y-81367380D01*
X65452380Y-82748333D02*
X65500000Y-82700714D01*
X65595238Y-82557857D01*
X65642857Y-82462619D01*
X65690476Y-82319761D01*
X65738095Y-82081666D01*
X65738095Y-81891190D01*
X65690476Y-81653095D01*
X65642857Y-81510238D01*
X65595238Y-81415000D01*
X65500000Y-81272142D01*
X65452380Y-81224523D01*
X65071428Y-82367380D02*
X65071428Y-81367380D01*
X64500000Y-82367380D01*
X64500000Y-81367380D01*
X64023809Y-81843571D02*
X63690476Y-81843571D01*
X63547619Y-82367380D02*
X64023809Y-82367380D01*
X64023809Y-81367380D01*
X63547619Y-81367380D01*
X62595238Y-81415000D02*
X62690476Y-81367380D01*
X62833333Y-81367380D01*
X62976190Y-81415000D01*
X63071428Y-81510238D01*
X63119047Y-81605476D01*
X63166666Y-81795952D01*
X63166666Y-81938809D01*
X63119047Y-82129285D01*
X63071428Y-82224523D01*
X62976190Y-82319761D01*
X62833333Y-82367380D01*
X62738095Y-82367380D01*
X62595238Y-82319761D01*
X62547619Y-82272142D01*
X62547619Y-81938809D01*
X62738095Y-81938809D01*
X62214285Y-82748333D02*
X62166666Y-82700714D01*
X62071428Y-82557857D01*
X62023809Y-82462619D01*
X61976190Y-82319761D01*
X61928571Y-82081666D01*
X61928571Y-81891190D01*
X61976190Y-81653095D01*
X62023809Y-81510238D01*
X62071428Y-81415000D01*
X62166666Y-81272142D01*
X62214285Y-81224523D01*
D11*
%TO.C,J2*%
X87890000Y-116993200D02*
X87890000Y-115943200D01*
X87690000Y-130843200D02*
X87690000Y-116143200D01*
X78490000Y-130843200D02*
X87690000Y-130843200D01*
X78490000Y-116143200D02*
X78490000Y-118043200D01*
X81190000Y-116143200D02*
X78490000Y-116143200D01*
X78490000Y-122043200D02*
X78490000Y-130843200D01*
X87690000Y-116143200D02*
X85090000Y-116143200D01*
X86840000Y-115943200D02*
X87890000Y-115943200D01*
%TD*%
%LPC*%
D12*
%TO.C,D18*%
X54200000Y-31200000D03*
D13*
X54200000Y-28660000D03*
%TD*%
D14*
%TO.C,J1*%
X69374000Y-117094000D03*
D15*
X69374000Y-123094000D03*
D16*
X74074000Y-120094000D03*
%TD*%
D12*
%TO.C,D3*%
X122200000Y-101200000D03*
D13*
X119660000Y-101200000D03*
%TD*%
D17*
%TO.C,H2*%
X87500000Y-70000000D03*
%TD*%
D12*
%TO.C,D9*%
X108336000Y-93384000D03*
D13*
X105796000Y-93384000D03*
%TD*%
D12*
%TO.C,D45*%
X66224500Y-91827000D03*
D13*
X66224500Y-89287000D03*
%TD*%
D18*
%TO.C,H11*%
X30000000Y-120000000D03*
%TD*%
D12*
%TO.C,D39*%
X46860000Y-101110000D03*
D13*
X44320000Y-101110000D03*
%TD*%
D19*
%TO.C,J3*%
X56166000Y-122428000D03*
D20*
X61246000Y-122428000D03*
%TD*%
D12*
%TO.C,D36*%
X105941000Y-72898000D03*
D13*
X108481000Y-72898000D03*
%TD*%
D18*
%TO.C,H12*%
X44000000Y-109000000D03*
%TD*%
D12*
%TO.C,D33*%
X28885000Y-109425000D03*
D13*
X31425000Y-109425000D03*
%TD*%
D21*
%TO.C,R9*%
X59468000Y-101600000D03*
D22*
X59468000Y-93980000D03*
%TD*%
D21*
%TO.C,R10*%
X75978000Y-103124000D03*
D22*
X75978000Y-95504000D03*
%TD*%
D21*
%TO.C,R12*%
X49900000Y-106800000D03*
D22*
X49900000Y-114420000D03*
%TD*%
D17*
%TO.C,H3*%
X58000000Y-106330000D03*
%TD*%
D18*
%TO.C,H1*%
X105000000Y-48000000D03*
%TD*%
D17*
%TO.C,H10*%
X94500000Y-106500000D03*
%TD*%
D12*
%TO.C,D27*%
X87000000Y-62230000D03*
D13*
X87000000Y-64770000D03*
%TD*%
D18*
%TO.C,H9*%
X44000000Y-48000000D03*
%TD*%
D12*
%TO.C,D6*%
X46500000Y-65500000D03*
D13*
X43960000Y-65500000D03*
%TD*%
D12*
%TO.C,D12*%
X59722000Y-82042000D03*
D13*
X57182000Y-82042000D03*
%TD*%
D12*
%TO.C,D15*%
X86138000Y-92770000D03*
D13*
X86138000Y-95310000D03*
%TD*%
D21*
%TO.C,R6*%
X111400000Y-114300000D03*
D22*
X111400000Y-106680000D03*
%TD*%
D12*
%TO.C,D51*%
X96908000Y-31665000D03*
D13*
X96908000Y-29125000D03*
%TD*%
D18*
%TO.C,H4*%
X30000000Y-30000000D03*
%TD*%
D12*
%TO.C,D21*%
X64262000Y-48260000D03*
D13*
X64262000Y-50800000D03*
%TD*%
D18*
%TO.C,H7*%
X105000000Y-109000000D03*
%TD*%
D12*
%TO.C,D54*%
X121862000Y-66664500D03*
D13*
X119322000Y-66664500D03*
%TD*%
D12*
%TO.C,D42*%
X93250000Y-80860000D03*
D13*
X95790000Y-80860000D03*
%TD*%
D19*
%TO.C,SW1*%
X90964000Y-122174000D03*
D20*
X96044000Y-122174000D03*
%TD*%
D12*
%TO.C,D30*%
X69000000Y-62500000D03*
D13*
X69000000Y-65040000D03*
%TD*%
D18*
%TO.C,H5*%
X120000000Y-120000000D03*
%TD*%
D21*
%TO.C,R7*%
X72422000Y-104140000D03*
D22*
X64802000Y-104140000D03*
%TD*%
D21*
%TO.C,R8*%
X76486000Y-113792000D03*
D22*
X76486000Y-106172000D03*
%TD*%
D18*
%TO.C,H6*%
X121000000Y-30000000D03*
%TD*%
D12*
%TO.C,D48*%
X29450000Y-62050000D03*
D13*
X31990000Y-62050000D03*
%TD*%
D17*
%TO.C,H8*%
X65000000Y-70000000D03*
%TD*%
D12*
%TO.C,D24*%
X87884000Y-50800000D03*
D13*
X87884000Y-48260000D03*
%TD*%
D14*
%TO.C,J2*%
X83090000Y-117043200D03*
D15*
X83090000Y-123043200D03*
D16*
X78390000Y-120043200D03*
%TD*%
M02*
